<svg width="80" height="80" viewBox="0 0 80 80" fill="none" xmlns="http://www.w3.org/2000/svg">
<path d="M39.9998 73.3334C21.5898 73.3334 6.6665 58.4101 6.6665 40.0001C6.6665 21.5901 21.5898 6.66675 39.9998 6.66675C58.4098 6.66675 73.3332 21.5901 73.3332 40.0001C73.3332 58.4101 58.4098 73.3334 39.9998 73.3334ZM39.9998 66.6668C47.0723 66.6668 53.8551 63.8572 58.856 58.8563C63.857 53.8553 66.6665 47.0725 66.6665 40.0001C66.6665 32.9276 63.857 26.1449 58.856 21.1439C53.8551 16.1429 47.0723 13.3334 39.9998 13.3334C32.9274 13.3334 26.1446 16.1429 21.1437 21.1439C16.1427 26.1449 13.3332 32.9276 13.3332 40.0001C13.3332 47.0725 16.1427 53.8553 21.1437 58.8563C26.1446 63.8572 32.9274 66.6668 39.9998 66.6668ZM36.6665 50.0001H43.3332V56.6668H36.6665V50.0001ZM36.6665 23.3334H43.3332V43.3334H36.6665V23.3334Z" fill="#131336"/>
</svg>
