<svg width="72" height="73" viewBox="0 0 72 73" fill="none" xmlns="http://www.w3.org/2000/svg">
<path d="M36 45.3164C47.598 45.3164 57 35.9144 57 24.3164C57 12.7184 47.598 3.31641 36 3.31641C24.402 3.31641 15 12.7184 15 24.3164C15 35.9144 24.402 45.3164 36 45.3164Z" stroke="#00B29E" stroke-width="2" stroke-linecap="round" stroke-linejoin="round"/>
<path d="M24.63 41.9861L21 69.3161L36 60.3161L51 69.3161L47.37 41.9561" stroke="#00B29E" stroke-width="2" stroke-linecap="round" stroke-linejoin="round"/>
<g clip-path="url(#clip0_3806_31651)">
<path d="M38.3898 18.4691C39.9062 18.4691 41.1356 17.2397 41.1356 15.7233C41.1356 14.2069 39.9062 12.9775 38.3898 12.9775C36.8734 12.9775 35.644 14.2069 35.644 15.7233C35.644 17.2397 36.8734 18.4691 38.3898 18.4691Z" stroke="#00B29E" stroke-width="2" stroke-linecap="round" stroke-linejoin="round"/>
<path d="M27.4067 20.9346C27.4067 20.9346 31.0678 17.5537 36.5593 21.8498C42.3332 26.3668 45.7118 24.5956 45.7118 24.5956" stroke="#00B29E" stroke-width="2" stroke-linecap="round" stroke-linejoin="round"/>
<path d="M36.4537 21.7678C35.9569 24.1023 32.6191 32.9935 24.6611 32.1977" stroke="#00B29E" stroke-width="2" stroke-linecap="round" stroke-linejoin="round"/>
<path d="M33.6584 27.7544C35.6977 28.1901 41.1356 29.9098 41.1356 35.859" stroke="#00B29E" stroke-width="2" stroke-linecap="round" stroke-linejoin="round"/>
</g>
<defs>
<clipPath id="clip0_3806_31651">
<rect width="29.2881" height="29.2881" fill="white" transform="translate(21 9.31641)"/>
</clipPath>
</defs>
</svg>
