<svg width="40" height="40" viewBox="0 0 40 40" fill="none" xmlns="http://www.w3.org/2000/svg">
<rect width="39.8837" height="40" rx="4" fill="#0C72E0"/>
<path d="M23.6812 14.375H27.4203" stroke="white" stroke-width="2" stroke-linecap="round" stroke-linejoin="round"/>
<path d="M25.5508 12.5V16.25" stroke="white" stroke-width="2" stroke-linecap="round" stroke-linejoin="round"/>
<path d="M12.3853 26.8743C13.1514 25.5442 14.2531 24.4398 15.5796 23.672C16.9061 22.9042 18.4107 22.5 19.9423 22.5C21.4739 22.5 22.9785 22.9043 24.305 23.6721C25.6314 24.44 26.7331 25.5444 27.4992 26.8744" stroke="white" stroke-width="2" stroke-linecap="round" stroke-linejoin="round"/>
<path d="M24.6199 19.233C24.2866 20.1354 23.7007 20.9221 22.9324 21.4987C22.1642 22.0752 21.2463 22.417 20.289 22.483C19.3318 22.549 18.3759 22.3364 17.5362 21.8708C16.6965 21.4052 16.0087 20.7063 15.5554 19.8581C15.1021 19.01 14.9027 18.0486 14.981 17.0895C15.0593 16.1304 15.4121 15.2144 15.9969 14.4515C16.5817 13.6886 17.3737 13.1112 18.2778 12.7888C19.1818 12.4664 20.1595 12.4126 21.0932 12.634" stroke="white" stroke-width="2" stroke-linecap="round" stroke-linejoin="round"/>
</svg>
