<svg width="38" height="38" viewBox="0 0 38 38" fill="none" xmlns="http://www.w3.org/2000/svg">
<rect width="38" height="38" rx="19" fill="#F4F5FC"/>
<g clip-path="url(#clip0_697_18472)">
<path d="M20.5 20.689V22.2565C19.8212 22.0165 19.0947 21.9429 18.3816 22.0418C17.6684 22.1408 16.9894 22.4094 16.4016 22.8252C15.8137 23.2409 15.3343 23.7916 15.0034 24.4311C14.6725 25.0705 14.4999 25.78 14.5 26.5L13 26.4993C12.9998 25.5834 13.2092 24.6797 13.6122 23.8573C14.0153 23.0349 14.6012 22.3157 15.3252 21.7548C16.0491 21.1939 16.8919 20.8061 17.7889 20.6212C18.6858 20.4364 19.6132 20.4593 20.5 20.6883V20.689ZM19 19.75C16.5138 19.75 14.5 17.7362 14.5 15.25C14.5 12.7638 16.5138 10.75 19 10.75C21.4862 10.75 23.5 12.7638 23.5 15.25C23.5 17.7362 21.4862 19.75 19 19.75ZM19 18.25C20.6575 18.25 22 16.9075 22 15.25C22 13.5925 20.6575 12.25 19 12.25C17.3425 12.25 16 13.5925 16 15.25C16 16.9075 17.3425 18.25 19 18.25ZM23.5 22.75V20.5H25V22.75H27.25V24.25H25V26.5H23.5V24.25H21.25V22.75H23.5Z" fill="#131336"/>
</g>
<defs>
<clipPath id="clip0_697_18472">
<rect width="18" height="18" fill="white" transform="translate(10 10)"/>
</clipPath>
</defs>
</svg>
