<svg width="32" height="32" viewBox="0 0 32 32" fill="none" xmlns="http://www.w3.org/2000/svg">
<path d="M14 22.6668H5.33335V20.0001H14C14.8517 20.0004 15.687 20.2338 16.4155 20.6749C17.1441 21.1161 17.738 21.7481 18.1329 22.5027C18.5278 23.2572 18.7088 24.1055 18.6561 24.9555C18.6034 25.8056 18.3191 26.625 17.834 27.325C17.3489 28.0249 16.6814 28.5788 15.904 28.9266C15.1266 29.2744 14.2688 29.4028 13.4236 29.2979C12.5785 29.193 11.7781 28.8589 11.1093 28.3316C10.4404 27.8044 9.92865 27.1041 9.62935 26.3068L12.1267 25.3695C12.2549 25.7112 12.4742 26.0113 12.7609 26.2373C13.0475 26.4633 13.3905 26.6066 13.7527 26.6515C14.1149 26.6965 14.4825 26.6415 14.8157 26.4925C15.1489 26.3435 15.435 26.1061 15.6429 25.8061C15.8509 25.5061 15.9727 25.155 15.9953 24.7907C16.018 24.4264 15.9404 24.0628 15.7712 23.7394C15.602 23.416 15.3474 23.1451 15.0352 22.956C14.723 22.767 14.365 22.6669 14 22.6668ZM6.66669 14.6668H24.6667C25.5184 14.6671 26.3537 14.9004 27.0822 15.3416C27.8107 15.7827 28.4046 16.4148 28.7996 17.1694C29.1945 17.9239 29.3754 18.7722 29.3228 19.6222C29.2701 20.4722 28.9857 21.2916 28.5006 21.9916C28.0155 22.6916 27.3481 23.2455 26.5707 23.5933C25.7933 23.9411 24.9355 24.0695 24.0903 23.9646C23.2451 23.8597 22.4448 23.5255 21.7759 22.9983C21.1071 22.471 20.5953 21.7708 20.296 20.9734L22.7934 20.0361C22.9216 20.3778 23.1409 20.678 23.4275 20.904C23.7141 21.13 24.0572 21.2732 24.4194 21.3182C24.7816 21.3632 25.1492 21.3082 25.4824 21.1592C25.8156 21.0101 26.1017 20.7728 26.3096 20.4728C26.5175 20.1728 26.6394 19.8216 26.662 19.4573C26.6846 19.093 26.6071 18.7295 26.4379 18.4061C26.2686 18.0827 26.0141 17.8118 25.7019 17.6227C25.3897 17.4336 25.0317 17.3336 24.6667 17.3334H6.66669C5.60582 17.3334 4.58841 16.912 3.83826 16.1619C3.08811 15.4117 2.66669 14.3943 2.66669 13.3334C2.66669 12.2726 3.08811 11.2552 3.83826 10.505C4.58841 9.75488 5.60582 9.33345 6.66669 9.33345H18C18.365 9.3333 18.723 9.23326 19.0352 9.04418C19.3474 8.8551 19.602 8.58419 19.7712 8.26079C19.9404 7.9374 20.018 7.57386 19.9953 7.20956C19.9727 6.84525 19.8509 6.49409 19.6429 6.1941C19.435 5.89412 19.1489 5.65675 18.8157 5.50773C18.4825 5.35871 18.1149 5.30371 17.7527 5.3487C17.3905 5.39368 17.0475 5.53693 16.7609 5.76293C16.4742 5.98893 16.2549 6.28905 16.1267 6.63078L13.6294 5.69478C14.014 4.67186 14.7453 3.8163 15.6959 3.2772C16.6466 2.73809 17.7562 2.5496 18.8315 2.74458C19.9068 2.93956 20.8797 3.50564 21.5805 4.34419C22.2813 5.18274 22.6657 6.2406 22.6667 7.33345C22.6667 8.57113 22.175 9.75811 21.2999 10.6333C20.4247 11.5085 19.2377 12.0001 18 12.0001H6.66669C6.31307 12.0001 5.97393 12.1406 5.72388 12.3906C5.47383 12.6407 5.33335 12.9798 5.33335 13.3334C5.33335 13.6871 5.47383 14.0262 5.72388 14.2763C5.97393 14.5263 6.31307 14.6668 6.66669 14.6668Z" fill="url(#paint0_linear_3597_1365)"/>
<defs>
<linearGradient id="paint0_linear_3597_1365" x1="29.3317" y1="28.3523" x2="-5.52631" y2="-10.1734" gradientUnits="userSpaceOnUse">
<stop stop-color="#1C89FF"/>
<stop offset="1" stop-color="#4CEEBE"/>
</linearGradient>
</defs>
</svg>
