<svg width="24" height="24" viewBox="0 0 24 24" fill="none" xmlns="http://www.w3.org/2000/svg">
<path d="M13.2899 8.71296C13.2899 8.1439 12.8008 8.07457 12.3392 8.07457L10.9824 8.06457V10.4695H11.5515V9.59871H12.1762C12.8145 9.59871 12.6796 9.95601 12.6896 10.4695H13.2655V10.001C13.2655 9.68179 13.2137 9.4769 12.8839 9.36259C13.1406 9.25828 13.2936 8.99093 13.2899 8.71296ZM12.2698 9.10524H11.5515V8.57429H12.2805C12.4572 8.57429 12.6515 8.60927 12.6515 8.83102C12.6515 9.06026 12.4679 9.10524 12.2698 9.10524ZM11.6902 12.211H9.8612L9.13224 13.0018L8.42076 12.211H6.11331L6.10956 14.6159H8.37954L9.1185 13.8176L9.82622 14.6159H10.9437L10.9475 13.8076C11.6033 13.8076 12.6584 13.9669 12.6584 12.9993C12.6584 12.399 12.2317 12.211 11.6902 12.211ZM8.08783 14.1093H6.67924V13.6302H7.93853V13.1411H6.67924V12.7076H8.12655L8.74745 13.4084L8.08783 14.1093ZM10.3715 14.3935L9.49328 13.4184L10.3715 12.4677V14.3935ZM11.6833 13.3179H10.9475V12.707H11.6933C11.8876 12.707 12.0475 12.7869 12.0475 12.9987C12.0475 13.2204 11.8876 13.3179 11.6833 13.3179ZM10.5864 8.57429V8.0677H8.66063V10.4726H10.5864V9.97662H9.23655V9.49752H10.5483V9.00842H9.23655V8.57491L10.5864 8.57429ZM15.2438 12.86C15.2438 12.2909 14.7547 12.211 14.3037 12.211H12.9363L12.9332 14.6159H13.5092L13.5129 13.7383H14.1238C14.5055 13.7383 14.6373 13.8076 14.6373 14.2167L14.6341 14.6159H15.2101L15.2138 14.1374C15.2138 13.8282 15.1514 13.6133 14.8322 13.499C15.0995 13.3916 15.2419 13.1242 15.245 12.8606L15.2438 12.86ZM14.2306 13.2485H13.5123V12.707H14.2412C14.418 12.707 14.6123 12.7419 14.6123 12.9637C14.6123 13.2029 14.4249 13.2485 14.2306 13.2485ZM8.23399 10.4726V8.0677H7.27641L6.59304 9.69865L5.83972 8.0677H4.89962V10.3477L3.92454 8.0677H3.0744L2.04373 10.4726H2.66463L2.887 9.94164H4.08445L4.3062 10.4726H5.47929V8.59178L6.31195 10.4726H6.81854L7.6512 8.59178V10.4726H8.23399ZM3.09064 9.44192L3.47917 8.48434L3.87832 9.44192H3.09064ZM19.6582 14.9557V14.7995C19.2834 14.9938 19.5226 14.9557 14.22 14.9557C14.22 14.0812 14.2237 14.1262 14.22 14.0812C14.1613 14.0774 14.1088 14.0774 13.8939 14.0774C13.8939 14.699 13.8902 14.3136 13.8902 14.9557H12.516C12.516 14.5359 12.5191 14.4247 12.5191 13.9425C12.1718 14.1505 11.7283 14.1643 11.3291 14.1574C11.3291 14.6677 11.3254 14.4454 11.3254 14.9557H9.62821C9.45143 14.7577 9.53451 14.8483 9.09351 14.3517C8.98232 14.4728 8.64938 14.8339 8.53507 14.9557H5.68917V11.7525H8.57318C8.74683 11.9468 8.67062 11.8599 9.111 12.3497C9.22219 12.2285 9.53451 11.8843 9.65569 11.7525H11.6683C12.0087 11.7525 12.293 11.8187 12.5116 11.9468V11.7525C14.3962 11.7525 14.7428 11.7038 15.1389 11.9293V11.7525H17.853V11.933C18.2484 11.6938 18.5332 11.7525 20.1048 11.7525V11.9262C20.4621 11.7213 20.6807 11.7456 21.9894 11.7525V5.66592C21.9892 5.22414 21.8136 4.8005 21.5013 4.48811C21.1889 4.17572 20.7652 4.00015 20.3234 3.99998H3.66594C3.22415 4.00015 2.80051 4.17572 2.48812 4.48811C2.17574 4.8005 2.00017 5.22414 2 5.66592V9.47628L2.80142 7.60546H4.1794C4.32869 7.95588 4.23499 7.73413 4.49172 8.33754V7.60546H6.08833C6.18889 7.82096 6.47373 8.43811 6.57055 8.64675C6.77169 8.17514 6.92098 7.81721 7.00781 7.60546H10.582C10.582 7.60233 10.9812 7.60546 10.9843 7.60546C12.501 7.61233 12.8445 7.57797 13.2193 7.7891V7.60546H14.6042V7.9284C14.8678 7.71664 15.2251 7.60546 15.6698 7.60546H16.6274C16.6274 7.62295 16.693 7.61608 16.7074 7.61608H17.8317C17.9773 7.95588 17.9223 7.82408 18.1372 8.3313V7.61608H19.6401C19.81 7.89342 19.6051 7.55361 20.0286 8.25447V7.61608H21.4135V10.8087H19.9699C19.7825 10.4963 19.9212 10.7324 19.5114 10.0485V10.8087H17.6793C17.4569 10.2952 17.6756 10.798 17.4501 10.2777H16.7904C16.6449 10.625 16.7142 10.4582 16.5687 10.8087H15.6386C15.2119 10.8087 14.8646 10.7043 14.6079 10.5001V10.8087H12.3005C12.2898 10.3264 12.2967 9.94789 12.2967 9.94789C12.2342 9.93789 12.1786 9.94102 11.9569 9.94102V10.8124H7.25454V10.417C7.16772 10.6113 7.16085 10.6219 7.07777 10.8124H6.05397C5.9153 10.5032 5.9534 10.59 5.87719 10.417V10.8124H4.04135C3.89518 10.462 3.96514 10.6288 3.81898 10.2815H3.15248C3.00693 10.6288 3.07627 10.462 2.93073 10.8124H2.0075V17.8816C2.00766 18.3233 2.18323 18.747 2.49562 19.0594C2.80801 19.3718 3.23165 19.5473 3.67343 19.5475H20.3341C20.7758 19.5473 21.1995 19.3718 21.5119 19.0594C21.8243 18.747 21.9998 18.3233 22 17.8816V14.7446C21.559 15.0325 20.865 14.9563 19.6576 14.9563L19.6582 14.9557ZM20.9175 12.7176H21.9619V12.211H20.82C20.3759 12.211 19.9943 12.4396 19.9943 12.9293C19.9943 14.0743 21.4759 13.3735 21.4759 13.8801C21.4759 14.0568 21.3266 14.1024 21.1842 14.1024H20.0736L20.0698 14.6159H21.1805C21.4722 14.6159 21.7914 14.5534 21.9613 14.3073V13.4122C21.5971 12.9331 20.5977 13.3672 20.5977 12.9437C20.5977 12.7426 20.7576 12.7182 20.9169 12.7182L20.9175 12.7176ZM18.9392 14.0987H17.8217L17.8186 14.6121H18.9361C19.4496 14.6121 19.8456 14.4179 19.8456 13.8488C19.8456 12.697 18.357 13.4603 18.357 12.9362C18.357 12.7419 18.527 12.7145 18.6762 12.7145H19.7313V12.2079H18.5794C18.1353 12.2079 17.7636 12.4371 17.7636 12.9262C17.7636 14.0712 19.2453 13.3597 19.2453 13.8769C19.2422 14.0643 19.0823 14.0987 18.9398 14.0987H18.9392ZM17.475 12.707V12.211H15.5592L15.5555 14.6159H17.4713L17.4744 14.1199L16.1352 14.1093V13.6302H17.4501V13.1411H16.1383V12.7076L17.475 12.707ZM15.5211 8.95595C15.5111 8.96282 15.4724 9.03215 15.4724 9.21955C15.4724 9.42756 15.5037 9.4869 15.5105 9.49377C15.5174 9.49689 15.5486 9.51126 15.6286 9.51126L15.8822 8.92471C15.8441 8.92471 15.8091 8.92159 15.7748 8.92159C15.5805 8.92159 15.5318 8.94533 15.5211 8.95595ZM15.6673 8.06395C14.8515 8.06395 14.4874 8.48059 14.4874 9.28888C14.4874 10.0597 14.8415 10.4688 15.6323 10.4688H16.2988L16.5206 9.93789H17.7112L17.9404 10.4688H19.1098V8.66798L20.1923 10.4688H21.0112V8.07457H20.4246V9.74363L19.4152 8.07457H18.5369V10.3439L17.5687 8.07457H16.708L15.8922 9.966H15.6355C15.1738 9.966 15.077 9.68491 15.077 9.27577C15.077 8.44998 15.6217 8.58116 16.2257 8.59178V8.0652L15.6673 8.06395ZM17.1284 8.48371L17.5169 9.4413H16.7261L17.1284 8.48371ZM13.6197 8.0677V10.4726H14.2063V8.0677H13.6197Z" fill="black"/>
</svg>
