<svg width="57" height="56" viewBox="0 0 57 56" fill="none" xmlns="http://www.w3.org/2000/svg">
<g filter="url(#filter0_d_5037_40186)">
<g clip-path="url(#clip0_5037_40186)">
<path d="M42 30C42 37.1797 36.1797 43 29 43L28 43C20.8203 43 15 37.1797 15 30C15 22.8203 20.8203 17 28 17L29 17C36.1797 17 42 22.8203 42 30Z" fill="white"/>
<path d="M29.8185 30.0002L24.2498 24.6377L25.8405 23.1059L33 30.0002L25.8405 36.8945L24.2498 35.3627L29.8185 30.0002Z" fill="#147AE9"/>
</g>
</g>
<defs>
<filter id="filter0_d_5037_40186" x="0" y="0" width="57" height="56" filterUnits="userSpaceOnUse" color-interpolation-filters="sRGB">
<feFlood flood-opacity="0" result="BackgroundImageFix"/>
<feColorMatrix in="SourceAlpha" type="matrix" values="0 0 0 0 0 0 0 0 0 0 0 0 0 0 0 0 0 0 127 0" result="hardAlpha"/>
<feOffset dy="-2"/>
<feGaussianBlur stdDeviation="7.5"/>
<feComposite in2="hardAlpha" operator="out"/>
<feColorMatrix type="matrix" values="0 0 0 0 0 0 0 0 0 0 0 0 0 0 0 0 0 0 0.25 0"/>
<feBlend mode="normal" in2="BackgroundImageFix" result="effect1_dropShadow_5037_40186"/>
<feBlend mode="normal" in="SourceGraphic" in2="effect1_dropShadow_5037_40186" result="shape"/>
</filter>
<clipPath id="clip0_5037_40186">
<path d="M42 30C42 37.1797 36.1797 43 29 43L28 43C20.8203 43 15 37.1797 15 30C15 22.8203 20.8203 17 28 17L29 17C36.1797 17 42 22.8203 42 30Z" fill="white"/>
</clipPath>
</defs>
</svg>
