<svg width="24" height="25" viewBox="0 0 24 25" fill="none" xmlns="http://www.w3.org/2000/svg">
<path d="M6.5 2.5H17.5C17.6552 2.5 17.8084 2.53614 17.9472 2.60557C18.0861 2.675 18.2069 2.7758 18.3 2.9L21 6.5V21.5C21 21.7652 20.8946 22.0196 20.7071 22.2071C20.5196 22.3946 20.2652 22.5 20 22.5H4C3.73478 22.5 3.48043 22.3946 3.29289 22.2071C3.10536 22.0196 3 21.7652 3 21.5V6.5L5.7 2.9C5.79315 2.7758 5.91393 2.675 6.05279 2.60557C6.19164 2.53614 6.34475 2.5 6.5 2.5ZM19 8.5H5V20.5H19V8.5ZM18.5 6.5L17 4.5H7L5.5 6.5H18.5ZM9 10.5V12.5C9 13.2956 9.31607 14.0587 9.87868 14.6213C10.4413 15.1839 11.2044 15.5 12 15.5C12.7956 15.5 13.5587 15.1839 14.1213 14.6213C14.6839 14.0587 15 13.2956 15 12.5V10.5H17V12.5C17 13.8261 16.4732 15.0979 15.5355 16.0355C14.5979 16.9732 13.3261 17.5 12 17.5C10.6739 17.5 9.40215 16.9732 8.46447 16.0355C7.52678 15.0979 7 13.8261 7 12.5V10.5H9Z" fill="#147AE9"/>
</svg>
