<svg width="21" height="21" viewBox="0 0 21 21" fill="none" xmlns="http://www.w3.org/2000/svg">
<mask id="path-1-inside-1_6332_37432" fill="white">
<path fill-rule="evenodd" clip-rule="evenodd" d="M4 0C1.79086 0 0 1.79086 0 4V16.75C0 18.9591 1.79086 20.75 4 20.75H16.75C18.9591 20.75 20.75 18.9591 20.75 16.75V4C20.75 1.79086 18.9591 0 16.75 0H4ZM15.3946 8.23494C15.7851 7.84441 15.7851 7.21125 15.3946 6.82073C15.0041 6.4302 14.3709 6.4302 13.9804 6.82073L8.99333 11.8078L6.76961 9.58407C6.37908 9.19355 5.74592 9.19355 5.35539 9.58407C4.96487 9.9746 4.96487 10.6078 5.35539 10.9983L8.28622 13.9291L8.99333 14.6362L9.70043 13.9291L15.3946 8.23494Z"/>
</mask>
<path fill-rule="evenodd" clip-rule="evenodd" d="M4 0C1.79086 0 0 1.79086 0 4V16.75C0 18.9591 1.79086 20.75 4 20.75H16.75C18.9591 20.75 20.75 18.9591 20.75 16.75V4C20.75 1.79086 18.9591 0 16.75 0H4ZM15.3946 8.23494C15.7851 7.84441 15.7851 7.21125 15.3946 6.82073C15.0041 6.4302 14.3709 6.4302 13.9804 6.82073L8.99333 11.8078L6.76961 9.58407C6.37908 9.19355 5.74592 9.19355 5.35539 9.58407C4.96487 9.9746 4.96487 10.6078 5.35539 10.9983L8.28622 13.9291L8.99333 14.6362L9.70043 13.9291L15.3946 8.23494Z" fill="#0C72E0"/>
<path d="M15.3946 6.82073L13.9804 8.23494L13.9804 8.23494L15.3946 6.82073ZM15.3946 8.23494L13.9804 6.82072L13.9804 6.82072L15.3946 8.23494ZM13.9804 6.82073L15.3946 8.23494L15.3946 8.23494L13.9804 6.82073ZM8.99333 11.8078L7.57911 13.222L8.99333 14.6362L10.4075 13.222L8.99333 11.8078ZM6.76961 9.58407L5.35539 10.9983L5.35539 10.9983L6.76961 9.58407ZM5.35539 9.58407L6.76961 10.9983L6.76961 10.9983L5.35539 9.58407ZM5.35539 10.9983L6.76961 9.58407L6.76961 9.58407L5.35539 10.9983ZM8.28622 13.9291L9.70043 12.5149L9.70043 12.5149L8.28622 13.9291ZM8.99333 14.6362L7.57911 16.0504L8.99333 17.4646L10.4075 16.0504L8.99333 14.6362ZM9.70043 13.9291L8.28622 12.5149L8.28622 12.5149L9.70043 13.9291ZM2 4C2 2.89543 2.89543 2 4 2V-2C0.686291 -2 -2 0.686291 -2 4H2ZM2 16.75V4H-2V16.75H2ZM4 18.75C2.89543 18.75 2 17.8546 2 16.75H-2C-2 20.0637 0.686291 22.75 4 22.75V18.75ZM16.75 18.75H4V22.75H16.75V18.75ZM18.75 16.75C18.75 17.8546 17.8546 18.75 16.75 18.75V22.75C20.0637 22.75 22.75 20.0637 22.75 16.75H18.75ZM18.75 4V16.75H22.75V4H18.75ZM16.75 2C17.8546 2 18.75 2.89543 18.75 4H22.75C22.75 0.686291 20.0637 -2 16.75 -2V2ZM4 2H16.75V-2H4V2ZM13.9804 8.23494C13.5899 7.84442 13.5899 7.21125 13.9804 6.82072L16.8088 9.64915C17.9804 8.47758 17.9804 6.57808 16.8088 5.40651L13.9804 8.23494ZM15.3946 8.23494C15.0041 8.62546 14.3709 8.62546 13.9804 8.23494L16.8088 5.40651C15.6372 4.23494 13.7378 4.23494 12.5662 5.40651L15.3946 8.23494ZM10.4075 13.222L15.3946 8.23494L12.5662 5.40651L7.57911 10.3936L10.4075 13.222ZM5.35539 10.9983L7.57911 13.222L10.4075 10.3936L8.18382 8.16986L5.35539 10.9983ZM6.76961 10.9983C6.37908 11.3888 5.74592 11.3888 5.35539 10.9983L8.18382 8.16986C7.01225 6.99829 5.11275 6.99829 3.94118 8.16986L6.76961 10.9983ZM6.76961 9.58407C7.16013 9.9746 7.16013 10.6078 6.76961 10.9983L3.94118 8.16986C2.76961 9.34143 2.76961 11.2409 3.94118 12.4125L6.76961 9.58407ZM9.70043 12.5149L6.76961 9.58407L3.94118 12.4125L6.872 15.3433L9.70043 12.5149ZM10.4075 13.222L9.70043 12.5149L6.872 15.3433L7.57911 16.0504L10.4075 13.222ZM8.28622 12.5149L7.57911 13.222L10.4075 16.0504L11.1146 15.3433L8.28622 12.5149ZM13.9804 6.82072L8.28622 12.5149L11.1146 15.3433L16.8088 9.64915L13.9804 6.82072Z" fill="#0C72E0" mask="url(#path-1-inside-1_6332_37432)"/>
</svg>
