<svg width="32" height="32" viewBox="0 0 32 32" fill="none" xmlns="http://www.w3.org/2000/svg">
<path d="M24.4853 14.6399C26.568 16.7213 26.568 20.0986 24.4853 22.1813L16.9426 29.7239C16.4226 30.2439 15.5773 30.2439 15.0573 29.7239L7.51464 22.1813C5.43197 20.0986 5.43197 16.7213 7.51464 14.6386C9.5973 12.5559 12.9746 12.5559 15.0573 14.6386L15.9986 15.5813L16.9426 14.6386C19.0253 12.5559 22.4026 12.5559 24.4853 14.6386V14.6399ZM9.39997 16.5226C8.35997 17.5639 8.35997 19.2533 9.39997 20.2946L16 26.8946L22.6 20.2946C23.64 19.2533 23.64 17.5639 22.6 16.5226C21.5586 15.4826 19.8693 15.4826 18.8266 16.5253L15.9973 19.3493L13.1706 16.5226C12.1306 15.4826 10.4413 15.4826 9.39997 16.5226ZM16 1.33325C18.9466 1.33325 21.3333 3.71992 21.3333 6.66659C21.3333 9.61325 18.9466 11.9999 16 11.9999C13.0533 11.9999 10.6666 9.61325 10.6666 6.66659C10.6666 3.71992 13.0533 1.33325 16 1.33325ZM16 3.99992C14.5266 3.99992 13.3333 5.19325 13.3333 6.66659C13.3333 8.13992 14.5266 9.33325 16 9.33325C17.4733 9.33325 18.6666 8.13992 18.6666 6.66659C18.6666 5.19325 17.4733 3.99992 16 3.99992Z" fill="url(#paint0_radial_3597_1362)"/>
<defs>
<radialGradient id="paint0_radial_3597_1362" cx="0" cy="0" r="1" gradientUnits="userSpaceOnUse" gradientTransform="translate(24.0132 27.0101) rotate(-122.712) scale(19.6181 30.6536)">
<stop stop-color="#F18164"/>
<stop offset="1" stop-color="#DB392C"/>
</radialGradient>
</defs>
</svg>
