<svg width="24" height="24" viewBox="0 0 24 24" fill="none" xmlns="http://www.w3.org/2000/svg">
<circle cx="12" cy="12" r="12" fill="white"/>
<circle cx="12" cy="12" r="10" fill="#0C72E0"/>
<g clip-path="url(#clip0_1301_28218)">
<path d="M16 12.5001C16 11.4393 15.5786 10.4218 14.8284 9.67169C14.7692 9.61244 14.7082 9.55523 14.6458 9.50012H16V12.5001ZM16 12.5001C16 13.561 15.5786 14.5784 14.8284 15.3285C14.7692 15.3878 14.7082 15.445 14.6458 15.5001H16V12.5001ZM8 12.5001C8 13.561 8.42143 14.5784 9.17157 15.3285C9.23083 15.3878 9.29176 15.445 9.35424 15.5001H8V12.5001ZM8 12.5001C8 11.4393 8.42143 10.4218 9.17157 9.67169C9.23083 9.61244 9.29176 9.55523 9.35424 9.50012H8V12.5001ZM12 8.50012C11.5518 8.50012 11.1113 8.57535 10.6955 8.7188L10.9142 8.50012H12ZM12 8.50012C12.4482 8.50012 12.8887 8.57535 13.3045 8.7188L13.0858 8.50012H12ZM12 13.5001C11.7348 13.5001 11.4804 13.3948 11.2929 13.2072C11.1054 13.0197 11 12.7653 11 12.5001C11 12.2349 11.1054 11.9806 11.2929 11.793C11.4804 11.6055 11.7348 11.5001 12 11.5001C12.2652 11.5001 12.5196 11.6055 12.7071 11.793C12.8946 11.9806 13 12.2349 13 12.5001C13 12.7653 12.8946 13.0197 12.7071 13.2072C12.5196 13.3948 12.2652 13.5001 12 13.5001Z" stroke="white" stroke-width="2"/>
</g>
<defs>
<clipPath id="clip0_1301_28218">
<rect width="12" height="12" fill="white" transform="translate(6 6)"/>
</clipPath>
</defs>
</svg>
