<svg width="32" height="22" viewBox="0 0 32 22" fill="none" xmlns="http://www.w3.org/2000/svg">
<path d="M2.12809 8.8644C2.67944 13.6491 9.31552 21.3706 18.0128 18.0354L18.0132 18.0347C16.5529 8.83509 6.54787 6.94881 2.1285 8.8637L2.12809 8.8644Z" fill="#6FA517"/>
<path d="M29.6415 8.8644C29.0902 13.6491 22.4541 21.3706 13.7568 18.0354L13.7564 18.0347C15.2167 8.83509 25.2217 6.94881 29.6411 8.8637L29.6415 8.8644Z" fill="#6FA517"/>
<path d="M6.71202 2.7325C4.79712 7.15188 6.6834 17.1569 15.8831 18.6172L15.8837 18.6168C19.2189 9.91952 11.4975 3.28344 6.71271 2.7321L6.71202 2.7325Z" fill="#80BB1F"/>
<path d="M25.0547 2.7325C26.9696 7.15188 25.0833 17.1569 15.8837 18.6172L15.883 18.6168C12.5478 9.91952 20.2693 3.28344 25.054 2.7321L25.0547 2.7325Z" fill="#80BB1F"/>
<path d="M15.8842 0.278809C12.0162 3.14865 8.64726 12.7564 15.8842 18.6209H15.885C23.122 12.7564 19.7531 3.14865 15.885 0.278809H15.8842Z" fill="#97DB28"/>
</svg>
