<svg width="39" height="36" viewBox="0 0 39 36" fill="none" xmlns="http://www.w3.org/2000/svg">
<path d="M33.25 21.75V27H38.5V30.5H33.25V35.75H29.75V30.5H24.5V27H29.75V21.75H33.25ZM33.264 0.75C34.223 0.75 35 1.52875 35 2.48775V18.25H31.5V4.25H3.5V28.7483L21 11.25L26.25 16.5V21.4508L21 16.2008L8.44725 28.75H21V32.25H1.736C1.27542 32.2495 0.833869 32.0662 0.508357 31.7404C0.182844 31.4146 -2.33547e-07 30.9728 0 30.5122V2.48775C0.00320258 2.02816 0.187075 1.58828 0.511898 1.26313C0.83672 0.937981 1.27642 0.753666 1.736 0.75H33.264ZM10.5 7.75C11.4283 7.75 12.3185 8.11875 12.9749 8.77513C13.6313 9.4315 14 10.3217 14 11.25C14 12.1783 13.6313 13.0685 12.9749 13.7249C12.3185 14.3813 11.4283 14.75 10.5 14.75C9.57174 14.75 8.6815 14.3813 8.02513 13.7249C7.36875 13.0685 7 12.1783 7 11.25C7 10.3217 7.36875 9.4315 8.02513 8.77513C8.6815 8.11875 9.57174 7.75 10.5 7.75Z" fill="white"/>
</svg>
