<svg width="25" height="24" viewBox="0 0 25 24" fill="none" xmlns="http://www.w3.org/2000/svg">
<path d="M12.0897 14.25C13.3416 14.25 14.3565 13.2426 14.3565 12C14.3565 10.7574 13.3416 9.75 12.0897 9.75C10.8378 9.75 9.82288 10.7574 9.82288 12C9.82288 13.2426 10.8378 14.25 12.0897 14.25Z" fill="#0C72E0" stroke="#0C72E0" stroke-width="1.75" stroke-miterlimit="10"/>
<path d="M4.53367 14.25C5.7856 14.25 6.80049 13.2426 6.80049 12C6.80049 10.7574 5.7856 9.75 4.53367 9.75C3.28174 9.75 2.26685 10.7574 2.26685 12C2.26685 13.2426 3.28174 14.25 4.53367 14.25Z" fill="#0C72E0" stroke="#0C72E0" stroke-width="1.75" stroke-miterlimit="10"/>
<path d="M19.6459 14.25C20.8978 14.25 21.9127 13.2426 21.9127 12C21.9127 10.7574 20.8978 9.75 19.6459 9.75C18.3939 9.75 17.379 10.7574 17.379 12C17.379 13.2426 18.3939 14.25 19.6459 14.25Z" fill="#0C72E0" stroke="#0C72E0" stroke-width="1.75" stroke-miterlimit="10"/>
</svg>
