<svg width="43" height="41" viewBox="0 0 43 41" fill="none" xmlns="http://www.w3.org/2000/svg">
<rect x="0.473633" y="0.441406" width="42" height="40" rx="8" fill="#0C72E0"/>
<path d="M16.5742 26.973L13.6181 29.4581C13.511 29.5481 13.3805 29.6056 13.2419 29.624C13.1032 29.6423 12.9622 29.6207 12.8354 29.5616C12.7087 29.5026 12.6014 29.4086 12.5262 29.2906C12.4511 29.1727 12.4111 29.0358 12.4111 28.8959V14.3164C12.4111 14.1216 12.4885 13.9348 12.6262 13.7971C12.7639 13.6594 12.9507 13.582 13.1455 13.582H29.3018C29.4965 13.582 29.6833 13.6594 29.821 13.7971C29.9588 13.9348 30.0361 14.1216 30.0361 14.3164V26.0664C30.0361 26.2612 29.9588 26.448 29.821 26.5857C29.6833 26.7234 29.4965 26.8008 29.3018 26.8008H17.0468C16.8739 26.8008 16.7065 26.8618 16.5742 26.973Z" stroke="white" stroke-width="1.46875" stroke-linecap="round" stroke-linejoin="round"/>
</svg>
