<svg width="18" height="18" viewBox="0 0 21 22" fill="none" xmlns="http://www.w3.org/2000/svg">
<mask id="path-1-inside-1_54_502" fill="white">
<path fill-rule="evenodd" clip-rule="evenodd" d="M4 0.625C1.79086 0.625 0 2.41586 0 4.625V17.375C0 19.5841 1.79086 21.375 4 21.375H16.75C18.9591 21.375 20.75 19.5841 20.75 17.375V4.625C20.75 2.41586 18.9591 0.625 16.75 0.625H4ZM15.3946 8.85994C15.7851 8.46941 15.7851 7.83625 15.3946 7.44573C15.0041 7.0552 14.3709 7.0552 13.9804 7.44573L8.99333 12.4328L6.76961 10.2091C6.37908 9.81855 5.74592 9.81855 5.35539 10.2091C4.96487 10.5996 4.96487 11.2328 5.35539 11.6233L8.28622 14.5541L8.99333 15.2612L9.70043 14.5541L15.3946 8.85994Z"/>
</mask>
<path fill-rule="evenodd" clip-rule="evenodd" d="M4 0.625C1.79086 0.625 0 2.41586 0 4.625V17.375C0 19.5841 1.79086 21.375 4 21.375H16.75C18.9591 21.375 20.75 19.5841 20.75 17.375V4.625C20.75 2.41586 18.9591 0.625 16.75 0.625H4ZM15.3946 8.85994C15.7851 8.46941 15.7851 7.83625 15.3946 7.44573C15.0041 7.0552 14.3709 7.0552 13.9804 7.44573L8.99333 12.4328L6.76961 10.2091C6.37908 9.81855 5.74592 9.81855 5.35539 10.2091C4.96487 10.5996 4.96487 11.2328 5.35539 11.6233L8.28622 14.5541L8.99333 15.2612L9.70043 14.5541L15.3946 8.85994Z" fill="#0C72E0"/>
<path d="M15.3946 7.44573L13.9804 8.85994L13.9804 8.85994L15.3946 7.44573ZM15.3946 8.85994L13.9804 7.44572L13.9804 7.44572L15.3946 8.85994ZM13.9804 7.44573L15.3946 8.85994L15.3946 8.85994L13.9804 7.44573ZM8.99333 12.4328L7.57911 13.847L8.99333 15.2612L10.4075 13.847L8.99333 12.4328ZM6.76961 10.2091L5.35539 11.6233L5.35539 11.6233L6.76961 10.2091ZM5.35539 10.2091L6.76961 11.6233L6.76961 11.6233L5.35539 10.2091ZM5.35539 11.6233L6.76961 10.2091L6.76961 10.2091L5.35539 11.6233ZM8.28622 14.5541L9.70043 13.1399L9.70043 13.1399L8.28622 14.5541ZM8.99333 15.2612L7.57911 16.6754L8.99333 18.0896L10.4075 16.6754L8.99333 15.2612ZM9.70043 14.5541L8.28622 13.1399L8.28622 13.1399L9.70043 14.5541ZM2 4.625C2 3.52043 2.89543 2.625 4 2.625V-1.375C0.686291 -1.375 -2 1.31129 -2 4.625H2ZM2 17.375V4.625H-2V17.375H2ZM4 19.375C2.89543 19.375 2 18.4796 2 17.375H-2C-2 20.6887 0.686291 23.375 4 23.375V19.375ZM16.75 19.375H4V23.375H16.75V19.375ZM18.75 17.375C18.75 18.4796 17.8546 19.375 16.75 19.375V23.375C20.0637 23.375 22.75 20.6887 22.75 17.375H18.75ZM18.75 4.625V17.375H22.75V4.625H18.75ZM16.75 2.625C17.8546 2.625 18.75 3.52043 18.75 4.625H22.75C22.75 1.31129 20.0637 -1.375 16.75 -1.375V2.625ZM4 2.625H16.75V-1.375H4V2.625ZM13.9804 8.85994C13.5899 8.46942 13.5899 7.83625 13.9804 7.44572L16.8088 10.2742C17.9804 9.10258 17.9804 7.20308 16.8088 6.03151L13.9804 8.85994ZM15.3946 8.85994C15.0041 9.25046 14.3709 9.25046 13.9804 8.85994L16.8088 6.03151C15.6372 4.85994 13.7378 4.85994 12.5662 6.03151L15.3946 8.85994ZM10.4075 13.847L15.3946 8.85994L12.5662 6.03151L7.57911 11.0186L10.4075 13.847ZM5.35539 11.6233L7.57911 13.847L10.4075 11.0186L8.18382 8.79486L5.35539 11.6233ZM6.76961 11.6233C6.37908 12.0138 5.74592 12.0138 5.35539 11.6233L8.18382 8.79486C7.01225 7.62329 5.11275 7.62329 3.94118 8.79486L6.76961 11.6233ZM6.76961 10.2091C7.16013 10.5996 7.16013 11.2328 6.76961 11.6233L3.94118 8.79486C2.76961 9.96643 2.76961 11.8659 3.94118 13.0375L6.76961 10.2091ZM9.70043 13.1399L6.76961 10.2091L3.94118 13.0375L6.872 15.9683L9.70043 13.1399ZM10.4075 13.847L9.70043 13.1399L6.872 15.9683L7.57911 16.6754L10.4075 13.847ZM8.28622 13.1399L7.57911 13.847L10.4075 16.6754L11.1146 15.9683L8.28622 13.1399ZM13.9804 7.44572L8.28622 13.1399L11.1146 15.9683L16.8088 10.2742L13.9804 7.44572Z" fill="#0C72E0" mask="url(#path-1-inside-1_54_502)"/>
</svg>
