<svg width="16" height="17" viewBox="0 0 16 17" fill="none" xmlns="http://www.w3.org/2000/svg">
<path d="M7.99998 15.1667C4.31798 15.1667 1.33331 12.182 1.33331 8.50004C1.33331 4.81804 4.31798 1.83337 7.99998 1.83337C11.682 1.83337 14.6666 4.81804 14.6666 8.50004C14.6666 12.182 11.682 15.1667 7.99998 15.1667ZM7.99998 13.8334C9.41447 13.8334 10.771 13.2715 11.7712 12.2713C12.7714 11.2711 13.3333 9.91453 13.3333 8.50004C13.3333 7.08555 12.7714 5.729 11.7712 4.7288C10.771 3.72861 9.41447 3.16671 7.99998 3.16671C6.58549 3.16671 5.22894 3.72861 4.22874 4.7288C3.22855 5.729 2.66665 7.08555 2.66665 8.50004C2.66665 9.91453 3.22855 11.2711 4.22874 12.2713C5.22894 13.2715 6.58549 13.8334 7.99998 13.8334ZM8.66665 8.50004H11.3333V9.83337H7.33331V5.16671H8.66665V8.50004Z" fill="#B8B8C3"/>
</svg>
