<svg width="24" height="24" viewBox="0 0 24 24" fill="none" xmlns="http://www.w3.org/2000/svg">
<path d="M17 21V19C17 17.9391 16.5786 16.9217 15.8284 16.1716C15.0783 15.4214 14.0609 15 13 15H5C3.93913 15 2.92172 15.4214 2.17157 16.1716C1.42143 16.9217 1 17.9391 1 19V21" stroke="#AFB1BC" stroke-width="2" stroke-linecap="round" stroke-linejoin="round"/>
<path d="M8.99988 11C11.209 11 12.9999 9.20914 12.9999 7C12.9999 4.79086 11.209 3 8.99988 3C6.79074 3 4.99988 4.79086 4.99988 7C4.99988 9.20914 6.79074 11 8.99988 11Z" fill="#AFB1BC" fill-opacity="0.2" stroke="#AFB1BC" stroke-width="2" stroke-linecap="round" stroke-linejoin="round"/>
<path d="M23 20.9999V18.9999C22.9993 18.1136 22.7044 17.2527 22.1614 16.5522C21.6184 15.8517 20.8581 15.3515 20 15.1299" stroke="#AFB1BC" stroke-width="2" stroke-linecap="round" stroke-linejoin="round"/>
<path d="M16.0001 3.12988C16.8605 3.35018 17.6232 3.85058 18.1678 4.55219C18.7124 5.2538 19.008 6.11671 19.008 7.00488C19.008 7.89305 18.7124 8.75596 18.1678 9.45757C17.6232 10.1592 16.8605 10.6596 16.0001 10.8799" stroke="#AFB1BC" stroke-width="2" stroke-linecap="round" stroke-linejoin="round"/>
</svg>
