<svg width="24" height="24" viewBox="0 0 24 24" fill="none" xmlns="http://www.w3.org/2000/svg">
<path d="M17 21V19C17 17.9392 16.5786 16.9217 15.8284 16.1716C15.0783 15.4215 14.0609 15 13 15H5C3.93913 15 2.92172 15.4215 2.17157 16.1716C1.42143 16.9217 1 17.9392 1 19V21" stroke="#1C89FF" stroke-width="2" stroke-linecap="round" stroke-linejoin="round"/>
<path d="M9 11.0001C11.2091 11.0001 13 9.20926 13 7.00012C13 4.79098 11.2091 3.00012 9 3.00012C6.79086 3.00012 5 4.79098 5 7.00012C5 9.20926 6.79086 11.0001 9 11.0001Z" stroke="#1C89FF" stroke-width="2" stroke-linecap="round" stroke-linejoin="round"/>
<path d="M23 20.9999V18.9999C22.9993 18.1136 22.7044 17.2527 22.1614 16.5522C21.6184 15.8518 20.8581 15.3515 20 15.1299" stroke="#1C89FF" stroke-width="2" stroke-linecap="round" stroke-linejoin="round"/>
<path d="M16 3.13C16.8604 3.35031 17.623 3.85071 18.1676 4.55232C18.7122 5.25392 19.0078 6.11683 19.0078 7.005C19.0078 7.89317 18.7122 8.75608 18.1676 9.45769C17.623 10.1593 16.8604 10.6597 16 10.88" stroke="#1C89FF" stroke-width="2" stroke-linecap="round" stroke-linejoin="round"/>
</svg>
