<svg width="133" height="180" viewBox="0 0 133 180" fill="none" xmlns="http://www.w3.org/2000/svg">
<path d="M7.93091 158.838L30.9288 112.39C31.4609 111.315 32.7054 110.799 33.8417 111.182L63.4768 121.177C64.5941 121.553 65.2712 122.687 65.073 123.85L56.6542 173.23C56.3175 175.206 53.8488 175.92 52.5098 174.429L36.5653 156.677C35.9633 156.007 35.0363 155.731 34.1659 155.963L10.695 162.216C8.70441 162.747 7.01685 160.684 7.93091 158.838Z" fill="#4187F7"/>
<mask id="mask0_12512_89419" style="mask-type:alpha" maskUnits="userSpaceOnUse" x="7" y="111" width="59" height="65">
<path d="M7.91919 158.874L30.9171 112.425C31.4492 111.351 32.6937 110.835 33.8299 111.218L63.465 121.212C64.5824 121.589 65.2595 122.723 65.0613 123.885L56.6425 173.266C56.3057 175.242 53.8371 175.955 52.4981 174.465L36.5536 156.713C35.9516 156.042 35.0246 155.766 34.1542 155.998L10.6832 162.252C8.69269 162.782 7.00513 160.72 7.91919 158.874Z" fill="#DB3328"/>
</mask>
<g mask="url(#mask0_12512_89419)">
<path d="M40.5523 113.503L23.1595 158.894L44.4771 165.854L56.6207 118.808L40.5523 113.503Z" fill="#A0C4FF"/>
</g>
<path d="M77.2934 174.574L65.312 124.148C65.0348 122.982 65.6628 121.79 66.7817 121.359L95.9655 110.115C97.0658 109.691 98.311 110.13 98.9012 111.151L123.972 154.519C124.975 156.254 123.532 158.381 121.549 158.089L97.9418 154.618C97.0505 154.487 96.1611 154.867 95.6396 155.602L81.5781 175.408C80.3856 177.087 77.7696 176.579 77.2934 174.574Z" fill="#4187F7"/>
<mask id="mask1_12512_89419" style="mask-type:alpha" maskUnits="userSpaceOnUse" x="65" y="109" width="60" height="68">
<path d="M77.307 174.609L65.3257 124.183C65.0485 123.017 65.6764 121.825 66.7954 121.394L95.9791 110.15C97.0795 109.726 98.3247 110.165 98.9149 111.186L123.986 154.554C124.989 156.289 123.546 158.415 121.563 158.124L97.9555 154.653C97.0642 154.522 96.1748 154.902 95.6533 155.637L81.5918 175.443C80.3992 177.122 77.7832 176.614 77.307 174.609Z" fill="#DB3328"/>
</mask>
<g mask="url(#mask1_12512_89419)">
<path d="M73.4275 118.856L89.0459 164.888L109.892 156.624L89.1788 112.672L73.4275 118.856Z" fill="#A0C4FF"/>
</g>
<path d="M66.3752 132.75C103.033 132.75 132.75 103.033 132.75 66.3752C132.75 29.7172 103.033 0 66.3752 0C29.7172 0 0 29.7172 0 66.3752C0 103.033 29.7172 132.75 66.3752 132.75Z" fill="#FFD37B"/>
<g filter="url(#filter0_i_12512_89419)">
<path d="M66.7203 117.872C94.9707 117.872 117.872 94.9707 117.872 66.7203C117.872 38.4699 94.9707 15.5684 66.7203 15.5684C38.4699 15.5684 15.5684 38.4699 15.5684 66.7203C15.5684 94.9707 38.4699 117.872 66.7203 117.872Z" fill="#FBAF17"/>
</g>
<path d="M64.8344 39.5892C65.6046 38.0244 67.8355 38.0241 68.6062 39.5886L76.2694 55.1455C76.5752 55.7663 77.1669 56.1968 77.8517 56.2967L94.9865 58.7957C96.7088 59.0469 97.3971 61.1626 96.1524 62.3791L83.7441 74.5067C83.2503 74.9894 83.025 75.6838 83.1415 76.3645L86.0692 93.4797C86.3631 95.1977 84.5588 96.5064 83.0169 95.6937L67.7 87.6193C67.0865 87.2959 66.3529 87.2959 65.7394 87.6193L50.4225 95.6937C48.8807 96.5064 47.0763 95.1977 47.3702 93.4797L50.2979 76.3645C50.4144 75.6838 50.1891 74.9894 49.6952 74.5067L37.2872 62.3793C36.0424 61.1627 36.7309 59.047 38.4532 58.7959L55.5952 56.2967C56.2803 56.1969 56.8723 55.7661 57.178 55.1449L64.8344 39.5892Z" fill="#FEF5E4"/>
<defs>
<filter id="filter0_i_12512_89419" x="15.5684" y="15.5684" width="102.304" height="103.623" filterUnits="userSpaceOnUse" color-interpolation-filters="sRGB">
<feFlood flood-opacity="0" result="BackgroundImageFix"/>
<feBlend mode="normal" in="SourceGraphic" in2="BackgroundImageFix" result="shape"/>
<feColorMatrix in="SourceAlpha" type="matrix" values="0 0 0 0 0 0 0 0 0 0 0 0 0 0 0 0 0 0 127 0" result="hardAlpha"/>
<feOffset dy="1.31892"/>
<feGaussianBlur stdDeviation="1.31892"/>
<feComposite in2="hardAlpha" operator="arithmetic" k2="-1" k3="1"/>
<feColorMatrix type="matrix" values="0 0 0 0 0.916667 0 0 0 0 0.541408 0 0 0 0 0.287986 0 0 0 1 0"/>
<feBlend mode="normal" in2="shape" result="effect1_innerShadow_12512_89419"/>
</filter>
</defs>
</svg>
