<svg width="133" height="180" viewBox="0 0 133 180" fill="none" xmlns="http://www.w3.org/2000/svg">
<path d="M8.05591 158.838L31.0538 112.39C31.5859 111.315 32.8304 110.799 33.9667 111.182L63.6018 121.177C64.7191 121.553 65.3962 122.687 65.198 123.85L56.7792 173.23C56.4425 175.206 53.9738 175.92 52.6348 174.429L36.6903 156.677C36.0883 156.007 35.1613 155.731 34.2909 155.963L10.82 162.216C8.82941 162.747 7.14185 160.684 8.05591 158.838Z" fill="#4187F7"/>
<mask id="mask0_11984_88004" style="mask-type:alpha" maskUnits="userSpaceOnUse" x="7" y="111" width="59" height="65">
<path d="M8.04419 158.874L31.0421 112.425C31.5742 111.351 32.8187 110.835 33.9549 111.218L63.59 121.212C64.7074 121.589 65.3845 122.723 65.1863 123.885L56.7675 173.266C56.4307 175.242 53.9621 175.955 52.6231 174.465L36.6786 156.713C36.0766 156.042 35.1496 155.766 34.2792 155.998L10.8082 162.252C8.81769 162.782 7.13013 160.72 8.04419 158.874Z" fill="#DB3328"/>
</mask>
<g mask="url(#mask0_11984_88004)">
<path d="M40.6773 113.503L23.2845 158.894L44.6021 165.854L56.7457 118.808L40.6773 113.503Z" fill="#A0C4FF"/>
</g>
<path d="M77.4184 174.574L65.437 124.148C65.1598 122.982 65.7878 121.79 66.9067 121.359L96.0905 110.115C97.1908 109.691 98.436 110.13 99.0262 111.151L124.097 154.519C125.1 156.254 123.657 158.381 121.674 158.089L98.0668 154.618C97.1755 154.487 96.2861 154.867 95.7646 155.602L81.7031 175.408C80.5106 177.087 77.8946 176.579 77.4184 174.574Z" fill="#4187F7"/>
<mask id="mask1_11984_88004" style="mask-type:alpha" maskUnits="userSpaceOnUse" x="65" y="109" width="60" height="68">
<path d="M77.432 174.609L65.4507 124.183C65.1735 123.017 65.8014 121.825 66.9204 121.394L96.1041 110.15C97.2045 109.726 98.4497 110.165 99.0399 111.186L124.111 154.554C125.114 156.289 123.671 158.415 121.688 158.124L98.0805 154.653C97.1892 154.522 96.2998 154.902 95.7783 155.637L81.7168 175.443C80.5242 177.122 77.9082 176.614 77.432 174.609Z" fill="#DB3328"/>
</mask>
<g mask="url(#mask1_11984_88004)">
<path d="M73.5525 118.856L89.1709 164.888L110.017 156.624L89.3038 112.672L73.5525 118.856Z" fill="#A0C4FF"/>
</g>
<path d="M66.5002 132.75C103.158 132.75 132.875 103.033 132.875 66.3752C132.875 29.7172 103.158 0 66.5002 0C29.8422 0 0.125 29.7172 0.125 66.3752C0.125 103.033 29.8422 132.75 66.5002 132.75Z" fill="#FFD37B"/>
<g filter="url(#filter0_i_11984_88004)">
<path d="M66.8453 117.872C95.0957 117.872 117.997 94.9707 117.997 66.7203C117.997 38.4699 95.0957 15.5684 66.8453 15.5684C38.5949 15.5684 15.6934 38.4699 15.6934 66.7203C15.6934 94.9707 38.5949 117.872 66.8453 117.872Z" fill="#FBAF17"/>
</g>
<path d="M64.9594 39.5892C65.7296 38.0244 67.9605 38.0241 68.7312 39.5886L76.3944 55.1455C76.7002 55.7663 77.2919 56.1968 77.9767 56.2967L95.1115 58.7957C96.8338 59.0469 97.5221 61.1626 96.2774 62.3791L83.8691 74.5067C83.3753 74.9894 83.15 75.6838 83.2665 76.3645L86.1942 93.4797C86.4881 95.1977 84.6838 96.5064 83.1419 95.6937L67.825 87.6193C67.2115 87.2959 66.4779 87.2959 65.8644 87.6193L50.5475 95.6937C49.0057 96.5064 47.2013 95.1977 47.4952 93.4797L50.4229 76.3645C50.5394 75.6838 50.3141 74.9894 49.8202 74.5067L37.4122 62.3793C36.1674 61.1627 36.8559 59.047 38.5782 58.7959L55.7202 56.2967C56.4053 56.1969 56.9973 55.7661 57.303 55.1449L64.9594 39.5892Z" fill="#FEF5E4"/>
<defs>
<filter id="filter0_i_11984_88004" x="15.6934" y="15.5684" width="102.304" height="103.623" filterUnits="userSpaceOnUse" color-interpolation-filters="sRGB">
<feFlood flood-opacity="0" result="BackgroundImageFix"/>
<feBlend mode="normal" in="SourceGraphic" in2="BackgroundImageFix" result="shape"/>
<feColorMatrix in="SourceAlpha" type="matrix" values="0 0 0 0 0 0 0 0 0 0 0 0 0 0 0 0 0 0 127 0" result="hardAlpha"/>
<feOffset dy="1.31892"/>
<feGaussianBlur stdDeviation="1.31892"/>
<feComposite in2="hardAlpha" operator="arithmetic" k2="-1" k3="1"/>
<feColorMatrix type="matrix" values="0 0 0 0 0.916667 0 0 0 0 0.541408 0 0 0 0 0.287986 0 0 0 1 0"/>
<feBlend mode="normal" in2="shape" result="effect1_innerShadow_11984_88004"/>
</filter>
</defs>
</svg>
