<svg width="44" height="44" viewBox="0 0 44 44" fill="none" xmlns="http://www.w3.org/2000/svg">
<rect width="44" height="44" rx="22" fill="#F4F5FC"/>
<g clip-path="url(#clip0_696_14976)">
<path d="M12 32C12 29.8783 12.8429 27.8434 14.3431 26.3431C15.8434 24.8429 17.8783 24 20 24C22.1217 24 24.1566 24.8429 25.6569 26.3431C27.1571 27.8434 28 29.8783 28 32H12ZM20 23C16.685 23 14 20.315 14 17C14 13.685 16.685 11 20 11C23.315 11 26 13.685 26 17C26 20.315 23.315 23 20 23ZM27.363 25.233C28.8926 25.6261 30.2593 26.4918 31.2683 27.7068C32.2774 28.9218 32.8774 30.4242 32.983 32H30C30 29.39 29 27.014 27.363 25.233ZM25.34 22.957C26.178 22.2075 26.8482 21.2893 27.3066 20.2627C27.765 19.2362 28.0013 18.1243 28 17C28.0021 15.6335 27.6526 14.2894 26.985 13.097C28.1176 13.3246 29.1365 13.9374 29.8685 14.8312C30.6004 15.725 31.0002 16.8447 31 18C31.0003 18.7125 30.8482 19.4168 30.5541 20.0657C30.26 20.7146 29.8305 21.2931 29.2946 21.7625C28.7586 22.2319 28.1285 22.5814 27.4464 22.7874C26.7644 22.9934 26.0462 23.0512 25.34 22.957Z" fill="#1C89FF"/>
</g>
<defs>
<clipPath id="clip0_696_14976">
<rect width="24" height="24" fill="white" transform="translate(10 10)"/>
</clipPath>
</defs>
</svg>
