<svg width="24" height="25" viewBox="0 0 24 25" fill="none" xmlns="http://www.w3.org/2000/svg">
<path d="M16 13.5V5.5H6V13.5C6 14.0304 6.21071 14.5391 6.58579 14.9142C6.96086 15.2893 7.46957 15.5 8 15.5H14C14.5304 15.5 15.0391 15.2893 15.4142 14.9142C15.7893 14.5391 16 14.0304 16 13.5ZM5 3.5H20C20.5304 3.5 21.0391 3.71071 21.4142 4.08579C21.7893 4.46086 22 4.96957 22 5.5V8.5C22 9.03043 21.7893 9.53914 21.4142 9.91421C21.0391 10.2893 20.5304 10.5 20 10.5H18V13.5C18 14.5609 17.5786 15.5783 16.8284 16.3284C16.0783 17.0786 15.0609 17.5 14 17.5H8C6.93913 17.5 5.92172 17.0786 5.17157 16.3284C4.42143 15.5783 4 14.5609 4 13.5V4.5C4 4.23478 4.10536 3.98043 4.29289 3.79289C4.48043 3.60536 4.73478 3.5 5 3.5ZM18 5.5V8.5H20V5.5H18ZM2 19.5H20V21.5H2V19.5Z" fill="#147AE9"/>
</svg>
