<svg width="30" height="29" viewBox="0 0 30 29" fill="none" xmlns="http://www.w3.org/2000/svg">
<path d="M16.5117 2.9082L21.8866 2.9082C24.7623 2.9082 27.0935 5.23942 27.0935 8.11512V8.11512C27.0935 10.9908 24.7623 13.322 21.8866 13.322L8.78532 13.322C5.35303 13.322 2.57062 16.1044 2.57062 19.5367V19.5367C2.57062 22.969 5.35303 25.7514 8.78532 25.7514L25.2459 25.7514" stroke="#DCEEFF" stroke-width="4.50432" stroke-linecap="round" stroke-linejoin="round"/>
<path d="M16.3179 2.71437C16.2551 2.7772 16.2551 2.87905 16.3179 2.94188L17.3416 3.96564C17.4045 4.02846 17.5063 4.02846 17.5691 3.96564C17.632 3.90281 17.632 3.80096 17.5691 3.73813L16.6591 2.82812L17.5691 1.91812C17.632 1.85529 17.632 1.75344 17.5691 1.69061C17.5063 1.62779 17.4045 1.62779 17.3416 1.69061L16.3179 2.71437ZM25.2796 25.7851C25.3424 25.7223 25.3424 25.6204 25.2796 25.5576L24.2558 24.5338C24.193 24.471 24.0911 24.471 24.0283 24.5338C23.9655 24.5967 23.9655 24.6985 24.0283 24.7614L24.9383 25.6714L24.0283 26.5814C23.9655 26.6442 23.9655 26.746 24.0283 26.8089C24.0911 26.8717 24.193 26.8717 24.2558 26.8089L25.2796 25.7851ZM16.4316 2.98899L21.8065 2.98899L21.8065 2.66726L16.4316 2.66726L16.4316 2.98899ZM21.8065 13.0811L8.70524 13.0811L8.70524 13.4028L21.8065 13.4028L21.8065 13.0811ZM8.70524 25.8322L25.1658 25.8322L25.1658 25.5105L8.70524 25.5105L8.70524 25.8322ZM2.32967 19.4567C2.32967 22.9778 5.18411 25.8322 8.70524 25.8322L8.70524 25.5105C5.3618 25.5105 2.6514 22.8001 2.6514 19.4567L2.32967 19.4567ZM8.70524 13.0811C5.18411 13.0811 2.32967 15.9355 2.32967 19.4567L2.6514 19.4567C2.6514 16.1132 5.3618 13.4028 8.70524 13.4028L8.70524 13.0811ZM26.8526 8.03504C26.8526 10.8219 24.5934 13.0811 21.8065 13.0811L21.8065 13.4028C24.7711 13.4028 27.1743 10.9996 27.1743 8.03504L26.8526 8.03504ZM21.8065 2.98899C24.5934 2.98899 26.8526 5.24819 26.8526 8.03504L27.1743 8.03504C27.1743 5.0705 24.7711 2.66726 21.8065 2.66726L21.8065 2.98899Z" fill="black"/>
</svg>
