<svg width="38" height="38" viewBox="0 0 38 38" fill="none" xmlns="http://www.w3.org/2000/svg">
<rect width="38" height="38" rx="19" fill="#F4F5FC"/>
<g clip-path="url(#clip0_697_18476)">
<path d="M21.796 17.2646L20.7355 16.2041L13.75 23.1896V24.2501H14.8105L21.796 17.2646ZM22.8565 16.2041L23.917 15.1436L22.8565 14.0831L21.796 15.1436L22.8565 16.2041ZM15.4315 25.7501H12.25V22.5678L22.3263 12.4916C22.4669 12.351 22.6576 12.272 22.8565 12.272C23.0554 12.272 23.2461 12.351 23.3868 12.4916L25.5085 14.6133C25.6491 14.754 25.7281 14.9447 25.7281 15.1436C25.7281 15.3424 25.6491 15.5332 25.5085 15.6738L15.4323 25.7501H15.4315Z" fill="#131336"/>
</g>
<defs>
<clipPath id="clip0_697_18476">
<rect width="18" height="18" fill="white" transform="translate(10 10)"/>
</clipPath>
</defs>
</svg>
