<svg width="64" height="64" viewBox="0 0 64 64" fill="none" xmlns="http://www.w3.org/2000/svg">
<g clip-path="url(#clip0_12541_91310)">
<path d="M53.3333 58.6666H10.6667C9.95942 58.6666 9.28115 58.3856 8.78105 57.8855C8.28095 57.3854 8 56.7072 8 55.9999V7.99992C8 7.29267 8.28095 6.6144 8.78105 6.1143C9.28115 5.6142 9.95942 5.33325 10.6667 5.33325H53.3333C54.0406 5.33325 54.7189 5.6142 55.219 6.1143C55.7191 6.6144 56 7.29267 56 7.99992V55.9999C56 56.7072 55.7191 57.3854 55.219 57.8855C54.7189 58.3856 54.0406 58.6666 53.3333 58.6666ZM50.6667 53.3333V10.6666H13.3333V53.3333H50.6667ZM18.6667 15.9999H29.3333V26.6666H18.6667V15.9999ZM18.6667 31.9999H45.3333V37.3333H18.6667V31.9999ZM18.6667 42.6666H45.3333V47.9999H18.6667V42.6666ZM34.6667 18.6666H45.3333V23.9999H34.6667V18.6666Z" fill="#131336"/>
</g>
<defs>
<clipPath id="clip0_12541_91310">
<rect width="64" height="64" fill="white"/>
</clipPath>
</defs>
</svg>
