<svg width="32" height="32" viewBox="0 0 32 32" fill="none" xmlns="http://www.w3.org/2000/svg">
<path d="M5.33335 24.0001H12.6667V25.6668C12.6667 26.6392 12.2804 27.5719 11.5927 28.2595C10.9051 28.9471 9.97248 29.3334 9.00002 29.3334C8.02756 29.3334 7.09493 28.9471 6.4073 28.2595C5.71966 27.5719 5.33335 26.6392 5.33335 25.6668V24.0001ZM10.744 18.6668L10.804 18.4908C11.8267 15.6828 12 15.1601 12 14.6668C12 13.6668 11.7294 12.4761 11.296 11.6361C10.9734 11.0094 10.7467 10.8268 10.6667 10.8268C8.96002 10.8268 7.33335 12.6454 7.33335 14.6668C7.33335 15.9454 7.43335 17.0308 7.63602 18.3441L7.68669 18.6668H10.744ZM10.6667 8.1601C13.3334 8.1601 14.6667 12.0001 14.6667 14.6668C14.6667 16.0001 14 17.3334 13.3334 19.3334L12.6667 21.3334H5.33335C5.33335 20.0001 4.66669 18.0001 4.66669 14.6668C4.66669 11.3334 7.33069 8.1601 10.6667 8.1601ZM26.7387 18.7974L26.4494 20.4388C26.2805 21.3966 25.7381 22.248 24.9414 22.8059C24.1448 23.3638 23.1591 23.5823 22.2014 23.4134C21.2436 23.2446 20.3921 22.7022 19.8342 21.9055C19.2764 21.1089 19.0578 20.1232 19.2267 19.1654L19.5174 17.5254L26.7387 18.7974ZM25.3387 13.1361C25.5587 12.4694 25.74 11.9428 25.7427 11.9361C26.012 11.0588 26.224 10.1988 26.3894 9.25877C26.74 7.26944 25.4534 5.19611 23.7734 4.89877C23.6947 4.88544 23.44 5.02544 23.0134 5.58544C22.44 6.33877 21.968 7.46544 21.7934 8.4481C21.716 8.8881 21.728 8.9881 22.1534 11.4654C22.2134 11.8068 22.2627 12.1134 22.308 12.4214L22.3347 12.6054L25.34 13.1361H25.3387ZM24.2374 2.27344C27.5227 2.85211 29.5947 6.43877 29.016 9.72144C28.4374 13.0054 27.4334 14.8588 27.2027 16.1721L19.98 14.8988L19.6707 12.8134C19.3614 10.7281 18.9374 9.29877 19.168 7.98677C19.6307 5.3601 21.6107 1.81077 24.2374 2.27344Z" fill="url(#paint0_radial_2798_20622)"/>
<defs>
<radialGradient id="paint0_radial_2798_20622" cx="0" cy="0" r="1" gradientUnits="userSpaceOnUse" gradientTransform="translate(25.8133 20.2998) rotate(-137.811) scale(19.8278 22.5547)">
<stop stop-color="#FDE078"/>
<stop offset="1" stop-color="#FDB839"/>
</radialGradient>
</defs>
</svg>
