<svg width="24" height="24" viewBox="0 0 24 24" fill="none" xmlns="http://www.w3.org/2000/svg">
<g clip-path="url(#clip0_8247_50767)">
<path fill-rule="evenodd" clip-rule="evenodd" d="M12 1.5C10.4087 1.5 8.88258 2.13214 7.75736 3.25736C6.63214 4.38258 6 5.9087 6 7.5C6 9.0913 6.63214 10.6174 7.75736 11.7426C8.88258 12.8679 10.4087 13.5 12 13.5C13.5913 13.5 15.1174 12.8679 16.2426 11.7426C17.3679 10.6174 18 9.0913 18 7.5C18 5.9087 17.3679 4.38258 16.2426 3.25736C15.1174 2.13214 13.5913 1.5 12 1.5ZM4.5 7.5C4.50002 6.04862 4.92116 4.62842 5.71234 3.41165C6.50352 2.19488 7.63076 1.23381 8.95734 0.645007C10.2839 0.0561997 11.7528 -0.135049 13.186 0.0944544C14.6191 0.323958 15.9548 0.964355 17.0312 1.93798C18.1076 2.9116 18.8783 4.17662 19.2499 5.57961C19.6216 6.98259 19.5782 8.46328 19.125 9.84208C18.6717 11.2209 17.8282 12.4386 16.6966 13.3475C15.5651 14.2563 14.1941 14.8174 12.75 14.9625V18H15.75C15.9489 18 16.1397 18.079 16.2803 18.2197C16.421 18.3603 16.5 18.5511 16.5 18.75C16.5 18.9489 16.421 19.1397 16.2803 19.2803C16.1397 19.421 15.9489 19.5 15.75 19.5H12.75V23.25C12.75 23.4489 12.671 23.6397 12.5303 23.7803C12.3897 23.921 12.1989 24 12 24C11.8011 24 11.6103 23.921 11.4697 23.7803C11.329 23.6397 11.25 23.4489 11.25 23.25V19.5H8.25C8.05109 19.5 7.86032 19.421 7.71967 19.2803C7.57902 19.1397 7.5 18.9489 7.5 18.75C7.5 18.5511 7.57902 18.3603 7.71967 18.2197C7.86032 18.079 8.05109 18 8.25 18H11.25V14.9625C9.40003 14.7766 7.68506 13.9101 6.43782 12.5312C5.19058 11.1523 4.49998 9.35929 4.5 7.5Z" fill="#E16BA8"/>
</g>
<defs>
<clipPath id="clip0_8247_50767">
<rect width="24" height="24" fill="white"/>
</clipPath>
</defs>
</svg>
