<svg width="38" height="38" viewBox="0 0 38 38" fill="none" xmlns="http://www.w3.org/2000/svg">
<rect width="38" height="38" rx="19" fill="#F4F5FC"/>
<g clip-path="url(#clip0_697_18480)">
<path d="M19 18.25C19.9946 18.25 20.9484 18.6451 21.6517 19.3483C22.3549 20.0516 22.75 21.0054 22.75 22V26.5H21.25V22C21.25 21.4261 21.0308 20.8739 20.637 20.4563C20.2433 20.0387 19.7049 19.7874 19.132 19.7537L19 19.75C18.4261 19.75 17.8739 19.9692 17.4563 20.363C17.0387 20.7567 16.7874 21.2951 16.7537 21.868L16.75 22V26.5H15.25V22C15.25 21.0054 15.6451 20.0516 16.3483 19.3483C17.0516 18.6451 18.0054 18.25 19 18.25ZM14.125 20.5C14.3342 20.5 14.5375 20.5247 14.7325 20.5705C14.6043 20.9523 14.5283 21.3496 14.5067 21.7517L14.5 22V22.0645C14.4138 22.0337 14.3241 22.0135 14.233 22.0045L14.125 22C13.8453 22 13.5757 22.1042 13.3687 22.2922C13.1617 22.4802 13.0321 22.7386 13.0052 23.017L13 23.125V26.5H11.5V23.125C11.5 22.4288 11.7766 21.7611 12.2688 21.2688C12.7611 20.7766 13.4288 20.5 14.125 20.5ZM23.875 20.5C24.5712 20.5 25.2389 20.7766 25.7312 21.2688C26.2234 21.7611 26.5 22.4288 26.5 23.125V26.5H25V23.125C25 22.8453 24.8958 22.5757 24.7078 22.3687C24.5198 22.1617 24.2614 22.0321 23.983 22.0052L23.875 22C23.7437 22 23.6178 22.0225 23.5 22.0637V22C23.5 21.5005 23.419 21.0205 23.2682 20.572C23.4625 20.5247 23.6657 20.5 23.875 20.5ZM14.125 16C14.6223 16 15.0992 16.1975 15.4508 16.5492C15.8025 16.9008 16 17.3777 16 17.875C16 18.3723 15.8025 18.8492 15.4508 19.2008C15.0992 19.5525 14.6223 19.75 14.125 19.75C13.6277 19.75 13.1508 19.5525 12.7992 19.2008C12.4475 18.8492 12.25 18.3723 12.25 17.875C12.25 17.3777 12.4475 16.9008 12.7992 16.5492C13.1508 16.1975 13.6277 16 14.125 16ZM23.875 16C24.3723 16 24.8492 16.1975 25.2008 16.5492C25.5525 16.9008 25.75 17.3777 25.75 17.875C25.75 18.3723 25.5525 18.8492 25.2008 19.2008C24.8492 19.5525 24.3723 19.75 23.875 19.75C23.3777 19.75 22.9008 19.5525 22.5492 19.2008C22.1975 18.8492 22 18.3723 22 17.875C22 17.3777 22.1975 16.9008 22.5492 16.5492C22.9008 16.1975 23.3777 16 23.875 16ZM14.125 17.5C14.0255 17.5 13.9302 17.5395 13.8598 17.6098C13.7895 17.6802 13.75 17.7755 13.75 17.875C13.75 17.9745 13.7895 18.0698 13.8598 18.1402C13.9302 18.2105 14.0255 18.25 14.125 18.25C14.2245 18.25 14.3198 18.2105 14.3902 18.1402C14.4605 18.0698 14.5 17.9745 14.5 17.875C14.5 17.7755 14.4605 17.6802 14.3902 17.6098C14.3198 17.5395 14.2245 17.5 14.125 17.5ZM23.875 17.5C23.7755 17.5 23.6802 17.5395 23.6098 17.6098C23.5395 17.6802 23.5 17.7755 23.5 17.875C23.5 17.9745 23.5395 18.0698 23.6098 18.1402C23.6802 18.2105 23.7755 18.25 23.875 18.25C23.9745 18.25 24.0698 18.2105 24.1402 18.1402C24.2105 18.0698 24.25 17.9745 24.25 17.875C24.25 17.7755 24.2105 17.6802 24.1402 17.6098C24.0698 17.5395 23.9745 17.5 23.875 17.5ZM19 11.5C19.7956 11.5 20.5587 11.8161 21.1213 12.3787C21.6839 12.9413 22 13.7044 22 14.5C22 15.2956 21.6839 16.0587 21.1213 16.6213C20.5587 17.1839 19.7956 17.5 19 17.5C18.2044 17.5 17.4413 17.1839 16.8787 16.6213C16.3161 16.0587 16 15.2956 16 14.5C16 13.7044 16.3161 12.9413 16.8787 12.3787C17.4413 11.8161 18.2044 11.5 19 11.5ZM19 13C18.6022 13 18.2206 13.158 17.9393 13.4393C17.658 13.7206 17.5 14.1022 17.5 14.5C17.5 14.8978 17.658 15.2794 17.9393 15.5607C18.2206 15.842 18.6022 16 19 16C19.3978 16 19.7794 15.842 20.0607 15.5607C20.342 15.2794 20.5 14.8978 20.5 14.5C20.5 14.1022 20.342 13.7206 20.0607 13.4393C19.7794 13.158 19.3978 13 19 13Z" fill="#131336"/>
</g>
<defs>
<clipPath id="clip0_697_18480">
<rect width="18" height="18" fill="white" transform="translate(10 10)"/>
</clipPath>
</defs>
</svg>
