<svg width="24" height="24" viewBox="0 0 24 24" fill="none" xmlns="http://www.w3.org/2000/svg">
<path d="M14.2495 19.4996V14.9995C14.2495 14.8006 14.1705 14.6099 14.0298 14.4692C13.8892 14.3286 13.6984 14.2495 13.4995 14.2495H10.4995C10.3006 14.2495 10.1098 14.3286 9.96918 14.4692C9.82853 14.6099 9.74951 14.8006 9.74951 14.9995V19.4996C9.74951 19.6985 9.67051 19.8893 9.52987 20.0299C9.38924 20.1706 9.1985 20.2496 8.99961 20.2496L4.50015 20.2502C4.40166 20.2502 4.30412 20.2309 4.21311 20.1932C4.12211 20.1555 4.03942 20.1002 3.96976 20.0306C3.90011 19.9609 3.84486 19.8783 3.80716 19.7873C3.76946 19.6963 3.75006 19.5987 3.75006 19.5002V10.8321C3.75006 10.7276 3.77189 10.6242 3.81416 10.5287C3.85643 10.4331 3.9182 10.3475 3.99551 10.2772L11.495 3.45827C11.633 3.33275 11.8129 3.26319 11.9995 3.26318C12.1861 3.26318 12.366 3.33272 12.5041 3.45824L20.0046 10.2772C20.0819 10.3474 20.1437 10.4331 20.1859 10.5287C20.2282 10.6243 20.2501 10.7276 20.2501 10.8321V19.5002C20.2501 19.5987 20.2307 19.6963 20.193 19.7873C20.1553 19.8783 20.1 19.961 20.0304 20.0306C19.9607 20.1002 19.878 20.1555 19.787 20.1932C19.696 20.2309 19.5985 20.2502 19.5 20.2502L14.9994 20.2496C14.8005 20.2496 14.6098 20.1706 14.4691 20.0299C14.3285 19.8893 14.2495 19.6985 14.2495 19.4996V19.4996Z" stroke="#AFB1BC" stroke-width="2" stroke-linecap="round" stroke-linejoin="round"/>
</svg>
