<svg width="36" height="42" viewBox="0 0 36 42" fill="none" xmlns="http://www.w3.org/2000/svg">
<path d="M6 14V12C6 8.8174 7.26428 5.76515 9.51472 3.51472C11.7652 1.26428 14.8174 0 18 0C21.1826 0 24.2348 1.26428 26.4853 3.51472C28.7357 5.76515 30 8.8174 30 12V14H34C34.5304 14 35.0391 14.2107 35.4142 14.5858C35.7893 14.9609 36 15.4696 36 16V40C36 40.5304 35.7893 41.0391 35.4142 41.4142C35.0391 41.7893 34.5304 42 34 42H2C1.46957 42 0.960859 41.7893 0.585786 41.4142C0.210714 41.0391 0 40.5304 0 40V16C0 15.4696 0.210714 14.9609 0.585786 14.5858C0.960859 14.2107 1.46957 14 2 14H6ZM32 18H4V38H32V18ZM16 29.464C15.2374 29.0237 14.6414 28.3441 14.3045 27.5306C13.9675 26.7171 13.9084 25.8152 14.1363 24.9646C14.3642 24.1141 14.8664 23.3625 15.565 22.8265C16.2635 22.2904 17.1195 21.9999 18 21.9999C18.8805 21.9999 19.7365 22.2904 20.435 22.8265C21.1336 23.3625 21.6358 24.1141 21.8637 24.9646C22.0916 25.8152 22.0325 26.7171 21.6955 27.5306C21.3586 28.3441 20.7626 29.0237 20 29.464V34H16V29.464ZM10 14H26V12C26 9.87827 25.1571 7.84344 23.6569 6.34315C22.1566 4.84285 20.1217 4 18 4C15.8783 4 13.8434 4.84285 12.3431 6.34315C10.8429 7.84344 10 9.87827 10 12V14Z" fill="#147AE9"/>
</svg>
