<svg width="19" height="22" viewBox="0 0 19 22" fill="none" xmlns="http://www.w3.org/2000/svg">
<path d="M3.08301 7.77832V6.77832C3.08301 5.18702 3.71515 3.6609 4.84037 2.53568C5.96559 1.41046 7.49171 0.77832 9.08301 0.77832C10.6743 0.77832 12.2004 1.41046 13.3256 2.53568C14.4509 3.6609 15.083 5.18702 15.083 6.77832V7.77832H17.083C17.3482 7.77832 17.6026 7.88368 17.7901 8.07121C17.9777 8.25875 18.083 8.5131 18.083 8.77832V20.7783C18.083 21.0435 17.9777 21.2979 17.7901 21.4854C17.6026 21.673 17.3482 21.7783 17.083 21.7783H1.08301C0.817791 21.7783 0.563437 21.673 0.375901 21.4854C0.188365 21.2979 0.0830078 21.0435 0.0830078 20.7783V8.77832C0.0830078 8.5131 0.188365 8.25875 0.375901 8.07121C0.563437 7.88368 0.817791 7.77832 1.08301 7.77832H3.08301ZM16.083 9.77832H2.08301V19.7783H16.083V9.77832ZM8.08301 15.5103C7.70172 15.2902 7.40373 14.9504 7.23525 14.5436C7.06677 14.1369 7.03721 13.6859 7.15116 13.2606C7.26511 12.8354 7.5162 12.4596 7.86549 12.1916C8.21477 11.9235 8.64274 11.7783 9.08301 11.7783C9.52328 11.7783 9.95124 11.9235 10.3005 12.1916C10.6498 12.4596 10.9009 12.8354 11.0149 13.2606C11.1288 13.6859 11.0993 14.1369 10.9308 14.5436C10.7623 14.9504 10.4643 15.2902 10.083 15.5103V17.7783H8.08301V15.5103ZM5.08301 7.77832H13.083V6.77832C13.083 5.71745 12.6616 4.70004 11.9114 3.94989C11.1613 3.19975 10.1439 2.77832 9.08301 2.77832C8.02214 2.77832 7.00473 3.19975 6.25458 3.94989C5.50444 4.70004 5.08301 5.71745 5.08301 6.77832V7.77832Z" fill="#09121F"/>
</svg>
