<svg width="136" height="36" viewBox="0 0 136 36" fill="none" xmlns="http://www.w3.org/2000/svg">
<path d="M47.2777 32.2693C46.6452 32.2849 46.0161 32.1737 45.429 31.9424C44.8418 31.7111 44.3089 31.3647 43.8629 30.9244C43.4169 30.484 43.0672 29.959 42.8352 29.3814C42.6031 28.8039 42.4936 28.1859 42.5134 27.5654C42.4957 26.9407 42.6057 26.3189 42.8371 25.7367C43.0685 25.1546 43.4164 24.6238 43.8604 24.1758C44.3044 23.7279 44.8354 23.3718 45.4221 23.1287C46.0087 22.8855 46.6391 22.7603 47.2759 22.7603C47.9127 22.7603 48.543 22.8855 49.1297 23.1287C49.7163 23.3718 50.2473 23.7279 50.6913 24.1758C51.1353 24.6238 51.4833 25.1546 51.7146 25.7367C51.946 26.3189 52.0561 26.9407 52.0384 27.5654C52.0581 28.1856 51.9487 28.8032 51.7169 29.3806C51.4851 29.9579 51.1357 30.4827 50.6901 30.923C50.2445 31.3633 49.712 31.7098 49.1253 31.9413C48.5386 32.1728 47.9099 32.2844 47.2777 32.2693ZM47.2777 23.6466C44.9287 23.6466 43.4943 25.4558 43.4943 27.5581C43.4943 29.6604 44.9287 31.4588 47.2777 31.4588C49.6267 31.4588 51.0575 29.6496 51.0575 27.5581C51.0575 25.4666 49.6267 23.6466 47.2777 23.6466Z" fill="#0C72E0"/>
<path d="M60.623 30.7133H60.6451V23.0747H61.5744V32.0412H60.4128L55.1138 24.3303H55.088V32.0412H54.1587V23.0747H55.3203L60.623 30.7133Z" fill="#0C72E0"/>
<path d="M65.0998 31.2307H69.359V32.0412H64.1705V23.0747H65.0998V31.2307Z" fill="#0C72E0"/>
<path d="M71.8517 32.0412H70.9225V23.0747H71.8517V32.0412Z" fill="#0C72E0"/>
<path d="M80.9269 30.7133H80.9527V23.0747H81.882V32.0412H80.7204L75.3955 24.3303H75.3697V32.0412H74.4404V23.0747H75.602L80.9269 30.7133Z" fill="#0C72E0"/>
<path d="M85.4035 31.2307H90.2933V32.0412H84.4742V23.0747H90.1458V23.8816H85.4035V26.9718H89.8286V27.7715H85.4035V31.2307Z" fill="#0C72E0"/>
<path d="M51.1018 15.5847H51.0649L44.726 5.54346H42.5134V18.1031H44.2097V7.85203H44.2466L50.6556 18.1031H52.7981V5.54346H51.1018V15.5847Z" fill="black"/>
<path d="M57.4405 12.357H63.1674V10.8481H57.4405V7.08854H63.5251V5.54346H55.7443V18.1031H63.7832V16.5436H57.4405V12.357Z" fill="black"/>
<path d="M76.8632 15.5485H76.8264L73.998 5.54346H72.1321L69.2853 15.5485H69.2521L66.5786 5.54346H64.7458L68.308 18.1031H70.0744L73.0208 8.01124H73.0576L76.004 18.1031H77.7704L81.3363 5.54346H79.5367L76.8632 15.5485Z" fill="black"/>
<path d="M89.1686 12.0385C88.8208 11.7637 88.433 11.5417 88.0181 11.3799C87.5977 11.2171 87.181 11.0688 86.768 10.9385L85.7982 10.5766C85.518 10.4774 85.2536 10.3397 85.0127 10.1678C84.7938 10.0147 84.6124 9.81565 84.4817 9.58519C84.3407 9.31981 84.2721 9.02312 84.2826 8.724C84.2734 8.40596 84.347 8.09087 84.4964 7.80853C84.6346 7.56038 84.8243 7.34343 85.0533 7.17168C85.2812 7.00328 85.5405 6.88035 85.8166 6.80983C86.0866 6.73466 86.3657 6.69571 86.6463 6.69404C87.1307 6.6861 87.6092 6.79942 88.0365 7.02332C88.4273 7.2222 88.7627 7.5116 89.0137 7.86642L90.2122 6.65786C89.8101 6.20147 89.305 5.8434 88.7372 5.61212C88.109 5.34928 87.4324 5.21625 86.7496 5.22133C86.242 5.22182 85.7369 5.29123 85.2487 5.42758C84.7654 5.55534 84.312 5.77409 83.9138 6.07167C83.5154 6.37275 83.1872 6.75398 82.9514 7.18977C82.6951 7.6898 82.5685 8.24409 82.5826 8.8036C82.567 9.30001 82.6614 9.79382 82.8592 10.251C83.033 10.6266 83.2841 10.9629 83.5967 11.2388C83.8971 11.5069 84.2379 11.7278 84.6071 11.8938C84.9683 12.0651 85.3403 12.2137 85.7207 12.3388L86.827 12.7007C87.1512 12.8131 87.4596 12.9651 87.7452 13.153C87.9992 13.3222 88.213 13.5431 88.3721 13.8007C88.5329 14.0924 88.6118 14.4208 88.6007 14.7523C88.6105 15.0875 88.5344 15.4196 88.3795 15.7185C88.2374 15.9775 88.0414 16.2043 87.8042 16.3843C87.5719 16.5609 87.308 16.6935 87.0261 16.7751C86.7473 16.8566 86.4579 16.8981 86.1669 16.8981C85.6234 16.9041 85.0879 16.7693 84.6145 16.5073C84.1494 16.2498 83.7557 15.8846 83.4676 15.4435L82.1475 16.5978C82.6088 17.1951 83.2199 17.665 83.9212 17.9619C84.6177 18.2659 85.3714 18.4237 86.1337 18.4251C86.665 18.4248 87.1932 18.3467 87.701 18.1935C88.1897 18.0477 88.6445 17.8092 89.0395 17.4915C89.4374 17.1688 89.7573 16.7634 89.9762 16.3047C90.2199 15.7728 90.3396 15.1942 90.3265 14.6112C90.346 14.0758 90.2347 13.5436 90.002 13.0589C89.7991 12.6659 89.5154 12.3184 89.1686 12.0385Z" fill="black"/>
<path d="M100.6 5.54346H91.1229V7.08854H95.0133V18.1031H96.7096V7.08854H100.6V5.54346Z" fill="black"/>
<path d="M105.055 5.54346L99.7925 18.0922H101.681L102.897 15.0057H108.654L109.889 18.0922H111.81L106.6 5.54346H105.055ZM103.495 13.4751L105.777 7.59874L108.038 13.4896L103.495 13.4751Z" fill="black"/>
<path d="M120.752 11.257C121.317 10.6478 121.613 9.84363 121.575 9.02081C121.592 8.46151 121.475 7.90611 121.232 7.39975C121.019 6.96649 120.698 6.59306 120.299 6.31421C119.877 6.03518 119.406 5.83747 118.909 5.73164C118.364 5.60533 117.806 5.54218 117.246 5.54348H113.377V18.0923H115.074V12.5162H116.888L119.967 18.0923H122.025L118.628 12.3389C119.438 12.2158 120.184 11.8358 120.752 11.257ZM117.017 11.0435H115.063V7.03428H117.135C117.486 7.03294 117.837 7.06567 118.182 7.13198C118.488 7.18732 118.781 7.29905 119.045 7.46126C119.294 7.61348 119.5 7.82353 119.646 8.07278C119.803 8.36448 119.879 8.69128 119.867 9.02081C119.879 9.35149 119.803 9.67946 119.646 9.97247C119.497 10.2237 119.288 10.4359 119.038 10.5912C118.762 10.763 118.457 10.8855 118.138 10.9531C117.77 11.02 117.395 11.0503 117.021 11.0435H117.017Z" fill="black"/>
<path d="M122.349 7.08854H126.24V18.1031H127.936V7.08854H131.83V5.54346H122.349V7.08854Z" fill="black"/>
<path d="M134.264 3.72706C133.957 3.72634 133.656 3.81507 133.4 3.98203C133.145 4.14898 132.945 4.38665 132.827 4.66494C132.709 4.94324 132.678 5.24965 132.737 5.54539C132.797 5.84114 132.944 6.11291 133.161 6.32632C133.378 6.53973 133.655 6.68518 133.956 6.74425C134.257 6.80332 134.57 6.77337 134.853 6.65818C135.137 6.54298 135.38 6.34773 135.551 6.09714C135.722 5.84654 135.813 5.55187 135.813 5.25042C135.813 4.84703 135.65 4.4601 135.359 4.17452C135.069 3.88893 134.675 3.72801 134.264 3.72706ZM134.264 6.58925C133.993 6.58997 133.728 6.51175 133.502 6.36452C133.277 6.21728 133.101 6.00766 132.997 5.76221C132.893 5.51676 132.866 5.24654 132.918 4.9858C132.971 4.72505 133.101 4.48552 133.293 4.29756C133.484 4.1096 133.729 3.98167 133.994 3.92998C134.26 3.8783 134.535 3.90519 134.786 4.00724C135.036 4.1093 135.249 4.28192 135.399 4.50324C135.549 4.72456 135.629 4.98461 135.628 5.25042C135.628 5.6055 135.485 5.94604 135.229 6.19712C134.973 6.4482 134.626 6.58925 134.264 6.58925Z" fill="black"/>
<path d="M134.836 4.93906C134.836 4.57722 134.529 4.46143 134.22 4.46143H133.608V6.03545H133.976V5.42755H134.109L134.456 6.04993H134.909L134.489 5.3769C134.59 5.35566 134.68 5.3001 134.744 5.22C134.807 5.13991 134.84 5.04041 134.836 4.93906ZM134.172 5.13446H133.987V4.77261H134.194C134.308 4.77261 134.452 4.80156 134.452 4.9463C134.452 5.09104 134.293 5.13446 134.172 5.13446Z" fill="black"/>
<path d="M27.634 21.4283C27.634 23.1615 26.7748 30.2935 24.4774 34.2268C25.4177 33.362 30.0678 27.8945 29.2307 21.3994C28.7023 21.2987 28.1582 21.3086 27.634 21.4283Z" fill="#CDDA51"/>
<path d="M27.243 13.591C28.4378 14.8032 32.6933 20.4914 33.7553 24.9675C33.8291 23.6684 33.3865 16.399 28.3493 12.415C27.9043 12.7365 27.5283 13.1411 27.243 13.6055" fill="#4CC4D9"/>
<path d="M21.6122 8.32242C23.2863 8.30432 30.1784 9.21256 33.9766 11.579C33.1432 10.6057 27.8589 5.7895 21.579 6.65793C21.4837 7.2099 21.495 7.77453 21.6122 8.32242Z" fill="#2699D3"/>
<path d="M14.0377 8.74228C15.2104 7.50477 20.7049 3.10111 25.012 2.0011C23.7692 1.92511 16.737 2.38828 12.8872 7.59885C13.1889 8.05265 13.5801 8.44264 14.0377 8.7459" fill="#AA62A7"/>
<path d="M8.96021 14.5714C8.94177 12.8382 9.81942 5.70259 12.1168 1.77295C11.1764 2.63414 6.52641 8.10163 7.36349 14.6004C7.89188 14.701 8.43597 14.6911 8.96021 14.5714Z" fill="#E16BA8"/>
<path d="M9.35087 22.4088C8.1561 21.1966 3.90432 15.5084 2.83861 11.0469C2.76486 12.3459 3.20737 19.6154 8.2446 23.5957C8.69 23.276 9.06607 22.8726 9.35087 22.4088Z" fill="#F26E52"/>
<path d="M14.9856 27.6629C13.3077 27.6629 6.41564 26.7727 2.61743 24.4062C3.45451 25.3796 8.73512 30.1958 15.0151 29.3273C15.1115 28.7792 15.1015 28.2182 14.9856 27.6737" fill="#F8A045"/>
<path d="M26.498 23.2085C22.9801 26.6931 18.4333 32.0122 11.6002 34.0132C12.854 34.0892 20.6348 33.9408 27.1249 23.9467C26.7562 23.3062 26.5165 23.223 26.5165 23.223" fill="#FBDC61"/>
<path d="M34.124 27.0731C34.124 27.0731 37.8742 19.5178 33.7552 13.2289C31.4394 10.0664 27.1729 8.64433 25.0857 8.64433C24.6978 8.60226 24.307 8.69302 23.9794 8.90125C26.3299 10.738 28.4272 12.8666 30.2188 15.2335C32.3134 18.2007 33.4491 21.7214 33.6556 24.2001C33.2279 22.2027 31.4025 17.9691 28.9319 14.9043C27.3425 12.9286 24.8165 11.17 23.3231 9.51276C23.1829 10.3667 22.143 16.623 25.672 20.2415C28.1978 22.8453 31.0358 25.1392 34.124 27.0731Z" fill="url(#paint0_linear_5435_17036)"/>
<path d="M25.982 3.30755C25.5667 3.24962 25.1477 3.2206 24.7283 3.2207C20.388 3.2207 16.1878 6.20955 16.1178 7.38916C19.0079 6.97422 21.9424 6.95109 24.8389 7.32041C28.3458 7.88489 31.554 9.54214 33.3941 11.1451C31.7273 10.0596 27.5419 8.38424 23.7105 8.02239C22.2628 7.93976 20.8106 7.98093 19.3702 8.14542C18.2684 8.26758 17.1601 8.32437 16.0514 8.31549C16.5418 9.0247 20.0819 14.2063 25.0491 14.1846C28.6376 14.1723 32.2104 13.7189 35.684 12.8349C35.684 12.8349 33.1765 4.74407 25.982 3.30755Z" fill="url(#paint1_linear_5435_17036)"/>
<path d="M15.6271 5.66299C18.4887 3.49192 21.896 2.31954 24.2892 2.10243C22.3569 2.53303 18.2674 4.43633 15.3063 6.98373C13.3961 8.63374 11.6999 11.2463 10.0958 12.7913C10.9218 12.9361 16.9657 14.0144 20.4652 10.3597C23.0034 7.7088 25.2174 4.77609 27.0623 1.62118C24.9342 0.586059 22.5968 0.0321267 20.2218 0.000108943C17.8833 -0.032396 15.5949 0.665856 13.6875 1.99388C9.8745 4.98634 8.67604 11.1196 9.50574 12.093C11.2531 9.69802 13.3109 7.53652 15.6271 5.66299Z" fill="url(#paint2_linear_5435_17036)"/>
<path d="M14.6094 11.011C14.6007 7.30397 14.1627 3.60996 13.304 0C13.304 0 5.49004 2.59805 4.10351 10.0557C3.45081 14.9623 6.80651 20.1765 8.04553 20.2633C7.64423 17.2621 7.62193 14.2238 7.97916 11.2172C8.52123 7.59875 10.1253 4.28063 11.6741 2.37371C10.6121 4.09971 9.01905 8.431 8.65029 12.3968C8.42535 14.9623 9.01905 18.0525 8.93424 20.3176C9.62381 19.8147 14.6315 16.1528 14.6094 11.011Z" fill="url(#paint3_linear_5435_17036)"/>
<path d="M12.5886 27.0986C10.2473 25.2602 8.15874 23.1317 6.37508 20.7663C4.28054 17.7992 3.14477 14.2785 2.93826 11.7998C3.36602 13.7972 5.19137 18.0308 7.65467 21.0956C9.2477 23.0713 11.77 24.8299 13.2672 26.4871C13.4036 25.6332 14.4435 19.3769 10.9145 15.7584C8.39097 13.1551 5.55549 10.8612 2.46994 8.92676C1.46952 11.1475 0.937659 13.544 0.906406 15.9719V16.0406C0.873884 18.4192 1.54232 20.7563 2.83132 22.771C5.72607 26.7187 11.6483 27.9562 12.5886 27.0986Z" fill="url(#paint4_linear_5435_17036)"/>
<path d="M20.4762 28.6112C17.586 29.0243 14.6517 29.0474 11.7551 28.6799C8.24822 28.1191 5.04002 26.4582 3.19992 24.8552C4.86671 25.9408 9.05211 27.6161 12.8835 27.9779C14.3321 28.0665 15.7859 28.0278 17.2275 27.8622C18.3292 27.7398 19.4375 27.683 20.5463 27.6921C20.0521 26.9793 16.5305 21.8193 11.6002 21.8193H11.5633C7.96774 21.8241 4.3871 22.2739 0.90625 23.1582C0.90625 23.1582 3.4138 31.2454 10.6193 32.6819C15.3652 33.3658 20.3988 29.9066 20.4762 28.6112Z" fill="url(#paint5_linear_5435_17036)"/>
<path d="M16.3942 36C18.7243 36.0292 21.004 35.3338 22.9065 34.0135C26.7194 31.0138 27.9179 24.8805 27.0882 23.9071C25.3408 26.3021 23.283 28.4636 20.9668 30.3371C18.1052 32.5082 14.6979 33.6806 12.3084 33.8977C14.237 33.4526 18.3302 31.5674 21.2876 29.0164C23.1978 27.37 24.8978 24.7574 26.4982 23.2268C25.5248 23.0528 24.5375 22.9656 23.5481 22.9663C21.2876 22.9663 18.2306 23.4439 16.1139 25.6584C13.5818 28.303 11.3728 31.2284 9.53162 34.3753C11.6533 35.4065 13.9826 35.9603 16.3499 35.9964L16.3942 36Z" fill="url(#paint6_linear_5435_17036)"/>
<path d="M32.4795 25.9985C31.5133 25.3291 30.23 24.3774 28.7882 23.158C28.7439 23.7406 28.6886 24.2869 28.6149 24.7827C28.0728 28.4011 26.4687 31.7337 24.9273 33.6406C25.9893 31.9146 27.5934 27.5833 27.9437 23.6175C27.9769 23.2557 27.9917 22.854 27.9954 22.4632C27.2579 21.7938 26.4687 21.0593 25.6869 20.256C25.2288 19.7759 24.8325 19.2424 24.5069 18.6675C23.1941 20.2813 21.9846 22.4524 21.9957 24.9889C22.0033 28.6942 22.4375 32.3867 23.29 35.9963C23.29 35.9963 31.0634 33.4127 32.4795 25.9985Z" fill="url(#paint7_linear_5435_17036)"/>
<defs>
<linearGradient id="paint0_linear_5435_17036" x1="17.1888" y1="17.139" x2="33.5715" y2="16.4959" gradientUnits="userSpaceOnUse">
<stop stop-color="#4CC4D9"/>
<stop offset="1" stop-color="#0995B5"/>
</linearGradient>
<linearGradient id="paint1_linear_5435_17036" x1="27.0148" y1="11.5233" x2="41.8378" y2="-4.79403" gradientUnits="userSpaceOnUse">
<stop stop-color="#2699D3"/>
<stop offset="1" stop-color="#0C52A0"/>
</linearGradient>
<linearGradient id="paint2_linear_5435_17036" x1="14.5601" y1="17.6733" x2="14.0007" y2="2.85017" gradientUnits="userSpaceOnUse">
<stop stop-color="#AA62A7"/>
<stop offset="1" stop-color="#6D2C90"/>
</linearGradient>
<linearGradient id="paint3_linear_5435_17036" x1="10.5376" y1="12.7288" x2="-5.76265" y2="-2.65166" gradientUnits="userSpaceOnUse">
<stop stop-color="#E16BA8"/>
<stop offset="1" stop-color="#C73793"/>
</linearGradient>
<linearGradient id="paint4_linear_5435_17036" x1="21.9972" y1="16.3083" x2="7.77371" y2="16.8672" gradientUnits="userSpaceOnUse">
<stop stop-color="#F26E52"/>
<stop offset="1" stop-color="#D32E27"/>
</linearGradient>
<linearGradient id="paint5_linear_5435_17036" x1="9.64212" y1="18.0612" x2="-5.48042" y2="34.7108" gradientUnits="userSpaceOnUse">
<stop stop-color="#F8A045"/>
<stop offset="1" stop-color="#F26E21"/>
</linearGradient>
<linearGradient id="paint6_linear_5435_17036" x1="23.5796" y1="15.9936" x2="24.099" y2="29.7601" gradientUnits="userSpaceOnUse">
<stop stop-color="#FBDC61"/>
<stop offset="1" stop-color="#FBB033"/>
</linearGradient>
<linearGradient id="paint7_linear_5435_17036" x1="12.9714" y1="28.983" x2="27.4662" y2="42.6546" gradientUnits="userSpaceOnUse">
<stop stop-color="#CDDA51"/>
<stop offset="1" stop-color="#85A43D"/>
</linearGradient>
</defs>
</svg>
