<svg width="182" height="48" fill="none" xmlns="http://www.w3.org/2000/svg"><path d="M64.616 43.116a6.274 6.274 0 0 1-2.452-.433 6.175 6.175 0 0 1-2.076-1.35 6.036 6.036 0 0 1-1.363-2.043 5.942 5.942 0 0 1-.426-2.407 6.088 6.088 0 0 1 .43-2.422 6.183 6.183 0 0 1 1.356-2.068 6.324 6.324 0 0 1 2.07-1.388 6.426 6.426 0 0 1 4.916 0 6.324 6.324 0 0 1 2.07 1.388 6.183 6.183 0 0 1 1.357 2.068c.307.771.453 1.595.43 2.422a5.942 5.942 0 0 1-.427 2.405 6.035 6.035 0 0 1-1.361 2.044 6.177 6.177 0 0 1-2.075 1.35 6.273 6.273 0 0 1-2.45.434Zm0-11.425c-3.115 0-5.017 2.398-5.017 5.183 0 2.785 1.902 5.168 5.017 5.168 3.114 0 5.011-2.397 5.011-5.168 0-2.771-1.897-5.183-5.011-5.183ZM82.31 41.055h.03v-10.12h1.231v11.88h-1.54l-7.026-10.217h-.034v10.216H73.74v-11.88h1.54l7.03 10.12ZM88.246 41.74h5.647v1.074h-6.88v-11.88h1.233V41.74ZM97.198 42.814h-1.232v-11.88h1.232v11.88ZM109.229 41.055h.034v-10.12h1.232v11.88h-1.54l-7.06-10.217h-.034v10.216h-1.232v-11.88h1.54l7.06 10.12ZM115.165 41.74h6.483v1.074h-7.715v-11.88h7.519v1.07h-6.287v4.094h5.867v1.06h-5.867v4.582Z" fill="#0C72E0"></path><path d="M69.687 21.01h-.05L61.234 7.708H58.3v16.64h2.249V10.767h.049l8.497 13.582h2.84V7.707h-2.248v13.304ZM78.09 16.735h7.594v-2H78.09v-4.98h8.067V7.706H75.842v16.64H86.5v-2.066h-8.41v-5.546ZM103.841 20.963h-.049l-3.75-13.256h-2.474l-3.774 13.256h-.044L90.205 7.707h-2.43l4.723 16.64h2.342l3.907-13.37h.049l3.906 13.37h2.342l4.728-16.64h-2.386l-3.545 13.256ZM120.158 16.312a5.948 5.948 0 0 0-1.526-.872 27.518 27.518 0 0 0-1.657-.585l-1.286-.48a4.201 4.201 0 0 1-1.041-.541 2.37 2.37 0 0 1-.705-.772 2.27 2.27 0 0 1-.264-1.141 2.444 2.444 0 0 1 .284-1.213c.183-.329.435-.616.738-.844a2.918 2.918 0 0 1 1.012-.48c.358-.099.728-.15 1.1-.153.643-.01 1.277.14 1.844.436.518.264.962.647 1.295 1.117l1.589-1.6a5.242 5.242 0 0 0-1.955-1.386 6.706 6.706 0 0 0-2.636-.518c-.673 0-1.342.093-1.99.273-.64.17-1.241.46-1.769.854a4.604 4.604 0 0 0-1.277 1.481 4.443 4.443 0 0 0-.488 2.138 4.47 4.47 0 0 0 .366 1.918c.231.498.564.943.978 1.309.398.355.85.648 1.34.867.479.227.972.424 1.476.59l1.467.48c.43.148.839.35 1.217.599a2.8 2.8 0 0 1 .832.858c.213.387.317.822.303 1.26.013.445-.088.885-.294 1.28a2.795 2.795 0 0 1-.762.883c-.308.234-.658.41-1.032.518-.37.108-.753.163-1.139.163a4.163 4.163 0 0 1-2.059-.518 4.306 4.306 0 0 1-1.52-1.41l-1.75 1.53a5.845 5.845 0 0 0 2.351 1.807 7.376 7.376 0 0 0 2.934.614 7.22 7.22 0 0 0 2.078-.307 5.195 5.195 0 0 0 1.774-.93 4.54 4.54 0 0 0 1.242-1.572 5.113 5.113 0 0 0 .465-2.244 4.383 4.383 0 0 0-.43-2.057 4.244 4.244 0 0 0-1.105-1.352ZM135.313 7.707h-12.565v2.047h5.158v14.594h2.249V9.754h5.158V7.707ZM141.22 7.707l-6.977 16.626h2.503l1.614-4.09h7.632l1.638 4.09h2.547l-6.908-16.626h-2.049Zm-2.068 10.509 3.026-7.786 2.997 7.805-6.023-.02ZM162.033 15.277a4.074 4.074 0 0 0 1.09-2.963 4.629 4.629 0 0 0-.454-2.148 3.8 3.8 0 0 0-1.237-1.438 5.372 5.372 0 0 0-1.843-.772 9.68 9.68 0 0 0-2.205-.249h-5.129v16.626h2.249v-7.388h2.405l4.083 7.388h2.728l-4.503-7.622a5 5 0 0 0 2.816-1.434Zm-4.953-.283h-2.591V9.682h2.748c.466-.002.931.042 1.388.13.406.073.795.221 1.145.436.329.202.603.48.796.81.208.387.309.82.294 1.256.015.438-.086.873-.294 1.261a2.41 2.41 0 0 1-.806.82c-.366.228-.77.39-1.193.48a7.536 7.536 0 0 1-1.482.12h-.005ZM164.149 9.754h5.158v14.594h2.25V9.754h5.162V7.707h-12.57v2.047ZM179.946 5.3a2.088 2.088 0 0 0-1.145.338 2.025 2.025 0 0 0-.76.905 1.977 1.977 0 0 0-.119 1.166c.079.392.274.752.562 1.035a2.07 2.07 0 0 0 1.054.554c.399.078.813.038 1.19-.114.376-.153.698-.411.924-.744a1.987 1.987 0 0 0-.254-2.547 2.079 2.079 0 0 0-1.452-.593Zm0 3.792c-.359.001-.71-.102-1.01-.297a1.787 1.787 0 0 1-.67-.798 1.744 1.744 0 0 1-.104-1.029 1.77 1.77 0 0 1 .497-.912 1.848 1.848 0 0 1 1.979-.385c.331.136.614.364.813.658a1.754 1.754 0 0 1-.226 2.244c-.339.333-.799.52-1.279.52Z" fill="#131336"></path><path d="M180.704 6.906c0-.48-.406-.633-.816-.633h-.812V8.36h.489v-.806h.176l.46.825h.601l-.557-.892a.582.582 0 0 0 .337-.207.56.56 0 0 0 .122-.373Zm-.88.26h-.244v-.48h.274c.151 0 .342.038.342.23s-.21.25-.372.25Z" fill="#131336"></path><path d="M35.438 28.392c0 2.297-1.14 11.746-4.185 16.957 1.247-1.145 7.412-8.39 6.302-16.995a5.174 5.174 0 0 0-2.117.038Z" fill="#CDDA51"></path><path d="M34.92 18.008c1.584 1.606 7.226 9.143 8.634 15.073.098-1.72-.489-11.352-7.167-16.63a5.496 5.496 0 0 0-1.467 1.576" fill="#4CC4D9"></path><path d="M27.454 11.028c2.22-.024 11.358 1.18 16.393 4.315-1.105-1.29-8.11-7.67-16.437-6.52a5.81 5.81 0 0 0 .044 2.205Z" fill="#2699D3"></path><path d="M17.411 11.584c1.555-1.64 8.84-7.474 14.55-8.931-1.647-.1-10.971.513-16.075 7.416.4.602.918 1.118 1.525 1.52" fill="#AA62A7"></path><path d="M10.68 19.308c-.025-2.297 1.139-11.75 4.185-16.957-1.247 1.14-7.412 8.385-6.302 16.995.7.133 1.422.12 2.117-.038Z" fill="#E16BA8"></path><path d="M11.198 29.692c-1.584-1.606-7.221-9.143-8.634-15.054-.098 1.721.489 11.353 7.167 16.626a5.444 5.444 0 0 0 1.467-1.572Z" fill="#F26E52"></path><path d="M18.669 36.653c-2.225 0-11.363-1.18-16.398-4.315 1.11 1.29 8.11 7.67 16.437 6.52a5.736 5.736 0 0 0-.04-2.19" fill="#F8A045"></path><path d="M33.933 30.751C29.269 35.368 23.24 42.415 14.18 45.067c1.662.1 11.978-.096 20.583-13.338-.489-.848-.807-.959-.807-.959" fill="#FBDC61"></path><path d="M44.043 35.871s4.972-10.01-.49-18.342c-3.07-4.19-8.726-6.074-11.494-6.074a2.28 2.28 0 0 0-1.466.34 45.525 45.525 0 0 1 8.272 8.39c2.777 3.931 4.283 8.596 4.557 11.88-.567-2.646-2.987-8.256-6.263-12.316-2.108-2.618-5.457-4.948-7.437-7.144-.186 1.132-1.564 9.42 3.115 14.215a59.903 59.903 0 0 0 11.206 9.051Z" fill="url(#a)"></path><path d="M33.248 4.383a12.02 12.02 0 0 0-1.663-.115c-5.754 0-11.323 3.96-11.416 5.523 3.832-.55 7.723-.58 11.563-.091 4.65.748 8.903 2.944 11.343 5.067-2.21-1.438-7.76-3.658-12.84-4.137a33.799 33.799 0 0 0-5.754.163c-1.46.162-2.93.237-4.4.225.65.94 5.344 7.805 11.93 7.776a58.02 58.02 0 0 0 14.1-1.788S42.786 6.286 33.248 4.383Z" fill="url(#b)"></path><path d="M19.52 7.504c3.793-2.876 8.311-4.43 11.484-4.717-2.562.57-7.984 3.092-11.91 6.467-2.533 2.186-4.782 5.648-6.908 7.695 1.095.192 9.108 1.62 13.748-3.222A62 62 0 0 0 34.681 2.15 21.412 21.412 0 0 0 25.61.001c-3.1-.043-6.134.883-8.663 2.642-5.056 3.965-6.645 12.09-5.545 13.38a45.32 45.32 0 0 1 8.116-8.519Z" fill="url(#c)"></path><path d="M18.17 14.59A63.642 63.642 0 0 0 16.439.001S6.079 3.444 4.24 13.325c-.865 6.5 3.584 13.409 5.227 13.524a47.804 47.804 0 0 1-.088-11.986c.719-4.794 2.845-9.19 4.899-11.717-1.408 2.287-3.52 8.026-4.01 13.28-.297 3.4.49 7.494.377 10.495.915-.667 7.554-5.518 7.525-12.33Z" fill="url(#d)"></path><path d="M15.49 35.905a45.52 45.52 0 0 1-8.238-8.39c-2.777-3.931-4.283-8.596-4.557-11.88.568 2.647 2.988 8.256 6.254 12.316 2.112 2.618 5.456 4.948 7.44 7.144.182-1.132 1.56-9.42-3.118-14.215a59.904 59.904 0 0 0-11.197-9.051 23.441 23.441 0 0 0-2.072 9.334v.091a16.121 16.121 0 0 0 2.552 8.917c3.838 5.23 11.69 6.87 12.936 5.734Z" fill="url(#e)"></path><path d="M25.948 37.909a43.283 43.283 0 0 1-11.563.09c-4.65-.742-8.903-2.943-11.343-5.067 2.21 1.439 7.76 3.658 12.839 4.138 1.92.117 3.848.066 5.76-.154 1.46-.162 2.93-.237 4.4-.225-.655-.944-5.325-7.78-11.861-7.78h-.05A57.737 57.737 0 0 0 .002 30.683s3.325 10.715 12.878 12.618c6.292.906 12.966-3.677 13.069-5.393Z" fill="url(#f)"></path><path d="M20.536 47.699a14.83 14.83 0 0 0 8.634-2.632c5.056-3.975 6.645-12.1 5.545-13.39a45.326 45.326 0 0 1-8.116 8.519c-3.794 2.876-8.312 4.43-11.48 4.717 2.557-.59 7.984-3.087 11.905-6.467 2.533-2.181 4.787-5.643 6.908-7.67a22.15 22.15 0 0 0-3.91-.346c-2.998 0-7.051.633-9.857 3.567a61.906 61.906 0 0 0-8.727 11.55 21.447 21.447 0 0 0 9.04 2.147l.058.005Z" fill="url(#g)"></path><path d="M41.862 34.447a64.935 64.935 0 0 1-4.894-3.763 30.478 30.478 0 0 1-.23 2.152c-.719 4.794-2.845 9.21-4.89 11.736 1.409-2.286 3.536-8.025 4-13.28.044-.479.064-1.011.069-1.529a68.006 68.006 0 0 1-3.06-2.924 10.65 10.65 0 0 1-1.566-2.105c-1.74 2.138-3.344 5.015-3.329 8.376.01 4.909.586 9.801 1.716 14.583 0 0 10.306-3.423 12.184-13.246Z" fill="url(#h)"></path><defs><linearGradient id="a" x1="21.589" y1="22.709" x2="43.31" y2="21.856" gradientUnits="userSpaceOnUse"><stop stop-color="#4CC4D9"></stop><stop offset="1" stop-color="#0995B5"></stop></linearGradient><linearGradient id="b" x1="34.617" y1="15.268" x2="54.255" y2="-6.364" gradientUnits="userSpaceOnUse"><stop stop-color="#2699D3"></stop><stop offset="1" stop-color="#0C52A0"></stop></linearGradient><linearGradient id="c" x1="18.105" y1="23.417" x2="17.364" y2="3.778" gradientUnits="userSpaceOnUse"><stop stop-color="#AA62A7"></stop><stop offset="1" stop-color="#6D2C90"></stop></linearGradient><linearGradient id="d" x1="12.771" y1="16.866" x2="-8.826" y2="-3.527" gradientUnits="userSpaceOnUse"><stop stop-color="#E16BA8"></stop><stop offset="1" stop-color="#C73793"></stop></linearGradient><linearGradient id="e" x1="27.965" y1="21.609" x2="9.107" y2="22.35" gradientUnits="userSpaceOnUse"><stop stop-color="#F26E52"></stop><stop offset="1" stop-color="#D32E27"></stop></linearGradient><linearGradient id="f" x1="11.583" y1="23.931" x2="-8.451" y2="46.004" gradientUnits="userSpaceOnUse"><stop stop-color="#F8A045"></stop><stop offset="1" stop-color="#F26E21"></stop></linearGradient><linearGradient id="g" x1="30.063" y1="21.192" x2="30.751" y2="39.431" gradientUnits="userSpaceOnUse"><stop stop-color="#FBDC61"></stop><stop offset="1" stop-color="#FBB033"></stop></linearGradient><linearGradient id="h" x1="15.997" y1="38.401" x2="35.203" y2="56.529" gradientUnits="userSpaceOnUse"><stop stop-color="#CDDA51"></stop><stop offset="1" stop-color="#85A43D"></stop></linearGradient></defs></svg>