<svg width="48" height="48" fill="none" xmlns="http://www.w3.org/2000/svg"><path d="M36.885 28.571c0 2.311-1.185 11.82-4.356 17.064 1.298-1.153 7.715-8.443 6.56-17.102a5.566 5.566 0 0 0-2.204.038Z" fill="#CDDA51"></path><path d="M36.346 18.122c1.649 1.616 7.521 9.2 8.987 15.167.102-1.732-.51-11.424-7.46-16.735a5.61 5.61 0 0 0-1.527 1.587" fill="#4CC4D9"></path><path d="M28.575 11.098c2.31-.024 11.821 1.187 17.063 4.342-1.15-1.298-8.443-7.72-17.11-6.561a5.653 5.653 0 0 0 .047 2.219Z" fill="#2699D3"></path><path d="M18.122 11.657c1.618-1.65 9.2-7.521 15.145-8.988-1.715-.101-11.42.516-16.733 7.463a5.569 5.569 0 0 0 1.588 1.53" fill="#AA62A7"></path><path d="M11.115 19.43c-.025-2.312 1.186-11.825 4.357-17.065-1.298 1.149-7.715 8.438-6.56 17.103.73.134 1.48.12 2.203-.039Z" fill="#E16BA8"></path><path d="M11.654 29.879c-1.65-1.616-7.517-9.2-8.987-15.149-.102 1.732.509 11.425 7.46 16.731a5.558 5.558 0 0 0 1.527-1.582Z" fill="#F26E52"></path><path d="M19.43 36.884c-2.315 0-11.826-1.187-17.068-4.342 1.155 1.298 8.443 7.719 17.11 6.561.132-.73.118-1.479-.042-2.205" fill="#F8A045"></path><path d="M35.318 30.945c-4.855 4.646-11.13 11.738-20.56 14.406 1.731.1 12.469-.097 21.425-13.422-.509-.854-.84-.965-.84-.965" fill="#FBDC61"></path><path d="M45.843 36.097s5.175-10.073-.51-18.458c-3.195-4.216-9.083-6.112-11.963-6.112a2.437 2.437 0 0 0-1.527.342 46.598 46.598 0 0 1 8.61 8.443c2.89 3.956 4.458 8.65 4.743 11.955-.59-2.663-3.11-8.308-6.519-12.394-2.193-2.634-5.679-4.979-7.74-7.188-.193 1.138-1.628 9.48 3.242 14.304a62 62 0 0 0 11.663 9.108Z" fill="url(#a)"></path><path d="M34.606 4.41a12.935 12.935 0 0 0-1.73-.115c-5.99 0-11.786 3.985-11.883 5.558a46.373 46.373 0 0 1 12.035-.092c4.84.753 9.267 2.962 11.806 5.1-2.3-1.448-8.076-3.682-13.363-4.164a36.365 36.365 0 0 0-5.99.164c-1.52.163-3.05.239-4.58.227.677.945 5.563 7.854 12.417 7.825a62.357 62.357 0 0 0 14.677-1.8s-3.46-10.787-13.39-12.702Z" fill="url(#b)"></path><path d="M20.317 7.552c3.949-2.895 8.65-4.458 11.953-4.748-2.666.575-8.31 3.112-12.396 6.508-2.636 2.2-4.977 5.684-7.19 7.744 1.14.193 9.48 1.63 14.31-3.242a62.626 62.626 0 0 0 9.103-11.651A22.916 22.916 0 0 0 26.657 0C23.43-.042 20.273.89 17.64 2.66c-5.262 3.99-6.916 12.167-5.77 13.465a46.307 46.307 0 0 1 8.447-8.573Z" fill="url(#c)"></path><path d="M18.912 14.682A62.018 62.018 0 0 0 17.111.002S6.327 3.464 4.414 13.407c-.9 6.542 3.73 13.494 5.44 13.61a46.52 46.52 0 0 1-.092-12.061c.748-4.825 2.962-9.249 5.1-11.791-1.466 2.301-3.665 8.076-4.174 13.363-.31 3.421.51 7.541.392 10.561.952-.67 7.863-5.553 7.832-12.408Z" fill="url(#d)"></path><path d="M16.123 36.131a46.589 46.589 0 0 1-8.575-8.443c-2.89-3.956-4.457-8.65-4.742-11.954.59 2.663 3.109 8.307 6.508 12.393 2.199 2.635 5.68 4.98 7.746 7.189.188-1.139 1.623-9.48-3.247-14.305a62.002 62.002 0 0 0-11.654-9.108 22.932 22.932 0 0 0-2.157 9.393v.092a15.828 15.828 0 0 0 2.656 8.973c3.995 5.263 12.168 6.913 13.465 5.77Z" fill="url(#e)"></path><path d="M27.008 38.148c-3.989.55-8.038.581-12.035.091-4.84-.747-9.267-2.962-11.807-5.1 2.3 1.448 8.076 3.682 13.364 4.164 1.999.119 4.005.067 5.994-.154a39.98 39.98 0 0 1 4.58-.227c-.681-.95-5.541-7.83-12.345-7.83h-.051A62.052 62.052 0 0 0 0 30.877s3.46 10.783 13.404 12.698c6.55.912 13.496-3.7 13.603-5.427Z" fill="url(#f)"></path><path d="M21.375 47.999c3.215.039 6.361-.888 8.987-2.649 5.262-4 6.916-12.177 5.77-13.474a46.306 46.306 0 0 1-8.447 8.573c-3.949 2.894-8.651 4.457-11.949 4.747 2.662-.594 8.31-3.107 12.392-6.508 2.636-2.195 4.982-5.679 7.19-7.72a23.832 23.832 0 0 0-4.07-.347c-3.12 0-7.339.637-10.26 3.59a62.541 62.541 0 0 0-9.084 11.622 22.952 22.952 0 0 0 9.41 2.16l.06.006Z" fill="url(#g)"></path><path d="M43.573 34.664a67.375 67.375 0 0 1-5.094-3.787 29.744 29.744 0 0 1-.239 2.166c-.748 4.825-2.962 9.268-5.089 11.81 1.466-2.3 3.68-8.076 4.163-13.363.046-.483.066-1.018.071-1.54a69.89 69.89 0 0 1-3.185-2.942 10.747 10.747 0 0 1-1.629-2.118c-1.811 2.152-3.48 5.046-3.465 8.428.01 4.94.61 9.864 1.786 14.676 0 0 10.727-3.445 12.681-13.33Z" fill="url(#h)"></path><defs><linearGradient id="a" x1="22.472" y1="22.852" x2="45.078" y2="21.934" gradientUnits="userSpaceOnUse"><stop stop-color="#4CC4D9"></stop><stop offset="1" stop-color="#0995B5"></stop></linearGradient><linearGradient id="b" x1="36.031" y1="15.364" x2="55.717" y2="-7.066" gradientUnits="userSpaceOnUse"><stop stop-color="#2699D3"></stop><stop offset="1" stop-color="#0C52A0"></stop></linearGradient><linearGradient id="c" x1="18.844" y1="23.564" x2="18.123" y2="3.799" gradientUnits="userSpaceOnUse"><stop stop-color="#AA62A7"></stop><stop offset="1" stop-color="#6D2C90"></stop></linearGradient><linearGradient id="d" x1="13.293" y1="16.972" x2="-8.47" y2="-4.283" gradientUnits="userSpaceOnUse"><stop stop-color="#E16BA8"></stop><stop offset="1" stop-color="#C73793"></stop></linearGradient><linearGradient id="e" x1="29.107" y1="21.745" x2="9.481" y2="22.543" gradientUnits="userSpaceOnUse"><stop stop-color="#F26E52"></stop><stop offset="1" stop-color="#D32E27"></stop></linearGradient><linearGradient id="f" x1="12.057" y1="24.082" x2="-8.027" y2="46.969" gradientUnits="userSpaceOnUse"><stop stop-color="#F8A045"></stop><stop offset="1" stop-color="#F26E21"></stop></linearGradient><linearGradient id="g" x1="31.291" y1="21.325" x2="31.96" y2="39.681" gradientUnits="userSpaceOnUse"><stop stop-color="#FBDC61"></stop><stop offset="1" stop-color="#FBB033"></stop></linearGradient><linearGradient id="h" x1="16.652" y1="38.643" x2="36.005" y2="57.537" gradientUnits="userSpaceOnUse"><stop stop-color="#CDDA51"></stop><stop offset="1" stop-color="#85A43D"></stop></linearGradient></defs></svg>