<svg width="136" height="36" viewBox="0 0 136 36" fill="none" xmlns="http://www.w3.org/2000/svg">
<g clip-path="url(#clip0_8721_4561)">
<path d="M47.2776 32.2694C46.6451 32.2849 46.016 32.1737 45.4289 31.9424C44.8417 31.7112 44.3088 31.3648 43.8628 30.9244C43.4168 30.4841 43.0671 29.959 42.835 29.3815C42.603 28.8039 42.4935 28.1859 42.5133 27.5654C42.4955 26.9407 42.6056 26.319 42.837 25.7368C43.0684 25.1546 43.4163 24.6238 43.8603 24.1759C44.3043 23.7279 44.8353 23.3718 45.4219 23.1287C46.0086 22.8856 46.6389 22.7603 47.2758 22.7603C47.9126 22.7603 48.5429 22.8856 49.1296 23.1287C49.7162 23.3718 50.2472 23.7279 50.6912 24.1759C51.1352 24.6238 51.4831 25.1546 51.7145 25.7368C51.9459 26.319 52.056 26.9407 52.0382 27.5654C52.058 28.1856 51.9486 28.8033 51.7168 29.3806C51.4849 29.9579 51.1356 30.4828 50.6899 30.9231C50.2443 31.3634 49.7119 31.7098 49.1252 31.9413C48.5385 32.1728 47.9098 32.2844 47.2776 32.2694ZM47.2776 23.6466C44.9286 23.6466 43.4941 25.4558 43.4941 27.5581C43.4941 29.6605 44.9286 31.4588 47.2776 31.4588C49.6266 31.4588 51.0574 29.6496 51.0574 27.5581C51.0574 25.4667 49.6266 23.6466 47.2776 23.6466Z" fill="#0C72E0"/>
<path d="M60.623 30.7134H60.6451V23.0749H61.5744V32.0414H60.4128L55.1138 24.3305H55.088V32.0414H54.1587V23.0749H55.3203L60.623 30.7134Z" fill="#0C72E0"/>
<path d="M65.0999 31.2308H69.3591V32.0414H64.1707V23.0749H65.0999V31.2308Z" fill="#0C72E0"/>
<path d="M71.8516 32.0414H70.9224V23.0749H71.8516V32.0414Z" fill="#0C72E0"/>
<path d="M80.9269 30.7134H80.9527V23.0749H81.882V32.0414H80.7204L75.3955 24.3305H75.3697V32.0414H74.4404V23.0749H75.602L80.9269 30.7134Z" fill="#0C72E0"/>
<path d="M85.4036 31.2308H90.2934V32.0414H84.4744V23.0749H90.1459V23.8818H85.4036V26.9719H89.8288V27.7716H85.4036V31.2308Z" fill="#0C72E0"/>
<path d="M51.1018 15.5847H51.0649L44.726 5.54349H42.5134V18.1031H44.2097V7.85206H44.2466L50.6556 18.1031H52.7981V5.54349H51.1018V15.5847Z" fill="white"/>
<path d="M57.4404 12.357H63.1672V10.8481H57.4404V7.08857H63.5249V5.54349H55.7441V18.1031H63.7831V16.5436H57.4404V12.357Z" fill="white"/>
<path d="M76.8632 15.5485H76.8264L73.998 5.54349H72.1321L69.2853 15.5485H69.2521L66.5786 5.54349H64.7458L68.308 18.1031H70.0744L73.0208 8.01127H73.0576L76.004 18.1031H77.7704L81.3363 5.54349H79.5367L76.8632 15.5485Z" fill="white"/>
<path d="M89.1686 12.0386C88.8208 11.7638 88.433 11.5418 88.0181 11.38C87.5977 11.2172 87.181 11.0688 86.768 10.9386L85.7982 10.5767C85.518 10.4774 85.2536 10.3398 85.0127 10.1679C84.7938 10.0147 84.6124 9.81574 84.4817 9.58528C84.3407 9.3199 84.2721 9.02321 84.2826 8.72409C84.2734 8.40605 84.347 8.09096 84.4964 7.80862C84.6346 7.56048 84.8243 7.34353 85.0533 7.17177C85.2812 7.00337 85.5405 6.88044 85.8166 6.80992C86.0866 6.73476 86.3657 6.69581 86.6463 6.69413C87.1307 6.68619 87.6092 6.79951 88.0365 7.02341C88.4273 7.22229 88.7627 7.51169 89.0137 7.86651L90.2122 6.65795C89.8101 6.20156 89.305 5.84349 88.7372 5.61222C88.109 5.34937 87.4324 5.21634 86.7496 5.22142C86.242 5.22191 85.7369 5.29132 85.2487 5.42768C84.7654 5.55543 84.312 5.77419 83.9138 6.07176C83.5154 6.37284 83.1872 6.75407 82.9514 7.18986C82.6951 7.68989 82.5685 8.24419 82.5826 8.80369C82.567 9.3001 82.6614 9.79392 82.8592 10.2511C83.033 10.6267 83.2841 10.963 83.5967 11.2389C83.8971 11.507 84.2379 11.7279 84.6071 11.8939C84.9683 12.0652 85.3403 12.2138 85.7207 12.3389L86.827 12.7008C87.1512 12.8132 87.4596 12.9652 87.7452 13.1531C87.9992 13.3222 88.213 13.5432 88.3721 13.8008C88.5329 14.0925 88.6118 14.4209 88.6007 14.7524C88.6105 15.0876 88.5344 15.4197 88.3795 15.7186C88.2374 15.9776 88.0414 16.2044 87.8042 16.3844C87.5719 16.561 87.308 16.6936 87.0261 16.7751C86.7473 16.8567 86.4579 16.8981 86.1669 16.8982C85.6234 16.9042 85.0879 16.7694 84.6145 16.5074C84.1494 16.2499 83.7557 15.8847 83.4676 15.4436L82.1475 16.5978C82.6088 17.1951 83.2199 17.6651 83.9212 17.962C84.6177 18.266 85.3714 18.4238 86.1337 18.4252C86.665 18.4248 87.1932 18.3468 87.701 18.1936C88.1897 18.0478 88.6445 17.8093 89.0395 17.4916C89.4374 17.1689 89.7573 16.7635 89.9762 16.3047C90.2199 15.7729 90.3396 15.1943 90.3265 14.6113C90.346 14.0759 90.2347 13.5437 90.002 13.059C89.7991 12.6659 89.5154 12.3185 89.1686 12.0386Z" fill="white"/>
<path d="M100.6 5.54349H91.123V7.08857H95.0134V18.1031H96.7097V7.08857H100.6V5.54349Z" fill="white"/>
<path d="M105.055 5.54349L99.7925 18.0923H101.681L102.897 15.0057H108.654L109.889 18.0923H111.81L106.6 5.54349H105.055ZM103.495 13.4751L105.777 7.59877L108.038 13.4896L103.495 13.4751Z" fill="white"/>
<path d="M120.753 11.257C121.318 10.6478 121.613 9.84363 121.575 9.02081C121.592 8.46151 121.475 7.90611 121.232 7.39975C121.019 6.96649 120.698 6.59306 120.299 6.31421C119.878 6.03518 119.406 5.83747 118.909 5.73164C118.364 5.60533 117.806 5.54218 117.246 5.54348H113.377V18.0923H115.074V12.5162H116.888L119.967 18.0923H122.025L118.629 12.3389C119.438 12.2158 120.184 11.8358 120.753 11.257ZM117.017 11.0435H115.063V7.03428H117.135C117.487 7.03294 117.837 7.06567 118.182 7.13198C118.489 7.18732 118.781 7.29905 119.045 7.46126C119.294 7.61348 119.5 7.82353 119.646 8.07278C119.803 8.36448 119.879 8.69128 119.868 9.02081C119.879 9.35149 119.803 9.67946 119.646 9.97247C119.497 10.2237 119.288 10.4359 119.038 10.5912C118.762 10.763 118.457 10.8855 118.138 10.9531C117.77 11.02 117.395 11.0503 117.021 11.0435H117.017Z" fill="white"/>
<path d="M122.349 7.08857H126.24V18.1031H127.936V7.08857H131.83V5.54349H122.349V7.08857Z" fill="white"/>
<path d="M134.264 3.72702C133.957 3.72631 133.656 3.81504 133.4 3.982C133.145 4.14895 132.945 4.38662 132.827 4.66491C132.709 4.94321 132.678 5.24962 132.737 5.54536C132.797 5.84111 132.944 6.11288 133.161 6.32629C133.378 6.5397 133.655 6.68515 133.956 6.74422C134.257 6.80329 134.57 6.77334 134.853 6.65814C135.137 6.54295 135.38 6.3477 135.551 6.09711C135.722 5.84651 135.813 5.55184 135.813 5.25039C135.813 4.847 135.65 4.46007 135.359 4.17449C135.069 3.8889 134.675 3.72798 134.264 3.72702ZM134.264 6.58922C133.993 6.58994 133.728 6.51172 133.502 6.36449C133.277 6.21725 133.101 6.00763 132.997 5.76218C132.893 5.51673 132.866 5.24651 132.918 4.98577C132.971 4.72502 133.101 4.48549 133.293 4.29753C133.484 4.10956 133.729 3.98164 133.994 3.92995C134.26 3.87827 134.535 3.90516 134.786 4.00721C135.036 4.10927 135.249 4.28189 135.399 4.50321C135.549 4.72453 135.629 4.98458 135.628 5.25039C135.628 5.60547 135.485 5.94601 135.229 6.19709C134.973 6.44817 134.626 6.58922 134.264 6.58922Z" fill="black"/>
<path d="M134.836 4.93918C134.836 4.57734 134.53 4.46155 134.22 4.46155H133.608V6.03558H133.976V5.42768H134.109L134.456 6.05005H134.909L134.489 5.37702C134.59 5.35579 134.68 5.30022 134.744 5.22013C134.807 5.14003 134.84 5.04054 134.836 4.93918ZM134.172 5.13458H133.987V4.77273H134.194C134.308 4.77273 134.452 4.80168 134.452 4.94642C134.452 5.09116 134.294 5.13458 134.172 5.13458Z" fill="black"/>
<path d="M27.6339 21.4285C27.6339 23.1617 26.7747 30.2937 24.4773 34.2269C25.4176 33.3621 30.0677 27.8946 29.2306 21.3995C28.7022 21.2989 28.1581 21.3088 27.6339 21.4285Z" fill="#CDDA51"/>
<path d="M27.2429 13.5909C28.4377 14.8031 32.6932 20.4913 33.7552 24.9673C33.8289 23.6683 33.3864 16.3988 28.3492 12.4149C27.9041 12.7364 27.5282 13.1409 27.2429 13.6054" fill="#4CC4D9"/>
<path d="M21.612 8.32242C23.2862 8.30432 30.1783 9.21256 33.9765 11.579C33.1431 10.6057 27.8588 5.7895 21.5789 6.65793C21.4836 7.2099 21.4948 7.77453 21.612 8.32242Z" fill="#2699D3"/>
<path d="M14.0377 8.74213C15.2104 7.50462 20.7049 3.10096 25.012 2.00095C23.7692 1.92496 16.737 2.38812 12.8872 7.5987C13.1889 8.05249 13.5801 8.44249 14.0377 8.74575" fill="#AA62A7"/>
<path d="M8.96021 14.5715C8.94177 12.8382 9.81942 5.70265 12.1168 1.77301C11.1764 2.6342 6.52641 8.10169 7.36349 14.6004C7.89188 14.701 8.43597 14.6912 8.96021 14.5715Z" fill="#E16BA8"/>
<path d="M9.35087 22.4091C8.1561 21.1969 3.90432 15.5087 2.83861 11.0471C2.76486 12.3461 3.20737 19.6156 8.2446 23.5959C8.69 23.2763 9.06607 22.8728 9.35087 22.4091Z" fill="#F26E52"/>
<path d="M14.9856 27.663C13.3077 27.663 6.41564 26.7729 2.61743 24.4064C3.45451 25.3798 8.73512 30.196 15.0151 29.3275C15.1115 28.7794 15.1015 28.2184 14.9856 27.6739" fill="#F8A045"/>
<path d="M26.4982 23.2087C22.9802 26.6933 18.4334 32.0124 11.6003 34.0134C12.8541 34.0894 20.6349 33.9411 27.125 23.9469C26.7563 23.3064 26.5166 23.2232 26.5166 23.2232" fill="#FBDC61"/>
<path d="M34.1241 27.0733C34.1241 27.0733 37.8743 19.5179 33.7553 13.2291C31.4395 10.0665 27.173 8.64449 25.0858 8.64449C24.6979 8.60241 24.3071 8.69317 23.9796 8.9014C26.33 10.7382 28.4273 12.8668 30.2189 15.2337C32.3135 18.2008 33.4493 21.7216 33.6558 24.2002C33.228 22.2028 31.4027 17.9692 28.932 14.9044C27.3426 12.9287 24.8166 11.1702 23.3232 9.51292C23.183 10.3669 22.1432 16.6232 25.6722 20.2416C28.198 22.8454 31.036 25.1393 34.1241 27.0733Z" fill="url(#paint0_linear_8721_4561)"/>
<path d="M25.9819 3.30727C25.5666 3.24935 25.1476 3.22033 24.7281 3.22043C20.3879 3.22043 16.1877 6.20927 16.1176 7.38889C19.0077 6.97395 21.9422 6.95082 24.8388 7.32014C28.3456 7.88462 31.5538 9.54187 33.3939 11.1448C31.7272 10.0593 27.5418 8.38396 23.7104 8.02212C22.2627 7.93949 20.8105 7.98065 19.3701 8.14515C18.2683 8.26731 17.16 8.3241 16.0513 8.31521C16.5417 9.02443 20.0818 14.2061 25.049 14.1843C28.6375 14.1721 32.2103 13.7186 35.6839 12.8347C35.6839 12.8347 33.1764 4.7438 25.9819 3.30727Z" fill="url(#paint1_linear_8721_4561)"/>
<path d="M15.6272 5.66287C18.4888 3.4918 21.8961 2.31942 24.2894 2.10231C22.3571 2.5329 18.2675 4.43621 15.3064 6.9836C13.3963 8.63362 11.7 11.2461 10.0959 12.7912C10.9219 12.936 16.9658 14.0143 20.4653 10.3596C23.0035 7.70868 25.2175 4.77597 27.0624 1.62105C24.9344 0.585937 22.5969 0.0320046 20.222 -1.31269e-05C17.8834 -0.032518 15.595 0.665734 13.6876 1.99376C9.87462 4.98622 8.67616 11.1195 9.50586 12.0929C11.2533 9.6979 13.311 7.5364 15.6272 5.66287Z" fill="url(#paint2_linear_8721_4561)"/>
<path d="M14.6095 11.011C14.6008 7.30397 14.1629 3.60996 13.3041 0C13.3041 0 5.49016 2.59805 4.10363 10.0557C3.45093 14.9623 6.80663 20.1765 8.04565 20.2633C7.64435 17.2621 7.62206 14.2238 7.97928 11.2172C8.52135 7.59875 10.1254 4.28063 11.6742 2.37371C10.6122 4.09971 9.01917 8.431 8.65042 12.3968C8.42547 14.9623 9.01917 18.0525 8.93436 20.3176C9.62394 19.8147 14.6317 16.1528 14.6095 11.011Z" fill="url(#paint3_linear_8721_4561)"/>
<path d="M12.5886 27.0986C10.2473 25.2602 8.15874 23.1317 6.37508 20.7663C4.28054 17.7992 3.14477 14.2784 2.93826 11.7998C3.36602 13.7972 5.19137 18.0308 7.65467 21.0956C9.2477 23.0713 11.77 24.8298 13.2672 26.4871C13.4036 25.6331 14.4435 19.3768 10.9145 15.7584C8.39097 13.155 5.55549 10.8611 2.46994 8.92673C1.46952 11.1475 0.937659 13.544 0.906406 15.9719V16.0406C0.873884 18.4192 1.54232 20.7563 2.83132 22.7709C5.72607 26.7187 11.6483 27.9562 12.5886 27.0986Z" fill="url(#paint4_linear_8721_4561)"/>
<path d="M20.4762 28.6111C17.586 29.0242 14.6517 29.0474 11.7551 28.6799C8.24822 28.119 5.04002 26.4581 3.19992 24.8552C4.86671 25.9407 9.05211 27.616 12.8835 27.9779C14.3321 28.0665 15.7859 28.0277 17.2275 27.8621C18.3292 27.7398 19.4375 27.683 20.5463 27.692C20.0521 26.9792 16.5305 21.8193 11.6002 21.8193H11.5633C7.96774 21.824 4.3871 22.2738 0.90625 23.1581C0.90625 23.1581 3.4138 31.2453 10.6193 32.6819C15.3652 33.3658 20.3988 29.9065 20.4762 28.6111Z" fill="url(#paint5_linear_8721_4561)"/>
<path d="M16.3941 36C18.7242 36.0293 21.0038 35.3339 22.9063 34.0135C26.7193 31.0138 27.9178 24.8805 27.0881 23.9071C25.3407 26.3021 23.2829 28.4636 20.9667 30.3371C18.1051 32.5082 14.6978 33.6806 12.3082 33.8977C14.2368 33.4526 18.3301 31.5674 21.2875 29.0164C23.1977 27.37 24.8976 24.7575 26.498 23.2269C25.5247 23.0528 24.5373 22.9656 23.548 22.9663C21.2875 22.9663 18.2305 23.444 16.1138 25.6585C13.5817 28.303 11.3727 31.2284 9.53149 34.3753C11.6531 35.4065 13.9825 35.9603 16.3498 35.9964L16.3941 36Z" fill="url(#paint6_linear_8721_4561)"/>
<path d="M32.4795 25.9986C31.5133 25.3292 30.23 24.3775 28.7882 23.1581C28.7439 23.7407 28.6886 24.2871 28.6149 24.7828C28.0728 28.4012 26.4687 31.7338 24.9273 33.6408C25.9893 31.9148 27.5934 27.5835 27.9437 23.6176C27.9769 23.2558 27.9917 22.8542 27.9954 22.4634C27.2579 21.7939 26.4687 21.0594 25.6869 20.2561C25.2288 19.776 24.8325 19.2425 24.5069 18.6676C23.1941 20.2814 21.9846 22.4525 21.9957 24.989C22.0033 28.6943 22.4375 32.3868 23.29 35.9964C23.29 35.9964 31.0634 33.4128 32.4795 25.9986Z" fill="url(#paint7_linear_8721_4561)"/>
</g>
<defs>
<linearGradient id="paint0_linear_8721_4561" x1="17.1889" y1="17.1391" x2="33.5716" y2="16.4961" gradientUnits="userSpaceOnUse">
<stop stop-color="#4CC4D9"/>
<stop offset="1" stop-color="#0995B5"/>
</linearGradient>
<linearGradient id="paint1_linear_8721_4561" x1="27.0147" y1="11.523" x2="41.8377" y2="-4.7943" gradientUnits="userSpaceOnUse">
<stop stop-color="#2699D3"/>
<stop offset="1" stop-color="#0C52A0"/>
</linearGradient>
<linearGradient id="paint2_linear_8721_4561" x1="14.5602" y1="17.6731" x2="14.0008" y2="2.85004" gradientUnits="userSpaceOnUse">
<stop stop-color="#AA62A7"/>
<stop offset="1" stop-color="#6D2C90"/>
</linearGradient>
<linearGradient id="paint3_linear_8721_4561" x1="10.5377" y1="12.7288" x2="-5.76253" y2="-2.65166" gradientUnits="userSpaceOnUse">
<stop stop-color="#E16BA8"/>
<stop offset="1" stop-color="#C73793"/>
</linearGradient>
<linearGradient id="paint4_linear_8721_4561" x1="21.9972" y1="16.3083" x2="7.77371" y2="16.8672" gradientUnits="userSpaceOnUse">
<stop stop-color="#F26E52"/>
<stop offset="1" stop-color="#D32E27"/>
</linearGradient>
<linearGradient id="paint5_linear_8721_4561" x1="9.64212" y1="18.0611" x2="-5.48042" y2="34.7107" gradientUnits="userSpaceOnUse">
<stop stop-color="#F8A045"/>
<stop offset="1" stop-color="#F26E21"/>
</linearGradient>
<linearGradient id="paint6_linear_8721_4561" x1="23.5795" y1="15.9936" x2="24.0989" y2="29.7602" gradientUnits="userSpaceOnUse">
<stop stop-color="#FBDC61"/>
<stop offset="1" stop-color="#FBB033"/>
</linearGradient>
<linearGradient id="paint7_linear_8721_4561" x1="12.9714" y1="28.9831" x2="27.4662" y2="42.6547" gradientUnits="userSpaceOnUse">
<stop stop-color="#CDDA51"/>
<stop offset="1" stop-color="#85A43D"/>
</linearGradient>
<clipPath id="clip0_8721_4561">
<rect width="134.906" height="36" fill="white" transform="translate(0.90625)"/>
</clipPath>
</defs>
</svg>
