<svg width="19" height="18" viewBox="0 0 19 18" fill="none" xmlns="http://www.w3.org/2000/svg">
<g clip-path="url(#clip0_11156_72902)">
<path d="M5.75 3V1.5H13.25V3H17V4.5H15.5V15.75C15.5 15.9489 15.421 16.1397 15.2803 16.2803C15.1397 16.421 14.9489 16.5 14.75 16.5H4.25C4.05109 16.5 3.86032 16.421 3.71967 16.2803C3.57902 16.1397 3.5 15.9489 3.5 15.75V4.5H2V3H5.75ZM5 4.5V15H14V4.5H5ZM7.25 6.75H8.75V12.75H7.25V6.75ZM10.25 6.75H11.75V12.75H10.25V6.75Z" fill="#131336"/>
</g>
<defs>
<clipPath id="clip0_11156_72902">
<rect width="18" height="18" fill="white" transform="translate(0.5)"/>
</clipPath>
</defs>
</svg>
