<svg width="25" height="25" viewBox="0 0 25 25" fill="none" xmlns="http://www.w3.org/2000/svg">
<g clip-path="url(#clip0_697_18414)">
<path d="M12.0896 15.0693C13.3415 15.0693 14.3564 14.062 14.3564 12.8193C14.3564 11.5767 13.3415 10.5693 12.0896 10.5693C10.8376 10.5693 9.82275 11.5767 9.82275 12.8193C9.82275 14.062 10.8376 15.0693 12.0896 15.0693Z" stroke="#131336" stroke-width="1.75" stroke-miterlimit="10"/>
<path d="M4.53342 15.0693C5.78536 15.0693 6.80025 14.062 6.80025 12.8193C6.80025 11.5767 5.78536 10.5693 4.53342 10.5693C3.28149 10.5693 2.2666 11.5767 2.2666 12.8193C2.2666 14.062 3.28149 15.0693 4.53342 15.0693Z" stroke="#131336" stroke-width="1.75" stroke-miterlimit="10"/>
<path d="M19.6457 15.0693C20.8977 15.0693 21.9125 14.062 21.9125 12.8193C21.9125 11.5767 20.8977 10.5693 19.6457 10.5693C18.3938 10.5693 17.3789 11.5767 17.3789 12.8193C17.3789 14.062 18.3938 15.0693 19.6457 15.0693Z" stroke="#131336" stroke-width="1.75" stroke-miterlimit="10"/>
</g>
<defs>
<clipPath id="clip0_697_18414">
<rect width="24.1794" height="24" fill="white" transform="translate(0 0.819336)"/>
</clipPath>
</defs>
</svg>
