<svg width="241" height="56" viewBox="0 0 241 56" fill="none" xmlns="http://www.w3.org/2000/svg">
<path d="M61.7559 16.5176H64.877L77.331 35.9701V16.5176H80.3851V41.0125H77.3661L64.8099 21.6636V41.0125H61.7559V16.5176Z" fill="white"/>
<path d="M84.4316 16.5176H100.281V19.2971H87.5878V26.9818H99.5951V29.795H87.5878V38.2344H100.932L100.418 41.0139H84.4316V16.5176Z" fill="white"/>
<path d="M101.826 16.5176H105.394L110.506 36.6548L115.823 16.6198H119.218L124.502 36.6548L129.579 16.5176H132.941L126.148 41.0125H122.821L117.366 20.5322L112.014 41.0125H108.789L101.824 16.5176H101.826Z" fill="white"/>
<path d="M136.818 34.0493C137.093 35.7646 137.773 37.0055 138.859 37.7719C139.945 38.5383 141.564 38.9208 143.713 38.9208C144.788 38.9208 145.685 38.8011 146.407 38.5602C147.126 38.3208 147.704 37.9997 148.139 37.5997C148.573 37.1997 148.883 36.731 149.065 36.1924C149.248 35.6551 149.339 35.0887 149.339 34.4946C149.339 34.0143 149.283 33.5515 149.167 33.1048C149.052 32.6595 148.83 32.2537 148.499 31.8873C148.167 31.5223 147.71 31.2011 147.126 30.9267C146.544 30.6522 145.793 30.4347 144.88 30.2756L141.792 29.7267C140.579 29.5208 139.504 29.2464 138.567 28.9033C137.629 28.5602 136.834 28.1208 136.183 27.5821C135.532 27.0449 135.039 26.3763 134.709 25.5748C134.377 24.7748 134.211 23.8026 134.211 22.6581C134.211 21.5135 134.445 20.5544 134.915 19.7077C135.383 18.8624 136.018 18.1529 136.818 17.5807C137.618 17.0099 138.569 16.5865 139.666 16.3121C140.764 16.0376 141.953 15.9004 143.234 15.9004C144.858 15.9004 146.212 16.0785 147.3 16.4318C148.386 16.7865 149.272 17.261 149.958 17.8551C150.645 18.4508 151.164 19.131 151.519 19.896C151.874 20.6624 152.142 21.4464 152.325 22.2464L149.375 22.8289C149.191 22.1427 148.957 21.531 148.671 20.9938C148.385 20.4566 148.007 20.0113 147.538 19.6551C147.069 19.3004 146.491 19.0318 145.805 18.8493C145.119 18.6668 144.284 18.5748 143.302 18.5748C142.18 18.5748 141.243 18.6785 140.488 18.8843C139.734 19.0902 139.128 19.3705 138.669 19.7252C138.211 20.08 137.885 20.5033 137.691 20.9938C137.497 21.4858 137.399 22.0055 137.399 22.5544C137.399 23.15 137.474 23.6697 137.623 24.115C137.772 24.5617 138.023 24.95 138.377 25.2814C138.732 25.6128 139.195 25.8873 139.767 26.1048C140.338 26.3223 141.048 26.5106 141.894 26.6712L145.325 27.2887C147.864 27.769 149.728 28.5646 150.918 29.6727C152.106 30.7821 152.702 32.4113 152.702 34.5617C152.702 35.5456 152.513 36.4654 152.135 37.3237C151.758 38.1807 151.196 38.931 150.453 39.5705C149.71 40.2113 148.777 40.715 147.658 41.08C146.537 41.4449 145.223 41.6289 143.713 41.6289C142.204 41.6289 140.963 41.4858 139.785 41.1997C138.607 40.9135 137.583 40.4624 136.715 39.8449C135.845 39.2274 135.148 38.4391 134.623 37.4785C134.096 36.5179 133.776 35.3748 133.662 34.0478H136.818V34.0493Z" fill="white"/>
<path d="M161.038 19.3307H152.941V16.5176H172.324V19.3307H164.228V41.0125H161.036V19.3307H161.038Z" fill="white"/>
<path d="M178.053 16.5176H181.38L190.882 41.0125H187.451L184.879 34.1847H174.381L171.809 41.0125H168.516L178.053 16.5176ZM183.919 31.4417L179.596 20.0855L175.342 31.4417H183.919Z" fill="white"/>
<path d="M192.599 16.5176H200.627C202.456 16.5176 203.954 16.7234 205.12 17.1351C206.287 17.5468 207.206 18.0782 207.882 18.7307C208.557 19.3818 209.02 20.1205 209.272 20.9439C209.523 21.7672 209.649 22.6022 209.649 23.449C209.649 25.0052 209.323 26.3307 208.671 27.4285C208.018 28.5263 206.949 29.3847 205.463 30.0008L210.609 41.0139H207.075L202.443 30.7555C202.145 30.8023 201.825 30.83 201.482 30.8417C201.139 30.8533 200.83 30.8592 200.557 30.8592H195.72V41.0139H192.598V16.5176H192.599ZM200.935 28.1482C202.033 28.1482 202.936 28.0402 203.646 27.8227C204.354 27.6052 204.916 27.2971 205.326 26.8957C205.738 26.4957 206.024 26.0095 206.185 25.4373C206.344 24.8665 206.425 24.2256 206.425 23.5161C206.425 22.8066 206.333 22.2241 206.151 21.6971C205.967 21.1716 205.653 20.719 205.208 20.3424C204.763 19.9658 204.161 19.6796 203.406 19.484C202.652 19.2898 201.691 19.192 200.525 19.192H195.722V28.1453H200.936L200.935 28.1482Z" fill="white"/>
<path d="M219.77 19.3307H211.674V16.5176H231.058V19.3307H222.961V41.0125H219.772V19.3307H219.77Z" fill="white"/>
<path d="M236.944 23.0562C236.447 23.0562 235.992 22.9759 235.577 22.8139C235.163 22.6518 234.806 22.4212 234.51 22.119C234.214 21.8168 233.984 21.4504 233.822 21.0197C233.66 20.5891 233.58 20.1029 233.58 19.5642C233.58 19.0255 233.666 18.5409 233.838 18.1088C234.011 17.6781 234.252 17.3117 234.558 17.0095C234.865 16.7073 235.221 16.4752 235.625 16.3146C236.03 16.1526 236.469 16.0723 236.944 16.0723C237.45 16.0723 237.911 16.1526 238.326 16.3146C238.741 16.4766 239.094 16.7088 239.384 17.0095C239.675 17.3117 239.901 17.6781 240.063 18.1088C240.225 18.5409 240.306 19.0255 240.306 19.5642C240.306 20.1029 240.22 20.5891 240.047 21.0197C239.875 21.4504 239.634 21.8183 239.328 22.119C239.019 22.4212 238.662 22.6533 238.252 22.8139C237.841 22.9745 237.405 23.0562 236.942 23.0562H236.944ZM236.928 22.2956C237.671 22.2956 238.278 22.0591 238.747 21.5847C239.215 21.1102 239.45 20.4372 239.45 19.5628C239.45 18.6883 239.215 18.0153 238.747 17.5409C238.278 17.0664 237.671 16.8299 236.928 16.8299C236.184 16.8299 235.583 17.0679 235.125 17.5409C234.666 18.0153 234.437 18.6898 234.437 19.5628C234.437 20.4358 234.666 21.1102 235.125 21.5847C235.583 22.0591 236.184 22.2956 236.928 22.2956ZM235.65 17.8328H236.895C237.198 17.8328 237.44 17.862 237.624 17.9219C237.806 17.9818 237.949 18.0562 238.052 18.1482C238.154 18.2401 238.224 18.3482 238.262 18.4723C238.3 18.5964 238.319 18.7234 238.319 18.8518C238.319 19.0883 238.278 19.281 238.198 19.4256C238.117 19.5715 237.974 19.6869 237.768 19.773L238.479 21.1642H237.638L237.024 19.935H236.409V21.1642H235.649V17.8328H235.65ZM236.992 19.2883C237.272 19.2883 237.438 19.246 237.492 19.1584C237.547 19.0723 237.573 18.9701 237.573 18.8518C237.573 18.7555 237.535 18.6664 237.459 18.5847C237.383 18.5044 237.195 18.4635 236.892 18.4635H236.408V19.2883H236.99H236.992Z" fill="white"/>
<mask id="mask0_2391_6403" style="mask-type:luminance" maskUnits="userSpaceOnUse" x="0" y="0" width="53" height="56">
<path d="M52.4458 0.880859H0.742188V55.4181H52.4458V0.880859Z" fill="white"/>
</mask>
<g mask="url(#mask0_2391_6403)">
<path d="M40.4732 33.345C40.4995 35.9713 39.1944 46.7771 35.7812 52.7348C37.1754 51.4267 44.0893 43.1435 42.8455 33.2997C41.8119 33.0224 40.4732 33.3464 40.4732 33.3464" fill="#CDDA51"/>
<path d="M39.8921 21.4709C41.6702 23.3088 47.9928 31.922 49.5709 38.6811C49.6804 36.7147 49.0162 25.7015 41.5373 19.668C40.6191 20.2432 39.8906 21.4709 39.8906 21.4709" fill="#4CC4D9"/>
<path d="M31.519 13.5087C34.0081 13.4824 44.2534 14.8576 49.9015 18.4591C48.6607 16.9875 40.8081 9.69557 31.4752 11.0065C31.2125 12.0985 31.5205 13.5087 31.5205 13.5087" fill="#2699D3"/>
<path d="M20.2627 14.1231C22.0043 12.2472 30.1722 5.57863 36.5795 3.91293C34.7153 3.7976 24.2744 4.49833 18.5547 12.3859C19.0992 13.3538 20.2627 14.1231 20.2627 14.1231Z" fill="#AA62A7"/>
<path d="M12.7146 22.9547C12.6883 20.3299 13.9934 9.52261 17.4066 3.56641C16.011 4.8759 9.09855 13.1576 10.3423 23.0014C11.3774 23.2788 12.7146 22.9547 12.7146 22.9547Z" fill="#E16BA8"/>
<path d="M13.2978 34.8274C11.5197 32.9894 5.19705 24.3749 3.61749 17.6172C3.508 19.5836 4.17223 30.5967 11.6511 36.6289C12.5693 36.0537 13.2978 34.8259 13.2978 34.8259" fill="#F26E52"/>
<path d="M21.6681 42.7907C19.1791 42.8184 8.93383 41.4403 3.28711 37.8418C4.52799 39.3133 12.3805 46.6053 21.7134 45.2929C21.9762 44.2009 21.6681 42.7907 21.6681 42.7907Z" fill="#F8A045"/>
<path d="M38.7831 36.0386C33.5539 41.3218 26.7992 49.3787 16.6094 52.3846C18.4736 52.4999 30.04 52.2765 39.6897 37.1364C39.1437 36.167 38.7831 36.0371 38.7831 36.0371" fill="#FBDC61"/>
</g>
<mask id="mask1_2391_6403" style="mask-type:luminance" maskUnits="userSpaceOnUse" x="33" y="13" width="20" height="29">
<path d="M35.076 14.3654C37.8147 16.4413 42.0673 20.7318 44.3125 23.9595C47.4279 28.45 49.1155 33.7843 49.4235 37.542C48.787 34.5172 46.076 28.1011 42.4133 23.4602C40.0468 20.4632 36.295 17.8019 34.0717 15.2909C33.8658 16.5858 32.3184 26.0617 37.5651 31.5449C43.9052 38.1697 50.1184 41.8909 50.1184 41.8909C50.1184 41.8909 55.695 30.4471 49.5826 20.9186C46.1388 16.1289 39.8016 13.9727 36.6979 13.9727C35.9271 13.9727 35.3563 14.1055 35.0775 14.3639" fill="white"/>
</mask>
<g mask="url(#mask1_2391_6403)">
<path d="M31.3008 14.0152L55.6599 13.0254L56.7125 41.8517L32.3533 42.8414L31.3008 14.0152Z" fill="url(#paint0_linear_2391_6403)"/>
</g>
<mask id="mask2_2391_6403" style="mask-type:luminance" maskUnits="userSpaceOnUse" x="23" y="5" width="30" height="18">
<path d="M23.3513 12.0751C26.6797 11.5014 32.5615 11.3612 36.3148 11.97C41.5279 12.8225 46.2973 15.3364 49.0345 17.7627C46.5556 16.097 40.3381 13.5831 34.6389 13.0328C32.6082 12.8386 30.3498 13.0298 28.1863 13.2196C26.4243 13.3758 24.725 13.5306 23.2637 13.478C23.9863 14.5481 29.2447 22.4006 36.6301 22.3656C45.5542 22.3218 52.4418 20.3203 52.4418 20.3203C52.4418 20.3203 48.7133 8.06779 38.0038 5.88969C37.3892 5.80064 36.7702 5.75977 36.1542 5.75977C29.7045 5.75977 23.4593 10.2839 23.3527 12.0736" fill="white"/>
</mask>
<g mask="url(#mask2_2391_6403)">
<path d="M15.3965 14.7216L36.7293 -9.58203L60.306 13.4413L38.9746 37.745L15.3965 14.7216Z" fill="url(#paint1_linear_2391_6403)"/>
</g>
<mask id="mask3_2391_6403" style="mask-type:luminance" maskUnits="userSpaceOnUse" x="13" y="0" width="27" height="21">
<path d="M19.7387 3.89984C14.0686 8.4356 12.2905 17.7261 13.5241 19.1991C15.4919 16.3115 19.5591 11.8254 22.6204 9.4575C26.8788 6.17283 31.9357 4.39327 35.4978 4.06772C32.6292 4.73925 26.546 7.59911 22.1474 11.4604C19.308 13.9568 16.7839 17.9144 14.4029 20.2604C15.6306 20.4779 24.6146 22.1086 29.8131 16.5757C36.0949 9.88816 39.6219 3.33633 39.6219 3.33633C39.6219 3.33633 35.0934 0.880859 29.4525 0.880859C26.3606 0.880859 22.9357 1.61809 19.7387 3.89984Z" fill="white"/>
</mask>
<g mask="url(#mask3_2391_6403)">
<path d="M12.3322 23.2182L11.5176 0.91309L39.5818 -0.228516L40.3964 22.0781L12.3322 23.2182Z" fill="url(#paint2_linear_2391_6403)"/>
</g>
<mask id="mask4_2391_6403" style="mask-type:luminance" maskUnits="userSpaceOnUse" x="5" y="0" width="17" height="32">
<path d="M5.49127 16.1145C4.52192 23.5495 9.49273 31.4458 11.3526 31.5685C10.8095 28.0575 10.6767 21.8531 11.2548 17.8955C12.0621 12.3962 14.446 7.36555 16.7467 4.47942C15.1686 7.09256 12.7832 13.6517 12.2621 19.6634C11.9292 23.548 12.7949 28.2283 12.6854 31.6619C13.6986 30.8999 21.1453 25.3524 21.1102 17.5641C21.0694 8.15095 19.1716 0.886719 19.1716 0.886719C19.1716 0.886719 7.5555 4.81957 5.49127 16.1159" fill="white"/>
</mask>
<g mask="url(#mask4_2391_6403)">
<path d="M13.4744 40.4029L-10.0234 17.4569L12.1941 -7.85547L35.6919 15.0891L13.4744 40.4029Z" fill="url(#paint3_linear_2391_6403)"/>
</g>
<mask id="mask5_2391_6403" style="mask-type:luminance" maskUnits="userSpaceOnUse" x="0" y="14" width="20" height="29">
<path d="M0.742188 25.0797V25.1848C0.749487 28.4316 1.45314 32.0243 3.60496 35.3805C7.90569 41.3615 16.713 43.2359 18.1101 41.9352C15.3728 39.8593 11.1188 35.5702 8.87357 32.341C5.75824 27.8505 4.07211 22.5148 3.76409 18.7586C4.39912 21.7834 7.11007 28.2009 10.7728 32.8403C13.1393 35.8359 16.8926 38.4987 19.1159 41.0082C19.3217 39.7133 20.8692 30.2374 15.6225 24.7556C9.28379 18.1294 3.07066 14.4082 3.07066 14.4082C3.07066 14.4082 0.758246 19.1556 0.743648 25.0797" fill="white"/>
</mask>
<g mask="url(#mask5_2391_6403)">
<path d="M21.9191 43.1913L0.771698 44.0497L-0.308594 14.4482L20.8389 13.5898L21.9191 43.1913Z" fill="url(#paint4_linear_2391_6403)"/>
</g>
<mask id="mask6_2391_6403" style="mask-type:luminance" maskUnits="userSpaceOnUse" x="0" y="33" width="30" height="18">
<path d="M16.5558 33.9316C7.63173 33.974 0.744141 35.9769 0.744141 35.9769C0.744141 35.9769 4.47261 48.2294 15.1821 50.4076C22.2317 51.428 29.7164 46.1857 29.8317 44.2236C26.5033 44.7973 20.6215 44.9375 16.8682 44.3273C11.6551 43.4762 6.88575 40.9608 4.14998 38.536C6.62881 40.2003 12.8463 42.7156 18.5456 43.2645C20.5748 43.4586 22.8332 43.2674 24.9982 43.0776C26.7602 42.9214 28.4595 42.7667 29.9208 42.8192C29.1996 41.7521 23.9646 33.9331 16.6055 33.9331H16.5544" fill="white"/>
</mask>
<g mask="url(#mask6_2391_6403)">
<path d="M38.1914 42.0074L16.4556 66.7709L-7.52539 43.3533L14.2104 18.5898L38.1914 42.0074Z" fill="url(#paint5_linear_2391_6403)"/>
</g>
<mask id="mask7_2391_6403" style="mask-type:luminance" maskUnits="userSpaceOnUse" x="13" y="35" width="28" height="21">
<path d="M23.3732 39.7243C17.0915 46.4105 13.5645 52.9652 13.5645 52.9652C13.5645 52.9652 18.0739 55.4105 23.6988 55.4192H23.763C26.8462 55.4149 30.2593 54.6747 33.4477 52.3988C39.1163 47.8645 40.8944 38.574 39.6608 37.0995C37.6929 39.9871 33.6258 44.4733 30.5645 46.8411C26.3075 50.1273 21.2491 51.9054 17.6885 52.2309C20.5557 51.5594 26.6404 48.701 31.0374 44.8382C33.8783 42.3419 36.4024 38.3842 38.782 36.0382C38.2988 35.9535 36.6112 35.6484 34.4258 35.6484C31.0637 35.6484 26.5236 36.3696 23.3732 39.7243Z" fill="white"/>
</mask>
<g mask="url(#mask7_2391_6403)">
<path d="M40.8525 34.541L41.6146 55.3907L13.6043 56.5293L12.8438 35.6797L40.8525 34.541Z" fill="url(#paint6_linear_2391_6403)"/>
</g>
<mask id="mask8_2391_6403" style="mask-type:luminance" maskUnits="userSpaceOnUse" x="32" y="29" width="16" height="27">
<path d="M32.0742 38.7348C32.1151 48.148 34.0144 55.4122 34.0144 55.4122C34.0144 55.4122 45.5691 51.4969 47.6771 40.2648C46.2596 39.2619 44.3326 37.8093 42.1852 35.9421C42.1253 36.821 42.0406 37.6516 41.9312 38.4035C41.1239 43.9013 38.7399 48.9319 36.4392 51.8195C38.0173 49.2049 40.4012 42.6458 40.9239 36.6356C40.972 36.0677 40.9939 35.4823 40.9983 34.8867C39.883 33.8735 38.7268 32.7597 37.5662 31.5451C36.864 30.8122 36.2874 30.0049 35.81 29.1582C33.8596 31.6035 32.0596 34.8954 32.0757 38.7334" fill="white"/>
</mask>
<g mask="url(#mask8_2391_6403)">
<path d="M39.2645 20.9473L60.0835 41.2772L40.4674 63.6276L19.6484 43.2976L39.2645 20.9473Z" fill="url(#paint7_linear_2391_6403)"/>
</g>
<g style="mix-blend-mode:soft-light">
<mask id="mask9_2391_6403" style="mask-type:luminance" maskUnits="userSpaceOnUse" x="0" y="0" width="53" height="56">
<path d="M49.6278 20.9918C51.4103 20.621 52.441 20.3217 52.441 20.3217C52.441 20.3217 48.73 8.13049 38.0818 5.9086C39.0935 4.31882 39.622 3.33633 39.622 3.33633C39.622 3.33633 35.0935 0.880859 29.4526 0.880859C26.3826 0.880859 22.984 1.60787 19.8059 3.85312C19.4556 1.97429 19.1709 0.885239 19.1709 0.885239C19.1709 0.885239 7.61177 4.79911 5.50666 16.0312C3.99863 14.9641 3.06724 14.4064 3.06724 14.4064C3.06724 14.4064 0.754833 19.1539 0.740234 25.0779V25.183C0.747534 28.4079 1.44096 31.9728 3.55921 35.3071C1.77673 35.6779 0.744614 35.9772 0.744614 35.9772C0.744614 35.9772 4.45556 48.1684 15.1037 50.3903C14.0921 51.9816 13.5636 52.9626 13.5636 52.9626C13.5636 52.9626 18.0731 55.4079 23.6979 55.4166H23.7621C26.8234 55.4122 30.2103 54.6809 33.3797 52.4444C33.7315 54.3247 34.0147 55.4122 34.0147 55.4122C34.0147 55.4122 45.5694 51.4984 47.6775 40.2648C49.187 41.3334 50.1183 41.8911 50.1183 41.8911C50.1183 41.8911 55.6658 30.5042 49.6278 20.9903V20.9918ZM25.6351 37.8677C23.9461 36.3699 21.8322 34.9568 19.4016 34.3071C19.2118 31.9874 18.6643 29.4108 17.3811 27.1393C18.8015 25.3582 20.1417 23.1276 20.7578 20.5641C22.9563 20.3641 25.3986 19.786 27.5534 18.4327C29.2424 19.9305 31.3563 21.3436 33.7869 21.9947C33.9767 24.3144 34.5242 26.8911 35.8074 29.1641C34.387 30.9451 33.0468 33.1743 32.4307 35.7378C30.2322 35.9378 27.7884 36.5159 25.6351 37.8692V37.8677ZM37.4278 31.3991C37.4278 31.3991 37.4337 31.4064 37.438 31.4093C37.4351 31.4064 37.4322 31.402 37.4278 31.3991Z" fill="white"/>
</mask>
<g mask="url(#mask9_2391_6403)">
<path d="M54.4371 -1.22266H-1.25195V57.5204H54.4371V-1.22266Z" fill="url(#paint8_radial_2391_6403)"/>
</g>
</g>
<defs>
<linearGradient id="paint0_linear_2391_6403" x1="32.1631" y1="28.6257" x2="56.5857" y2="27.6832" gradientUnits="userSpaceOnUse">
<stop stop-color="#4CC4D9"/>
<stop offset="1" stop-color="#0995B5"/>
</linearGradient>
<linearGradient id="paint1_linear_2391_6403" x1="26.9213" y1="26.1765" x2="49.4833" y2="1.80318" gradientUnits="userSpaceOnUse">
<stop stop-color="#2699D3"/>
<stop offset="1" stop-color="#0C52A0"/>
</linearGradient>
<linearGradient id="paint2_linear_2391_6403" x1="26.5828" y1="22.205" x2="25.72" y2="-0.150884" gradientUnits="userSpaceOnUse">
<stop stop-color="#AA62A7"/>
<stop offset="1" stop-color="#6D2C90"/>
</linearGradient>
<linearGradient id="paint3_linear_2391_6403" x1="25.3245" y1="27.4771" x2="0.583829" y2="4.57502" gradientUnits="userSpaceOnUse">
<stop stop-color="#E16BA8"/>
<stop offset="1" stop-color="#C73793"/>
</linearGradient>
<linearGradient id="paint4_linear_2391_6403" x1="21.0881" y1="28.1584" x2="-0.116871" y2="28.9767" gradientUnits="userSpaceOnUse">
<stop stop-color="#F26E52"/>
<stop offset="1" stop-color="#D32E27"/>
</linearGradient>
<linearGradient id="paint5_linear_2391_6403" x1="26.8456" y1="29.9258" x2="3.84326" y2="54.7748" gradientUnits="userSpaceOnUse">
<stop stop-color="#F8A045"/>
<stop offset="1" stop-color="#F26E21"/>
</linearGradient>
<linearGradient id="paint6_linear_2391_6403" x1="26.5993" y1="35.2829" x2="27.4059" y2="56.1842" gradientUnits="userSpaceOnUse">
<stop stop-color="#FBDC61"/>
<stop offset="1" stop-color="#FBB033"/>
</linearGradient>
<linearGradient id="paint7_linear_2391_6403" x1="29.0188" y1="32.5864" x2="50.9551" y2="52.8924" gradientUnits="userSpaceOnUse">
<stop stop-color="#CDDA51"/>
<stop offset="1" stop-color="#85A43D"/>
</linearGradient>
<radialGradient id="paint8_radial_2391_6403" cx="0" cy="0" r="1" gradientUnits="userSpaceOnUse" gradientTransform="translate(26.9961 28.1726) scale(27.801 29.3238)">
<stop stop-color="white"/>
<stop offset="0.72" stop-color="white"/>
<stop offset="1" stop-color="white"/>
</radialGradient>
</defs>
</svg>
