<svg width="181" height="42" viewBox="0 0 181 42" fill="none" xmlns="http://www.w3.org/2000/svg">
<path d="M46.5664 3.39453H48.9073L58.2478 17.9839V3.39453H60.5383V21.7657H58.2741L48.8569 7.25402V21.7657H46.5664V3.39453Z" fill="white"/>
<path d="M63.5742 3.39453H75.4614V5.4792H65.9414V11.2427H74.9468V13.3526H65.9414V19.6821H75.9498L75.5644 21.7668H63.5742V3.39453Z" fill="white"/>
<path d="M76.6183 3.39453H79.2942L83.1285 18.4985L87.1161 3.47227H89.6628L93.6252 18.4985L97.4333 3.39453H99.9548L94.8603 21.7657H92.365L88.2734 6.40548L84.2595 21.7657H81.8409L76.6172 3.39453H76.6183Z" fill="white"/>
<path d="M102.863 16.5422C103.069 17.8287 103.579 18.7594 104.394 19.3342C105.209 19.909 106.423 20.1959 108.034 20.1959C108.84 20.1959 109.514 20.1061 110.054 19.9254C110.595 19.7448 111.028 19.505 111.354 19.205C111.679 18.905 111.911 18.5535 112.048 18.1506C112.185 17.7477 112.254 17.3229 112.254 16.8773C112.254 16.517 112.211 16.17 112.125 15.8349C112.038 15.501 111.872 15.1966 111.623 14.9218C111.375 14.6481 111.032 14.4072 110.594 14.2013C110.157 13.9955 109.595 13.8324 108.909 13.713L106.594 13.3013C105.684 13.147 104.878 12.9411 104.175 12.6838C103.471 12.4265 102.875 12.097 102.387 11.693C101.899 11.29 101.529 10.7886 101.281 10.1875C101.033 9.58748 100.908 8.85828 100.908 8.00098C100.908 7.14368 101.083 6.42325 101.436 5.78821C101.787 5.15427 102.263 4.62215 102.863 4.19296C103.463 3.76485 104.176 3.44624 104.999 3.2404C105.823 3.03456 106.714 2.93164 107.675 2.93164C108.893 2.93164 109.909 3.06412 110.725 3.33018C111.539 3.59624 112.204 3.95208 112.718 4.3977C113.233 4.84441 113.623 5.35463 113.889 5.92836C114.155 6.50317 114.356 7.09113 114.493 7.69113L112.28 8.12909C112.142 7.61449 111.967 7.15573 111.753 6.75281C111.538 6.34989 111.254 6.01595 110.903 5.74989C110.552 5.48383 110.118 5.28237 109.603 5.14551C109.089 5.00865 108.463 4.93967 107.726 4.93967C106.885 4.93967 106.182 5.01631 105.616 5.17069C105.05 5.32507 104.595 5.53529 104.252 5.80135C103.908 6.06741 103.664 6.38493 103.518 6.75281C103.372 7.12179 103.299 7.51157 103.299 7.92325C103.299 8.36996 103.355 8.75974 103.467 9.09369C103.578 9.42763 103.767 9.71996 104.033 9.9685C104.299 10.217 104.646 10.4229 105.075 10.586C105.503 10.7492 106.035 10.8904 106.67 11.0108L109.243 11.474C111.147 11.8342 112.545 12.4309 113.438 13.2619C114.329 14.094 114.776 15.3159 114.776 16.9287C114.776 17.6667 114.634 18.3565 114.351 19.0003C114.067 19.6441 113.647 20.2057 113.09 20.6853C112.532 21.166 111.833 21.5437 110.993 21.8174C110.152 22.0911 109.167 22.2291 108.034 22.2291C106.902 22.2291 105.972 22.1218 105.088 21.9072C104.204 21.6926 103.437 21.3543 102.786 20.8911C102.133 20.428 101.611 19.8368 101.217 19.1163C100.821 18.3959 100.581 17.5386 100.496 16.5433H102.863V16.5422Z" fill="white"/>
<path d="M121.027 5.50438H114.955V3.39453H129.492V5.50438H123.42V21.7657H121.026V5.50438H121.027Z" fill="white"/>
<path d="M133.79 3.39453H136.285L143.412 21.7657H140.839L138.909 16.646H131.036L129.107 21.7657H126.637L133.79 3.39453ZM138.189 14.5876L134.947 6.07044L131.756 14.5876H138.189Z" fill="white"/>
<path d="M144.698 3.39453H150.719C152.091 3.39453 153.214 3.54891 154.089 3.85767C154.964 4.16643 155.654 4.56497 156.161 5.05438C156.667 5.54271 157.014 6.09672 157.203 6.71424C157.391 7.33176 157.486 7.95803 157.486 8.59198C157.486 9.75913 157.241 10.7533 156.752 11.5766C156.263 12.4 155.461 13.0438 154.347 13.5058L158.206 21.7657H155.555L152.081 14.073C151.858 14.108 151.618 14.1288 151.361 14.1376C151.103 14.1464 150.871 14.1507 150.667 14.1507H147.039V21.7668H144.697V3.39453H144.698ZM150.95 12.1175C151.774 12.1175 152.451 12.0365 152.983 11.8734C153.514 11.7102 153.936 11.4792 154.244 11.1792C154.552 10.8792 154.767 10.5146 154.887 10.0854C155.007 9.65621 155.068 9.17665 155.068 8.64453C155.068 8.11241 154.999 7.67555 154.862 7.2803C154.724 6.88614 154.489 6.54672 154.155 6.26424C153.821 5.98176 153.37 5.76716 152.804 5.62044C152.238 5.47482 151.517 5.40146 150.643 5.40146H147.04V12.1164H150.951L150.95 12.1175Z" fill="white"/>
<path d="M165.078 5.50438H159.006V3.39453H173.544V5.50438H167.472V21.7657H165.079V5.50438H165.078Z" fill="white"/>
<path d="M177.958 8.2985C177.586 8.2985 177.244 8.23828 176.933 8.11675C176.622 7.99522 176.355 7.82113 176.133 7.59558C175.911 7.36894 175.739 7.09412 175.617 6.77113C175.496 6.44814 175.436 6.08354 175.436 5.67952C175.436 5.27551 175.5 4.91201 175.629 4.58792C175.759 4.26493 175.939 3.99011 176.169 3.76347C176.399 3.53682 176.666 3.36274 176.969 3.2423C177.273 3.12077 177.602 3.06055 177.958 3.06055C178.338 3.06055 178.684 3.12077 178.995 3.2423C179.306 3.36383 179.571 3.53792 179.789 3.76347C180.007 3.99011 180.176 4.26493 180.298 4.58792C180.419 4.91091 180.48 5.27551 180.48 5.67952C180.48 6.08354 180.415 6.44814 180.286 6.77113C180.157 7.09412 179.976 7.37004 179.746 7.59558C179.515 7.82223 179.247 7.99631 178.939 8.11675C178.632 8.23828 178.304 8.2985 177.957 8.2985H177.958ZM177.946 7.72806C178.503 7.72806 178.959 7.55069 179.31 7.19485C179.662 6.83901 179.838 6.33427 179.838 5.67843C179.838 5.02259 179.662 4.51785 179.31 4.16201C178.959 3.80617 178.503 3.62879 177.946 3.62879C177.389 3.62879 176.938 3.80617 176.594 4.16201C176.25 4.51785 176.078 5.02259 176.078 5.67843C176.078 6.33427 176.25 6.83901 176.594 7.19485C176.938 7.55069 177.389 7.72806 177.946 7.72806ZM176.988 4.38098H177.922C178.149 4.38098 178.33 4.40288 178.468 4.44777C178.605 4.49266 178.713 4.5485 178.789 4.61748C178.866 4.68646 178.918 4.76748 178.947 4.85945C178.975 4.95252 178.99 5.04777 178.99 5.14412C178.99 5.3215 178.959 5.46602 178.899 5.57441C178.838 5.6839 178.731 5.7704 178.577 5.835L179.11 6.87843H178.479L178.018 5.95653H177.557V6.87843H176.987V4.37989L176.988 4.38098ZM177.994 5.47259C178.205 5.47259 178.329 5.44084 178.37 5.37515C178.41 5.31055 178.43 5.2339 178.43 5.14522C178.43 5.07186 178.402 5.00617 178.345 4.94485C178.288 4.88463 178.146 4.85398 177.92 4.85398H177.556V5.47259H177.993H177.994Z" fill="white"/>
<path d="M51.9002 38.9297C51.0473 38.9297 50.2677 38.7863 49.5615 38.5005C48.8553 38.2147 48.2477 37.7943 47.7396 37.2392C47.2316 36.6841 46.8374 35.9987 46.5572 35.1808C46.2769 34.364 46.1367 33.429 46.1367 32.3779C46.1367 31.3268 46.2791 30.3928 46.5659 29.575C46.8517 28.7582 47.2491 28.0684 47.7572 27.5078C48.2652 26.9472 48.8718 26.5213 49.5791 26.229C50.2853 25.9366 51.0593 25.791 51.9002 25.791C52.7411 25.791 53.5327 25.9344 54.2389 26.2202C54.9451 26.5071 55.5495 26.9275 56.052 27.4815C56.5535 28.0366 56.9455 28.7198 57.2258 29.5312C57.5061 30.3425 57.6462 31.2742 57.6462 32.3253C57.6462 33.3764 57.5093 34.3136 57.2345 35.137C56.9597 35.9604 56.5721 36.6523 56.0696 37.2129C55.567 37.7735 54.9626 38.1994 54.2564 38.4917C53.5491 38.783 52.7641 38.9297 51.9002 38.9297ZM51.9002 37.5282C52.5659 37.5282 53.1528 37.4056 53.6608 37.1604C54.1688 36.9151 54.5915 36.568 54.9309 36.118C55.2692 35.668 55.5265 35.125 55.7017 34.4888C55.8769 33.8527 55.9645 33.1432 55.9645 32.3604C55.9645 31.5775 55.8769 30.8866 55.7017 30.2494C55.5265 29.6133 55.267 29.0669 54.9221 28.6115C54.5772 28.156 54.1535 27.8056 53.652 27.5604C53.1495 27.3151 52.5659 27.1925 51.9002 27.1925C51.2345 27.1925 50.6301 27.3151 50.1221 27.5604C49.6141 27.8056 49.1871 28.156 48.8433 28.6115C48.4984 29.0669 48.2411 29.6133 48.0725 30.2494C47.9028 30.8866 47.8185 31.5896 47.8185 32.3604C47.8185 33.1312 47.9028 33.8527 48.0725 34.4888C48.2411 35.125 48.4962 35.6691 48.8345 36.118C49.1728 36.568 49.5966 36.9151 50.1046 37.1604C50.6126 37.4056 51.2104 37.5282 51.9002 37.5282Z" fill="#4187F7"/>
<path d="M59.625 26.1055H61.2192L67.5783 36.0383V26.1055H69.1374V38.6135H67.5958L61.1841 28.7332V38.6135H59.625V26.1055Z" fill="#4187F7"/>
<path d="M71.5566 26.1055H73.1683V37.177H79.6501L79.4048 38.6135H71.5566V26.1055Z" fill="#4187F7"/>
<path d="M81.0508 26.1055H82.6625V38.6135H81.0508V26.1055Z" fill="#4187F7"/>
<path d="M85.0801 26.1055H86.6742L93.0334 36.0383V26.1055H94.5925V38.6135H93.0509L86.6392 28.7332V38.6135H85.0801V26.1055Z" fill="#4187F7"/>
<path d="M97.0098 26.1055H105.103V27.5244H98.6214V31.4485H104.753V32.885H98.6214V37.1945H105.436L105.173 38.6135H97.0098V26.1055Z" fill="#4187F7"/>
<mask id="mask0_2394_611" style="mask-type:luminance" maskUnits="userSpaceOnUse" x="0" y="0" width="40" height="42">
<path d="M39.5824 0.660156H0.804688V41.5631H39.5824V0.660156Z" fill="white"/>
</mask>
<g mask="url(#mask0_2394_611)">
<path d="M30.603 25.0068C30.6227 26.9765 29.6438 35.0809 27.084 39.5491C28.1296 38.5681 33.315 32.3557 32.3822 24.9728C31.607 24.7648 30.603 25.0079 30.603 25.0079" fill="#CDDA51"/>
<path d="M30.1671 16.1022C31.5007 17.4807 36.2427 23.9405 37.4262 29.0099C37.5084 27.535 37.0102 19.2752 31.4011 14.75C30.7124 15.1814 30.166 16.1022 30.166 16.1022" fill="#4CC4D9"/>
<path d="M23.8878 10.131C25.7546 10.1113 33.4385 11.1427 37.6747 13.8438C36.744 12.7402 30.8546 7.27119 23.855 8.2544C23.6579 9.07338 23.8889 10.131 23.8889 10.131" fill="#2699D3"/>
<path d="M15.4451 10.5914C16.7513 9.18445 22.8772 4.18299 27.6827 2.93372C26.2845 2.84723 18.4538 3.37277 14.1641 9.28847C14.5725 10.0144 15.4451 10.5914 15.4451 10.5914Z" fill="#AA62A7"/>
<path d="M9.78351 17.2151C9.76381 15.2465 10.7426 7.14098 13.3025 2.67383C12.2558 3.65594 7.07147 9.86726 8.00432 17.2501C8.7806 17.4581 9.78351 17.2151 9.78351 17.2151Z" fill="#E16BA8"/>
<path d="M10.2209 26.1206C8.88732 24.7421 4.14534 18.2811 2.96067 13.2129C2.87856 14.6877 3.37673 22.9476 8.98586 27.4716C9.67454 27.0403 10.2209 26.1195 10.2209 26.1195" fill="#F26E52"/>
<path d="M16.4987 32.0906C14.6319 32.1114 6.94793 31.0778 2.71289 28.3789C3.64355 29.4826 9.53297 34.9515 16.5326 33.9672C16.7297 33.1483 16.4987 32.0906 16.4987 32.0906Z" fill="#F8A045"/>
<path d="M29.3354 27.0284C25.4135 30.9908 20.3474 37.0335 12.7051 39.2879C14.1033 39.3744 22.7781 39.2069 30.0153 27.8518C29.6058 27.1248 29.3354 27.0273 29.3354 27.0273" fill="#FBDC61"/>
</g>
<mask id="mask1_2394_611" style="mask-type:luminance" maskUnits="userSpaceOnUse" x="25" y="10" width="15" height="22">
<path d="M26.5565 10.773C28.6106 12.33 31.8 15.5479 33.4839 17.9687C35.8204 21.3365 37.0861 25.3373 37.3171 28.1555C36.8398 25.8869 34.8065 21.0749 32.0595 17.5942C30.2846 15.3464 27.4708 13.3504 25.8033 11.4672C25.6489 12.4384 24.4883 19.5453 28.4233 23.6577C33.1784 28.6263 37.8383 31.4172 37.8383 31.4172C37.8383 31.4172 42.0208 22.8344 37.4365 15.688C34.8536 12.0957 30.1007 10.4785 27.773 10.4785C27.1949 10.4785 26.7668 10.5782 26.5576 10.7719" fill="white"/>
</mask>
<g mask="url(#mask1_2394_611)">
<path d="M23.7246 10.5099L41.994 9.76758L42.7834 31.3873L24.514 32.1296L23.7246 10.5099Z" fill="url(#paint0_linear_2394_611)"/>
</g>
<mask id="mask2_2394_611" style="mask-type:luminance" maskUnits="userSpaceOnUse" x="17" y="4" width="23" height="13">
<path d="M17.763 9.05681C20.2593 8.62652 24.6706 8.52141 27.4856 8.97798C31.3954 9.61739 34.9724 11.5028 37.0254 13.3225C35.1662 12.0732 30.5031 10.1878 26.2287 9.77506C24.7057 9.62944 23.0119 9.77287 21.3892 9.9152C20.0677 10.0324 18.7933 10.1484 17.6973 10.109C18.2392 10.9116 22.183 16.801 27.7221 16.7747C34.4151 16.7418 39.5808 15.2407 39.5808 15.2407C39.5808 15.2407 36.7845 6.05133 28.7524 4.41776C28.2914 4.35097 27.8272 4.32031 27.3651 4.32031C22.5279 4.32031 17.844 7.71338 17.7641 9.05571" fill="white"/>
</mask>
<g mask="url(#mask2_2394_611)">
<path d="M11.7969 11.0422L27.7965 -7.18555L45.479 10.082L29.4805 28.3097L11.7969 11.0422Z" fill="url(#paint1_linear_2394_611)"/>
</g>
<mask id="mask3_2394_611" style="mask-type:luminance" maskUnits="userSpaceOnUse" x="10" y="0" width="20" height="16">
<path d="M15.055 2.92439C10.8024 6.32621 9.46884 13.2941 10.394 14.3988C11.8699 12.2331 14.9203 8.86855 17.2163 7.09264C20.4101 4.62913 24.2028 3.29446 26.8743 3.0503C24.7229 3.55395 20.1604 5.69884 16.8615 8.59483C14.732 10.4671 12.8389 13.4353 11.0531 15.1948C11.9739 15.358 18.7119 16.581 22.6108 12.4313C27.3221 7.41563 29.9674 2.50176 29.9674 2.50176C29.9674 2.50176 26.571 0.660156 22.3404 0.660156C20.0214 0.660156 17.4528 1.21308 15.055 2.92439Z" fill="white"/>
</mask>
<g mask="url(#mask3_2394_611)">
<path d="M9.49962 17.4132L8.88867 0.684329L29.9368 -0.171875L30.5478 16.5581L9.49962 17.4132Z" fill="url(#paint2_linear_2394_611)"/>
</g>
<mask id="mask4_2394_611" style="mask-type:luminance" maskUnits="userSpaceOnUse" x="4" y="0" width="13" height="24">
<path d="M4.36845 12.0849C3.64144 17.6611 7.36954 23.5834 8.76444 23.6754C8.35714 21.0422 8.2575 16.3889 8.69108 13.4206C9.29655 9.29618 11.0845 5.52319 12.8101 3.35859C11.6265 5.31844 9.83743 10.2378 9.44655 14.7465C9.19692 17.66 9.84619 21.1703 9.76407 23.7455C10.5239 23.1739 16.109 19.0133 16.0827 13.1721C16.052 6.11224 14.6287 0.664062 14.6287 0.664062C14.6287 0.664062 5.91662 3.6137 4.36845 12.086" fill="white"/>
</mask>
<g mask="url(#mask4_2394_611)">
<path d="M10.3558 30.3012L-7.26758 13.0917L9.39556 -5.89258L27.0189 11.3158L10.3558 30.3012Z" fill="url(#paint3_linear_2394_611)"/>
</g>
<mask id="mask5_2394_611" style="mask-type:luminance" maskUnits="userSpaceOnUse" x="0" y="10" width="15" height="22">
<path d="M0.804688 18.8083V18.8872C0.810162 21.3222 1.3379 24.0167 2.95177 26.5339C6.17732 31.0197 12.7828 32.4255 13.8306 31.4499C11.7777 29.893 8.58717 26.6762 6.90323 24.2543C4.56673 20.8864 3.30213 16.8846 3.07111 14.0675C3.54739 16.3361 5.5806 21.1492 8.32768 24.6288C10.1025 26.8755 12.9175 28.8726 14.585 30.7547C14.7394 29.7835 15.8999 22.6766 11.9649 18.5653C7.21089 13.5956 2.55104 10.8047 2.55104 10.8047C2.55104 10.8047 0.816732 14.3653 0.805783 18.8083" fill="white"/>
</mask>
<g mask="url(#mask5_2394_611)">
<path d="M16.6864 32.3925L0.825844 33.0363L0.015625 10.8352L15.8762 10.1914L16.6864 32.3925Z" fill="url(#paint4_linear_2394_611)"/>
</g>
<mask id="mask6_2394_611" style="mask-type:luminance" maskUnits="userSpaceOnUse" x="0" y="25" width="23" height="13">
<path d="M12.6674 25.4492C5.97429 25.481 0.808594 26.9832 0.808594 26.9832C0.808594 26.9832 3.60495 36.1726 11.6371 37.8062C16.9243 38.5715 22.5378 34.6397 22.6243 33.1682C20.1279 33.5985 15.7166 33.7036 12.9017 33.2459C8.99181 32.6076 5.4148 30.7211 3.36297 28.9025C5.2221 30.1507 9.88524 32.0372 14.1597 32.4489C15.6816 32.5945 17.3754 32.451 18.9991 32.3087C20.3206 32.1916 21.5951 32.0755 22.6911 32.1149C22.1502 31.3145 18.2239 25.4503 12.7046 25.4503H12.6663" fill="white"/>
</mask>
<g mask="url(#mask6_2394_611)">
<path d="M28.8931 31.5065L12.5912 50.0791L-5.39453 32.516L10.9073 13.9434L28.8931 31.5065Z" fill="url(#paint5_linear_2394_611)"/>
</g>
<mask id="mask7_2394_611" style="mask-type:luminance" maskUnits="userSpaceOnUse" x="10" y="26" width="21" height="16">
<path d="M17.7784 29.7913C13.0671 34.8059 10.4219 39.722 10.4219 39.722C10.4219 39.722 13.804 41.5559 18.0226 41.5625H18.0708C20.3832 41.5592 22.943 41.0041 25.3343 39.2971C29.5857 35.8964 30.9193 28.9285 29.9941 27.8227C28.5182 29.9884 25.4679 33.353 23.1719 35.1289C19.9792 37.5935 16.1854 38.9271 13.5149 39.1712C15.6653 38.6676 20.2288 36.5238 23.5266 33.6267C25.6573 31.7544 27.5503 28.7862 29.335 27.0267C28.9726 26.9632 27.7069 26.7344 26.0679 26.7344C23.5463 26.7344 20.1412 27.2752 17.7784 29.7913Z" fill="white"/>
</mask>
<g mask="url(#mask7_2394_611)">
<path d="M30.8874 25.9023L31.459 41.5396L10.4513 42.3936L9.88086 26.7564L30.8874 25.9023Z" fill="url(#paint6_linear_2394_611)"/>
</g>
<mask id="mask8_2394_611" style="mask-type:luminance" maskUnits="userSpaceOnUse" x="24" y="21" width="13" height="21">
<path d="M24.3066 29.0516C24.3373 36.1115 25.7618 41.5597 25.7618 41.5597C25.7618 41.5597 34.4278 38.6232 36.0088 30.1991C34.9457 29.4469 33.5004 28.3575 31.8899 26.9571C31.845 27.6162 31.7815 28.2392 31.6993 28.8031C31.0939 32.9264 29.3059 36.6994 27.5804 38.8651C28.7639 36.9042 30.5519 31.9848 30.9439 27.4772C30.98 27.0513 30.9964 26.6122 30.9997 26.1655C30.1632 25.4056 29.2961 24.5702 28.4256 23.6593C27.899 23.1097 27.4665 22.5042 27.1085 21.8691C25.6457 23.7031 24.2957 26.1721 24.3077 29.0505" fill="white"/>
</mask>
<g mask="url(#mask8_2394_611)">
<path d="M29.7003 15.7109L45.3146 30.9584L30.6025 47.7212L14.9883 32.4737L29.7003 15.7109Z" fill="url(#paint7_linear_2394_611)"/>
</g>
<g style="mix-blend-mode:soft-light">
<mask id="mask9_2394_611" style="mask-type:luminance" maskUnits="userSpaceOnUse" x="0" y="0" width="40" height="42">
<path d="M37.4704 15.7434C38.8072 15.4653 39.5802 15.2408 39.5802 15.2408C39.5802 15.2408 36.797 6.09738 28.8109 4.43096C29.5697 3.23862 29.966 2.50176 29.966 2.50176C29.966 2.50176 26.5697 0.660156 22.339 0.660156C20.0364 0.660156 17.4875 1.20541 15.104 2.88935C14.8412 1.48023 14.6277 0.663441 14.6277 0.663441C14.6277 0.663441 5.95834 3.59884 4.3795 12.0229C3.24848 11.2226 2.54994 10.8043 2.54994 10.8043C2.54994 10.8043 0.815636 14.3649 0.804688 18.808V18.8868C0.810162 21.3054 1.33023 23.9791 2.91892 26.4799C1.58206 26.758 0.807972 26.9824 0.807972 26.9824C0.807972 26.9824 3.59118 36.1259 11.5773 37.7923C10.8186 38.9857 10.4222 39.7215 10.4222 39.7215C10.4222 39.7215 13.8043 41.5554 18.0229 41.562H18.0711C20.3671 41.5587 22.9072 41.0102 25.2843 39.3328C25.5481 40.743 25.7605 41.5587 25.7605 41.5587C25.7605 41.5587 34.4266 38.6233 36.0076 30.1981C37.1397 30.9996 37.8383 31.4178 37.8383 31.4178C37.8383 31.4178 41.9989 22.8777 37.4704 15.7423V15.7434ZM19.4759 28.4003C18.2091 27.2769 16.6237 26.2171 14.8007 25.7299C14.6583 23.9901 14.2478 22.0576 13.2853 20.354C14.3507 19.0182 15.3558 17.3452 15.8178 15.4226C17.4667 15.2726 19.2985 14.839 20.9145 13.824C22.1813 14.9474 23.7667 16.0072 25.5897 16.4956C25.7321 18.2353 26.1426 20.1678 27.1051 21.8726C26.0397 23.2083 25.0346 24.8802 24.5726 26.8029C22.9237 26.9529 21.0908 27.3864 19.4759 28.4014V28.4003ZM28.3204 23.5488C28.3204 23.5488 28.3248 23.5543 28.3281 23.5565C28.3259 23.5543 28.3237 23.551 28.3204 23.5488Z" fill="white"/>
</mask>
<g mask="url(#mask9_2394_611)">
<path d="M41.0773 -0.917969H-0.689453V43.1393H41.0773V-0.917969Z" fill="url(#paint8_radial_2394_611)"/>
</g>
</g>
<defs>
<linearGradient id="paint0_linear_2394_611" x1="25.399" y1="19.6459" x2="43.716" y2="18.939" gradientUnits="userSpaceOnUse">
<stop stop-color="#4CC4D9"/>
<stop offset="1" stop-color="#0995B5"/>
</linearGradient>
<linearGradient id="paint1_linear_2394_611" x1="20.1056" y1="17.7984" x2="37.0272" y2="-0.481637" gradientUnits="userSpaceOnUse">
<stop stop-color="#2699D3"/>
<stop offset="1" stop-color="#0C52A0"/>
</linearGradient>
<linearGradient id="paint2_linear_2394_611" x1="18.1916" y1="15.605" x2="17.5446" y2="-1.16192" gradientUnits="userSpaceOnUse">
<stop stop-color="#AA62A7"/>
<stop offset="1" stop-color="#6D2C90"/>
</linearGradient>
<linearGradient id="paint3_linear_2394_611" x1="18.3231" y1="20.0375" x2="-0.232377" y2="2.86089" gradientUnits="userSpaceOnUse">
<stop stop-color="#E16BA8"/>
<stop offset="1" stop-color="#C73793"/>
</linearGradient>
<linearGradient id="paint4_linear_2394_611" x1="15.0845" y1="22.3737" x2="-0.858651" y2="22.9889" gradientUnits="userSpaceOnUse">
<stop stop-color="#F26E52"/>
<stop offset="1" stop-color="#D32E27"/>
</linearGradient>
<linearGradient id="paint5_linear_2394_611" x1="18.8806" y1="22.5261" x2="1.62883" y2="41.1629" gradientUnits="userSpaceOnUse">
<stop stop-color="#F8A045"/>
<stop offset="1" stop-color="#F26E21"/>
</linearGradient>
<linearGradient id="paint6_linear_2394_611" x1="21.2991" y1="27.4757" x2="21.9041" y2="43.1518" gradientUnits="userSpaceOnUse">
<stop stop-color="#FBDC61"/>
<stop offset="1" stop-color="#FBB033"/>
</linearGradient>
<linearGradient id="paint7_linear_2394_611" x1="24.1261" y1="23.6669" x2="40.5783" y2="38.8965" gradientUnits="userSpaceOnUse">
<stop stop-color="#CDDA51"/>
<stop offset="1" stop-color="#85A43D"/>
</linearGradient>
<radialGradient id="paint8_radial_2394_611" cx="0" cy="0" r="1" gradientUnits="userSpaceOnUse" gradientTransform="translate(20.4966 18.9614) scale(20.8508 21.9928)">
<stop stop-color="white"/>
<stop offset="0.72" stop-color="white"/>
<stop offset="1" stop-color="white"/>
</radialGradient>
</defs>
</svg>
