<svg width="57" height="60" viewBox="0 0 57 60" fill="none" xmlns="http://www.w3.org/2000/svg">
<path d="M46.0626 50.3335H7.1666C6.91898 50.3335 6.67626 50.2646 6.46562 50.1344C6.25499 50.0042 6.08477 49.8179 5.97403 49.5965C5.86329 49.375 5.81642 49.127 5.83865 48.8804C5.86089 48.6338 5.95136 48.3983 6.09993 48.2002L7.1666 46.7788V23.6668C7.1666 20.1202 8.0306 16.7762 9.56393 13.8348L0.2146 4.48818L3.98793 0.714844L56.7853 53.5148L53.0119 57.2855L46.0626 50.3335ZM13.5879 17.8588C12.8669 19.7102 12.4979 21.68 12.4999 23.6668V45.0002H40.7293L13.5879 17.8588ZM49.8333 39.0962L44.4999 33.7628V23.6668C44.5004 20.8606 43.7629 18.1036 42.3613 15.6725C40.9597 13.2414 38.9433 11.2216 36.5145 9.81596C34.0857 8.4103 31.33 7.66814 28.5237 7.66396C25.7175 7.65979 22.9596 8.39374 20.5266 9.79218L16.6599 5.92018C19.8726 3.77675 23.6068 2.54563 27.4642 2.35814C31.3217 2.17065 35.1577 3.03382 38.5631 4.85557C41.9684 6.67732 44.8154 9.38932 46.8002 12.7023C48.7851 16.0152 49.8334 19.8048 49.8333 23.6668V39.0962ZM21.8333 53.0002H35.1666C35.1666 54.7683 34.4642 56.464 33.214 57.7142C31.9637 58.9645 30.268 59.6668 28.4999 59.6668C26.7318 59.6668 25.0361 58.9645 23.7859 57.7142C22.5356 56.464 21.8333 54.7683 21.8333 53.0002Z" fill="#131336"/>
</svg>
