<svg width="25" height="24" viewBox="0 0 25 24" fill="none" xmlns="http://www.w3.org/2000/svg">
<g clip-path="url(#clip0_7346_2718)">
<path d="M5.67529 9.74994C5.67405 8.86045 5.84887 7.97951 6.18968 7.1579C6.53049 6.33628 7.03055 5.59025 7.66102 4.9628C8.2915 4.33535 9.03993 3.83889 9.86318 3.50204C10.6864 3.16519 11.5682 2.99461 12.4577 3.00013C16.1692 3.02772 19.138 6.11275 19.138 9.83468V10.4999C19.138 13.8577 19.8405 15.8061 20.4592 16.871C20.5258 16.9848 20.5613 17.1142 20.562 17.246C20.5627 17.3779 20.5286 17.5076 20.4632 17.6221C20.3978 17.7366 20.3033 17.8318 20.1893 17.8982C20.0754 17.9645 19.9459 17.9996 19.814 17.9999H4.99847C4.86659 17.9996 4.73712 17.9645 4.62314 17.8981C4.50915 17.8318 4.41469 17.7366 4.34926 17.622C4.28384 17.5075 4.24977 17.3778 4.2505 17.2459C4.25123 17.114 4.28673 16.9846 4.35341 16.8709C4.97247 15.8059 5.67529 13.8575 5.67529 10.4999L5.67529 9.74994Z" fill="#147AE9" stroke="#147AE9" stroke-width="2" stroke-linecap="round" stroke-linejoin="round"/>
<path d="M9.40625 18V18.75C9.40625 19.5456 9.72232 20.3087 10.2849 20.8713C10.8475 21.4339 11.6106 21.75 12.4062 21.75C13.2019 21.75 13.965 21.4339 14.5276 20.8713C15.0902 20.3087 15.4062 19.5456 15.4062 18.75V18" stroke="#147AE9" stroke-width="2" stroke-linecap="round" stroke-linejoin="round"/>
</g>
<defs>
<clipPath id="clip0_7346_2718">
<rect width="24" height="24" fill="white" transform="translate(0.40625)"/>
</clipPath>
</defs>
</svg>
