<svg width="32" height="32" viewBox="0 0 32 32" fill="none" xmlns="http://www.w3.org/2000/svg">
<path d="M28 2.66675V29.3334H25.3333V20.0001H20V10.6667C20 8.54502 20.8429 6.51018 22.3431 5.00989C23.8434 3.5096 25.8783 2.66675 28 2.66675ZM25.3333 6.04008C24.2267 6.66675 22.6667 8.22675 22.6667 10.6667V17.3334H25.3333V6.04008ZM12 18.5334V29.3334H9.33333V18.5334C7.82774 18.2256 6.47466 17.4072 5.50286 16.2168C4.53106 15.0263 4.00019 13.5368 4 12.0001V4.00008H6.66667V13.3334H9.33333V4.00008H12V13.3334H14.6667V4.00008H17.3333V12.0001C17.3331 13.5368 16.8023 15.0263 15.8305 16.2168C14.8587 17.4072 13.5056 18.2256 12 18.5334Z" fill="url(#paint0_linear_3586_12436)"/>
<defs>
<linearGradient id="paint0_linear_3586_12436" x1="28" y1="28.3522" x2="-7.03588" y2="-6.49629" gradientUnits="userSpaceOnUse">
<stop stop-color="#1C89FF"/>
<stop offset="1" stop-color="#4CEEBE"/>
</linearGradient>
</defs>
</svg>
