<svg width="32" height="32" viewBox="0 0 32 32" fill="none" xmlns="http://www.w3.org/2000/svg">
<path d="M16 30C23.732 30 30 23.732 30 16C30 8.268 23.732 2 16 2C8.268 2 2 8.268 2 16C2 23.732 8.268 30 16 30Z" fill="#2176D1"/>
<path d="M6 14.12V14.83C6 15.72 7.11 17.41 8 17.41H10.86C11.79 17.41 12.54 18.16 12.54 19.09V20.81C12.54 21.17 12.84 21.47 13.2 21.47H13.55C13.76 21.47 14.05 21.61 14.05 22.17V24.42C14.05 25.01 14.53 25.5 15.13 25.5H15.62C15.91 25.5 16.18 25.39 16.38 25.18L18.08 23.48L18.14 21.06C18.15 20.73 18.42 20.47 18.75 20.47H19.09L21 17.62C21.1 17.42 21.15 17.2 21.15 16.98V16.62C21.15 16.46 21.02 16.32 20.86 16.3C19.87 16.14 18.13 15.33 18.13 14.32V13.82C18.13 12.42 19.274 12.42 19.564 12.42H19.57C19.85 12.42 20.07 12.65 20.07 12.92V13.77C20.07 14.13 20.37 14.43 20.73 14.43H21.08L22.23 13.85C22.74 13.59 22.83 12.9 22.39 12.53L22.16 12.34C21.85 12.07 22.05 11.41 22.58 11.41H24.13C25.33 11.41 26.13 13.36 26.13 14.56V15.1C26.13 15.27 26.27 15.41 26.44 15.41H26.78C27 15.41 27.2 15.3 27.32 15.12L29.413 11.977C28.6971 9.59774 27.3619 7.45136 25.544 5.75755C23.7261 4.06374 21.4909 2.8833 19.067 2.33704L18.06 3.37004H17.05L16.38 2.70004C16.17 2.49004 15.88 2.37004 15.58 2.37004H14.3C14.12 2.37004 13.95 2.41004 13.8 2.49004L12.3 3.24004C12.2188 3.27972 12.1499 3.34066 12.1006 3.41638C12.0513 3.49209 12.0235 3.57975 12.02 3.67004C11.996 4.15004 12.005 4.32304 12.015 4.53304C12.022 4.66904 12.03 4.82104 12.03 5.08004C12.03 5.39004 12.34 5.43004 12.58 5.42004C12.83 5.40004 13.03 5.18004 13.03 4.93004V4.79004C13.03 4.52004 13.14 4.27004 13.32 4.08004L13.6 3.80004C14.204 3.67804 14.175 4.30204 14.144 4.96504C14.137 5.11504 14.13 5.26504 14.13 5.41004C14.13 5.99004 13.74 6.39004 13.15 6.39004H11.57C11.283 6.38404 10.98 6.25404 10.683 6.12704C10.495 6.04704 10.309 5.96704 10.13 5.92004C9.71 5.82004 9.14 5.94004 9.14 6.73004V7.04004C9.14 7.23004 8.99 7.39004 8.79 7.39004C8.61496 7.39004 8.44708 7.45957 8.32331 7.58335C8.19954 7.70712 8.13 7.87499 8.13 8.05004V9.25004C8.13 9.60004 8.42 9.89004 8.78 9.89004H9.36C9.72 9.89004 9.97 9.40004 9.97 9.04004L10.01 8.74004C10.01 8.55004 10.16 8.39004 10.36 8.39004H11.33C11.42 8.39004 11.88 8.40004 12.24 8.70004L12.68 9.04004C12.91 9.27004 13.21 9.39004 13.53 9.39004H13.67C13.9 9.39004 14.11 9.28004 14.23 9.09004L14.85 8.17004C14.97 7.99004 15.17 7.89004 15.38 7.89004H15.75C15.91 7.89004 16.04 8.02004 16.04 8.18004V8.90004C16.04 9.17004 16.26 9.39004 16.53 9.39004H16.9C17.53 9.39004 18.05 9.90004 18.05 10.53C18.05 10.86 17.69 11.06 17.4 10.89C16.87 10.57 15.97 10.32 15.52 10.43C15.08 10.53 14.12 11.4 14.12 11.4C14.12 11.4 12.99 11.66 13.02 11.08V10.8C13.03 10.53 12.77 10.41 12.54 10.41H11.5C11.19 10.41 10.89 10.53 10.67 10.75L10.35 11.07C10.13 11.29 9.84 11.41 9.53 11.41H8.47C8.12 11.4 7.78 11.54 7.54 11.79L6.47 12.92C6.17 13.24 6 13.67 6 14.12ZM21.53 21C21.24 21 21 21.24 21 21.53V22.59C21 22.88 21.24 23.12 21.53 23.12C21.82 23.12 22.06 22.88 22.06 22.59V21.53C22.06 21.23 21.82 21 21.53 21Z" fill="#8FD31F"/>
</svg>
