<svg width="24" height="24" viewBox="0 0 24 24" fill="none" xmlns="http://www.w3.org/2000/svg">
<g clip-path="url(#clip0_137_2277)">
<path d="M18.6665 18C13.3332 18 13.3332 22 13.3332 22V14.6666H10.6665V22C10.6665 22 10.6665 18 5.33317 18C2.6665 18 0.666504 16.6666 0.666504 16.6666C0.666504 16.6666 0.666504 22.6666 6.6665 22.6666H10.6665C10.6665 22.6666 10.6665 24 11.9998 24C13.3332 24 13.3332 22.6666 13.3332 22.6666H17.3332C23.3332 22.6666 23.3332 16.6666 23.3332 16.6666C23.3332 16.6666 21.3332 18 18.6665 18Z" fill="#3E721D"/>
<path d="M14.0831 18.4413C13.8644 18.4413 13.6491 18.3766 13.4651 18.2526L11.9164 17.2026L10.3684 18.2526C10.237 18.3407 10.0882 18.3998 9.93206 18.4258C9.77592 18.4518 9.61604 18.4441 9.46311 18.4033C9.31032 18.3628 9.16808 18.2897 9.04612 18.1891C8.92416 18.0886 8.82535 17.9629 8.75644 17.8206L7.93978 16.1359L6.07511 16.2719C6.04844 16.2733 6.02244 16.2746 5.99578 16.2746C5.84433 16.2745 5.69453 16.2433 5.55568 16.1828C5.41683 16.1224 5.2919 16.034 5.18866 15.9232C5.08542 15.8124 5.00609 15.6815 4.95559 15.5388C4.90509 15.396 4.8845 15.2444 4.89511 15.0933L5.02911 13.2266L3.34711 12.4099C3.20488 12.3406 3.07919 12.2416 2.97853 12.1196C2.87787 11.9975 2.80459 11.8552 2.76364 11.7024C2.72268 11.5496 2.71501 11.3898 2.74114 11.2337C2.76727 11.0777 2.8266 10.9291 2.91511 10.7979L3.96378 9.24928L2.91511 7.70128C2.82616 7.57031 2.76654 7.42168 2.7403 7.26555C2.71407 7.10942 2.72185 6.94946 2.76311 6.79661C2.80431 6.64394 2.87775 6.50186 2.97849 6.37996C3.07923 6.25807 3.20493 6.15917 3.34711 6.08995L5.02911 5.27328L4.89511 3.40861C4.88371 3.2507 4.90641 3.09218 4.96167 2.94381C5.01693 2.79544 5.10346 2.66069 5.21538 2.5487C5.3273 2.43672 5.462 2.35011 5.61034 2.29477C5.75868 2.23943 5.91719 2.21664 6.07511 2.22795L7.93978 2.36195L8.75644 0.679947C8.82591 0.537879 8.92503 0.41235 9.04711 0.311818C9.16918 0.211285 9.31139 0.138085 9.46414 0.0971484C9.6169 0.0562117 9.77665 0.0484896 9.93264 0.0745023C10.0886 0.100515 10.2372 0.159658 10.3684 0.247948L11.9164 1.29661L13.4651 0.247948C13.5958 0.158868 13.7442 0.0991542 13.9001 0.0729146C14.0561 0.0466751 14.2158 0.0545329 14.3684 0.0959475C14.6784 0.179281 14.9378 0.391947 15.0764 0.679947L15.8931 2.36195L17.7598 2.22795C17.7844 2.22595 17.8118 2.22595 17.8371 2.22595C17.9888 2.22583 18.1388 2.25697 18.2779 2.31744C18.4169 2.3779 18.5421 2.46639 18.6454 2.57736C18.7488 2.68834 18.8281 2.81944 18.8785 2.96246C18.929 3.10548 18.9493 3.25736 18.9384 3.40861L18.8024 5.27328L20.4871 6.08995C20.7758 6.22928 20.9878 6.48861 21.0698 6.79661C21.1524 7.10661 21.0984 7.43661 20.9184 7.70128L19.8684 9.24928L20.9184 10.7979C21.0978 11.0633 21.1524 11.3926 21.0698 11.7019C21.0293 11.8549 20.9563 11.9974 20.8558 12.1196C20.7552 12.2418 20.6295 12.3408 20.4871 12.4099L18.8024 13.2266L18.9384 15.0933C18.9611 15.4119 18.8431 15.7239 18.6184 15.9519C18.5064 16.0634 18.3718 16.1497 18.2237 16.2049C18.0756 16.2601 17.9174 16.2829 17.7598 16.2719L15.8931 16.1359L15.0764 17.8206C15.0074 17.963 14.9084 18.0889 14.7862 18.1894C14.664 18.29 14.5215 18.363 14.3684 18.4033C14.2756 18.4292 14.1795 18.442 14.0831 18.4413Z" fill="#FFAC33"/>
<path d="M12.0002 14C14.5775 14 16.6668 11.9106 16.6668 9.33329C16.6668 6.75596 14.5775 4.66663 12.0002 4.66663C9.42283 4.66663 7.3335 6.75596 7.3335 9.33329C7.3335 11.9106 9.42283 14 12.0002 14Z" fill="#732700"/>
</g>
<defs>
<clipPath id="clip0_137_2277">
<rect width="24" height="24" fill="white"/>
</clipPath>
</defs>
</svg>
