<svg width="24" height="24" viewBox="0 0 24 24" fill="none" xmlns="http://www.w3.org/2000/svg">
<path fill-rule="evenodd" clip-rule="evenodd" d="M12.585 12.6667C15.6456 12.6667 18.1267 10.1856 18.1267 7.125C18.1267 4.06442 15.6456 1.58333 12.585 1.58333C9.52441 1.58333 7.04332 4.06442 7.04332 7.125C7.04332 10.1856 9.52441 12.6667 12.585 12.6667ZM12.585 14.25C16.52 14.25 19.71 11.06 19.71 7.125C19.71 3.18997 16.52 0 12.585 0C8.64996 0 5.45999 3.18997 5.45999 7.125C5.45999 11.06 8.64996 14.25 12.585 14.25Z" fill="#6D2C90"/>
<path fill-rule="evenodd" clip-rule="evenodd" d="M12.6 21.3987C13.6301 21.3987 14.4652 20.5637 14.4652 19.5335C14.4652 18.5034 13.6301 17.6683 12.6 17.6683C11.5699 17.6683 10.7348 18.5034 10.7348 19.5335C10.7348 20.5637 11.5699 21.3987 12.6 21.3987ZM12.6 22.8335C14.4225 22.8335 15.9 21.3561 15.9 19.5335C15.9 17.711 14.4225 16.2335 12.6 16.2335C10.7774 16.2335 9.29999 17.711 9.29999 19.5335C9.29999 21.3561 10.7774 22.8335 12.6 22.8335Z" fill="#6D2C90"/>
<path d="M12 13.6288H13.2V17.0488H12V13.6288Z" fill="#6D2C90"/>
</svg>
