<svg width="19" height="19" viewBox="0 0 19 19" fill="none" xmlns="http://www.w3.org/2000/svg">
<g clip-path="url(#clip0_696_13818)">
<path d="M12.296 7.5839L11.2355 6.5234L4.25 13.5089V14.5694H5.3105L12.296 7.5839ZM13.3565 6.5234L14.417 5.4629L13.3565 4.4024L12.296 5.4629L13.3565 6.5234ZM5.9315 16.0694H2.75V12.8871L12.8263 2.8109C12.9669 2.6703 13.1576 2.59131 13.3565 2.59131C13.5554 2.59131 13.7461 2.6703 13.8868 2.8109L16.0085 4.93265C16.1491 5.07329 16.2281 5.26403 16.2281 5.4629C16.2281 5.66177 16.1491 5.8525 16.0085 5.99315L5.93225 16.0694H5.9315Z" fill="#717186"/>
</g>
<defs>
<clipPath id="clip0_696_13818">
<rect width="18" height="18" fill="white" transform="translate(0.5 0.319336)"/>
</clipPath>
</defs>
</svg>
