<svg width="18" height="16" viewBox="0 0 18 16" fill="none" xmlns="http://www.w3.org/2000/svg">
<path d="M3.07363 15.7188L3.05675 15.7356L3.03903 15.7188H1.5245C1.30244 15.7185 1.08954 15.6302 0.9326 15.4731C0.775657 15.316 0.6875 15.103 0.6875 14.8809V1.36909C0.689044 1.14751 0.777697 0.935421 0.934308 0.778652C1.09092 0.621884 1.30291 0.533017 1.5245 0.53125H16.7255C17.1879 0.53125 17.5625 0.906719 17.5625 1.36909V14.8809C17.561 15.1025 17.4723 15.3146 17.3157 15.4713C17.1591 15.6281 16.9471 15.717 16.7255 15.7188H3.07363V15.7188ZM15.875 10.6562V2.21875H2.375V14.0312L10.8125 5.59375L15.875 10.6562ZM15.875 13.0424L10.8125 7.97988L4.76113 14.0312H15.875V13.0424ZM5.75 7.28125C5.30245 7.28125 4.87322 7.10346 4.55676 6.78699C4.24029 6.47052 4.0625 6.0413 4.0625 5.59375C4.0625 5.1462 4.24029 4.71697 4.55676 4.40051C4.87322 4.08404 5.30245 3.90625 5.75 3.90625C6.19755 3.90625 6.62677 4.08404 6.94324 4.40051C7.25971 4.71697 7.4375 5.1462 7.4375 5.59375C7.4375 6.0413 7.25971 6.47052 6.94324 6.78699C6.62677 7.10346 6.19755 7.28125 5.75 7.28125Z" fill="#147AE9"/>
</svg>
