<svg width="17" height="19" viewBox="0 0 17 19" fill="none" xmlns="http://www.w3.org/2000/svg">
<path d="M3.49969 5.08765V14.469L11.5397 9.77832L3.49969 5.08765ZM1.83569 1.03165L15.8464 9.20498C15.9468 9.26376 16.03 9.34779 16.0879 9.44872C16.1458 9.54965 16.1762 9.66397 16.1762 9.78032C16.1762 9.89666 16.1458 10.011 16.0879 10.1119C16.03 10.2128 15.9468 10.2969 15.8464 10.3556L1.83569 18.529C1.73408 18.5883 1.61859 18.6196 1.50095 18.6199C1.3833 18.6201 1.2677 18.5892 1.16586 18.5303C1.06403 18.4714 0.979596 18.3866 0.921138 18.2845C0.86268 18.1824 0.832279 18.0666 0.833021 17.949V1.60632C0.832986 1.48901 0.863903 1.37378 0.922649 1.27225C0.981395 1.17072 1.06589 1.08648 1.1676 1.02805C1.26932 0.969618 1.38465 0.939059 1.50195 0.939457C1.61925 0.939855 1.73437 0.971197 1.83569 1.03032V1.03165Z" fill="#147AE9"/>
</svg>
