
<svg width="21" height="20" viewBox="0 0 21 20" fill="none" xmlns="http://www.w3.org/2000/svg">
<path d="M12.4911 16.875H4C3.83424 16.875 3.67527 16.8092 3.55806 16.6919C3.44085 16.5747 3.375 16.4158 3.375 16.25V3.75C3.375 3.58424 3.44085 3.42527 3.55806 3.30806C3.67527 3.19085 3.83424 3.125 4 3.125H16.5C16.6658 3.125 16.8247 3.19085 16.9419 3.30806C17.0592 3.42527 17.125 3.58424 17.125 3.75V12.2411C17.125 12.3232 17.1088 12.4045 17.0774 12.4803C17.046 12.5561 17 12.625 16.9419 12.6831L12.9331 16.6919C12.875 16.75 12.8061 16.796 12.7303 16.8274C12.6545 16.8588 12.5732 16.875 12.4911 16.875V16.875Z" stroke="#0C72E0" stroke-width="2" stroke-linecap="round" stroke-linejoin="round"/>
<path d="M17.0688 12.4995H12.75V16.8183" stroke="#0C72E0" stroke-width="2" stroke-linecap="round" stroke-linejoin="round"/>
</svg>
