<svg width="21" height="20" viewBox="0 0 21 20" fill="none" xmlns="http://www.w3.org/2000/svg">
<path d="M10.5968 16.5329H4.16302C4.00789 16.5329 3.85912 16.4736 3.74944 16.3681C3.63975 16.2626 3.57812 16.1194 3.57812 15.9702V9.78024C3.57812 8.89347 3.75967 8.01538 4.11239 7.19611C4.46511 6.37684 4.9821 5.63244 5.63385 5.00539C6.28559 4.37835 7.05932 3.88096 7.91087 3.5416C8.76241 3.20225 9.67509 3.02759 10.5968 3.02759H10.5968C11.5185 3.02759 12.4312 3.20225 13.2827 3.5416C14.1343 3.88096 14.908 4.37836 15.5598 5.0054C16.2115 5.63244 16.7285 6.37685 17.0812 7.19612C17.4339 8.01539 17.6155 8.89348 17.6155 9.78026V9.78027C17.6155 11.5712 16.876 13.2887 15.5598 14.5551C14.2435 15.8215 12.4583 16.5329 10.5968 16.5329Z" stroke="#131336" stroke-width="2" stroke-linecap="round" stroke-linejoin="round"/>
</svg>
