<svg width="21" height="20" viewBox="0 0 21 20" fill="none" xmlns="http://www.w3.org/2000/svg">
<path d="M10.2919 16.5327C10.2919 16.5327 17.9209 12.4223 17.9209 7.43123C17.9207 6.54908 17.603 5.69421 17.0218 5.01196C16.4405 4.3297 15.6316 3.86219 14.7326 3.68889C13.8336 3.5156 12.8999 3.64722 12.0903 4.06138C11.2807 4.47555 10.6453 5.14668 10.2919 5.96069L10.2919 5.9607C9.93854 5.14669 9.30305 4.47555 8.49348 4.06139C7.68391 3.64722 6.75024 3.5156 5.8512 3.68889C4.95216 3.86219 4.14325 4.3297 3.562 5.01195C2.98076 5.69421 2.66305 6.54908 2.66289 7.43123C2.66289 12.4223 10.2919 16.5327 10.2919 16.5327Z" stroke="#131336" stroke-width="2" stroke-linecap="round" stroke-linejoin="round"/>
</svg>
