<svg width="53" height="58" viewBox="0 0 53 58" fill="none" xmlns="http://www.w3.org/2000/svg">
<path d="M9.67798 50.8137C9.67798 50.8137 13.5683 47.8337 14.6643 46.1331C15.758 44.4302 16.4895 41.6948 16.4895 41.6948C16.4895 41.6948 15.3347 39.3851 15.2735 35.5536C15.2124 31.7221 14.0269 14.6085 14.8478 12.3294C15.6687 10.0502 17.2375 11.6943 17.2375 11.6943C17.2375 11.6943 16.5178 4.85219 17.6444 3.5515C18.7828 2.2367 20.2387 3.50211 20.2387 3.50211C20.2387 3.50211 20.0153 1.02304 21.0172 0.263327C22.3415 -0.738649 23.3928 1.44171 23.3928 1.44171L28.4027 46.4389C28.4027 46.4389 24.8158 54.5864 23.8421 56.1058C22.8683 57.6253 22.078 57.9898 22.078 57.9898C22.078 57.9898 17.1528 57.1384 14.8431 55.8001C12.5357 54.4594 9.67798 50.8137 9.67798 50.8137Z" fill="#F0BFAE"/>
<path d="M45.5003 48.7485C45.5003 48.7485 40.0294 45.6485 39.0251 43.4587C38.0207 41.269 38.7522 39.1733 39.4814 37.6233C40.2105 36.0733 40.0294 31.8772 39.7542 28.2292C39.4814 24.5811 37.7479 20.6603 37.1999 18.8821C36.6518 17.104 35.377 16.0079 34.4644 17.8331C33.5518 19.6559 34.3515 24.193 34.3515 24.193C34.3515 24.193 32.6275 18.4235 31.1692 13.2254C29.7109 8.02737 28.4008 4.58632 27.2836 3.51378C26.3851 2.65057 25.5313 3.8901 25.5313 3.8901C25.5313 3.8901 25.0374 0.912405 23.4404 0.938278C21.7586 0.964151 21.514 4.24291 21.514 4.24291C21.514 4.24291 20.3733 3.01279 19.0514 4.05945C17.7296 5.10612 18.414 11.9929 18.414 11.9929C18.414 11.9929 15.5868 10.7158 15.9514 15.1847C16.189 18.1059 17.1368 24.9434 17.1368 25.489C17.1368 26.0371 17.866 33.8788 18.414 35.9768C18.962 38.0749 20.2368 44.1855 22.6101 47.5584C24.9809 50.9336 29.177 54.3064 31.0916 55.4001C33.0062 56.4938 35.1959 57.4064 35.1959 57.4064C35.1959 57.4064 40.4904 56.014 42.4073 54.0994C44.3243 52.1849 45.5003 48.7485 45.5003 48.7485Z" fill="#F0BFAE"/>
<path d="M9.67798 50.8136C9.67798 50.8136 17.8866 55.9811 20.742 53.7937C23.5998 51.6039 22.078 45.2839 22.078 45.2839C22.078 45.2839 24.7782 49.3624 25.1921 49.6494C25.6085 49.9363 26.3658 50.9383 26.3658 50.9383C26.3658 50.9383 23.9291 56.3833 22.96 57.263C21.9886 58.1426 22.0804 57.9897 22.0804 57.9897C22.0804 57.9897 16.5813 56.8819 14.5068 55.5906C12.3523 54.2476 9.67798 50.8136 9.67798 50.8136Z" fill="#E5A48E"/>
<path d="M22.4897 46.006C22.4897 46.006 27.3444 52.8293 30.9924 54.7579C34.6405 56.6866 35.7883 57.1947 35.7883 57.1947C35.7883 57.1947 37.3571 56.7784 37.8322 56.5949C38.7824 56.2256 39.815 55.8023 39.815 55.8023C39.815 55.8023 22.8378 47.8311 20.8151 35.2476C19.3168 25.9194 17.7433 16.7864 17.3411 12.9643C17.2 11.6307 18.1384 11.426 18.1384 11.426C18.1384 11.426 16.3368 11.2543 16.5602 14.6201C16.746 17.4285 19.1428 38.9051 20.8127 42.4543" fill="#E5A48E"/>
<path d="M35.6962 57.4116C34.3602 56.8118 33.0619 56.1532 31.7941 55.4241C31.1591 55.0619 30.5358 54.6785 29.9289 54.2669C29.3197 53.86 28.7294 53.4178 28.1719 52.9332C27.8897 52.6886 27.6263 52.437 27.3652 52.1876C27.1041 51.936 26.8383 51.6867 26.5796 51.4303C26.0551 50.9222 25.5494 50.3954 25.0555 49.8544C24.0747 48.7678 23.1762 47.5988 22.4141 46.3428C21.6497 45.0891 21.0193 43.7532 20.5395 42.3655C20.0526 40.9777 19.7445 39.5406 19.4741 38.1129C18.9448 35.2505 18.5285 32.3739 18.1334 29.4974C17.7406 26.6184 17.3807 23.7372 17.042 20.8512C16.875 19.4094 16.7104 17.9652 16.5599 16.5211C16.4846 15.799 16.4117 15.0769 16.3505 14.3478C16.3411 14.1596 16.3199 13.9714 16.3364 13.7856C16.3458 13.5975 16.3435 13.4117 16.3787 13.2235L16.4187 12.9436C16.4328 12.8495 16.4658 12.7578 16.4869 12.6661C16.5269 12.4779 16.6116 12.3015 16.6869 12.1204C16.8656 11.7746 17.1479 11.4383 17.5548 11.2925C17.957 11.1396 18.4203 11.2289 18.7543 11.4595C19.093 11.6852 19.3447 12.0169 19.4905 12.3791C19.5634 12.5555 19.6152 12.7343 19.674 12.913L19.8222 13.4422C20.1914 14.8535 20.5113 16.2694 20.8147 17.69C21.4239 20.5313 21.986 23.3797 22.487 26.2398L22.3977 26.2586C21.7461 23.4291 21.1275 20.5925 20.4878 17.763C20.1585 16.3517 19.848 14.9311 19.4741 13.5363L19.3282 13.0165C19.2718 12.8495 19.2224 12.6778 19.1565 12.5202C19.0319 12.2098 18.8202 11.9393 18.5544 11.7652C18.291 11.5865 17.9593 11.5324 17.6794 11.6382C17.3948 11.7417 17.1714 11.9934 17.0209 12.285C16.4493 13.5434 16.8397 15.0487 16.9432 16.4787C17.0961 17.9205 17.2678 19.3624 17.4372 20.8042C17.7829 23.6854 18.1522 26.5644 18.5544 29.4386C18.9589 32.3104 19.3847 35.1823 19.9209 38.0283C20.1938 39.4513 20.4995 40.8578 20.9817 42.2126C21.4545 43.5674 22.0754 44.8704 22.8257 46.0935C23.576 47.3165 24.4557 48.4596 25.4153 49.5298C25.8999 50.0614 26.3985 50.5812 26.9159 51.0869C27.1723 51.3409 27.4358 51.5902 27.6968 51.8419C27.9603 52.0936 28.2213 52.3429 28.4871 52.5757C29.0234 53.0438 29.5973 53.4766 30.1947 53.8741C30.7898 54.2786 31.4037 54.6549 32.0293 55.0148C33.2783 55.7345 34.5719 56.3908 35.882 56.9835L35.6962 57.4116Z" fill="#AA6152"/>
<path d="M19.1796 12.5248C18.9679 11.2006 18.8315 9.86933 18.775 8.52866C18.7468 7.85832 18.7468 7.18564 18.7868 6.50824C18.8385 5.8332 18.9185 5.15346 19.1514 4.48312C19.2737 4.15148 19.4359 3.81279 19.7276 3.53995C19.7982 3.47174 19.8899 3.41764 19.9722 3.35884L20.2356 3.23653C20.3297 3.2036 20.4332 3.18479 20.5297 3.16362C20.6331 3.16127 20.7413 3.15186 20.8472 3.16833C20.9507 3.1942 21.0612 3.20831 21.1506 3.26241L21.2894 3.33297L21.4093 3.42235C21.5693 3.5423 21.6892 3.69048 21.7998 3.83866C22.0114 4.13972 22.1573 4.46196 22.2772 4.78654C22.7147 6.09899 22.9146 7.40673 23.1898 8.70977L24.761 16.5468C25.269 19.1623 25.7489 21.7825 26.1275 24.4239C25.4431 21.8436 24.8621 19.2446 24.3094 16.6385L22.6959 8.81326C22.4183 7.51492 22.1949 6.18131 21.8021 4.96059C21.6939 4.66188 21.5622 4.37022 21.3929 4.12561C21.2235 3.881 21.0071 3.69518 20.7743 3.6552C20.7155 3.64579 20.6543 3.65285 20.5932 3.6505C20.5296 3.66931 20.4685 3.67637 20.405 3.69754L20.2145 3.78221C20.1627 3.8222 20.1063 3.85042 20.0569 3.89746C19.8593 4.07857 19.7135 4.35376 19.6053 4.64307C19.3936 5.23343 19.3089 5.8873 19.2548 6.53647C19.2055 7.19034 19.1937 7.84891 19.2078 8.50984C19.2407 9.82935 19.3536 11.1559 19.5206 12.4684L19.1796 12.5248Z" fill="#AA6152"/>
<path d="M22.0769 5.63326C22.0393 5.01466 22.0369 4.40548 22.0793 3.78924C22.1239 3.17536 22.2016 2.55912 22.3921 1.95229C22.4885 1.65123 22.6155 1.34781 22.8154 1.07027C23.0107 0.795078 23.3282 0.552814 23.6998 0.486956C24.0691 0.435211 24.4196 0.515184 24.7277 0.677476C25.0381 0.84212 25.2851 1.09144 25.4733 1.35957C25.8496 1.9029 26.0495 2.50737 26.2118 3.10244C26.3694 3.70222 26.4776 4.30434 26.5905 4.89706C26.6469 5.19342 26.7034 5.48508 26.7716 5.77438L26.9739 6.6611L27.3737 8.43455L28.9684 15.526C29.2295 16.7091 29.4882 17.8922 29.7258 19.08L30.081 20.8628C30.1891 21.4602 30.3068 22.053 30.4079 22.6504L30.2879 22.6763C30.1209 22.0929 29.9704 21.5073 29.8105 20.9216L29.3612 19.1599C29.0625 17.9862 28.785 16.8079 28.5098 15.6271L26.8845 8.5451L26.4776 6.774L26.2777 5.88728C26.2071 5.58622 26.1507 5.2828 26.0966 4.98409C25.9884 4.38667 25.8849 3.7963 25.7367 3.2224C25.5885 2.6532 25.3957 2.08871 25.0805 1.63241C24.9229 1.40661 24.73 1.21374 24.5042 1.09379C24.2808 0.97148 24.0079 0.917384 23.7774 0.947961C23.5469 0.987946 23.3423 1.12672 23.1824 1.34075C23.0248 1.55244 22.9072 1.81352 22.8154 2.08635C22.6343 2.63438 22.5473 3.2271 22.4979 3.81747C22.4509 4.41019 22.4344 5.01467 22.4579 5.60503L22.0769 5.63326Z" fill="#AA6152"/>
<path d="M25.9038 3.73516C25.9697 3.56111 26.0473 3.43174 26.1555 3.29532C26.2613 3.16596 26.3977 3.04366 26.56 2.96604C26.8799 2.80845 27.2468 2.79904 27.5761 2.9237C27.7361 2.98485 27.896 3.08835 28.0065 3.19889C28.1265 3.30709 28.2229 3.42469 28.317 3.54464C28.5005 3.78455 28.6534 4.03387 28.7992 4.28554C29.366 5.29928 29.7918 6.36005 30.194 7.42553C30.989 9.5612 31.6663 11.7321 32.3014 13.9125C32.9365 16.0929 33.5315 18.285 34.1125 20.4794C34.4065 21.5755 34.6793 22.6763 34.9592 23.777L35.3614 25.4305C35.5002 25.9809 35.6155 26.536 35.7919 27.0746C35.6696 26.8182 35.5849 26.5454 35.4931 26.2773C35.4038 26.0068 35.3144 25.7386 35.2321 25.4658L34.7428 23.8358L33.8161 20.5618C33.2046 18.3767 32.5813 16.1987 31.9157 14.0301C31.2477 11.8662 30.5679 9.70232 29.7612 7.59253C29.3519 6.54351 28.9309 5.48979 28.3899 4.52075C28.2535 4.28084 28.1077 4.04798 27.9454 3.8363C27.7784 3.62696 27.6067 3.43645 27.4091 3.36589C27.2069 3.28827 26.9599 3.29532 26.7717 3.39176C26.5906 3.47643 26.4307 3.69047 26.3531 3.89275L25.9038 3.73516Z" fill="#AA6152"/>
<path d="M45.9778 48.7229C45.5685 48.4901 45.1663 48.2455 44.7641 47.9985C44.3619 47.7515 43.9597 47.5069 43.5669 47.2459C43.1718 46.9871 42.779 46.726 42.3909 46.4438C42.2944 46.3756 42.1956 46.3003 42.0992 46.2251L41.824 46.011C41.6382 45.8699 41.45 45.7241 41.2666 45.5712C40.528 44.9667 39.8295 44.2752 39.3097 43.4473C38.7734 42.6429 38.4347 41.655 38.5547 40.6907C38.8887 41.5939 39.2038 42.4241 39.7213 43.1768C40.2317 43.9271 40.8997 44.5622 41.6194 45.1361L42.1698 45.5665L42.4497 45.7876C42.5367 45.8581 42.6261 45.9263 42.7201 45.9946C43.0918 46.2674 43.4799 46.5285 43.868 46.7872L46.2106 48.3419L45.9778 48.7229Z" fill="#AA6152"/>
<path d="M9.54248 50.64C10.3657 49.9602 11.1842 49.2711 11.9816 48.5655C12.3814 48.2126 12.7789 47.8575 13.1552 47.4882C13.5269 47.1189 13.9079 46.7332 14.1807 46.3357C14.249 46.244 14.3172 46.117 14.383 46.0064L14.5829 45.6607C14.7146 45.4302 14.844 45.1973 14.9663 44.9645C15.2133 44.4964 15.4414 44.0283 15.6178 43.5344C15.9707 42.5254 16.2388 41.4905 16.8245 40.552L16.855 40.5614C16.7845 41.6645 16.394 42.6712 16.0906 43.7038C15.9189 44.2236 15.6931 44.7316 15.4438 45.2138C15.3191 45.456 15.1898 45.6936 15.0604 45.9312L14.8628 46.284C14.7923 46.4016 14.7382 46.5145 14.6488 46.6415C14.3148 47.1283 13.9267 47.5023 13.5386 47.8857C13.1482 48.2644 12.7436 48.6219 12.3367 48.9771C11.5159 49.678 10.6762 50.3483 9.80826 50.9904L9.54248 50.64Z" fill="#AA6152"/>
<path d="M4.04292 29.7417C4.84497 30.5296 6.00218 32.0044 7.1147 33.6085C8.22958 35.2126 9.31153 36.9602 9.95834 38.2985L9.63611 38.4537C9.00106 37.1389 7.93086 35.4102 6.82069 33.8131C5.71052 32.2137 4.56979 30.7625 3.79126 29.9981L4.04292 29.7417Z" fill="#00271C"/>
<path d="M3.88797 26.3335C4.3819 26.263 4.49951 27.7095 3.88797 29.1019C3.75861 29.3959 3.21293 29.7064 2.90246 29.7746C2.27681 29.911 0.395165 29.8334 0.444558 29.0337C0.484543 28.3939 1.31012 28.2481 1.71703 28.2552C1.38774 27.9682 0.879689 27.3143 1.47476 26.9804C2.06983 26.6464 2.68607 27.2014 2.91893 27.519C3.07886 27.1497 3.49283 26.3923 3.88797 26.3335Z" fill="#F46F6C"/>
<path d="M4.66141 26.7592C4.37916 25.7055 3.11141 27.2226 3.03379 28.8243C2.2435 28.8361 -0.207337 29.4923 0.627642 30.0121C1.2627 30.4096 2.68804 31.2399 4.12515 30.2309C5.55755 29.2242 4.84957 27.4578 4.66141 26.7592Z" fill="#FFBC50"/>
<path d="M0.554782 32.7643C1.73787 33.698 4.4098 35.0669 6.67953 33.8556C6.72892 33.8297 6.74304 33.7639 6.71246 33.7192C5.17422 31.5624 2.08832 32.0445 0.580651 32.6043C0.512441 32.6302 0.498332 32.7196 0.554782 32.7643Z" fill="#8CD061"/>
<path d="M6.64454 33.7286C5.12041 33.3193 4.01024 33.0888 1.94043 32.7078C3.99848 33.2676 4.52299 33.3569 6.64454 33.7286Z" fill="#30AD6D"/>
<path d="M48.5438 29.3253C47.8077 30.1744 46.7728 31.7362 45.7896 33.4226C44.8064 35.1114 43.868 36.9389 43.3293 38.3243L43.6633 38.4536C44.1925 37.0942 45.1216 35.2831 46.1001 33.6037C47.0809 31.922 48.1017 30.3837 48.8167 29.5605L48.5438 29.3253Z" fill="#00271C"/>
<path d="M48.427 25.9147C47.9284 25.8818 47.9284 27.3354 48.6457 28.6737C48.7986 28.9583 49.3655 29.2241 49.6807 29.2664C50.3157 29.3534 52.1856 29.1253 52.0727 28.3326C51.9833 27.6976 51.1483 27.6176 50.7414 27.6576C51.0472 27.3471 51.5011 26.6533 50.8802 26.3663C50.2593 26.0817 49.6901 26.6815 49.4831 27.0178C49.2996 26.665 48.8269 25.9406 48.427 25.9147Z" fill="#F46F6C"/>
<path d="M47.6895 26.4016C47.8871 25.329 49.2701 26.7403 49.4771 28.3303C50.265 28.2785 52.7605 28.7372 51.9702 29.3252C51.3681 29.7721 50.0133 30.7129 48.5033 29.8215C46.9933 28.93 47.5578 27.1119 47.6895 26.4016Z" fill="#FFBC50"/>
<path d="M52.2631 32.0607C51.1576 33.0838 48.6033 34.6644 46.2442 33.6366C46.1924 33.613 46.1736 33.5519 46.2018 33.5025C47.5637 31.2304 50.6778 31.4633 52.2254 31.9031C52.2937 31.9243 52.3148 32.0113 52.2631 32.0607Z" fill="#8CD061"/>
<path d="M46.2678 33.5049C47.7543 32.9757 48.841 32.6582 50.8778 32.1149C48.8692 32.8369 48.3541 32.9663 46.2678 33.5049Z" fill="#30AD6D"/>
</svg>
