<svg width="49" height="48" viewBox="0 0 49 48" fill="none" xmlns="http://www.w3.org/2000/svg">
<g clip-path="url(#clip0_3650_28308)">
<path opacity="0.5" d="M9.64743 31.6218L3.93461 34.9072C3.55085 35.128 3.41924 35.6168 3.6408 36C3.78935 36.2568 4.05907 36.4 4.3368 36.4C4.47246 36.4 4.61057 36.3656 4.73739 36.2929L10.4502 33.0082C10.834 32.7874 10.9656 32.2978 10.744 31.9154C10.5225 31.5323 10.0312 31.401 9.64743 31.6218Z" fill="#0C72E0"/>
<path opacity="0.5" d="M11.6544 24.0007C11.6544 23.5592 11.2947 23.2008 10.8516 23.2008L1.21697 23.2C0.773853 23.2 0.414185 23.5583 0.414185 23.9999C0.414185 24.4423 0.773853 24.7998 1.21697 24.7998L10.8516 24.8007C11.2947 24.8007 11.6544 24.4424 11.6544 24.0007Z" fill="#0C72E0"/>
<path opacity="0.5" d="M14.1719 7.77605C14.3204 8.03282 14.5902 8.17606 14.8679 8.17606C15.0035 8.17606 15.1424 8.14166 15.2685 8.06891C15.6522 7.84814 15.7838 7.35851 15.5623 6.97622L13.5537 3.50924C13.3313 3.12685 12.84 2.99486 12.457 3.21647C12.0725 3.43724 11.9416 3.92687 12.1632 4.30926L14.1719 7.77605Z" fill="#0C72E0"/>
<path opacity="0.5" d="M3.9355 13.0932L12.056 17.7665C12.1821 17.8393 12.3201 17.8737 12.4566 17.8737C12.7344 17.8737 13.0042 17.7305 13.1526 17.4737C13.3742 17.0913 13.2433 16.6018 12.8588 16.3817L4.73829 11.7076C4.35538 11.486 3.8624 11.6172 3.64169 12.0004C3.42013 12.3828 3.551 12.8724 3.9355 13.0932Z" fill="#0C72E0"/>
<path opacity="0.5" d="M35.8466 17.4738C35.9951 17.7305 36.2649 17.8738 36.5426 17.8738C36.6783 17.8738 36.8164 17.8394 36.9432 17.7666L45.0653 13.0948C45.4498 12.8732 45.5807 12.3844 45.3591 12.0013C45.1376 11.6189 44.6462 11.4878 44.2624 11.7085L36.1403 16.3811C35.7558 16.6018 35.6249 17.0914 35.8466 17.4738Z" fill="#0C72E0"/>
<path opacity="0.5" d="M33.7318 8.06861C33.8586 8.14145 33.9967 8.17576 34.1324 8.17576C34.4102 8.17576 34.68 8.03261 34.8284 7.77575L36.837 4.30877C37.0586 3.92638 36.927 3.43685 36.5432 3.21598C36.1579 2.99437 35.6682 3.12636 35.4465 3.50875L33.4379 6.97573C33.2164 7.3583 33.3472 7.84784 33.7318 8.06861Z" fill="#0C72E0"/>
<path d="M32.7815 46.4397C32.7598 46.4325 30.536 45.6829 29.0813 44.2334C27.6394 42.7967 26.9081 41.3719 26.9081 39.9992V25.6C26.9081 25.436 26.9417 24 28.1123 24C28.9737 24 29.3141 25.6631 29.319 25.6623L30.1217 36.061C30.1554 36.5002 30.5352 36.833 30.984 36.797C31.4255 36.7634 31.7571 36.3786 31.7226 35.9378L30.911 25.468C30.7207 24.3289 29.9171 22.4001 28.1124 22.4001C25.8894 22.4001 25.3025 24.4937 25.3025 25.6V39.9992C25.3025 41.812 26.192 43.6167 27.9461 45.3645C29.6657 47.0789 32.1682 47.9228 32.2741 47.958C32.3584 47.986 32.4443 47.9988 32.5277 47.9988C32.8642 47.9988 33.1773 47.7868 33.2896 47.4516C33.4301 47.0326 33.2022 46.5798 32.7815 46.4397Z" fill="#0C72E0"/>
<path d="M20.8869 22.4001C19.0822 22.4001 18.2785 24.3289 18.0795 25.5384L17.2767 35.9378C17.2422 36.3786 17.5737 36.7633 18.0153 36.797C18.4488 36.8298 18.8438 36.501 18.8776 36.061L19.6715 25.7319C19.6747 25.7143 20.0159 24 20.8869 24C22.0164 24 22.0887 25.336 22.0911 25.6V39.9992C22.0911 41.3719 21.3598 42.7967 19.9179 44.2334C18.4712 45.6749 16.2386 46.4325 16.2169 46.4405C15.797 46.5813 15.5698 47.034 15.7103 47.4524C15.8227 47.7868 16.1358 47.9988 16.4714 47.9988C16.5557 47.9988 16.6408 47.9852 16.7251 47.958C16.831 47.9228 19.3335 47.0789 21.0531 45.3645C22.8072 43.6167 23.6967 41.8119 23.6967 39.9992V25.6C23.6967 24.4937 23.1098 22.4001 20.8869 22.4001Z" fill="#0C72E0"/>
<path d="M46.6572 46.559L37.0146 39.3529C36.5064 38.9834 35.9565 37.6755 35.7301 36.6811L33.3144 20.6436C33.1394 19.77 32.974 18.9252 32.8143 18.1125C31.3821 10.8097 30.5174 6.40112 27.7108 6.40112C26.0225 6.40112 25.3024 7.11865 25.3024 8.801C25.3024 10.413 26.0747 20.4356 26.1076 20.862C26.1413 21.3012 26.5282 21.6315 26.9698 21.598C27.4114 21.5644 27.743 21.1796 27.7085 20.7388C27.7005 20.6348 26.908 10.3521 26.908 8.801C26.908 8.00107 26.9233 8.00107 27.7108 8.00107C29.1952 8.00107 30.1875 13.0616 31.2392 18.4197C31.3982 19.2341 31.5643 20.0813 31.7338 20.9188L34.1527 36.9756C34.2161 37.254 34.8054 39.7282 36.0601 40.6394L45.6939 47.839C45.8384 47.947 46.0078 47.9991 46.1748 47.9991C46.4188 47.9991 46.6605 47.8886 46.8178 47.6791C47.0835 47.3253 47.012 46.8237 46.6572 46.559Z" fill="#0C72E0"/>
<path opacity="0.5" d="M44.2608 36.2945C44.3876 36.3673 44.5258 36.4016 44.6614 36.4016C44.9392 36.4016 45.209 36.2585 45.3574 36.0016C45.579 35.6192 45.4481 35.1297 45.0636 34.9088L39.3515 31.6218C38.9662 31.4011 38.4765 31.5322 38.2549 31.9154C38.0333 32.2978 38.1642 32.7866 38.5487 33.0082L44.2608 36.2945Z" fill="#0C72E0"/>
<path opacity="0.5" d="M47.7825 23.2014H38.1471C37.704 23.2014 37.3444 23.5598 37.3444 24.0013C37.3444 24.4429 37.704 24.8013 38.1471 24.8013H47.7825C48.2257 24.8013 48.5853 24.4437 48.5853 24.0013C48.5854 23.5597 48.2258 23.2014 47.7825 23.2014Z" fill="#0C72E0"/>
<path opacity="0.5" d="M25.3023 0.801149C25.3023 0.359609 24.9427 0.0012207 24.4996 0.0012207C24.0564 0.0012207 23.6968 0.359609 23.6968 0.801149V3.20103C23.6968 3.64257 24.0564 4.00096 24.4996 4.00096C24.9427 4.00096 25.3023 3.64257 25.3023 3.20103V0.801149Z" fill="#0C72E0"/>
<path d="M21.288 6.40063C18.4813 6.40063 17.6167 10.8092 16.1845 18.112C16.0248 18.9248 15.8594 19.7695 15.6771 20.6815L13.2662 36.6991C13.1394 37.695 12.5164 39.0182 11.9753 39.3589L2.34148 46.5586C1.98661 46.8234 1.9152 47.3249 2.18088 47.6785C2.33828 47.8881 2.57988 47.9985 2.82392 47.9985C2.99091 47.9985 3.16026 47.9465 3.30476 47.8385L12.8824 40.6773C13.9911 39.9869 14.7176 38.015 14.8565 36.9174L17.2577 20.9566C17.4343 20.0807 17.6005 19.2335 17.7594 18.4191C18.8111 13.061 19.8034 8.00049 21.2878 8.00049C22.0753 8.00049 22.0906 8.00049 22.0906 8.80042C22.0906 10.3515 21.2982 20.6343 21.2901 20.7382C21.2556 21.179 21.5871 21.5637 22.0288 21.5974C22.4655 21.6302 22.8565 21.3014 22.891 20.8614C22.9239 20.435 23.6962 10.4124 23.6962 8.80042C23.6964 7.11825 22.9763 6.40063 21.288 6.40063Z" fill="#0C72E0"/>
</g>
<defs>
<clipPath id="clip0_3650_28308">
<rect width="48.1714" height="48" fill="white" transform="translate(0.414185)"/>
</clipPath>
</defs>
</svg>
