<svg width="24" height="24" viewBox="0 0 24 24" fill="none" xmlns="http://www.w3.org/2000/svg">
<g clip-path="url(#clip0_697_18664)">
<path d="M17 7C17 4.23728 14.7627 2 12 2C14.7623 2 17 4.23772 17 7ZM17 7C17 9.76272 14.7627 12 12 12C14.7623 12 17 9.76229 17 7ZM5.0717 20.9995H5.07143C5.17531 20.2779 5.39161 19.5748 5.71426 18.9165C6.18447 17.957 6.86807 17.1179 7.71269 16.4635C8.55731 15.8091 9.54053 15.3567 10.587 15.1411C11.383 14.977 12.1995 14.9532 13 15.0688V15.0707C12.3517 14.9771 11.6912 14.9746 11.038 15.0653C9.92862 15.2192 8.8724 15.6371 7.958 16.2838C7.04361 16.9305 6.29773 17.7871 5.78302 18.7818C5.42266 19.4783 5.18297 20.2281 5.0717 20.9995ZM20.1612 17.8388L21.1212 16.8784L21.1216 16.8788L20.1612 17.8388ZM17.8398 17.8398L16.8784 16.8788L16.8788 16.8784L17.8398 17.8398ZM17.8396 20.1604L16.8788 21.1216L16.8784 21.1212L17.8396 20.1604ZM20.1614 20.1614L21.1216 21.1212L21.1212 21.1216L20.1614 20.1614ZM7 7C7 4.33081 9.08838 2.15208 11.7213 2.00763C9.08876 2.15212 7 4.33124 7 7Z" fill="#09121F" stroke="#5A5A72" stroke-width="2"/>
</g>
<defs>
<clipPath id="clip0_697_18664">
<rect width="24" height="24" fill="white"/>
</clipPath>
</defs>
</svg>
