<svg width="35" height="35" viewBox="0 0 35 35" fill="none" xmlns="http://www.w3.org/2000/svg">
<g clip-path="url(#clip0_3806_31603)">
<path d="M20.8403 11.125C22.6054 11.125 24.0363 9.69791 24.0363 7.9375C24.0363 6.17709 22.6054 4.75 20.8403 4.75C19.0752 4.75 17.6443 6.17709 17.6443 7.9375C17.6443 9.69791 19.0752 11.125 20.8403 11.125Z" stroke="#0C72E0" stroke-width="2.125" stroke-linecap="round" stroke-linejoin="round"/>
<path d="M8.05615 13.9871C8.05615 13.9871 12.3175 10.0623 18.7096 15.0496C25.4303 20.2933 29.363 18.2371 29.363 18.2371" stroke="#0C72E0" stroke-width="2.125" stroke-linecap="round" stroke-linejoin="round"/>
<path d="M18.5867 14.9546C18.0084 17.6647 14.1233 27.9863 4.86035 27.0625" stroke="#0C72E0" stroke-width="2.125" stroke-linecap="round" stroke-linejoin="round"/>
<path d="M15.3333 21.9041C17.7069 22.4099 24.0365 24.4062 24.0365 31.3125" stroke="#0C72E0" stroke-width="2.125" stroke-linecap="round" stroke-linejoin="round"/>
</g>
<defs>
<clipPath id="clip0_3806_31603">
<rect width="34.0909" height="34" fill="white" transform="translate(0.598877 0.5)"/>
</clipPath>
</defs>
</svg>
