<svg width="81" height="80" viewBox="0 0 81 80" fill="none" xmlns="http://www.w3.org/2000/svg">
<path d="M20.5 40H60.5C63.1522 40 65.6957 38.9465 67.5711 37.0711C69.4464 35.1957 70.5 32.6522 70.5 30V23.3334C70.5 20.6812 69.4464 18.1377 67.5711 16.2623C65.6957 14.3869 63.1522 13.3334 60.5 13.3334H20.5C17.8478 13.3334 15.3043 14.3869 13.4289 16.2623C11.5536 18.1377 10.5 20.6812 10.5 23.3334V30C10.5 32.6522 11.5536 35.1957 13.4289 37.0711C15.3043 38.9465 17.8478 40 20.5 40ZM20.5 40C17.8478 40 15.3043 41.0536 13.4289 42.929C11.5536 44.8043 10.5 47.3479 10.5 50V56.6667C10.5 59.3189 11.5536 61.8624 13.4289 63.7378C15.3043 65.6131 17.8478 66.6667 20.5 66.6667H40.5M20.5 40H55.5M60.5 66.6667C58.7319 66.6667 57.0362 65.9643 55.786 64.7141C54.5357 63.4638 53.8333 61.7682 53.8333 60C53.8333 58.2319 54.5357 56.5362 55.786 55.286C57.0362 54.0358 58.7319 53.3334 60.5 53.3334M60.5 66.6667C62.2681 66.6667 63.9638 65.9643 65.214 64.7141C66.4643 63.4638 67.1667 61.7682 67.1667 60C67.1667 58.2319 66.4643 56.5362 65.214 55.286C63.9638 54.0358 62.2681 53.3334 60.5 53.3334M60.5 66.6667V71.6667M60.5 53.3334V48.3334M70.6067 54.1667L66.2767 56.6667M54.7333 63.3334L50.4 65.8334M50.4 54.1667L54.7333 56.6667M66.2767 63.3334L70.61 65.8334M23.8333 26.6667V26.7M23.8333 53.3334V53.3667" stroke="#131336" stroke-width="4" stroke-linecap="round" stroke-linejoin="round"/>
</svg>
