<svg width="36" height="36" viewBox="0 0 36 36" fill="none" xmlns="http://www.w3.org/2000/svg">
<path d="M18 33C9.7155 33 3 26.2845 3 18C3 9.7155 9.7155 3 18 3C26.2845 3 33 9.7155 33 18C33 26.2845 26.2845 33 18 33ZM18 30C21.1826 30 24.2348 28.7357 26.4853 26.4853C28.7357 24.2348 30 21.1826 30 18C30 14.8174 28.7357 11.7652 26.4853 9.51472C24.2348 7.26428 21.1826 6 18 6C14.8174 6 11.7652 7.26428 9.51472 9.51472C7.26428 11.7652 6 14.8174 6 18C6 21.1826 7.26428 24.2348 9.51472 26.4853C11.7652 28.7357 14.8174 30 18 30ZM15.933 12.6225L23.2515 17.5005C23.3338 17.5553 23.4013 17.6295 23.448 17.7167C23.4947 17.8038 23.5191 17.9011 23.5191 18C23.5191 18.0989 23.4947 18.1962 23.448 18.2833C23.4013 18.3705 23.3338 18.4447 23.2515 18.4995L15.9315 23.3775C15.8412 23.4373 15.7365 23.4716 15.6283 23.4767C15.5201 23.4818 15.4126 23.4576 15.3171 23.4065C15.2216 23.3555 15.1417 23.2795 15.0859 23.1867C15.0301 23.094 15.0004 22.9878 15 22.8795V13.1205C15.0002 13.012 15.0298 12.9055 15.0857 12.8125C15.1416 12.7195 15.2217 12.6434 15.3175 12.5923C15.4132 12.5412 15.521 12.517 15.6294 12.5223C15.7378 12.5277 15.8427 12.5623 15.933 12.6225Z" fill="url(#paint0_linear_8596_5199)"/>
<defs>
<linearGradient id="paint0_linear_8596_5199" x1="33" y1="31.8961" x2="10.9221" y2="8.25974" gradientUnits="userSpaceOnUse">
<stop stop-color="#27AE60"/>
<stop offset="1" stop-color="#9EB643"/>
</linearGradient>
</defs>
</svg>
