<svg width="20" height="21" viewBox="0 0 20 21" fill="none" xmlns="http://www.w3.org/2000/svg">
<path d="M10.9333 14.6858L7.43417 12.7775C6.97734 13.2659 6.38416 13.6056 5.73174 13.7524C5.07931 13.8992 4.3978 13.8464 3.77578 13.6009C3.15375 13.3553 2.61998 12.9283 2.24382 12.3754C1.86765 11.8225 1.6665 11.1692 1.6665 10.5004C1.6665 9.83168 1.86765 9.17839 2.24382 8.62547C2.61998 8.07255 3.15375 7.64555 3.77578 7.39997C4.3978 7.1544 5.07931 7.1016 5.73174 7.24843C6.38416 7.39527 6.97734 7.73495 7.43417 8.22334L10.9342 6.31501C10.7355 5.5284 10.8305 4.69633 11.2014 3.97476C11.5723 3.25319 12.1936 2.69166 12.9489 2.39542C13.7042 2.09919 14.5416 2.08859 15.3042 2.36562C16.0667 2.64264 16.7021 3.18827 17.0911 3.90022C17.4801 4.61218 17.5962 5.44158 17.4174 6.23296C17.2387 7.02434 16.7775 7.72337 16.1202 8.19902C15.4629 8.67466 14.6548 8.89427 13.8472 8.81667C13.0396 8.73907 12.288 8.3696 11.7333 7.77751L8.23334 9.68584C8.36768 10.2203 8.36768 10.7797 8.23334 11.3142L11.7325 13.2225C12.2872 12.6304 13.0387 12.2609 13.8463 12.1833C14.6539 12.1057 15.4621 12.3254 16.1194 12.801C16.7766 13.2766 17.2379 13.9757 17.4166 14.7671C17.5953 15.5584 17.4793 16.3878 17.0903 17.0998C16.7012 17.8117 16.0659 18.3574 15.3033 18.6344C14.5408 18.9114 13.7034 18.9008 12.9481 18.6046C12.1928 18.3084 11.5714 17.7468 11.2005 17.0253C10.8296 16.3037 10.7346 15.4716 10.9333 14.685V14.6858ZM5.00001 12.1667C5.44204 12.1667 5.86596 11.9911 6.17852 11.6785C6.49108 11.366 6.66668 10.942 6.66668 10.5C6.66668 10.058 6.49108 9.63406 6.17852 9.3215C5.86596 9.00894 5.44204 8.83334 5.00001 8.83334C4.55798 8.83334 4.13406 9.00894 3.8215 9.3215C3.50894 9.63406 3.33334 10.058 3.33334 10.5C3.33334 10.942 3.50894 11.366 3.8215 11.6785C4.13406 11.9911 4.55798 12.1667 5.00001 12.1667ZM14.1667 7.16667C14.6087 7.16667 15.0326 6.99108 15.3452 6.67852C15.6577 6.36596 15.8333 5.94203 15.8333 5.50001C15.8333 5.05798 15.6577 4.63406 15.3452 4.3215C15.0326 4.00893 14.6087 3.83334 14.1667 3.83334C13.7246 3.83334 13.3007 4.00893 12.9882 4.3215C12.6756 4.63406 12.5 5.05798 12.5 5.50001C12.5 5.94203 12.6756 6.36596 12.9882 6.67852C13.3007 6.99108 13.7246 7.16667 14.1667 7.16667ZM14.1667 17.1667C14.6087 17.1667 15.0326 16.9911 15.3452 16.6785C15.6577 16.366 15.8333 15.942 15.8333 15.5C15.8333 15.058 15.6577 14.6341 15.3452 14.3215C15.0326 14.0089 14.6087 13.8333 14.1667 13.8333C13.7246 13.8333 13.3007 14.0089 12.9882 14.3215C12.6756 14.6341 12.5 15.058 12.5 15.5C12.5 15.942 12.6756 16.366 12.9882 16.6785C13.3007 16.9911 13.7246 17.1667 14.1667 17.1667Z" fill="#B8B8C3"/>
</svg>
