<svg width="19" height="16" viewBox="0 0 19 16" fill="none" xmlns="http://www.w3.org/2000/svg">
<path d="M9.00624 2C13.0529 2 16.4196 4.58667 17.1258 8C16.4203 11.4133 13.0529 14 9.00624 14C4.95961 14 1.59293 11.4133 0.886719 8C1.59218 4.58667 4.95961 2 9.00624 2ZM9.00624 12.6667C10.5368 12.6664 12.022 12.2045 13.2186 11.3568C14.4152 10.509 15.2525 9.32552 15.5933 8C15.2512 6.67554 14.4135 5.49334 13.2169 4.64668C12.0204 3.80003 10.536 3.33902 9.00624 3.33902C7.47652 3.33902 5.99205 3.80003 4.79554 4.64668C3.59903 5.49334 2.76126 6.67554 2.41921 8C2.76001 9.32552 3.59723 10.509 4.79386 11.3568C5.99049 12.2045 7.47565 12.6664 9.00624 12.6667ZM9.00624 11C8.11055 11 7.25155 10.6839 6.61821 10.1213C5.98486 9.55871 5.62905 8.79565 5.62905 8C5.62905 7.20435 5.98486 6.44129 6.61821 5.87868C7.25155 5.31607 8.11055 5 9.00624 5C9.90193 5 10.7609 5.31607 11.3943 5.87868C12.0276 6.44129 12.3834 7.20435 12.3834 8C12.3834 8.79565 12.0276 9.55871 11.3943 10.1213C10.7609 10.6839 9.90193 11 9.00624 11ZM9.00624 9.66667C9.50384 9.66667 9.98107 9.49107 10.3329 9.17851C10.6848 8.86595 10.8825 8.44203 10.8825 8C10.8825 7.55797 10.6848 7.13405 10.3329 6.82149C9.98107 6.50893 9.50384 6.33333 9.00624 6.33333C8.50864 6.33333 8.03141 6.50893 7.67955 6.82149C7.32769 7.13405 7.13002 7.55797 7.13002 8C7.13002 8.44203 7.32769 8.86595 7.67955 9.17851C8.03141 9.49107 8.50864 9.66667 9.00624 9.66667Z" fill="#09121F"/>
</svg>
