<svg width="33" height="33" viewBox="0 0 33 33" fill="none" xmlns="http://www.w3.org/2000/svg">
<g clip-path="url(#clip0_3806_31623)">
<path d="M27.2861 14.5V8.5" stroke="#0C72E0" stroke-width="2" stroke-linecap="round" stroke-linejoin="round"/>
<path d="M30.2941 11.5H24.2781" stroke="#0C72E0" stroke-width="2" stroke-linecap="round" stroke-linejoin="round"/>
<path d="M21.27 3.5V7.5" stroke="#0C72E0" stroke-width="2" stroke-linecap="round" stroke-linejoin="round"/>
<path d="M23.2753 5.5H19.2646" stroke="#0C72E0" stroke-width="2" stroke-linecap="round" stroke-linejoin="round"/>
<path d="M27.369 19.5812C25.4008 20.1267 23.3225 20.141 21.3469 19.6228C19.3712 19.1046 17.569 18.0724 16.1245 16.6317C14.68 15.1911 13.645 13.3937 13.1254 11.4233C12.6058 9.45291 12.6202 7.38025 13.1671 5.41724L13.1675 5.41733C11.2261 5.95595 9.46017 6.99249 8.04553 8.42367C6.63089 9.85486 5.61694 11.6307 5.10469 13.5744C4.59244 15.5181 4.59976 17.5617 5.12594 19.5016C5.65212 21.4416 6.67878 23.2102 8.10365 24.6313C9.52852 26.0523 11.3019 27.0762 13.247 27.601C15.1922 28.1257 17.2412 28.133 19.1901 27.6221C21.139 27.1112 22.9196 26.1 24.3546 24.6891C25.7896 23.2782 26.8289 21.5169 27.3689 19.5808L27.369 19.5812Z" stroke="#0C72E0" stroke-width="2" stroke-linecap="round" stroke-linejoin="round"/>
</g>
<defs>
<clipPath id="clip0_3806_31623">
<rect width="32.0856" height="32" fill="white" transform="translate(0.213867 0.5)"/>
</clipPath>
</defs>
</svg>
