<svg width="24" height="24" viewBox="0 0 24 24" fill="none" xmlns="http://www.w3.org/2000/svg">
<path d="M13.12 17.0227L8.92096 14.7327C8.37276 15.3188 7.66095 15.7264 6.87803 15.9026C6.09512 16.0788 5.27731 16.0154 4.53088 15.7208C3.78445 15.4261 3.14392 14.9137 2.69253 14.2502C2.24114 13.5867 1.99976 12.8027 1.99976 12.0002C1.99976 11.1977 2.24114 10.4138 2.69253 9.75027C3.14392 9.08676 3.78445 8.57437 4.53088 8.27968C5.27731 7.98498 6.09512 7.92162 6.87803 8.09783C7.66095 8.27403 8.37276 8.68165 8.92096 9.26771L13.121 6.97772C12.8825 6.03379 12.9965 5.0353 13.4416 4.16942C13.8867 3.30353 14.6323 2.6297 15.5386 2.27422C16.445 1.91874 17.4499 1.90602 18.3649 2.23845C19.28 2.57088 20.0424 3.22563 20.5093 4.07998C20.9761 4.93432 21.1153 5.9296 20.9009 6.87926C20.6864 7.82892 20.1329 8.66775 19.3442 9.23852C18.5555 9.8093 17.5857 10.0728 16.6166 9.97971C15.6475 9.88659 14.7456 9.44323 14.08 8.73272L9.87996 11.0227C10.0412 11.6641 10.0412 12.3354 9.87996 12.9767L14.079 15.2667C14.7446 14.5562 15.6464 14.1128 16.6156 14.0197C17.5847 13.9266 18.5545 14.1901 19.3432 14.7609C20.1319 15.3317 20.6854 16.1705 20.8999 17.1202C21.1143 18.0698 20.9751 19.0651 20.5083 19.9195C20.0414 20.7738 19.279 21.4286 18.3639 21.761C17.4489 22.0934 16.444 22.0807 15.5376 21.7252C14.6313 21.3697 13.8857 20.6959 13.4406 19.83C12.9955 18.9641 12.8815 17.9656 13.12 17.0217V17.0227ZM5.99996 13.9997C6.5304 13.9997 7.0391 13.789 7.41418 13.4139C7.78925 13.0389 7.99996 12.5301 7.99996 11.9997C7.99996 11.4693 7.78925 10.9606 7.41418 10.5855C7.0391 10.2104 6.5304 9.99971 5.99996 9.99971C5.46953 9.99971 4.96082 10.2104 4.58575 10.5855C4.21068 10.9606 3.99996 11.4693 3.99996 11.9997C3.99996 12.5301 4.21068 13.0389 4.58575 13.4139C4.96082 13.789 5.46953 13.9997 5.99996 13.9997ZM17 7.99972C17.5304 7.99972 18.0391 7.789 18.4142 7.41393C18.7892 7.03886 19 6.53015 19 5.99972C19 5.46928 18.7892 4.96057 18.4142 4.5855C18.0391 4.21043 17.5304 3.99972 17 3.99972C16.4695 3.99972 15.9608 4.21043 15.5857 4.5855C15.2107 4.96057 15 5.46928 15 5.99972C15 6.53015 15.2107 7.03886 15.5857 7.41393C15.9608 7.789 16.4695 7.99972 17 7.99972ZM17 19.9997C17.5304 19.9997 18.0391 19.789 18.4142 19.4139C18.7892 19.0389 19 18.5301 19 17.9997C19 17.4693 18.7892 16.9606 18.4142 16.5855C18.0391 16.2104 17.5304 15.9997 17 15.9997C16.4695 15.9997 15.9608 16.2104 15.5857 16.5855C15.2107 16.9606 15 17.4693 15 17.9997C15 18.5301 15.2107 19.0389 15.5857 19.4139C15.9608 19.789 16.4695 19.9997 17 19.9997Z" fill="#147AE9"/>
</svg>
