<svg width="32" height="33" viewBox="0 0 32 33" fill="none" xmlns="http://www.w3.org/2000/svg">
<path d="M16 24.6515C13.8782 24.6515 11.8434 23.8087 10.3431 22.3084C8.84283 20.8081 7.99998 18.7733 7.99998 16.6515C7.99998 14.5298 8.84283 12.495 10.3431 10.9947C11.8434 9.49439 13.8782 8.65153 16 8.65153C18.1217 8.65153 20.1565 9.49439 21.6568 10.9947C23.1571 12.495 24 14.5298 24 16.6515C24 18.7733 23.1571 20.8081 21.6568 22.3084C20.1565 23.8087 18.1217 24.6515 16 24.6515ZM16 21.9849C17.4145 21.9849 18.771 21.423 19.7712 20.4228C20.7714 19.4226 21.3333 18.066 21.3333 16.6515C21.3333 15.237 20.7714 13.8805 19.7712 12.8803C18.771 11.8801 17.4145 11.3182 16 11.3182C14.5855 11.3182 13.2289 11.8801 12.2287 12.8803C11.2285 13.8805 10.6666 15.237 10.6666 16.6515C10.6666 18.066 11.2285 19.4226 12.2287 20.4228C13.2289 21.423 14.5855 21.9849 16 21.9849ZM14.6666 1.98486H17.3333V5.98486H14.6666V1.98486ZM14.6666 27.3182H17.3333V31.3182H14.6666V27.3182ZM4.68665 7.22353L6.57198 5.3382L9.39998 8.1662L7.51465 10.0515L4.68665 7.22486V7.22353ZM22.6 25.1369L24.4853 23.2515L27.3133 26.0795L25.428 27.9649L22.6 25.1369ZM25.428 5.33686L27.3133 7.22353L24.4853 10.0515L22.6 8.1662L25.428 5.3382V5.33686ZM7.51465 23.2515L9.39998 25.1369L6.57198 27.9649L4.68665 26.0795L7.51465 23.2515ZM30.6666 15.3182V17.9849H26.6666V15.3182H30.6666ZM5.33331 15.3182V17.9849H1.33331V15.3182H5.33331Z" fill="url(#paint0_radial_3597_1338)"/>
<defs>
<radialGradient id="paint0_radial_3597_1338" cx="0" cy="0" r="1" gradientUnits="userSpaceOnUse" gradientTransform="translate(29.047 31.3182) rotate(-127.749) scale(21.4586 33.9545)">
<stop stop-color="#E279B2"/>
<stop offset="1" stop-color="#D1499B"/>
</radialGradient>
</defs>
</svg>
