<svg width="48" height="49" viewBox="0 0 48 49" fill="none" xmlns="http://www.w3.org/2000/svg">
<g clip-path="url(#clip0_8119_52242)">
<path d="M11.875 16.5834V14.6042C11.875 11.4548 13.1261 8.43435 15.3531 6.20735C17.5801 3.98036 20.6006 2.72925 23.75 2.72925C26.8994 2.72925 29.9199 3.98036 32.1469 6.20735C34.3739 8.43435 35.625 11.4548 35.625 14.6042V16.5834H39.5833C40.1082 16.5834 40.6117 16.7919 40.9828 17.1631C41.354 17.5343 41.5625 18.0377 41.5625 18.5626V42.3126C41.5625 42.8375 41.354 43.3409 40.9828 43.7121C40.6117 44.0832 40.1082 44.2917 39.5833 44.2917H7.91667C7.39176 44.2917 6.88835 44.0832 6.51718 43.7121C6.14602 43.3409 5.9375 42.8375 5.9375 42.3126V18.5626C5.9375 18.0377 6.14602 17.5343 6.51718 17.1631C6.88835 16.7919 7.39176 16.5834 7.91667 16.5834H11.875ZM37.6042 20.5417H9.89583V40.3334H37.6042V20.5417ZM21.7708 31.8863C21.0162 31.4506 20.4264 30.7781 20.093 29.9731C19.7595 29.1681 19.701 28.2755 19.9265 27.4338C20.1521 26.5921 20.649 25.8484 21.3403 25.318C22.0316 24.7875 22.8786 24.5 23.75 24.5C24.6214 24.5 25.4684 24.7875 26.1597 25.318C26.851 25.8484 27.3479 26.5921 27.5735 27.4338C27.799 28.2755 27.7405 29.1681 27.407 29.9731C27.0736 30.7781 26.4838 31.4506 25.7292 31.8863V36.3751H21.7708V31.8863ZM15.8333 16.5834H31.6667V14.6042C31.6667 12.5046 30.8326 10.491 29.3479 9.00632C27.8633 7.52166 25.8496 6.68758 23.75 6.68758C21.6504 6.68758 19.6367 7.52166 18.1521 9.00632C16.6674 10.491 15.8333 12.5046 15.8333 14.6042V16.5834Z" fill="#147AE9"/>
</g>
<defs>
<clipPath id="clip0_8119_52242">
<rect width="47.5" height="47.5" fill="white" transform="translate(0 0.75)"/>
</clipPath>
</defs>
</svg>
