<svg width="110" height="110" viewBox="0 0 110 110" fill="none" xmlns="http://www.w3.org/2000/svg">
<circle cx="54.9999" cy="54.9242" r="54.375" fill="white" stroke="#B8B8C3" stroke-width="1.09848"/>
<path fill-rule="evenodd" clip-rule="evenodd" d="M71.3897 27.0994V33.9869H78.2772V35.6346H71.3897V42.5221H69.742V35.6346H62.8545V33.9869H69.742V27.0994H71.3897ZM70.8952 45.9382H62.6126L60.8221 42.8405C60.4485 42.2133 59.9174 41.6948 59.2815 41.3364C58.6456 40.978 57.927 40.7921 57.1971 40.7973H51.5948C50.8667 40.7941 50.1504 40.9808 49.5166 41.3392C48.8828 41.6975 48.3534 42.215 47.9808 42.8405L46.2122 45.9382H37.9077C36.3713 45.9382 34.8977 46.5477 33.8103 47.6331C32.7229 48.7184 32.1106 50.1908 32.1077 51.7272V70.4674C32.1106 72.0037 32.7229 73.4761 33.8103 74.5615C34.8977 75.6468 36.3713 76.2564 37.9077 76.2564H70.8622C72.3986 76.2564 73.8722 75.6468 74.9596 74.5615C76.047 73.4761 76.6593 72.0037 76.6622 70.4674V51.7272C76.6593 50.1965 76.0515 48.7291 74.9712 47.6447C73.891 46.5603 72.4258 45.9469 70.8952 45.9382ZM75.0474 70.4674C75.0445 71.5667 74.6058 72.62 73.8274 73.3964C73.049 74.1727 71.9945 74.6086 70.8952 74.6086H37.9406C36.8413 74.6086 35.7868 74.1727 35.0084 73.3964C34.23 72.62 33.7913 71.5667 33.7883 70.4674V51.7272C33.7913 50.6279 34.23 49.5745 35.0084 48.7982C35.7868 48.0219 36.8413 47.5859 37.9406 47.5859H47.1789L49.4418 43.6973C49.6665 43.3147 49.9876 42.9977 50.3731 42.778C50.7586 42.5582 51.195 42.4434 51.6387 42.445H57.1971C57.6404 42.4456 58.0759 42.5613 58.461 42.7809C58.8461 43.0004 59.1676 43.3162 59.394 43.6973L61.6569 47.5859H70.8842C71.9835 47.5859 73.038 48.0219 73.8164 48.7982C74.5948 49.5745 75.0336 50.6279 75.0365 51.7272L75.0474 70.4674ZM54.4067 51.4857C52.5704 51.4835 50.7747 52.0261 49.2468 53.0447C47.7189 54.0633 46.5275 55.5122 45.8233 57.2081C45.119 58.904 44.9337 60.7707 45.2906 62.572C45.6475 64.3733 46.5307 66.0283 47.8284 67.3275C49.1261 68.6267 50.78 69.5119 52.5808 69.8709C54.3817 70.23 56.2486 70.0468 57.9454 69.3446C59.6421 68.6423 61.0924 67.4526 62.1129 65.9259C63.1333 64.3992 63.678 62.6042 63.678 60.7679C63.6751 58.3089 62.6977 55.9513 60.9599 54.2115C59.2222 52.4716 56.8657 51.4915 54.4067 51.4857ZM54.4067 68.3914C52.8959 68.3935 51.4183 67.9473 50.1611 67.1093C48.904 66.2712 47.9237 65.079 47.3445 63.6836C46.7653 62.2881 46.6132 60.7521 46.9075 59.2702C47.2017 57.7882 47.929 56.4269 48.9974 55.3585C50.0657 54.2902 51.4271 53.5628 52.909 53.2686C54.391 52.9744 55.927 53.1265 57.3224 53.7057C58.7179 54.2849 59.9101 55.2651 60.7482 56.5223C61.5862 57.7794 62.0324 59.257 62.0302 60.7679C62.013 62.7844 61.2043 64.7135 59.7783 66.1395C58.3524 67.5654 56.4233 68.3741 54.4067 68.3914Z" fill="#717186"/>
<rect x="77.5" y="78" width="28" height="28" rx="14" fill="#0C72E0"/>
<path d="M85.2715 99C85.1649 98.9998 85.0595 98.9774 84.962 98.9343C84.8645 98.8912 84.777 98.8282 84.7051 98.7495C84.632 98.6714 84.5762 98.5787 84.5413 98.4776C84.5065 98.3764 84.4935 98.269 84.5031 98.1624L84.6913 96.0923L93.3882 87.3984L96.1061 90.1156L87.4115 98.8087L85.3414 98.9969C85.3181 98.9991 85.2948 99.0001 85.2715 99ZM96.6486 89.5723L93.9315 86.8552L95.5613 85.2254C95.6327 85.1539 95.7174 85.0972 95.8107 85.0586C95.904 85.0199 96.004 85 96.105 85C96.206 85 96.306 85.0199 96.3992 85.0586C96.4925 85.0972 96.5773 85.1539 96.6486 85.2254L98.2785 86.8552C98.3499 86.9265 98.4066 87.0113 98.4452 87.1046C98.4839 87.1979 98.5038 87.2978 98.5038 87.3988C98.5038 87.4998 98.4839 87.5998 98.4452 87.6931C98.4066 87.7864 98.3499 87.8711 98.2785 87.9425L96.6494 89.5715L96.6486 89.5723Z" fill="#FDFEFA"/>
</svg>
