<svg width="25" height="24" viewBox="0 0 25 24" fill="none" xmlns="http://www.w3.org/2000/svg">
<path d="M12.5001 21C17.4707 21 21.5001 16.9706 21.5001 12C21.5001 7.02944 17.4707 3 12.5001 3C7.52956 3 3.50012 7.02944 3.50012 12C3.50012 16.9706 7.52956 21 12.5001 21Z" stroke="#AFB1BC" stroke-width="2" stroke-miterlimit="10"/>
<path d="M12.5001 15C14.5712 15 16.2501 13.3211 16.2501 11.25C16.2501 9.17893 14.5712 7.5 12.5001 7.5C10.4291 7.5 8.75012 9.17893 8.75012 11.25C8.75012 13.3211 10.4291 15 12.5001 15Z" stroke="#AFB1BC" stroke-width="2" stroke-miterlimit="10"/>
<path d="M6.4812 18.6913C7.04615 17.5806 7.90744 16.6478 8.96973 15.9963C10.032 15.3448 11.2539 15 12.5 15C13.7462 15 14.968 15.3448 16.0303 15.9963C17.0926 16.6478 17.9539 17.5806 18.5189 18.6913" stroke="#AFB1BC" stroke-width="2" stroke-linecap="round" stroke-linejoin="round"/>
</svg>
