<svg width="120" height="71" viewBox="0 0 120 71" fill="none" xmlns="http://www.w3.org/2000/svg">
<ellipse cx="59.9243" cy="58.0888" rx="59.9243" ry="12.622" fill="#FFE2CB"/>
<ellipse cx="79.3398" cy="57.6592" rx="26.1016" ry="5.90918" fill="#FFCCA4"/>
<path d="M53.2411 57.28L56.1037 46.3409C56.2144 45.9178 56.5967 45.6227 57.034 45.6227H59.3994C60.0903 45.6227 60.5557 46.3295 60.2829 46.9642L55.5801 57.9032C55.4283 58.2563 55.0809 58.4851 54.6966 58.4851H54.1715C53.5415 58.4851 53.0817 57.8895 53.2411 57.28Z" fill="#61351A"/>
<path d="M87.4267 60.9364L82.4771 49.4905C82.2026 48.8556 82.6681 48.1471 83.3598 48.1471H85.1269C85.5613 48.1471 85.9419 48.4384 86.0552 48.8579L89.1564 60.3322C89.3142 60.916 88.8745 61.4903 88.2697 61.4903C87.9034 61.4903 87.5721 61.2727 87.4267 60.9364Z" fill="#61351A"/>
<path d="M96.5627 53.9347L95.4779 46.44C95.4099 45.9699 95.6953 45.5206 96.1497 45.3823L96.9579 45.1363C97.5527 44.9553 98.1604 45.3778 98.1978 45.9985L98.6641 53.7391C98.6974 54.292 98.258 54.7586 97.7042 54.7586H97.5145C97.0366 54.7586 96.6312 54.4077 96.5627 53.9347Z" fill="#61351A"/>
<path d="M74.8495 53.2112L73.4568 48.1624C73.2878 47.55 73.7486 46.945 74.3838 46.945H75.0618C75.536 46.945 75.9394 47.2907 76.0121 47.7592L76.7955 52.808C76.886 53.3909 76.4351 53.9172 75.8452 53.9172H75.7766C75.344 53.9172 74.9646 53.6283 74.8495 53.2112Z" fill="#61351A"/>
<path d="M55.7896 17.6798C53.3854 20.084 48.2164 17.4393 44.1293 20.3244C38.7287 24.1365 46.8862 42.0146 50.861 45.8087C53.5056 48.3331 85.9621 48.3331 87.6451 48.4533C89.328 48.5736 101.589 44.4864 102.551 43.8854C103.513 43.2843 104.715 35.7112 106.157 27.2965C107.6 18.8819 108.642 4.09033 106.718 1.92656C104.795 -0.237203 61.9203 0.610053 59.0352 2.05256C56.1502 3.49508 58.1938 15.2756 55.7896 17.6798Z" fill="#C25939"/>
<path d="M44.6264 20.4404C41.4405 21.1619 41.8422 24.8746 42.5869 29.1554C43.3316 33.4361 48.0889 42.9073 50.3969 45.5039C53.282 48.7495 84.296 48.9899 86.4597 48.7495C88.6235 48.5091 91.2675 44.1816 93.5515 40.2146C95.8354 36.2477 100.403 22.9045 93.5515 22.063C86.6995 21.2216 85.6218 36.5483 83.2176 38.9524C80.8134 41.3566 60.3178 39.6737 56.7115 38.9524C53.1052 38.2312 52.591 33.3951 52.0233 28.8535C51.4222 24.0451 47.8123 19.719 44.6264 20.4404Z" fill="#EB705D"/>
<path d="M47.6953 18.7559C44.3294 18.9482 42.6465 21.2803 42.6465 21.8813C45.0817 19.4208 48.3553 20.2658 50.3988 24.8337C52.2251 28.916 52.2019 35.2919 54.4859 38.0568C56.7699 40.8216 79.8501 40.5812 82.1341 39.8599C84.418 39.1386 86.3414 30.2432 88.7456 25.4348C91.1497 20.6264 96.3187 20.8668 101.488 18.3424C106.657 15.818 106.958 3.36922 106.478 1.8065C105.997 0.24378 62.4209 -1.31901 58.8146 1.80643C55.2084 4.93187 57.6726 14.3682 56.2301 16.7724C54.7876 19.1766 51.9026 18.5154 47.6953 18.7559Z" fill="#D86553"/>
<path d="M54.0059 36.9672C56.3299 34.523 61.6512 29.2258 64.3439 27.5909C67.0365 25.9561 81.0029 26.8498 87.6945 27.531" stroke="#61351A" stroke-width="0.240419" stroke-linecap="round"/>
<path d="M55.9297 17.373C57.1318 17.914 59.4158 19.056 60.7982 21.0995C62.1806 23.1431 63.4428 25.5473 64.164 27.5908" stroke="#61351A" stroke-width="0.240419" stroke-linecap="round"/>
<path d="M80.8737 8.29765C76.2576 7.33597 69.9352 6.13346 68.3722 7.03521C66.8092 7.93695 68.3721 12.4448 66.8093 16.5318C65.3365 20.3834 64.8861 27.1098 65.7275 27.9513C66.569 28.7928 70.175 28.1917 73.1803 27.9513C76.1855 27.7109 83.0377 29.3938 85.2015 29.2736C87.3652 29.1534 90.6109 10.521 90.2502 9.07835C89.8896 7.63575 86.6437 9.49974 80.8737 8.29765Z" fill="#FFCC65"/>
<mask id="mask0_2341_8354" style="mask-type:alpha" maskUnits="userSpaceOnUse" x="65" y="6" width="26" height="24">
<path d="M80.8737 8.29765C76.2576 7.33597 69.9352 6.13346 68.3722 7.03521C66.8092 7.93695 68.3721 12.4448 66.8093 16.5318C65.3365 20.3834 64.8861 27.1098 65.7275 27.9513C66.569 28.7928 70.175 28.1917 73.1803 27.9513C76.1855 27.7109 83.0377 29.3938 85.2015 29.2736C87.3652 29.1534 90.6109 10.521 90.2502 9.07835C89.8896 7.63575 86.6437 9.49974 80.8737 8.29765Z" fill="#FFF06A"/>
</mask>
<g mask="url(#mask0_2341_8354)">
<path d="M68.5342 29.0576L68.0589 26.4834C67.8895 25.5656 68.2447 24.6298 68.9804 24.0556L69.1918 23.8906C69.9064 23.3329 70.2636 22.4325 70.1258 21.5367L69.6519 18.4564C69.5385 17.7193 69.7596 16.9701 70.255 16.4127L71.2151 15.3327C71.6983 14.7891 71.9212 14.0622 71.8257 13.3412L71.5861 11.5303C71.4777 10.7112 71.7808 9.89133 72.396 9.33973V9.33973C72.9252 8.86527 73.2276 8.18807 73.2276 7.47732V6.7168" stroke="white" stroke-width="0.601046"/>
<path d="M75.3935 29.2803L74.9183 26.706C74.7488 25.7883 75.104 24.8525 75.8397 24.2783L76.0512 24.1132C76.7657 23.5555 77.123 22.6552 76.9851 21.7593L76.5112 18.679C76.3979 17.942 76.619 17.1928 77.1144 16.6354L78.0745 15.5553C78.5577 15.0117 78.7805 14.2849 78.6851 13.5639L78.4454 11.753C78.337 10.9338 78.6402 10.114 79.2554 9.56239V9.56239C79.7846 9.08793 80.087 8.41073 80.087 7.69997V6.93945" stroke="white" stroke-width="0.601046"/>
<path d="M81.792 29.8897L81.3167 27.3154C81.1473 26.3976 81.5025 25.4619 82.2382 24.8877L82.4496 24.7226C83.1642 24.1649 83.5214 23.2645 83.3836 22.3687L82.9097 19.2884C82.7963 18.5514 83.0174 17.8021 83.5129 17.2448L84.4729 16.1647C84.9561 15.6211 85.179 14.8943 85.0836 14.1732L84.8439 12.3624C84.7355 11.5432 85.0386 10.7234 85.6538 10.1718V10.1718C86.1831 9.6973 86.4854 9.02011 86.4854 8.30935V7.54883" stroke="white" stroke-width="0.601046"/>
</g>
<ellipse cx="25.4102" cy="61.2466" rx="10.125" ry="2.46533" fill="#FFCCA4"/>
<path d="M20.0004 58.4851L20.6363 56.0742H29.0682L29.7034 58.4851C29.7034 58.4851 30.3393 61.4908 25.0006 61.4908C19.6618 61.4908 20.0004 58.4851 20.0004 58.4851Z" fill="#CB7F26"/>
<path d="M16.9718 53.9103L18.004 48.6738H31.69L32.721 53.9103C32.721 53.9103 33.7532 60.4388 25.0877 60.4388C16.4222 60.4388 16.9718 53.9103 16.9718 53.9103Z" fill="#FFC757"/>
<path fill-rule="evenodd" clip-rule="evenodd" d="M22.5566 60.2204C23.2983 60.3603 24.138 60.4388 25.0886 60.4388C33.7541 60.4388 32.7219 53.9103 32.7219 53.9103L31.6909 48.6738H26.6431L27.6741 53.9103C27.6741 53.9103 28.4922 59.0851 22.5566 60.2204Z" fill="#FFBA31"/>
<ellipse cx="24.8628" cy="48.6735" rx="6.86089" ry="1.4333" fill="#A75625"/>
<mask id="mask1_2341_8354" style="mask-type:alpha" maskUnits="userSpaceOnUse" x="16" y="48" width="17" height="13">
<path d="M16.9718 53.8204L18.004 48.584H31.69L32.721 53.8204C32.721 53.8204 33.7532 60.349 25.0877 60.349C16.4222 60.349 16.9718 53.8204 16.9718 53.8204Z" fill="#FFC757"/>
</mask>
<g mask="url(#mask1_2341_8354)">
<path d="M16.2852 50.9987C18.1987 51.8101 18.2777 50.8183 20.1295 50.9987C21.9813 51.179 23.5949 52.892 24.7233 52.9521C25.8517 53.0122 26.0996 52.6515 27.797 51.6899C29.4945 50.7282 30.4608 51.8101 31.3636 51.8401C32.2664 51.8702 32.8675 51.3894 33.4385 50.8184" stroke="#A9600A" stroke-width="0.240419" stroke-linecap="round"/>
<path d="M16.2852 53.8483C18.1987 54.6597 18.2777 53.668 20.1295 53.8483C21.9813 54.0286 23.5949 55.7416 24.7233 55.8017C25.8517 55.8618 26.0996 55.5011 27.797 54.5395C29.4945 53.5778 30.4608 54.6597 31.3636 54.6897C32.2664 54.7198 32.8675 54.239 33.4385 53.668" stroke="#A9600A" stroke-width="0.240419" stroke-linecap="round"/>
<path d="M16.3262 57.0045C18.2397 57.8159 18.3188 56.8242 20.1705 57.0045C22.0223 57.1848 23.6359 58.8978 24.7643 58.9579C25.8927 59.018 26.1406 58.6574 27.838 57.6957C29.5355 56.734 30.5018 57.8159 31.4046 57.846C32.3074 57.876 32.9085 57.3952 33.4795 56.8242" stroke="#A9600A" stroke-width="0.240419" stroke-linecap="round"/>
</g>
<path d="M24.8976 50.0105C23.9092 48.171 22.7049 44.0401 23.415 41.362C24.2483 38.2196 25.7309 36.737 26.0603 33.2776C26.3898 29.8182 25.3918 27.1126 24.8976 24.9711C24.4034 22.8296 25.0719 21.8286 26.0603 20.2637" stroke="#8FB73E" stroke-width="0.360628"/>
<path d="M34.1546 33.4427C31.5917 34.6171 28.239 35.675 25.7135 36.3489C27.3417 34.7255 29.679 32.6423 31.9104 31.1596C33.1377 30.3442 34.3209 29.7185 35.3294 29.4456C36.3415 29.1716 37.1253 29.2644 37.6261 29.8021C37.8784 30.073 37.9502 30.3354 37.9031 30.5961C37.8538 30.8691 37.6687 31.1697 37.3432 31.4924C36.6925 32.1375 35.5506 32.803 34.1546 33.4427Z" fill="#8FB73E" stroke="#8FB73E" stroke-width="0.360628"/>
<path d="M21.534 27.7873C22.9053 30.2505 24.2224 33.5101 25.0918 35.9752C23.346 34.4789 21.0863 32.3118 19.4336 30.2033C18.5246 29.0436 17.8083 27.913 17.4572 26.929C17.1049 25.9414 17.1361 25.1527 17.633 24.6113C17.8832 24.3386 18.1392 24.2465 18.4028 24.2731C18.6788 24.3009 18.993 24.4619 19.3401 24.7612C20.0342 25.3594 20.787 26.4457 21.534 27.7873Z" fill="#8FB73E" stroke="#8FB73E" stroke-width="0.360628"/>
<path d="M31.3464 16.79C29.8504 18.0088 27.8288 19.2851 26.2373 20.194C27.0638 18.8119 28.2499 17.0544 29.4669 15.6956C30.1641 14.917 30.8618 14.2803 31.4996 13.9166C32.1405 13.551 32.6732 13.4856 33.0892 13.7505C33.2995 13.8843 33.3848 14.0383 33.3975 14.207C33.4111 14.3883 33.3433 14.617 33.1795 14.893C32.8521 15.4445 32.1916 16.1014 31.3464 16.79Z" fill="#8FB73E" stroke="#8FB73E" stroke-width="0.360628"/>
<path d="M26.5071 13.8848C26.4943 15.8143 26.1912 18.1858 25.8787 19.9918C25.3393 18.4745 24.7394 16.4407 24.4664 14.6372C24.3101 13.6038 24.2634 12.6604 24.389 11.9371C24.5153 11.2101 24.804 10.7577 25.2731 10.6055C25.5103 10.5286 25.6832 10.5609 25.8215 10.6586C25.9699 10.7635 26.1031 10.9614 26.2116 11.2634C26.4284 11.8671 26.5143 12.7946 26.5071 13.8848Z" fill="#8FB73E" stroke="#8FB73E" stroke-width="0.360628"/>
<path d="M23.1939 49.9676C21.8601 48.7968 19.6731 45.8658 19.4424 43.5223C19.1717 40.7725 19.9114 39.1513 19.1453 36.299C18.3792 33.4466 16.7803 31.5891 15.7502 30.0309C14.7201 28.4727 14.9548 27.477 15.2765 25.9371" stroke="#B4E451" stroke-width="0.360628"/>
<path d="M25.6207 34.0047C23.9563 35.6745 21.6483 37.4825 19.8499 38.7662C20.6636 37.0021 21.8847 34.6994 23.1962 32.8891C23.9304 31.8758 24.6844 31.0287 25.4027 30.5141C26.1241 29.9973 26.7644 29.8449 27.3096 30.1174C27.5846 30.2549 27.7134 30.4359 27.7516 30.6478C27.792 30.872 27.7365 31.1603 27.5743 31.5117C27.2501 32.2142 26.5417 33.0808 25.6207 34.0047Z" fill="#B4E451" stroke="#B4E451" stroke-width="0.360628"/>
<path d="M13.8931 33.2956C15.688 34.8243 17.6711 36.9837 19.0916 38.6761C17.2691 38.003 14.8779 36.9658 12.9706 35.8C11.903 35.1474 10.9994 34.4619 10.4302 33.7861C9.85852 33.1074 9.6565 32.4809 9.88551 31.9161C10.001 31.6312 10.1715 31.4886 10.3797 31.434C10.6 31.3761 10.8918 31.4089 11.2549 31.5431C11.9806 31.8114 12.8999 32.4498 13.8931 33.2956Z" fill="#B4E451" stroke="#B4E451" stroke-width="0.360628"/>
<path d="M18.3851 21.7328C17.5756 23.1149 16.3822 24.6908 15.3981 25.8784C15.6474 24.5478 16.0618 22.849 16.6118 21.4436C16.9351 20.6174 17.3001 19.9062 17.697 19.4304C18.0963 18.9517 18.4916 18.7506 18.8869 18.8347C19.0872 18.8773 19.193 18.9698 19.2491 19.0914C19.3105 19.2244 19.3254 19.4203 19.2774 19.6862C19.1816 20.2178 18.8531 20.9336 18.3851 21.7328Z" fill="#B4E451" stroke="#B4E451" stroke-width="0.360628"/>
<path d="M13.2474 20.8701C13.9256 22.3212 14.5452 24.1984 14.964 25.6828C14.0102 24.7221 12.8472 23.4164 12.0026 22.1657C11.5061 21.4304 11.1279 20.7261 10.9615 20.1293C10.7941 19.5288 10.8531 19.0892 11.1467 18.8115C11.2955 18.6709 11.4317 18.6363 11.5638 18.6592C11.7081 18.6841 11.8778 18.7831 12.0695 18.9736C12.4526 19.3543 12.8554 20.0311 13.2474 20.8701Z" fill="#B4E451" stroke="#B4E451" stroke-width="0.360628"/>
<path d="M25.9883 49.9535C26.7749 49.263 28.0646 47.5345 28.2007 46.1525C28.3604 44.5309 27.9241 43.5748 28.3759 41.8927C28.8277 40.2105 29.7707 39.1151 30.3781 38.1962C30.9856 37.2773 30.8472 36.6901 30.6575 35.7819" stroke="#B4E451" stroke-width="0.360628"/>
<path d="M24.6101 40.4865C25.518 41.3973 26.7536 42.3796 27.7732 43.1203C27.2989 42.1233 26.6352 40.9008 25.9276 39.9242C25.4963 39.3289 25.0572 38.8369 24.6432 38.5403C24.2261 38.2415 23.8795 38.1701 23.5948 38.3124C23.45 38.3847 23.3916 38.4737 23.3739 38.5722C23.3539 38.6829 23.38 38.8364 23.4728 39.0375C23.6582 39.4393 24.068 39.9426 24.6101 40.4865Z" fill="#B4E451" stroke="#B4E451" stroke-width="0.360628"/>
<path d="M31.5233 40.1772C30.5443 41.0111 29.4683 42.166 28.65 43.1245C29.6811 42.7296 30.9518 42.1637 31.9808 41.5347C32.608 41.1513 33.1329 40.752 33.461 40.3625C33.7915 39.9701 33.8898 39.6301 33.7702 39.3352C33.7094 39.1852 33.6253 39.12 33.5285 39.0946C33.4197 39.066 33.2645 39.08 33.0569 39.1568C32.6418 39.3102 32.108 39.6793 31.5233 40.1772Z" fill="#B4E451" stroke="#B4E451" stroke-width="0.360628"/>
<path d="M28.8886 33.4877C29.3133 34.213 29.9195 35.0308 30.4571 35.6953C30.3079 34.9665 30.0853 34.1066 29.8016 33.3815C29.612 32.8969 29.4002 32.4862 29.1737 32.2147C28.9448 31.9402 28.737 31.8473 28.5442 31.8883C28.4451 31.9094 28.4042 31.9511 28.3823 31.9984C28.3553 32.057 28.3442 32.1549 28.3713 32.305C28.4254 32.6049 28.6133 33.0176 28.8886 33.4877Z" fill="#B4E451" stroke="#B4E451" stroke-width="0.360628"/>
<path d="M31.1985 32.9759C31.0188 33.7969 30.9097 34.809 30.8541 35.6619C31.2388 35.0252 31.6583 34.2423 31.9415 33.517C32.1308 33.0323 32.2537 32.5868 32.2714 32.2337C32.2893 31.8768 32.1997 31.6676 32.0301 31.5669C31.943 31.5152 31.8846 31.5181 31.8365 31.5381C31.7769 31.5628 31.7024 31.6272 31.6204 31.7559C31.4568 32.013 31.315 32.4437 31.1985 32.9759Z" fill="#B4E451" stroke="#B4E451" stroke-width="0.360628"/>
<path fill-rule="evenodd" clip-rule="evenodd" d="M31.6188 48.4258C31.0549 49.0988 28.2438 49.6103 24.8609 49.6103C21.478 49.6103 18.6669 49.0988 18.103 48.4258C18.0353 48.5066 18 48.5897 18 48.6746C18 49.4662 21.0717 50.1079 24.8609 50.1079C28.6501 50.1079 31.7218 49.4662 31.7218 48.6746C31.7218 48.5897 31.6865 48.5066 31.6188 48.4258Z" fill="#CB7F26"/>
</svg>
