<svg width="60" height="61" viewBox="0 0 60 61" fill="none" xmlns="http://www.w3.org/2000/svg">
<rect x="28.9609" y="0.4375" width="1.75439" height="10.5263" fill="#1D42A2"/>
<rect x="25.9902" y="5.27539" width="1.75439" height="7.69424" transform="rotate(-90 25.9902 5.27539)" fill="#1D42A2"/>
<rect x="41.4258" y="29.8906" width="14.4878" height="3.20802" rx="1.60401" transform="rotate(19.335 41.4258 29.8906)" fill="#77899B"/>
<rect width="14.4878" height="3.20802" rx="1.60401" transform="matrix(-0.943599 0.331091 0.331091 0.943599 17.6191 29.8887)" fill="#667584"/>
<path d="M5.76367 37.2821L29.4768 28.959L53.19 37.2821V57.4302H5.76367V37.2821Z" fill="#FFF1CF"/>
<path d="M16.584 19.9993L29.8749 12.918L43.1659 19.9993V57.4292H16.584V19.9993Z" fill="#FFF8E6"/>
<path d="M45.8848 41.2379C45.8848 40.2144 46.7144 39.3848 47.7379 39.3848C48.7613 39.3848 49.591 40.2144 49.591 41.2379V45.5001H45.8848V41.2379Z" fill="#4FDFFF"/>
<path d="M9.39453 41.2887C9.39453 40.2652 10.2242 39.4355 11.2476 39.4355C12.2711 39.4355 13.1008 40.2652 13.1008 41.2887V45.5508H9.39453V41.2887Z" fill="#4FDFFF"/>
<rect x="45.6641" y="45.498" width="4.14787" height="0.325815" rx="0.162907" fill="#1D42A1"/>
<rect x="9.17383" y="45.5371" width="4.14787" height="0.325815" rx="0.162907" fill="#1D42A1"/>
<path d="M24.9113 30.5646C24.5103 37.1917 25.8804 51.011 27.2171 57.4318H16.4902V21.6018L30.0241 12.5195C28.0859 15.547 25.3123 23.9376 24.9113 30.5646Z" fill="#FFEAB7"/>
<path fill-rule="evenodd" clip-rule="evenodd" d="M29.8753 12.9427L43.0166 21.7646C43.8364 22.315 44.9473 22.0965 45.4976 21.2766C46.048 20.4568 45.8296 19.346 45.0097 18.7956L30.9691 9.37007C30.6338 9.14493 30.2497 9.04844 29.8753 9.06914C29.5008 9.04844 29.1167 9.14493 28.7814 9.37007L14.7408 18.7956C13.921 19.346 13.7025 20.4568 14.2529 21.2766C14.8033 22.0965 15.9141 22.315 16.7339 21.7646L29.8753 12.9427Z" fill="#667584"/>
<path d="M24.4121 46.6551C24.4121 43.6376 26.8583 41.1914 29.8758 41.1914C32.8933 41.1914 35.3394 43.6376 35.3394 46.6551V57.432H24.4121V46.6551Z" fill="#E4996D"/>
<rect y="57.1621" width="60" height="2.57519" rx="1.28759" fill="#1D42A1"/>
<circle cx="29.8765" cy="25.7515" r="5.11278" fill="#4FDFFF"/>
</svg>
