<svg width="133" height="101" viewBox="0 0 133 101" fill="none" xmlns="http://www.w3.org/2000/svg">
<path d="M115.294 99.8113H1.70312V90.252H115.294V99.8113Z" fill="#B3EC99"/>
<path d="M116.383 79.4695C109.171 79.9146 108.926 93.2328 109.705 99.8362H121.614C122.875 92.8618 123.595 79.0243 116.383 79.4695Z" fill="#008DB6"/>
<path d="M115.397 95.7142L115.99 80.437" stroke="#12647C" stroke-width="0.129613"/>
<path d="M115.602 91.6937L119.336 87.9125" stroke="#12647C" stroke-width="0.129613"/>
<path d="M115.466 93.2153L112.814 89.709" stroke="#12647C" stroke-width="0.129613"/>
<path d="M115.69 87.5274L114.051 84.1348" stroke="#12647C" stroke-width="0.129613"/>
<path d="M115.785 85.9129L117.485 83.3176" stroke="#12647C" stroke-width="0.129613"/>
<path d="M126.176 70.9007C119.766 70.8117 119.869 90.1545 120.723 99.837H129.626C131.147 90.2287 132.587 70.9897 126.176 70.9007Z" fill="#FFF06A"/>
<path d="M125.17 89.0048L126.119 71.9499" stroke="#D1C12C" stroke-width="0.14481"/>
<path d="M125.474 84.521L129.717 80.3671" stroke="#D1C12C" stroke-width="0.14481"/>
<path d="M125.295 86.2147L122.398 82.248" stroke="#D1C12C" stroke-width="0.14481"/>
<path d="M125.652 79.8656L123.885 76.0449" stroke="#D1C12C" stroke-width="0.14481"/>
<path d="M125.788 78.0636L127.736 75.1963" stroke="#D1C12C" stroke-width="0.14481"/>
<path d="M117.05 89.7076C114.735 90.0637 113.414 96.6078 113.043 99.8353H130.961C131.406 99.0192 132.03 97.2978 130.961 96.9417C129.893 96.5855 128.142 97.832 127.4 98.4998C129.7 95.5691 133.899 89.2847 132.297 87.593C130.694 85.9013 127.326 89.4108 125.842 91.377C127.808 88.372 130.872 82.1841 127.4 81.4718C123.927 80.7595 120.834 89.2624 119.721 93.6029C119.795 92.1561 119.364 89.3515 117.05 89.7076Z" fill="#8FB73E"/>
<path d="M122.008 99.8368L126.112 85.1094" stroke="#5F8610" stroke-width="0.129613"/>
<path d="M123.135 95.9749L127.642 93.1582" stroke="#5F8610" stroke-width="0.129613"/>
<path d="M122.651 97.4223L120.881 93.3984" stroke="#5F8610" stroke-width="0.129613"/>
<path d="M124.185 91.9392L123.373 88.2598" stroke="#5F8610" stroke-width="0.129613"/>
<path d="M124.648 90.3924L126.902 88.2598" stroke="#5F8610" stroke-width="0.129613"/>
<path d="M5.26415 84.6407C-0.174546 84.9764 -0.359193 95.0201 0.228321 100H9.20892C10.1601 94.7404 10.7029 84.305 5.26415 84.6407Z" fill="#008DB6"/>
<path d="M4.51775 96.8903L4.96473 85.3693" stroke="#12647C" stroke-width="0.0977458"/>
<path d="M4.67214 93.8598L7.4885 91.0082" stroke="#12647C" stroke-width="0.0977458"/>
<path d="M4.57015 95.0056L2.57031 92.3613" stroke="#12647C" stroke-width="0.0977458"/>
<path d="M4.74006 90.7148L3.50391 88.1562" stroke="#12647C" stroke-width="0.0977458"/>
<path d="M4.81083 89.5004L6.09288 87.5431" stroke="#12647C" stroke-width="0.0977458"/>
<path d="M12.6494 78.178C7.81504 78.1108 7.89338 92.698 8.53685 99.9999H15.2513C16.3983 92.7539 17.4838 78.2451 12.6494 78.178Z" fill="#FFF06A"/>
<path d="M11.8924 91.8308L12.6081 78.9691" stroke="#D1C12C" stroke-width="0.109206"/>
<path d="M12.1204 88.4469L15.3201 85.3143" stroke="#D1C12C" stroke-width="0.109206"/>
<path d="M11.9851 89.7277L9.80078 86.7363" stroke="#D1C12C" stroke-width="0.109206"/>
<path d="M12.2547 84.938L10.9219 82.0566" stroke="#D1C12C" stroke-width="0.109206"/>
<path d="M12.3581 83.5793L13.8271 81.4169" stroke="#D1C12C" stroke-width="0.109206"/>
<path d="M5.76759 92.3638C4.02184 92.6323 3.02586 97.5675 2.74609 100.001H16.2589C16.5946 99.386 17.0646 98.0878 16.2589 97.8192C15.4532 97.5507 14.1327 98.4907 13.5731 98.9943C15.3077 96.7841 18.4747 92.0448 17.2661 90.7691C16.0575 89.4933 13.5172 92.1399 12.3981 93.6227C13.8809 91.3566 16.1918 86.69 13.5731 86.1528C10.9545 85.6157 8.62123 92.028 7.78193 95.3013C7.83788 94.2102 7.51335 92.0952 5.76759 92.3638Z" fill="#8FB73E"/>
<path d="M9.50391 100.001L12.5992 88.8945" stroke="#5F8610" stroke-width="0.0977458"/>
<path d="M10.3535 97.089L13.7522 94.9648" stroke="#5F8610" stroke-width="0.0977458"/>
<path d="M9.98951 98.181L8.6543 95.1465" stroke="#5F8610" stroke-width="0.0977458"/>
<path d="M11.1452 94.0443L10.5332 91.2695" stroke="#5F8610" stroke-width="0.0977458"/>
<path d="M11.4961 92.8779L13.1954 91.2695" stroke="#5F8610" stroke-width="0.0977458"/>
<ellipse cx="38.2846" cy="95.9281" rx="9.976" ry="3.05118" fill="#A5DF30"/>
<ellipse cx="96.081" cy="94.6748" rx="7.48525" ry="2.31153" fill="#A5DF30"/>
<path d="M42.0352 55.7285C42.0352 55.7285 44.7665 60.0848 46.0567 61.2346C47.347 62.3843 50.8832 64.5561 50.8832 64.5561C50.8832 64.5561 50.1422 59.4844 48.5453 58.5109C46.9484 57.5375 42.0352 55.7285 42.0352 55.7285Z" fill="#284B89"/>
<path d="M64.3789 13.9766C64.3789 13.9766 65.1991 13.9766 67.2533 14.4876C68.2513 14.7672 69.2274 15.1199 70.1737 15.5428L66.1061 15.9439L64.3789 13.9766Z" fill="#95A9F2"/>
<path d="M74.9764 59.3066L77.2503 65.6482C77.2503 65.6482 82.46 68.5609 84.4657 71.1593C86.4714 73.7578 91.8395 81.5352 91.8395 81.5352L88.426 82.9507C88.426 82.9507 72.1991 70.1757 71.1745 68.7449C70.15 67.314 66.3379 62.25 66.3379 62.25L74.9764 59.3066Z" fill="#FCC3B1"/>
<path d="M46.3622 54.375C46.3622 54.375 45.0643 55.1032 43.2962 57.3209C41.7888 59.2219 40.5905 60.4917 40.777 62.2547C40.8639 63.0671 42.821 72.9039 43.2043 75.091C43.5875 77.2781 44.2084 89.2688 44.2084 89.2688L48.0409 91.2106C48.0409 91.2106 50.0542 79.432 50.2356 75.16C50.3711 71.9867 48.5723 65.0294 48.5723 65.0294L53.7411 61.1305L46.3622 54.375Z" fill="#FCC3B1"/>
<path d="M43.9619 56.5371L43.4023 57.204C43.4023 57.204 45.3799 58.6169 46.4684 60.0656C47.5568 61.5143 49.4501 64.3784 49.4501 64.3784L50.9831 63.2261L47.5491 57.7737L43.9619 56.5371Z" fill="#F7A8A8"/>
<path d="M48.8235 94.0723C48.91 94.4381 48.887 94.8213 48.7576 95.1742C48.6281 95.5272 48.3978 95.8343 48.0953 96.0575C46.22 97.4909 43.8438 96.0013 43.0415 96.221C42.2393 96.4408 41.9199 96.7065 40.231 97.2277C38.5422 97.7489 33.7132 97.1587 33.6544 96.2415C33.5957 95.3242 34.8016 94.8567 34.8016 94.8567L48.8235 94.0723Z" fill="#F2F6FF"/>
<path d="M48.1373 92.1145C48.3315 92.5029 49.7777 94.5265 47.7899 95.6251C45.8021 96.7238 43.5128 95.3696 42.7105 95.8091C38.8499 97.9706 34.1359 96.6573 33.9034 95.8091C33.6709 94.9608 36.6654 94.2122 38.8397 93.1084C41.4151 91.8028 44.2052 89.0664 44.2052 89.0664C44.2052 89.0664 45.8353 90.2749 46.2492 90.114C46.6631 89.953 47.7055 89.2683 48.0786 89.2785C49.1185 89.2938 47.9406 91.7287 48.1373 92.1145Z" fill="#1B2B56"/>
<path d="M94.9342 81.2793C95.299 81.3865 95.6244 81.5983 95.8701 81.8884C96.1158 82.1786 96.271 82.5345 96.3165 82.912C96.641 85.2804 94.1422 86.6269 93.9327 87.442C93.7232 88.257 93.7998 88.671 93.4217 90.4211C93.0435 92.1713 90.1002 96.1214 89.2596 95.7151C88.419 95.3089 88.6157 94.0135 88.6157 94.0135L94.9342 81.2793Z" fill="#F2F6FF"/>
<path d="M92.8672 80.909C93.3067 80.9294 95.8081 80.6714 95.7825 82.9709C95.757 85.2704 93.4063 86.599 93.4012 87.529C93.3731 92.008 89.8574 95.4981 88.9887 95.2758C88.12 95.0535 88.9657 92.0463 89.0833 89.5807C89.2238 86.6629 87.7266 82.4624 87.7266 82.4624C87.7266 82.4624 90.0874 82.0153 90.1564 81.5656C90.2254 81.1159 90.0082 80.0939 90.2024 79.7771C90.7466 78.865 92.4303 80.8885 92.8672 80.909Z" fill="#1B2B56"/>
<path d="M75.4162 60.541L75.9656 62.074L68.4487 65.0659L67.3398 63.5866L75.4162 60.541Z" fill="#F7A8A8"/>
<path d="M71.2751 45.5645L75.9712 60.3324L66.6377 63.8481L58.5 52.1487L71.2751 45.5645Z" fill="#16349F"/>
<path d="M68.7491 39.0961C68.7491 39.0961 75.2031 46.8761 68.2381 53.1614C61.3779 59.3496 50.8871 64.5542 50.8871 64.5542C50.8871 64.5542 48.6846 60.226 47.0341 58.5525C45.3836 56.8789 42.0391 55.742 42.0391 55.742C42.0391 55.742 51.3878 47.3564 54.4155 42.1851C57.9312 36.1655 68.7491 39.0961 68.7491 39.0961Z" fill="#314DB1"/>
<path d="M51.4844 46.1485L53.3674 43.7851C53.3674 43.7851 56.551 40.7702 60.1893 41.271C63.8276 41.7718 70.9484 42.5485 70.9484 42.5485L70.9101 43.0084L71.1477 43.9486C71.1477 43.9997 62.5603 43.3099 60.0386 42.9266C57.5168 42.5434 51.4844 46.1485 51.4844 46.1485Z" fill="#1D3382" fill-opacity="0.65"/>
<path d="M43.8023 21.8159L42.1994 20.6565C42.1994 20.6565 42.093 19.3018 41.5794 18.893C41.0659 18.4842 39.9822 18.5671 39.9822 18.5671C39.9822 18.5671 39.433 18.1694 39.0959 18.2788C38.9892 18.3135 38.9125 18.3683 38.8488 18.4606C38.7093 18.6628 38.7332 18.8502 38.9069 19.0003C38.9069 19.0003 38.562 18.9185 38.4546 19.1383C38.4272 19.2158 38.4167 19.2983 38.4237 19.3803C38.4308 19.4623 38.4847 19.5493 38.525 19.621C38.525 19.621 38.1205 19.503 38.0024 19.8043C37.942 19.9583 37.9769 20.0467 38.0207 20.2062C38.0207 20.2062 37.6952 20.3311 37.6543 20.5712C37.6556 20.8691 37.7925 21.1064 38.0024 21.3177C38.4112 21.8287 40.1358 22.7434 40.2585 22.7383L40.7874 22.7204L42.4124 23.8855L43.8023 21.8159Z" fill="#FCC3B1"/>
<path d="M41.6803 22.1359C41.7867 21.9463 41.879 21.749 41.9563 21.5457C42.0389 21.3461 42.1022 21.1391 42.1453 20.9274C42.2475 20.5033 42.0815 20.0843 41.9639 19.6703C41.9047 19.465 41.8188 19.2683 41.7084 19.0852C41.5851 18.9146 41.4031 18.7955 41.1974 18.7505C40.7795 18.6426 40.3512 18.5801 39.9199 18.564C40.3576 18.5431 40.7961 18.5827 41.223 18.6816C41.3326 18.7088 41.4382 18.75 41.5372 18.8042C41.64 18.8598 41.7277 18.9396 41.7927 19.0367C41.9136 19.2241 42.0066 19.4281 42.0687 19.6422C42.1351 19.8518 42.1888 20.0638 42.2373 20.2759C42.291 20.4949 42.291 20.7237 42.2373 20.9427C42.1234 21.3702 41.9348 21.7741 41.6803 22.1359Z" fill="#CC7586"/>
<path d="M38.8368 18.9923C38.7728 18.9856 38.7081 18.9934 38.6475 19.0151C38.5114 19.0638 38.4472 19.1527 38.4577 19.2981C38.4621 19.3598 38.4808 19.4195 38.5123 19.4727C38.6327 19.6987 38.8085 19.8903 39.0233 20.0297C39.2403 20.1758 39.4624 20.3217 39.701 20.4289C39.9405 20.5357 40.0476 20.5795 40.4465 20.6787C40.8453 20.7778 40.7383 20.319 40.679 20.0655C40.734 20.233 40.8177 20.4548 40.7837 20.6352C40.7767 20.6574 40.7644 20.6775 40.7479 20.694C40.6779 20.7641 40.5403 20.7562 40.4516 20.7425C40.1883 20.6826 39.9316 20.597 39.6851 20.487C39.4374 20.3864 39.2024 20.2569 38.985 20.1012C38.7556 19.9527 38.5724 19.7429 38.4561 19.4957C38.4221 19.4338 38.4043 19.3644 38.4043 19.2938C38.4043 19.1357 38.4823 19.0364 38.6345 18.9966C38.7007 18.9793 38.77 18.9778 38.8368 18.9923Z" fill="#CC7586"/>
<path d="M40.8301 20.0125C40.8891 20.0142 40.9484 20.0073 41.006 19.9915C41.0656 19.9677 41.1148 19.9236 41.1452 19.8671C41.3053 19.5691 40.8579 19.2675 40.6662 19.1177C40.3007 18.8351 39.434 17.9151 38.9034 18.5282C38.8723 18.5769 38.8513 18.6314 38.8419 18.6885C38.8356 18.7472 38.8435 18.8066 38.8648 18.8617C38.8861 18.9169 38.9203 18.9661 38.9646 19.0053C39.4427 19.4217 40.1938 19.9939 40.8301 20.0125ZM38.9135 19.0589C38.8594 19.0138 38.8168 18.9564 38.7893 18.8915C38.7617 18.8267 38.75 18.7562 38.755 18.6859C38.7643 18.6153 38.7882 18.5474 38.8252 18.4866C38.8622 18.4257 38.9115 18.3733 38.97 18.3327C39.0284 18.292 39.0947 18.264 39.1646 18.2505C39.6711 18.1525 40.3586 18.7818 40.6969 19.087C40.7939 19.1713 40.891 19.2582 40.9805 19.3425C41.1111 19.4646 41.2774 19.69 41.1721 19.8766C41.1394 19.9345 41.0682 19.9923 41.006 20.0158C40.3829 20.2006 39.4068 19.4507 38.9135 19.0589Z" fill="#CC7586"/>
<path d="M38.4972 19.617C38.3918 19.6017 38.32 19.5924 38.2367 19.625C38.1534 19.6576 38.0839 19.7179 38.0399 19.7959C38.001 19.8729 37.9904 19.9612 38.01 20.0453C38.0296 20.1294 38.0782 20.2039 38.1472 20.2558C38.6868 20.7154 39.4434 20.9611 40.1095 21.1781C40.1933 21.2065 40.2786 21.2304 40.365 21.2497C40.4493 21.2625 40.5464 21.2701 40.6 21.2062C40.622 21.1679 40.636 21.1255 40.6413 21.0816C40.6565 20.9546 40.6013 20.8087 40.5515 20.6952C40.5939 20.7765 40.6273 20.8622 40.6511 20.9507C40.6988 21.0953 40.6614 21.261 40.5045 21.305C40.3756 21.3412 40.2082 21.2844 40.0839 21.2522C39.397 21.0548 38.6358 20.7812 38.0961 20.2992C38.0281 20.2312 37.9773 20.148 37.9479 20.0565C37.935 20.0084 37.9322 19.9581 37.9396 19.9089C37.9471 19.8596 37.9647 19.8124 37.9913 19.7703C38.0442 19.6894 38.1239 19.6297 38.2164 19.6017C38.3089 19.5736 38.4083 19.5791 38.4972 19.617Z" fill="#CC7586"/>
<path d="M37.7214 20.5073C37.7006 20.5846 37.7009 20.6662 37.7225 20.7434C37.744 20.8205 37.786 20.8905 37.8439 20.9458C38.369 21.3314 38.9973 21.6903 39.6447 21.8058C39.8113 21.8342 40.1119 21.8807 40.1608 21.6584C40.1862 21.5425 40.1356 21.3993 40.0881 21.2962C40.3127 21.6968 40.195 21.9687 39.6398 21.8915C39.1018 21.8168 38.6772 21.571 38.2139 21.3084C38.062 21.226 37.9205 21.1257 37.7925 21.0095C37.7303 20.9462 37.6866 20.8671 37.6659 20.7808C37.6452 20.6945 37.6483 20.6042 37.6749 20.5195C37.7328 20.3267 37.8511 20.2853 37.8892 20.2676C37.847 20.3044 37.7536 20.3598 37.7214 20.5073Z" fill="#CC7586"/>
<path d="M52.9162 26.3933L43.432 20.5781L41.623 24.0478C41.623 24.0478 43.9762 26.4725 47.0524 29.0786C50.1287 31.6848 53.0899 32.2571 53.2943 32.2852C53.4987 32.3133 52.9162 26.3933 52.9162 26.3933Z" fill="url(#paint0_linear_2341_8198)"/>
<path d="M70.9093 43.0047C70.9093 43.0047 72.7771 22.5901 68.2649 15.8704C66.967 13.9414 64.7313 13.9465 63.1855 13.9414C60.536 13.9414 57.2094 14.1407 55.5972 15.6712C51.6139 19.4449 53.0549 27.9097 53.0549 31.1136C53.0549 35.6181 52.3906 45.0359 52.3906 45.0359C52.3906 45.0359 56.1465 41.2647 61.3127 42.3199C64.4693 42.9567 67.6944 43.1868 70.9093 43.0047Z" fill="url(#paint1_linear_2341_8198)"/>
<path d="M58.116 7.69591C58.116 7.69591 58.1518 11.301 58.116 14.5944C58.0982 16.756 58.3715 17.4791 59.3936 17.7243C62.0329 18.3401 62.8403 15.4095 62.8403 15.4095L62.5337 7.28711L58.116 7.69591Z" fill="#FCC3B1"/>
<path d="M57.7695 12.1237L62.5985 9.17773L62.854 15.4196C62.854 15.4196 62.8923 15.693 62.4478 16.3496C62.1691 16.7912 61.8041 17.1718 61.3746 17.4687L57.7695 12.1237Z" fill="#F7A8A8"/>
<path d="M56.874 12.4503C55.4509 11.6403 55.5148 6.5482 55.6221 4.1286C55.6732 2.76167 57.0069 1.57359 60.2492 1.90319C63.4915 2.23279 62.7122 5.56708 62.7122 7.01321C64.3883 5.87623 63.8824 8.72507 63.6474 9.16964C63.4558 9.52735 63.0444 9.48902 62.7429 9.34083C62.6893 10.0281 61.9968 11.4359 61.5523 12.0824C60.6912 13.3573 58.2997 13.2602 56.874 12.4503Z" fill="#FCC3B1"/>
<path d="M62.5052 7.56497C62.6661 7.45511 62.8706 7.16383 63.1695 6.87256C63.1695 6.87256 64.3065 2.60058 62.5052 1.06758C60.7039 -0.46543 55.2285 -0.858903 55.2285 3.41819C55.2285 6.24147 55.6245 7.0693 55.6245 7.0693C55.6245 7.0693 55.5019 4.15148 55.8647 3.81677C56.506 3.22401 56.828 4.19747 57.9573 4.19747C60.1546 4.19747 60.5685 2.98128 61.1485 3.49484C61.7285 4.00839 61.8588 5.40854 61.8077 6.07284C61.7566 6.73715 61.9916 7.91756 62.5052 7.56497Z" fill="#252525"/>
<path d="M63.1949 7.75781C63.2631 7.94337 63.2631 8.14714 63.1949 8.33269C63.0339 8.66484 63.0007 8.92034 63.2664 8.70828C63.5321 8.49621 63.4044 7.94944 63.1949 7.75781Z" fill="#D68B9B"/>
<path d="M71.0553 34.8086L69.6577 36.2087C69.6577 36.2087 68.2729 36.0324 67.7798 36.4642C67.2866 36.896 67.1333 37.9794 67.1333 37.9794C67.1333 37.9794 66.6888 38.4495 66.7475 38.8021C66.7624 38.9138 66.8138 39.0175 66.8938 39.097C66.9737 39.1765 67.0777 39.2273 67.1896 39.2415C67.2679 39.2105 67.3405 39.1664 67.4042 39.1112C67.4042 39.1112 67.2611 39.4383 67.4578 39.5814C67.5292 39.6225 67.6085 39.6478 67.6905 39.6558C67.7724 39.6637 67.8552 39.654 67.9331 39.6273C67.9331 39.6273 67.7159 39.9621 67.9791 40.1102C68.1191 40.1985 68.2844 40.238 68.4492 40.2227C68.4481 40.3009 68.4691 40.3779 68.5098 40.4448C68.5504 40.5117 68.6091 40.5658 68.6791 40.6008C68.8243 40.6281 68.9734 40.6261 69.1177 40.5949C69.2621 40.5638 69.3988 40.5041 69.5197 40.4194C69.8263 40.2482 71.3261 38.4571 71.344 38.3371L71.4028 37.9334L72.8438 36.546L71.0553 34.8086Z" fill="#FCC3B1"/>
<path d="M70.9855 36.9534C70.8114 36.8233 70.6297 36.7039 70.4412 36.5957C70.2602 36.4817 70.0675 36.3875 69.8664 36.3147C69.6741 36.2382 69.4672 36.2059 69.2608 36.2201C69.0462 36.2329 68.829 36.2508 68.617 36.2789C68.409 36.2987 68.2045 36.346 68.0089 36.4194C67.9193 36.4545 67.8389 36.5096 67.7738 36.5804C67.7083 36.6596 67.651 36.7452 67.6026 36.8359C67.5009 37.025 67.4155 37.2225 67.3471 37.4261C67.273 37.6305 67.2117 37.8374 67.1504 38.047C67.1904 37.6072 67.2982 37.1763 67.4698 36.7695C67.5156 36.6627 67.5749 36.5623 67.6461 36.4705C67.7245 36.377 67.8232 36.3028 67.9348 36.2533C68.1444 36.1664 68.3656 36.1105 68.5914 36.0873C68.8111 36.0592 69.0309 36.0438 69.2506 36.0362C69.4816 36.0275 69.7113 36.0748 69.92 36.1741C70.3215 36.3638 70.6831 36.6282 70.9855 36.9534Z" fill="#CC7586"/>
<path d="M68.2833 37.1875C68.0763 37.3791 67.8643 37.5631 67.6522 37.7419C67.4401 37.9125 67.2388 38.096 67.0492 38.2913C66.9679 38.3938 66.9001 38.5062 66.8474 38.626C66.8208 38.6765 66.806 38.7324 66.8039 38.7895C66.804 38.8131 66.8083 38.8365 66.8167 38.8585C66.8301 38.8876 66.8455 38.9157 66.8627 38.9428C66.9291 39.0501 67.016 39.1855 67.1029 39.1983C67.2316 39.1638 67.3505 39.1 67.4503 39.0118C67.4075 39.0687 67.3596 39.1218 67.3073 39.1702C67.2543 39.2273 67.1874 39.2696 67.1131 39.2928C67.0704 39.2927 67.0281 39.2838 66.989 39.2666C66.9499 39.2495 66.9147 39.2245 66.8857 39.1932C66.8302 39.1426 66.7805 39.086 66.7375 39.0246C66.7138 38.9956 66.6925 38.9649 66.6736 38.9326C66.6512 38.8917 66.6381 38.8463 66.6353 38.7997C66.6317 38.7166 66.6465 38.6337 66.6787 38.557C66.7353 38.4196 66.8091 38.2899 66.8985 38.1712C67.0987 37.9656 67.3205 37.7823 67.5602 37.6244C67.7918 37.4637 68.0333 37.3178 68.2833 37.1875Z" fill="#CC7586"/>
<path d="M67.4303 39.0312C67.3998 39.1409 67.3869 39.2548 67.392 39.3685C67.396 39.4124 67.4129 39.4542 67.4405 39.4886C67.4715 39.5288 67.5066 39.5656 67.5453 39.5985C67.5791 39.6295 67.6207 39.6509 67.6657 39.6604C67.7106 39.6698 67.7573 39.667 67.8008 39.6521C67.9104 39.6258 68.0137 39.578 68.1048 39.5116C68.0845 39.5744 68.0512 39.6323 68.0072 39.6816C67.9632 39.7309 67.9095 39.7704 67.8493 39.7978C67.7827 39.8301 67.7086 39.8442 67.6347 39.8386C67.5584 39.8291 67.487 39.7961 67.4303 39.7441C67.3784 39.6995 67.3351 39.6458 67.3026 39.5857C67.2639 39.5194 67.2486 39.442 67.2591 39.366C67.2789 39.2389 67.3389 39.1216 67.4303 39.0312Z" fill="#CC7586"/>
<path d="M67.9027 39.6973C67.8945 39.7956 67.9093 39.8945 67.9462 39.986C67.9819 40.0604 68.0424 40.12 68.1174 40.1546C68.187 40.1922 68.2659 40.209 68.3448 40.2032C68.3842 40.1849 68.4226 40.1645 68.4597 40.1418C68.5083 40.1188 68.5543 40.0907 68.6054 40.0703C68.5839 40.1209 68.5583 40.1696 68.5287 40.2159C68.4954 40.2683 68.4519 40.3134 68.401 40.3488C68.3409 40.3711 68.2767 40.3802 68.2128 40.3754C68.1489 40.3705 68.0868 40.352 68.0307 40.3209C67.9747 40.2898 67.926 40.247 67.888 40.1954C67.85 40.1438 67.8237 40.0845 67.8108 40.0217C67.8026 39.9642 67.8066 39.9057 67.8224 39.8498C67.8383 39.7939 67.8656 39.7419 67.9027 39.6973Z" fill="#CC7586"/>
<path d="M68.4571 40.2473C68.4733 40.3339 68.5172 40.4128 68.5822 40.4723C68.6472 40.5317 68.7297 40.5685 68.8174 40.5769C68.8947 40.5908 68.9743 40.5828 69.0473 40.5539C69.0851 40.5416 69.1212 40.5244 69.1546 40.5028C69.1904 40.4824 69.2287 40.4543 69.2645 40.4287C69.5609 40.2141 69.8521 39.979 70.169 39.7695C69.9526 40.0846 69.6838 40.3603 69.3743 40.5846C69.2937 40.6549 69.1968 40.704 69.0925 40.7277C68.9881 40.7513 68.8796 40.7487 68.7765 40.72C68.6761 40.6845 68.5876 40.6216 68.521 40.5386C68.4887 40.4982 68.4662 40.4509 68.4551 40.4004C68.444 40.3499 68.4447 40.2975 68.4571 40.2473Z" fill="#CC7586"/>
<path d="M69.5328 15.2754C70.8104 15.8196 84.2753 21.1749 83.3504 25.4954C82.4254 29.816 72.2003 37.4043 72.2003 37.4043L69.6632 35.0921L77.1902 26.0908C77.1902 26.0908 68.4367 23.1193 67.2257 21.9235C66.0146 20.7278 65.312 19.9587 65.2098 18.1702C65.013 14.7542 68.2451 14.7312 69.5328 15.2754Z" fill="url(#paint2_linear_2341_8198)"/>
<path d="M74.9884 25.3248C73.762 24.9058 72.5458 24.4587 71.345 23.9732C70.1313 23.5022 68.9456 22.9622 67.7935 22.3559C67.507 22.1987 67.2344 22.0175 66.9785 21.8142C66.7195 21.6176 66.4729 21.4051 66.2401 21.178C65.75 20.7378 65.3955 20.167 65.2181 19.5326C65.0918 18.8903 65.1093 18.2281 65.2692 17.5934C65.3997 16.9565 65.6299 16.3443 65.9514 15.7793C65.6465 16.3505 65.4335 16.9661 65.3203 17.6036C65.1689 18.2305 65.1576 18.883 65.2871 19.5147C65.4676 20.1347 65.8223 20.6898 66.3091 21.1142C66.5415 21.3376 66.7882 21.5459 67.0475 21.7376C67.3018 21.9335 67.5708 22.1095 67.8523 22.2639C68.9928 22.8751 70.1675 23.4202 71.3705 23.8966C71.971 24.1521 72.5714 24.382 73.1769 24.6171C73.7825 24.8521 74.3829 25.0872 74.9884 25.3248Z" fill="#2A45A9"/>
<path d="M57.8308 14.6914C57.7721 15.0794 57.7541 15.4724 57.7772 15.8642C57.7914 16.2552 57.8673 16.6415 58.002 17.0088C58.1329 17.3779 58.3736 17.698 58.6919 17.9261C58.8538 18.0335 59.0314 18.1153 59.2182 18.1688C59.406 18.218 59.599 18.2446 59.7931 18.248C60.5806 18.2792 61.352 18.019 61.9597 17.5172C62.5435 16.9884 62.9442 16.2879 63.1044 15.5167C62.9661 16.2987 62.5714 17.0124 61.9827 17.5453C61.3737 18.063 60.5916 18.3313 59.7931 18.2965C59.5945 18.2929 59.3971 18.2645 59.2054 18.2122C58.917 18.1319 58.6531 17.981 58.4376 17.7732C58.2222 17.5653 58.0619 17.307 57.9714 17.0216C57.7273 16.2694 57.6789 15.4675 57.8308 14.6914Z" fill="#2A45A9"/>
<path d="M43.776 20.9551L42.082 24.2204" stroke="#2A45A9" stroke-width="0.0763573" stroke-miterlimit="10"/>
<path d="M72.4586 36.956L70.1387 34.7715" stroke="#2A45A9" stroke-width="0.0763573" stroke-miterlimit="10"/>
<path d="M75.8652 25.625L76.808 25.9469C77.1249 26.0542 77.4366 26.1641 77.7559 26.2586C78.0684 26.365 78.3877 26.4504 78.7115 26.5141C78.8725 26.5423 79.0411 26.5525 79.2046 26.5678L79.7029 26.6266C79.3682 26.6266 79.0386 26.6266 78.7013 26.5959C78.3695 26.5441 78.0423 26.4664 77.7227 26.3634C77.4059 26.2586 77.0916 26.1488 76.7799 26.0261C76.4682 25.9035 76.1642 25.7681 75.8652 25.625Z" fill="#2A45A9"/>
<path d="M77.1889 26.0898C75.9506 27.6024 74.7046 29.109 73.4509 30.6097L69.7002 35.1193V35.0477L72.2322 37.3677H72.1734L75.4464 34.5929L78.6171 31.9505L77.3161 33.1776L75.5322 34.74L72.2296 37.4367L72.2015 37.4622L72.1734 37.4367L69.6184 35.1371L69.5801 35.1039L69.6133 35.0656L73.3896 30.579C74.6518 29.0698 75.9182 27.5735 77.1889 26.0898Z" fill="#2A45A9"/>
<path d="M51.4811 25.5144L47.4416 23.0718L43.4123 20.6139L43.4711 20.5986L41.6698 24.0785V24.0172C42.4772 24.8425 43.2974 25.6601 44.1328 26.4598C44.9683 27.2595 45.814 28.0439 46.6879 28.79C47.1324 29.1579 47.5744 29.5309 48.0522 29.8554C48.5315 30.1758 49.0298 30.4668 49.5444 30.7267C50.5664 31.2734 51.602 31.7844 52.6513 32.2597C51.5901 31.7981 50.5468 31.2998 49.5214 30.765C49.0028 30.5067 48.5003 30.2175 48.0165 29.8988C47.5361 29.5743 47.089 29.2039 46.6419 28.8385C45.7553 28.095 44.9019 27.3055 44.0639 26.516C43.2258 25.7265 42.398 24.9115 41.5881 24.0836L41.5625 24.0555L41.5778 24.0223L43.3996 20.5526L43.42 20.5117L43.4583 20.5347L47.4748 23.0131L51.4811 25.5144Z" fill="#2A45A9"/>
<path d="M68.1699 22.5488L71.2928 33.1351C71.2928 33.1351 71.2928 29.3026 70.9964 26.3362C70.7715 24.0674 70.6821 23.6816 70.6821 23.6816L68.1699 22.5488Z" fill="#2B45A9"/>
<defs>
<linearGradient id="paint0_linear_2341_8198" x1="44.8527" y1="22.0952" x2="52.3976" y2="31.6399" gradientUnits="userSpaceOnUse">
<stop stop-color="#95A9F2"/>
<stop offset="0.944872" stop-color="#5071E9"/>
</linearGradient>
<linearGradient id="paint1_linear_2341_8198" x1="68.6697" y1="42.1832" x2="55.2163" y2="19.3669" gradientUnits="userSpaceOnUse">
<stop stop-color="#5071E9"/>
<stop offset="1" stop-color="#95A9F2"/>
</linearGradient>
<linearGradient id="paint2_linear_2341_8198" x1="65.7615" y1="16.3674" x2="81.7602" y2="25.3667" gradientUnits="userSpaceOnUse">
<stop stop-color="#95A9F2"/>
<stop offset="1" stop-color="#5071E9"/>
</linearGradient>
</defs>
</svg>
