<svg width="60" height="61" viewBox="0 0 60 61" fill="none" xmlns="http://www.w3.org/2000/svg">
<path d="M23.2891 37.853V48.4049C23.2891 49.6976 24.3411 50.7435 25.6338 50.7359L35.5465 50.678C36.8119 50.6706 37.8403 49.655 37.8635 48.3898L38.063 37.5542C38.0719 37.0713 38.2305 36.6031 38.517 36.2143L41.1916 32.5845C41.4868 32.1839 41.646 31.7 41.646 31.2024V26.6987C41.646 25.5627 41.1781 24.8339 40.6933 24.4129C40.3034 24.0743 39.9463 23.6254 39.9463 23.109C39.9463 22.4631 39.4227 21.9395 38.7768 21.9395H22.1358C20.8483 21.9395 19.8047 22.9831 19.8047 24.2705V31.1817C19.8047 31.639 19.9392 32.0861 20.1914 32.4675L22.9024 36.5672C23.1546 36.9486 23.2891 37.3957 23.2891 37.853Z" fill="#FDC097"/>
<rect x="16.0272" y="23.0057" width="27.2683" height="6.70173" fill="#33CBBF" stroke="#0D2887" stroke-width="0.777021"/>
<rect x="54.6092" y="22.2401" width="5.00201" height="8.57142" rx="1.94255" fill="#33CBC0" stroke="#0D2887" stroke-width="0.777021"/>
<rect x="48.6619" y="14.9334" width="6.70173" height="22.3391" rx="1.94255" fill="#33CBC0" stroke="#0D2887" stroke-width="0.777021"/>
<rect x="42.8827" y="10.5135" width="6.02184" height="31.6876" rx="2.71957" fill="#33CBC0" stroke="#0D2887" stroke-width="0.777021"/>
<rect x="-0.388511" y="0.388511" width="5.00201" height="8.57142" rx="1.94255" transform="matrix(-1 0 0 1 5.00423 21.8516)" fill="#33CBC0" stroke="#0D2887" stroke-width="0.777021"/>
<rect x="-0.388511" y="0.388511" width="6.70173" height="22.3391" rx="1.94255" transform="matrix(-1 0 0 1 10.9515 14.5449)" fill="#33CBC0" stroke="#0D2887" stroke-width="0.777021"/>
<rect x="-0.388511" y="0.388511" width="6.02184" height="31.6876" rx="2.71957" transform="matrix(-1 0 0 1 16.7308 10.125)" fill="#33CBC0" stroke="#0D2887" stroke-width="0.777021"/>
<rect x="19.5488" y="17.6035" width="5.26912" height="8.15864" rx="2.63456" fill="#FFB787"/>
<rect x="24.8184" y="16.9238" width="5.26912" height="8.83852" rx="2.63456" fill="#FFB787"/>
<path d="M41.5598 31.3283C41.5456 31.4989 41.485 31.6826 41.3887 31.8751C40.5938 33.4661 38.1705 32.6114 37.8217 30.8673C37.6207 29.8624 36.7665 29.1199 35.7433 29.0609L33.0116 28.9033C31.799 28.8333 30.8516 27.8297 30.8516 26.6151C30.8516 25.3635 31.8555 24.3434 33.1069 24.3233L39.2416 24.2252C40.4901 24.2052 41.5289 25.1726 41.5618 26.4208C41.6125 28.3481 41.6236 30.5626 41.5598 31.3283Z" fill="#FDC097"/>
<rect x="35.0996" y="16.7539" width="5.26912" height="8.83852" rx="2.63456" fill="#FFB787"/>
<rect x="30.002" y="15.6504" width="5.26912" height="10.1133" rx="2.63456" fill="#FFB787"/>
</svg>
