<svg width="122" height="69" viewBox="0 0 122 69" fill="none" xmlns="http://www.w3.org/2000/svg">
<ellipse cx="57.8582" cy="55.9966" rx="57.8582" ry="12.5786" fill="#749EFF"/>
<path d="M23.4301 56.5023C17.3778 57.9243 13.7075 56.2137 12.6289 55.1807C12.6289 55.1807 20.012 53.0842 23.4301 53.4488C26.8482 53.8134 29.4825 55.0804 23.4301 56.5023Z" fill="#578AFF"/>
<path d="M33.2722 57.7786C31.2669 56.7759 30.9631 55.0441 30.9023 54.3149C36.9486 54.8314 50.0438 56.94 52.5959 57.2317C55.1481 57.5233 64.9011 48.6636 69.4586 44.1973C70.4309 44.4707 72.2113 45.5827 71.555 47.8432C70.7347 50.6689 57.9738 59.2369 53.872 60.2396C49.7703 61.2422 35.2775 58.7812 33.2722 57.7786Z" fill="#578AFF"/>
<path d="M114.533 53.8257C114.41 55.7661 104.233 57.4972 95.1633 57.8775C86.094 58.2579 77.7537 55.8617 77.4771 53.8257C77.1461 51.3891 84.8387 47.3418 94.7531 47.3418C104.668 47.3418 114.655 51.8853 114.533 53.8257Z" fill="#578AFF"/>
<path d="M104.148 31.3974L103.984 31.3195L104.148 31.3974ZM109.642 21.5046L109.52 21.3695L109.642 21.5046ZM113.799 19.7871C113.895 19.7568 113.948 19.6544 113.918 19.5584C113.888 19.4624 113.785 19.4091 113.689 19.4395L113.799 19.7871ZM94.9308 40.0694C96.113 39.4457 97.9951 38.2714 99.811 36.7698C101.624 35.2706 103.388 33.4316 104.313 31.4754L103.984 31.3195C103.092 33.204 101.377 35.0021 99.5787 36.4888C97.7834 37.9733 95.9224 39.134 94.7606 39.7469L94.9308 40.0694ZM104.313 31.4754C104.884 30.2697 105.302 29.238 105.661 28.3224C106.02 27.4048 106.318 26.6112 106.65 25.8709C107.309 24.4006 108.1 23.1488 109.765 21.6396L109.52 21.3695C107.815 22.9154 106.995 24.2096 106.317 25.7217C105.98 26.4726 105.678 27.2793 105.321 28.1893C104.964 29.1014 104.549 30.1246 103.984 31.3195L104.313 31.4754ZM109.765 21.6396C111.411 20.1467 113.225 19.9687 113.799 19.7871L113.689 19.4395C113.19 19.5973 111.244 19.8059 109.52 21.3695L109.765 21.6396Z" fill="#8FB73E"/>
<path d="M102.455 21.5502C102.055 24.309 103.718 27.0411 105.008 28.3266C105.183 28.501 105.474 28.3681 105.497 28.1224C105.665 26.3224 106.435 22.8256 105.45 20.0925C104.868 18.476 103.914 17.9041 103.144 17.3817C102.913 17.2252 102.574 17.4204 102.608 17.6968C102.697 18.4032 102.746 19.5451 102.455 21.5502Z" fill="#8FB73E"/>
<path d="M107.567 17.2442C107.316 18.9779 108.361 20.6947 109.172 21.5025C109.282 21.6121 109.465 21.5286 109.479 21.3742C109.585 20.2431 110.068 18.0457 109.45 16.3283C109.084 15.3124 108.484 14.953 108 14.6248C107.855 14.5264 107.642 14.6491 107.664 14.8228C107.72 15.2667 107.75 15.9843 107.567 17.2442Z" fill="#8FB73E"/>
<path d="M114.688 14.9111C113.497 16.2025 113.387 18.205 113.598 19.326C113.627 19.4782 113.826 19.5119 113.925 19.3925C114.654 18.5171 116.3 16.9722 116.763 15.2074C117.037 14.1641 116.746 13.5318 116.532 12.9901C116.468 12.8276 116.222 12.8092 116.142 12.9648C115.936 13.3628 115.554 13.9726 114.688 14.9111Z" fill="#8FB73E"/>
<path d="M118.281 20.9723C116.562 21.3543 114.76 20.4543 113.885 19.7143C113.766 19.6137 113.836 19.4235 113.989 19.3973C115.117 19.2051 117.285 18.5581 119.056 19.038C120.1 19.321 120.508 19.8845 120.874 20.3374C120.984 20.474 120.878 20.6983 120.703 20.6902C120.253 20.6694 119.53 20.6949 118.281 20.9723Z" fill="#8FB73E"/>
<path d="M112.999 28.4357C110.563 29.8144 107.397 29.2809 105.719 28.5607C105.491 28.4628 105.507 28.1417 105.728 28.0306C107.354 27.215 110.347 25.2251 113.267 25.1337C114.99 25.0798 115.875 25.7481 116.645 26.2675C116.877 26.424 116.821 26.8142 116.55 26.8833C115.855 27.0603 114.768 27.4342 112.999 28.4357Z" fill="#8FB73E"/>
<path d="M114.149 23.112C112.436 23.5208 110.619 22.6491 109.733 21.9229C109.613 21.8241 109.679 21.6329 109.832 21.6043C110.957 21.3945 113.114 20.7136 114.893 21.1658C115.941 21.4325 116.358 21.9895 116.731 22.4367C116.844 22.5715 116.741 22.7975 116.565 22.7921C116.115 22.7783 115.393 22.8151 114.149 23.112Z" fill="#8FB73E"/>
<path d="M98.6653 29.0392L98.5207 29.131L98.6653 29.0392ZM92.2816 17.3664L92.1128 17.396L92.2816 17.3664ZM93.1417 12.167C93.1659 12.0755 93.1114 11.9817 93.0199 11.9576C92.9284 11.9334 92.8346 11.988 92.8105 12.0794L93.1417 12.167ZM101.456 43.611C101.578 42.0528 101.592 39.4563 101.24 36.7184C100.888 33.9839 100.168 31.0886 98.81 28.9474L98.5207 29.131C99.8392 31.2095 100.551 34.0461 100.9 36.7622C101.249 39.475 101.235 42.0478 101.115 43.5843L101.456 43.611ZM98.81 28.9474C97.9705 27.6241 97.2083 26.5602 96.524 25.6278C95.8384 24.6938 95.2353 23.8975 94.7071 23.101C93.6565 21.517 92.9067 19.9394 92.4503 17.3368L92.1128 17.396C92.5781 20.0492 93.3472 21.6707 94.4215 23.2904C94.9557 24.0959 95.5666 24.9027 96.2477 25.8306C96.93 26.7601 97.6871 27.817 98.5207 29.131L98.81 28.9474ZM92.4503 17.3368C91.9978 14.7566 92.9639 12.8402 93.1417 12.167L92.8105 12.0794C92.6515 12.681 91.6432 14.718 92.1128 17.396L92.4503 17.3368Z" fill="#8FB73E"/>
<path d="M87.8167 24.4875C90.3069 26.6253 94.0647 26.7109 96.1518 26.2503C96.4344 26.188 96.4864 25.8162 96.2577 25.639C94.5748 24.3357 91.5821 21.3659 88.2479 20.6101C86.2773 20.1634 85.1101 20.7432 84.1083 21.1728C83.8084 21.3014 83.7875 21.7607 84.0824 21.9003C84.84 22.259 86.0055 22.9327 87.8167 24.4875Z" fill="#8FB73E"/>
<path d="M86.7463 16.7214C88.3112 18.0648 90.6725 18.1186 91.9841 17.8292C92.1616 17.79 92.1943 17.5563 92.0506 17.445C90.9931 16.626 89.1125 14.7598 87.0173 14.2849C85.779 14.0042 85.0455 14.3685 84.416 14.6384C84.2275 14.7192 84.2144 15.0079 84.3997 15.0956C84.8758 15.321 85.6082 15.7443 86.7463 16.7214Z" fill="#8FB73E"/>
<path d="M88.8961 8.22052C89.4322 10.212 91.3529 11.5867 92.5995 12.0865C92.7683 12.1541 92.927 11.9795 92.8709 11.8065C92.4585 10.5341 91.9561 7.93279 90.4926 6.36008C89.6276 5.43051 88.8163 5.31835 88.1441 5.18672C87.9429 5.14732 87.7694 5.37842 87.8731 5.55529C88.1395 6.00971 88.5061 6.77207 88.8961 8.22052Z" fill="#8FB73E"/>
<path d="M97.1736 8.50466C96.4736 10.4446 94.4452 11.6547 93.1612 12.049C92.9874 12.1024 92.8439 11.9152 92.9141 11.7475C93.4309 10.5137 94.1481 7.96329 95.7374 6.51781C96.6768 5.66345 97.4945 5.61918 98.1754 5.54395C98.3792 5.52143 98.5328 5.76617 98.4148 5.93379C98.1115 6.36447 97.6827 7.09368 97.1736 8.50466Z" fill="#8FB73E"/>
<path d="M101.276 18.4347C101.118 21.7128 98.5971 24.5012 96.8281 25.7007C96.5886 25.8631 96.2828 25.6454 96.3113 25.3574C96.5213 23.2392 96.421 19.0243 98.1636 16.083C99.1936 14.3445 100.417 13.8953 101.418 13.4628C101.717 13.3333 102.065 13.6339 101.964 13.944C101.704 14.7409 101.392 16.0505 101.276 18.4347Z" fill="#8FB73E"/>
<path d="M96.7072 13.9358C96.0378 15.8865 94.0287 17.1284 92.7511 17.5428C92.5782 17.5989 92.4317 17.414 92.4993 17.2452C92.9966 16.0035 93.6736 13.4421 95.2399 11.9718C96.1657 11.1027 96.9826 11.0456 97.6622 10.9597C97.8656 10.9339 98.0231 11.1762 97.9077 11.3457C97.6112 11.7811 97.194 12.517 96.7072 13.9358Z" fill="#8FB73E"/>
<path d="M51.3613 36.0488C46.111 36.0488 31.2513 48.0008 30.021 49.163C28.7906 50.3251 28.574 52.638 30.9438 54.8256C33.3135 57.0132 46.8038 59.2008 51.3613 58.8362C55.9187 58.4716 65.5806 52.2735 69.0443 49.1744C72.508 46.0753 71.5965 42.6116 70.685 39.5125C69.7735 36.4134 57.924 36.0488 51.3613 36.0488Z" fill="#F5A6A7"/>
<mask id="mask0_2341_8292" style="mask-type:alpha" maskUnits="userSpaceOnUse" x="29" y="36" width="43" height="23">
<path d="M51.3623 36.0488C46.1121 36.0488 30.9448 47.3514 29.8511 49.1744C28.7573 50.9974 28.5751 52.638 30.9448 54.8256C33.3146 57.0132 46.8049 59.2008 51.3623 58.8362C55.9198 58.4716 65.5817 52.2735 69.0454 49.1744C72.509 46.0753 71.5975 42.6116 70.6861 39.5125C69.7746 36.4134 57.9251 36.0488 51.3623 36.0488Z" fill="#F5A6A7"/>
</mask>
<g mask="url(#mask0_2341_8292)">
<path d="M54.0737 55.3946C54.0737 56.853 53.823 57.8328 52.5925 58.7899L55.76 57.9467C64.1002 54.8249 72.3446 46.5348 72.4175 46.0973C72.4905 45.6598 71.5668 41.0461 70.5946 38.8281C69.4096 40.3549 65.6269 44.0464 62.1632 46.0973C58.6995 48.1482 53.2685 50.4953 50.8379 51.5891C51.6582 52.136 54.0737 53.9362 54.0737 55.3946Z" fill="#E28687"/>
<path d="M52.6842 52.5471C49.0839 49.2431 32.654 47.2603 30.2841 48.9579C27.9143 50.6554 28.9909 54.8796 32.2667 56.1701C35.5426 57.4607 49.6307 59.839 51.6816 59.4288C53.7325 59.0187 56.2846 55.851 52.6842 52.5471Z" fill="#FFD9D9"/>
</g>
<path d="M31.7188 50.4963C38.7828 49.9494 52.1363 52.0002 51.8172 55.1905C51.5876 57.4867 31.901 55.1449 32.1745 52.5471C32.3214 51.1517 42.9301 52.5016 48.1257 54.5069" stroke="#E28687" stroke-width="0.364598" stroke-linecap="round"/>
<path d="M50.705 26.0234C45.4548 26.0234 30.5951 37.9754 29.3647 39.1376C28.1343 40.2997 27.9178 42.6127 30.2875 44.8002C32.6572 46.9878 46.1475 49.1754 50.705 48.8108C55.2625 48.4462 64.9243 42.2481 68.388 39.149C71.8517 36.0499 70.9402 32.5862 70.0287 29.4871C69.1172 26.388 57.2678 26.0234 50.705 26.0234Z" fill="#F5A6A7"/>
<mask id="mask1_2341_8292" style="mask-type:alpha" maskUnits="userSpaceOnUse" x="28" y="26" width="43" height="23">
<path d="M50.7061 26.0234C45.4559 26.0234 30.2886 37.326 29.1948 39.149C28.101 40.972 27.9189 42.6127 30.2886 44.8002C32.6583 46.9878 46.1486 49.1754 50.7061 48.8108C55.2636 48.4462 64.9254 42.2481 68.3891 39.149C71.8528 36.0499 70.9413 32.5862 70.0298 29.4871C69.1183 26.388 57.2689 26.0234 50.7061 26.0234Z" fill="#F5A6A7"/>
</mask>
<g mask="url(#mask1_2341_8292)">
<path d="M53.4174 45.3692C53.4174 46.8276 53.1668 47.8074 51.9363 48.7645L55.1037 47.9214C63.4439 44.7995 71.6884 36.5094 71.7613 36.0719C71.8342 35.6344 70.9106 31.0207 69.9383 28.8027C68.7534 30.3295 64.9707 34.021 61.507 36.0719C58.0433 38.1228 52.6123 40.4699 50.1816 41.5637C51.002 42.1106 53.4174 43.9108 53.4174 45.3692Z" fill="#E28687"/>
<path d="M52.028 42.5217C48.4276 39.2177 31.9977 37.2349 29.6279 38.9325C27.258 40.6301 28.3346 44.8542 31.6105 46.1447C34.8864 47.4353 48.9745 49.8136 51.0254 49.4034C53.0762 48.9933 55.6284 45.8256 52.028 42.5217Z" fill="#FFD9D9"/>
</g>
<path d="M31.0625 40.4709C38.1266 39.9241 51.48 41.9749 51.161 45.1651C50.9314 47.4614 31.2448 45.1195 31.5182 42.5218C31.6651 41.1263 42.2739 42.4762 47.4694 44.4815" stroke="#E28687" stroke-width="0.364598" stroke-linecap="round"/>
<path d="M64.3208 52.638C64.6854 51.1492 65.05 46.932 63.5916 41.9735C61.7686 35.7753 56.5731 33.132 53.2005 32.0382C49.828 30.9444 43.2423 29.0298 39.0496 31.1267C38.1654 31.5689 37.3253 32.4028 37.0215 33.2232" stroke="#C4855B" stroke-width="0.364598" stroke-linecap="round"/>
<path d="M65.0264 52.3426C65.391 50.8538 65.5961 45.7022 64.1377 40.7436C62.3147 34.5455 56.2135 32.069 53.3147 31.1288C50.4159 30.1886 44.426 29.4351 43.0822 29.578C41.7384 29.7209 40.5983 30.0565 39.7324 30.8312" stroke="#C4855B" stroke-width="0.364598" stroke-linecap="round"/>
<path d="M11.1973 40.5268C11.1973 39.1755 12.2927 38.0801 13.644 38.0801H24.0427C25.394 38.0801 26.4894 39.1755 26.4894 40.5268V53.3666C26.4894 54.0759 26.1707 54.7452 25.5219 55.032C24.4426 55.5092 22.3679 56.1248 18.8467 56.1248C15.3261 56.1248 13.249 55.5095 12.1676 55.0323C11.5173 54.7453 11.1973 54.0748 11.1973 53.364V40.5268Z" fill="#FFF1D6"/>
<rect x="22.7305" y="41.6582" width="1.1278" height="10.3987" rx="0.563899" fill="#FFE9BC"/>
<path fill-rule="evenodd" clip-rule="evenodd" d="M11.1973 53.3275V53.3373C11.1973 54.0482 11.5173 54.7187 12.1676 55.0057C13.249 55.4828 15.3261 56.0982 18.8467 56.0982C22.3679 56.0982 24.4426 55.4826 25.5219 55.0054C26.1707 54.7186 26.4894 54.0493 26.4894 53.3399V40.5002C26.4894 39.272 25.5844 38.2551 24.4049 38.0801C24.4207 38.1924 24.4289 38.3072 24.4289 38.4239V51.2636C24.4289 51.9729 24.1101 52.6422 23.4613 52.9291C22.382 53.4063 20.3073 54.0219 16.7861 54.0219C14.2074 54.0219 12.4031 53.6917 11.1973 53.3275Z" fill="#FFE9BC"/>
<ellipse cx="18.8434" cy="40.1436" rx="7.64609" ry="3.27253" fill="#FFF1D6"/>
<mask id="mask2_2341_8292" style="mask-type:alpha" maskUnits="userSpaceOnUse" x="11" y="37" width="16" height="6">
<ellipse cx="18.8434" cy="39.8531" rx="7.64609" ry="2.26324" fill="#FFF1D6"/>
</mask>
<g mask="url(#mask2_2341_8292)">
<ellipse cx="18.8438" cy="41.1704" rx="6.02344" ry="2.07669" fill="#FFDF9F"/>
</g>
<path d="M17.8965 35.6781C17.596 37.1433 18.5632 38.8233 18.9232 39.3523C19.0892 38.9027 20.2991 37.6692 20.4282 36.4694C20.5751 35.1045 20.0348 33.6135 19.0712 32.4175C19.0255 33.1558 18.272 33.8465 17.8965 35.6781Z" fill="#FFC757"/>
<path d="M18.9227 40.2604C18.8504 40.0807 18.7518 39.5879 18.9359 39.0546C19.12 38.5213 19.0244 38.0532 18.9536 37.8858" stroke="black" stroke-width="0.244675" stroke-linecap="round"/>
<path d="M106.972 35.3086C107.046 38.7166 98.113 43.6258 87.4359 43.8934C76.7589 44.1609 68.4647 38.916 68.3911 35.5062C68.3175 32.0965 76.6407 27.1566 87.3178 26.8942C97.9949 26.6318 106.898 31.8989 106.972 35.3086Z" fill="#C9CEFF"/>
<path d="M106.968 35.907C106.968 35.7672 106.954 35.6309 106.939 35.4946C106.597 38.889 97.8631 43.5733 87.4677 43.834C76.9118 44.0998 68.6266 38.8924 68.4132 35.4844C68.3963 35.6594 68.3889 35.8351 68.391 36.0109C68.391 46.9165 77.4393 56.3891 88.0959 56.1182C98.7526 55.8472 107.202 46.7973 106.968 35.907Z" fill="#D5D9FD"/>
<path d="M91.3614 53.4955C85.8658 54.9831 79.9758 53.7323 75.1426 51.0928C78.565 54.3024 83.38 56.486 88.2525 56.3633C98.4959 56.106 106.481 48.0475 106.901 37.7246C104.926 45.3279 99.3496 51.3348 91.3614 53.4955Z" fill="#BAC1FF"/>
<path fill-rule="evenodd" clip-rule="evenodd" d="M70.4394 37.5286C71.6827 35.1581 75.5943 30.3059 86.033 29.9776C96.4236 29.6508 102.122 33.5278 104.87 37.3162C101.788 40.0964 94.7639 42.7392 86.8389 42.7474C79.6878 42.7556 73.6402 40.2381 70.4413 37.5348C70.4406 37.5327 70.44 37.5307 70.4394 37.5286Z" fill="#DEFBFF"/>
<path d="M76.5506 32.4191C75.6877 33.2181 76.3369 33.8574 77.9351 35.04C76.5287 35.3596 75.4713 36.3969 76.0393 37.5331C76.5506 38.5559 78.8306 37.3839 79.1076 36.4464C79.4486 37.2987 79.1076 39.3905 80.9615 38.8755C81.882 38.6198 80.8976 36.8725 80.1304 36.1267C81.068 36.2972 83.7334 36.6887 83.2628 35.04C82.9049 33.7863 81.5456 34.5073 80.395 35.04C81.1408 34.2942 82.5595 32.7387 80.9615 31.9716C79.7833 31.4061 79.2568 33.1835 79.1076 34.3342C78.7879 32.9278 77.4136 31.62 76.5506 32.4191Z" fill="#FFCE6B"/>
<path d="M84.0134 35.0803C83.3399 35.704 83.8466 36.2029 85.094 37.126C83.9963 37.3755 83.171 38.1851 83.6143 39.0719C84.0134 39.8703 85.793 38.9555 86.0092 38.2237C86.2754 38.889 86.0092 40.5216 87.4562 40.1197C88.1747 39.9201 87.4063 38.5563 86.8076 37.9742C87.5394 38.1073 89.6198 38.4128 89.2525 37.126C88.9731 36.1474 87.9122 36.7102 87.014 37.126C87.5962 36.5439 88.7035 35.3297 87.4562 34.731C86.5366 34.2896 86.1257 35.677 86.0092 36.5751C85.7597 35.4774 84.687 34.4566 84.0134 35.0803Z" fill="#FFCE6B"/>
</svg>
