<svg width="109" height="100" viewBox="0 0 109 100" fill="none" xmlns="http://www.w3.org/2000/svg">
<rect y="14.918" width="66.0017" height="85.8461" rx="4.26926" transform="rotate(-7.64869 0 14.918)" fill="#BAD5FF"/>
<path d="M41.5003 14.5205L23.3715 16.873C21.0986 17.1686 18.9947 15.5493 18.6997 13.2722L18.6698 13.0336C18.3742 10.7608 19.9935 8.65679 22.2706 8.36183L40.3994 6.00935C42.6722 5.7137 44.7762 7.333 45.0712 9.61007L45.101 9.84866C45.396 12.1257 43.7774 14.2255 41.5003 14.5205Z" fill="#4187F7"/>
<path d="M30.6646 2.04039C27.8213 2.41066 25.8125 5.01291 26.1828 7.85627C26.5531 10.6996 29.1553 12.7084 31.9987 12.3381C34.842 11.9678 36.8508 9.36557 36.4805 6.52222C36.1151 3.67534 33.508 1.67012 30.6646 2.04039ZM31.6575 9.6856C30.2779 9.8647 29.0109 8.88975 28.8318 7.51018C28.6527 6.1306 29.6276 4.86356 31.0072 4.68446C32.3868 4.50536 33.6538 5.48031 33.8329 6.85988C34.0113 8.24367 33.0371 9.5065 31.6575 9.6856Z" fill="#4187F7"/>
<ellipse cx="20.0859" cy="34.148" rx="7.57142" ry="7.57144" transform="rotate(-6.27352 20.0859 34.148)" fill="#4187F7"/>
<rect x="18.3574" y="30.2715" width="2.5901" height="8.08805" rx="1.17643" transform="rotate(-6.27352 18.3574 30.2715)" fill="white"/>
<rect x="16.4805" y="35.9805" width="2.85007" height="7.56809" rx="1.17643" transform="rotate(-96.2735 16.4805 35.9805)" fill="white"/>
<line x1="32.2564" y1="25.778" x2="57.4217" y2="22.6815" stroke="#4187F7" stroke-width="0.853853" stroke-linecap="round"/>
<path d="M32.9727 31.2695L58.138 28.173" stroke="#4187F7" stroke-width="0.853853" stroke-linecap="round"/>
<line x1="33.6997" y1="36.8698" x2="58.8651" y2="33.7733" stroke="#4187F7" stroke-width="0.853853" stroke-linecap="round"/>
<line x1="13.2194" y1="54.513" x2="41.8303" y2="50.8848" stroke="#4187F7" stroke-width="0.853853" stroke-linecap="round"/>
<line x1="14.0808" y1="61.2376" x2="42.6916" y2="57.6094" stroke="#4187F7" stroke-width="0.853853" stroke-linecap="round"/>
<line x1="14.9421" y1="67.9603" x2="43.5529" y2="64.3321" stroke="#4187F7" stroke-width="0.853853" stroke-linecap="round"/>
<line x1="15.8034" y1="74.6849" x2="44.4142" y2="71.0567" stroke="#4187F7" stroke-width="0.853853" stroke-linecap="round"/>
<path d="M46.835 58.3499L46.8142 57.886C46.563 52.2988 50.8887 47.5659 56.4759 47.3147V47.3147C62.0631 47.0635 66.796 51.3892 67.0472 56.9764L67.1518 59.305C67.4516 65.9736 73.1006 71.1365 79.7692 70.8367V70.8367C86.4378 70.5369 91.6007 64.8879 91.3009 58.2194L90.8245 47.6216" stroke="#0054A6" stroke-width="1.96368" stroke-linecap="round" stroke-linejoin="round"/>
<ellipse cx="46.8484" cy="58.7625" rx="1.47327" ry="1.69994" transform="rotate(177.426 46.8484 58.7625)" fill="#11C1D8"/>
<ellipse cx="90.5632" cy="46.7976" rx="1.47327" ry="1.69994" transform="rotate(177.426 90.5632 46.7976)" fill="#11C1D8"/>
<ellipse cx="47.8172" cy="66.5847" rx="7.30546" ry="7.30548" transform="rotate(177.426 47.8172 66.5847)" fill="#44DEF2"/>
<ellipse cx="47.8162" cy="66.5862" rx="4.96397" ry="4.96398" transform="rotate(177.426 47.8162 66.5862)" fill="#F1F5FF"/>
<path d="M81.7582 3.61074V3.61074C75.9924 3.86995 71.5285 8.75415 71.7877 14.5199L72.5455 31.3758C72.8843 38.9134 79.2694 44.749 86.8069 44.4101L93.3701 44.1151C100.908 43.7762 106.743 37.3912 106.404 29.8537L105.596 11.8691C105.365 6.72667 101.008 2.74531 95.8661 2.9765V2.9765" stroke="#0054A6" stroke-width="1.70771" stroke-linecap="round"/>
<path d="M72.0332 19.9824L72.5455 31.3774C72.8843 38.9149 79.2694 44.7505 86.8069 44.4117L90.0885 44.2641L93.3701 44.1166C100.908 43.7777 106.743 37.3927 106.404 29.8552L105.892 18.4602" stroke="#44DEF2" stroke-width="3.41541" stroke-linecap="round"/>
<ellipse cx="82.2814" cy="3.58847" rx="2.56156" ry="2.56156" transform="rotate(-2.57408 82.2814 3.58847)" fill="#0054A6"/>
<ellipse cx="94.6486" cy="3.03183" rx="2.56156" ry="2.56156" transform="rotate(-2.57408 94.6486 3.03183)" fill="#0054A6"/>
</svg>
