<svg width="61" height="61" viewBox="0 0 61 61" fill="none" xmlns="http://www.w3.org/2000/svg">
<path d="M28.9654 44.0702C34.834 47.8745 41.7791 49.5087 50.7874 46.7523C59.7956 43.9959 61.37 35.9549 60.1285 31.1266C58.887 26.2983 54.3439 20.2311 48.9701 18.6951C43.5964 17.1591 33.4126 19.9897 30.039 23.0114C23.1778 29.1529 23.0969 40.2686 28.9654 44.0702Z" fill="#FF7216"/>
<path d="M28.7974 41.6511C34.0393 45.0469 40.2437 46.506 48.2893 44.0388C56.335 41.5716 57.7414 34.3928 56.6319 30.0818C55.5223 25.7708 51.462 20.3483 46.664 18.9741C41.866 17.5998 32.7678 20.1307 29.754 22.8287C23.6276 28.3256 23.5556 38.2554 28.7974 41.6511Z" fill="#FF9A26"/>
<path d="M28.3392 34.0317C29.4398 34.3288 31.4759 34.5623 32.6934 32.4108C33.9109 30.2593 36.4689 27.8849 37.9742 26.333C39.4796 24.781 36.8857 21.3508 33.5601 22.4464C30.2345 23.5421 26.411 26.4072 26.8489 30.9013C27.0618 33.1005 28.3392 34.0317 28.3392 34.0317Z" fill="#FBAF32"/>
<path d="M44.2746 20.9272C44.4501 21.0447 44.5602 21.143 44.6241 21.2182C44.6464 21.2444 44.6606 21.265 44.6697 21.2799C44.6464 21.3021 44.6012 21.3367 44.5164 21.3818C44.2849 21.505 43.891 21.6247 43.3205 21.7164C42.7589 21.8066 42.0591 21.8648 41.2384 21.8837C40.435 21.9008 39.9764 21.7921 39.7428 21.6702C39.6319 21.6124 39.5904 21.5614 39.5758 21.5375C39.5636 21.5175 39.558 21.4978 39.561 21.4659C39.5689 21.3815 39.6429 21.2161 39.8546 21.0321C40.0558 20.8572 40.3292 20.7137 40.6159 20.6516C40.7921 20.6134 40.9554 20.5759 41.1091 20.5406C41.6434 20.4179 42.0608 20.3221 42.495 20.3182C43.0096 20.3135 43.5529 20.4445 44.2746 20.9272ZM44.6919 21.2509C44.6928 21.251 44.6916 21.2548 44.686 21.2621C44.6883 21.2544 44.6911 21.2508 44.6919 21.2509Z" fill="#FF7216" stroke="#CB580D" stroke-width="0.983789"/>
<path d="M43.7805 20.8543C43.7805 20.8543 42.674 15.6731 47.6549 13.3147C52.6358 10.9563 52.8068 10.4416 55.1218 10.3965C57.4368 10.3514 58.9512 10.7016 58.9842 11.0942C59.0172 11.4869 58.5374 11.211 58.2165 11.7654C57.8956 12.3199 58.3664 16.2568 55.1248 18.2836C51.8831 20.3104 51.4993 21.17 48.7764 21.4671C47.0795 21.6299 45.3634 21.4194 43.7805 20.8543Z" fill="#A2BB3A"/>
<path d="M42.0894 18.9204C42.0894 18.9204 40.614 19.6128 36.7726 18.4403C32.9312 17.2677 31.7527 15.0445 31.2099 13.3016C30.6671 11.5586 30.964 9.07812 31.2099 9.07812C31.4558 9.07812 34.0167 11.6037 35.4081 12.1688C36.7996 12.7338 39.7383 14.8694 40.1822 15.6176C40.626 16.3657 42.0894 18.9204 42.0894 18.9204Z" fill="#A2BB3A"/>
<path d="M41.696 18.136C41.843 16.133 42.0409 15.5335 42.2358 15.2019C42.4307 14.8703 43.6152 15.0878 43.5673 15.5229C43.5193 15.9579 42.9675 18.3986 42.8266 19.3139C42.6856 20.2291 43.0455 21.8209 42.3888 21.8209C41.732 21.8209 41.5491 20.1416 41.696 18.136Z" fill="#A2BB3A"/>
<path d="M42.3625 21.1423C42.9173 20.9984 43.4547 20.8065 43.9669 20.5692C44.5906 20.2509 44.8665 20.5692 44.8665 20.5692C44.296 20.8083 43.7017 21.0002 43.0912 21.1423C42.7686 21.1923 42.4508 21.2641 42.1406 21.3571L42.3625 21.1423Z" fill="#A2BB3A"/>
<path d="M44.4032 20.4269C45.5902 20.0608 46.7037 19.5298 47.7018 18.8537C48.7964 18.1029 49.72 17.1797 50.7246 16.3441C52.7458 14.6685 54.9462 13.1705 57.2948 11.8712C57.4538 11.7837 57.3098 11.5635 57.1509 11.6511C54.8904 12.8964 52.7661 14.3254 50.8055 15.9196C49.8219 16.7155 48.9223 17.6121 47.8997 18.3762C46.8411 19.1635 45.6301 19.7747 44.3252 20.1802C44.1513 20.2332 44.2263 20.4826 44.4032 20.4269Z" fill="#7E943A"/>
<path d="M47.0981 19.2269C47.1988 19.1633 47.2807 19.0793 47.337 18.9819C47.3934 18.8845 47.4225 18.7765 47.422 18.6671C47.442 18.3661 47.429 18.064 47.383 17.7651C47.347 17.4601 47.302 17.1523 47.287 16.8472C47.275 16.6847 47.275 16.5216 47.287 16.3591C47.302 16.2318 47.314 16.054 47.443 15.9718C47.5719 15.8895 47.443 15.6534 47.299 15.7489C47.2001 15.8239 47.1217 15.9178 47.0698 16.0235C47.0178 16.1292 46.9937 16.2439 46.9992 16.3591C46.9712 16.6641 46.9792 16.9708 47.0232 17.2744C47.0561 17.5821 47.1071 17.8872 47.1221 18.1949C47.1371 18.4231 47.2031 18.8635 46.9392 19.0067C46.7802 19.0916 46.9392 19.3144 47.0861 19.2269H47.0981Z" fill="#7E943A"/>
<path d="M50.7705 16.248C51.0315 15.7018 51.1312 15.1065 51.0602 14.5181C51.0494 13.9213 51.0379 13.2873 51.4215 12.771C51.524 12.6338 51.2728 12.5083 51.1673 12.6455C50.3675 13.7001 51.1505 15.0339 50.5194 16.1252C50.435 16.27 50.6861 16.3875 50.7705 16.248Z" fill="#7E943A"/>
<path d="M50.8361 16.1972C51.5258 15.8205 52.3565 15.8762 53.1332 15.8152C53.9877 15.7195 54.8215 15.5121 55.6071 15.1997C55.7781 15.1387 55.7061 14.892 55.5322 14.953C54.698 15.2838 53.8089 15.4934 52.8993 15.5738C52.1406 15.6162 51.3579 15.6136 50.6892 15.977C50.5303 16.0645 50.6892 16.2847 50.8361 16.1972Z" fill="#7E943A"/>
<path d="M54.7965 13.283C54.9043 12.7999 55.1009 12.3357 55.3783 11.9088C55.3974 11.8792 55.4024 11.8442 55.3923 11.8114C55.3822 11.7785 55.3577 11.7506 55.3243 11.7337C55.2909 11.7168 55.2513 11.7124 55.2142 11.7213C55.177 11.7303 55.1455 11.7519 55.1264 11.7815C54.8408 12.2284 54.6383 12.7129 54.5266 13.2167C54.4906 13.3759 54.7695 13.4448 54.8055 13.283H54.7965Z" fill="#7E943A"/>
<path d="M54.7544 13.348C55.2121 13.3821 55.6718 13.3909 56.1308 13.3745C56.3167 13.3745 56.3167 13.1093 56.1308 13.1093C55.6717 13.1247 55.212 13.115 54.7544 13.0801C54.7156 13.0808 54.6787 13.0947 54.6513 13.1189C54.6239 13.1431 54.6082 13.1758 54.6074 13.2101C54.6089 13.2439 54.625 13.2759 54.6523 13.2995C54.6796 13.3232 54.7161 13.3368 54.7544 13.3374V13.348Z" fill="#7E943A"/>
<path d="M32.514 11.6994C33.3297 13.201 34.1783 14.7529 35.5818 15.9016C36.9852 17.0503 38.8144 17.6472 40.6017 18.1672C40.7786 18.2176 40.8536 17.9709 40.6766 17.9205C38.8984 17.4032 37.0781 16.8116 35.6957 15.647C34.3643 14.5195 33.5486 13.0206 32.7629 11.5721C32.682 11.4235 32.4331 11.5509 32.514 11.6994Z" fill="#7E943A"/>
<path d="M34.6354 14.527C34.5535 13.9663 34.4885 13.4057 34.4405 12.845C34.4405 12.6832 34.1406 12.6805 34.1406 12.845C34.1886 13.4074 34.2546 13.9681 34.3385 14.527C34.3393 14.5605 34.3547 14.5925 34.3815 14.6163C34.4084 14.64 34.4445 14.6536 34.4825 14.6543C34.5545 14.6543 34.6384 14.5959 34.6264 14.527H34.6354Z" fill="#7E943A"/>
<path d="M34.2724 14.3009C33.7986 14.1311 33.3308 13.9427 32.875 13.7358C32.7101 13.6615 32.5751 13.8817 32.731 13.956C33.2088 14.1735 33.6966 14.3707 34.1944 14.5476C34.2318 14.5566 34.2717 14.5521 34.3054 14.5352C34.3391 14.5183 34.3639 14.4904 34.3744 14.4574C34.3829 14.4247 34.3771 14.3904 34.3582 14.3614C34.3392 14.3324 34.3086 14.3107 34.2724 14.3009Z" fill="#7E943A"/>
<path d="M37.7722 16.9141C37.3989 16.2052 37.225 15.427 37.2654 14.6458C37.2654 14.4787 36.9835 14.4814 36.9655 14.6458C36.9285 15.4692 37.1167 16.2883 37.5143 17.0335C37.5923 17.1847 37.8411 17.0547 37.7632 16.9061L37.7722 16.9141Z" fill="#7E943A"/>
<path d="M37.5244 16.8586C36.7563 16.8561 35.9948 16.7331 35.2754 16.4951C35.1014 16.4368 35.0265 16.6861 35.2004 16.7418C35.9441 16.9865 36.731 17.1123 37.5244 17.1132C37.5642 17.1132 37.6023 17.0993 37.6305 17.0744C37.6586 17.0495 37.6744 17.0158 37.6744 16.9806C37.6744 16.9454 37.6586 16.9117 37.6305 16.8868C37.6023 16.8619 37.5642 16.848 37.5244 16.848V16.8586Z" fill="#7E943A"/>
<path d="M39.225 17.6713C39.2673 17.6225 39.2966 17.566 39.3107 17.5057C39.3247 17.4455 39.3231 17.3833 39.3059 17.3237C39.2849 17.1884 39.252 17.0585 39.222 16.9205L39.042 16.0663C39.0317 16.0335 39.0071 16.0058 38.9736 15.9891C38.9402 15.9725 38.9006 15.9682 38.8636 15.9774C38.8266 15.9865 38.7953 16.0083 38.7764 16.0379C38.7576 16.0675 38.7528 16.1025 38.7632 16.1352L38.9191 16.8727L38.9971 17.2335C38.9971 17.2893 39.069 17.4378 39.0211 17.4988C38.9951 17.5238 38.9807 17.5565 38.9807 17.5904C38.9807 17.6243 38.9951 17.6569 39.0211 17.6819C39.0484 17.7052 39.085 17.7183 39.123 17.7183C39.161 17.7183 39.1976 17.7052 39.225 17.6819V17.6713Z" fill="#7E943A"/>
<path d="M39.4064 17.5201C39.3506 17.4876 39.2896 17.4693 39.2278 17.4667C39.1661 17.4641 39.1052 17.4773 39.0499 17.5052C38.9208 17.551 38.7992 17.6075 38.6693 17.6627L37.8634 17.9982C37.8331 18.0145 37.8104 18.0438 37.8003 18.0798C37.7901 18.1158 37.7933 18.1554 37.8092 18.1901C37.8251 18.2247 37.8523 18.2515 37.8849 18.2645C37.9175 18.2775 37.9527 18.2757 37.983 18.2594L38.6786 17.9691L39.0187 17.8255C39.0734 17.8151 39.206 17.7168 39.2749 17.7526C39.3042 17.7734 39.339 17.7815 39.3723 17.7752C39.4056 17.7688 39.435 17.7486 39.4547 17.7185C39.4726 17.6873 39.4786 17.649 39.4715 17.6116C39.4644 17.5742 39.4448 17.5407 39.4168 17.5182L39.4064 17.5201Z" fill="#7E943A"/>
<path d="M47.5471 18.9836C49.3463 18.5485 51.2025 19.1189 53.0108 18.7793C53.1937 18.7448 53.1157 18.4981 52.9328 18.5326C51.1336 18.8722 49.2653 18.2991 47.4691 18.7369C47.4321 18.746 47.4007 18.7678 47.3819 18.7974C47.3631 18.827 47.3583 18.862 47.3686 18.8947C47.379 18.9274 47.4036 18.9552 47.437 18.9718C47.4705 18.9885 47.5101 18.9927 47.5471 18.9836Z" fill="#7E943A"/>
<path d="M2.55147 40.4919C2.55147 40.4919 5.77514 55.6135 24.1425 50.8754C41.8592 46.3018 34.3383 31.2625 34.3383 31.2625C34.3383 31.2625 29.9931 23.7627 15.0893 27.8986C0.185454 32.0345 2.55147 40.4919 2.55147 40.4919Z" fill="#FF7216"/>
<path d="M21.5971 44.6505C30.0845 42.3592 35.6823 36.7835 34.1001 32.1969C32.518 27.6102 24.3551 25.7494 15.8677 28.0407C7.38036 30.332 1.78257 35.9077 3.36469 40.4944C4.94682 45.081 13.1097 46.9418 21.5971 44.6505Z" fill="#FF9A26"/>
<path d="M13.5491 43.905C13.2395 43.8481 13.0759 43.7329 12.9826 43.614C12.8851 43.4896 12.8197 43.3038 12.8145 43.0306C12.8037 42.465 13.0545 41.688 13.4788 40.8552C13.8956 40.0371 14.4477 39.2274 14.966 38.6147C15.2254 38.308 15.4685 38.0601 15.674 37.8875C15.7768 37.8012 15.8633 37.7396 15.9319 37.6995C15.9864 37.6676 16.0168 37.6569 16.0259 37.6539C16.0264 37.654 16.0272 37.6541 16.0282 37.6543C16.0442 37.6565 16.1238 37.6674 16.2889 37.7584C16.4734 37.86 16.7009 38.026 16.9609 38.2516C17.4787 38.7008 18.0713 39.3388 18.6311 40.0247C19.1898 40.7093 19.7031 41.4261 20.0654 42.0256C20.2471 42.3263 20.3847 42.5874 20.4714 42.7939C20.5148 42.8972 20.5416 42.9779 20.556 43.0371C20.5607 43.0567 20.5634 43.0714 20.5651 43.0818C20.5555 43.0946 20.5368 43.1164 20.5019 43.1465C20.4166 43.2203 20.2743 43.3088 20.0646 43.4023C19.6475 43.5882 19.0463 43.7574 18.3278 43.8822C16.8923 44.1316 15.0859 44.187 13.5491 43.905Z" fill="#FFC757" stroke="#CB580D" stroke-width="0.983789"/>
<path d="M18.8339 36.9851C19.1148 37.017 19.4482 37.056 19.8197 37.1019C20.9673 37.2438 22.4737 37.4507 23.9171 37.7113C25.3707 37.9737 26.724 38.2843 27.5855 38.6257C27.9727 38.7792 28.1919 38.9135 28.2918 39.0056C28.2915 39.0059 28.2912 39.0062 28.2909 39.0064C27.3599 39.8493 26.1725 40.6499 25.0572 41.1963C24.5 41.4693 23.9723 41.6732 23.5128 41.7892C23.0437 41.9076 22.691 41.9226 22.4601 41.8669C22.4045 41.8534 22.2795 41.7922 22.0828 41.6221C21.8964 41.4609 21.6845 41.2364 21.4549 40.9606C20.9965 40.4099 20.5013 39.6958 20.0408 38.9794C19.5818 38.2654 19.1643 37.5602 18.8611 37.0326C18.8519 37.0166 18.8429 37.0008 18.8339 36.9851ZM28.341 38.9515C28.341 38.9515 28.3408 38.9518 28.3404 38.9526L28.341 38.9515Z" fill="#FFC757" stroke="#CB580D" stroke-width="0.983789"/>
<path d="M19.9371 35.0445C20.0247 35.0158 20.1153 34.9862 20.2086 34.9558C21.327 34.5916 22.839 34.1138 24.4157 33.6584C25.9944 33.2024 27.629 32.7714 28.9954 32.4987C29.6792 32.3622 30.2857 32.2674 30.7791 32.2276C31.2913 32.1863 31.6179 32.2105 31.7812 32.2651C32.1621 32.3926 32.4027 32.6467 32.5354 32.9843C32.6734 33.3351 32.6978 33.791 32.5903 34.2829C32.3728 35.2775 31.6567 36.2538 30.6448 36.5992C30.4186 36.6764 30.0586 36.7227 29.5659 36.7254C29.0824 36.7281 28.5072 36.6889 27.871 36.6176C26.599 36.4749 25.1172 36.2076 23.7004 35.9123C22.2854 35.6174 20.9444 35.2966 19.9565 35.0494C19.95 35.0477 19.9435 35.0461 19.9371 35.0445Z" fill="#FFC757" stroke="#CB580D" stroke-width="0.983789"/>
<path d="M18.2414 33.7479C18.6736 33.176 19.2314 32.4655 19.847 31.7494C20.549 30.9327 21.3167 30.1197 22.0522 29.4969C22.8095 28.8556 23.4529 28.4864 23.9133 28.432C25.0687 28.2953 26.4982 28.4658 27.6394 28.7858C28.2098 28.9458 28.6809 29.1357 28.9979 29.3252C29.1135 29.3943 29.198 29.4571 29.2566 29.5104C29.1997 29.5489 29.1277 29.5937 29.0391 29.6446C28.7111 29.8329 28.2278 30.0631 27.6283 30.3218C26.4337 30.8375 24.8333 31.443 23.2239 32.0232C21.6165 32.6025 20.0082 33.1536 18.8012 33.5601C18.6031 33.6268 18.4159 33.6895 18.2414 33.7479ZM29.3505 29.6199C29.3505 29.6199 29.3504 29.6195 29.3501 29.6187L29.3505 29.6199Z" fill="#FFC757" stroke="#CB580D" stroke-width="0.983789"/>
<path d="M12.5804 30.498L12.5811 30.4976C13.513 29.9098 15.0797 29.1764 16.5559 28.7094C17.2938 28.4759 17.9872 28.3161 18.5539 28.2684C19.144 28.2187 19.4746 28.3018 19.6165 28.4105C19.6223 28.4248 19.631 28.4627 19.625 28.5444C19.6133 28.7034 19.548 28.9359 19.4137 29.239C19.1478 29.8388 18.6731 30.5807 18.1294 31.3167C17.5893 32.0478 16.9984 32.7498 16.5171 33.266C16.2757 33.5249 16.068 33.7305 15.9122 33.8677C15.8825 33.8938 15.8561 33.9163 15.8328 33.9355C15.8092 33.9196 15.7819 33.9 15.7507 33.8759C15.6068 33.7648 15.4301 33.5989 15.2146 33.3849C15.1254 33.2963 15.0305 33.2004 14.9307 33.0996C14.5652 32.7302 14.1343 32.2947 13.6786 31.912C13.617 31.8603 13.5569 31.8101 13.4984 31.7612C13.2847 31.5826 13.0918 31.4214 12.9217 31.2677C12.7027 31.0698 12.554 30.9128 12.4682 30.7852C12.4165 30.7084 12.4039 30.6669 12.401 30.6513C12.4112 30.6335 12.4505 30.5797 12.5804 30.498ZM19.6123 28.4033C19.6126 28.403 19.6141 28.4046 19.616 28.4091C19.613 28.4058 19.6121 28.4036 19.6123 28.4033ZM15.9268 33.9883C15.9268 33.9883 15.9263 33.9882 15.9254 33.9879L15.9268 33.9883ZM12.4003 30.644C12.4003 30.644 12.4004 30.6448 12.4003 30.6461C12.4002 30.6447 12.4002 30.644 12.4003 30.644ZM12.3983 30.6567C12.3981 30.6574 12.3979 30.6577 12.3979 30.6577L12.3983 30.6567Z" fill="#FFC757" stroke="#CB580D" stroke-width="0.983789"/>
<path d="M13.3322 33.6056C13.6797 33.8947 14.0002 34.1814 14.2657 34.4275C14.1348 34.4419 13.9939 34.457 13.8446 34.4723C12.9821 34.561 11.8443 34.6578 10.7327 34.6926C9.61039 34.7278 8.55494 34.698 7.83819 34.5488C7.4696 34.4721 7.26243 34.3774 7.17185 34.3014C7.15751 34.2893 7.14932 34.2804 7.14491 34.2749C7.14598 34.2678 7.14865 34.2559 7.15507 34.2382C7.48262 33.3355 8.00846 32.7531 8.61136 32.4096C9.21968 32.063 9.93757 31.9423 10.6675 32.0207C10.9619 32.0523 11.3777 32.2287 11.874 32.5339C12.3569 32.8308 12.8648 33.2168 13.3322 33.6056ZM7.14037 34.2683C7.14041 34.2682 7.14067 34.2687 7.14107 34.2696L7.14037 34.2683ZM7.14427 34.2812C7.14442 34.2825 7.1444 34.2832 7.14434 34.2833C7.14429 34.2833 7.14421 34.2826 7.14427 34.2812Z" fill="#FFC757" stroke="#CB580D" stroke-width="0.983789"/>
<path d="M5.63413 37.0701L5.63413 37.0701L5.63475 37.0691C5.66455 37.0196 5.76574 36.9182 6.01636 36.7978C6.25456 36.6834 6.57453 36.577 6.96168 36.4839C7.73427 36.2982 8.71202 36.18 9.69389 36.1335C10.6753 36.087 11.638 36.1132 12.378 36.2073C12.75 36.2546 13.0479 36.3168 13.2581 36.3876C13.3516 36.4191 13.4165 36.4486 13.4586 36.4726C13.4585 36.4769 13.4582 36.4815 13.458 36.4863C13.4534 36.5694 13.4342 36.6909 13.3941 36.8514C13.3144 37.1705 13.1654 37.5903 12.954 38.0655C12.531 39.016 11.8821 40.1348 11.1158 41.0421C10.335 41.9666 9.50311 42.5877 8.7289 42.7008C8.03094 42.8028 7.21355 42.5081 6.37096 41.1624L6.37058 41.1618C5.74169 40.1607 5.39141 39.4193 5.27844 38.7898C5.17126 38.1926 5.27275 37.667 5.63413 37.0701Z" fill="#FFC757" stroke="#CB580D" stroke-width="0.983789"/>
</svg>
