<svg width="152" height="100" viewBox="0 0 152 100" fill="none" xmlns="http://www.w3.org/2000/svg">
<path d="M57.1428 46.2197C57.1428 46.2197 54.6442 40.7344 57.092 34.9572C59.5398 29.18 61.3272 25.9483 63.8678 26.4228C66.4084 26.8972 67.7164 30.1892 66.9225 34.6596C66.2047 38.6978 64.852 41.1191 63.1845 42.9855C61.5169 44.8518 57.1428 46.2197 57.1428 46.2197Z" fill="#30AD6D"/>
<path d="M55.0786 65.31C55.0786 65.31 53.0654 59.6286 56.0054 54.0857C58.9454 48.5427 61.0066 45.4784 63.4964 46.1715C65.9862 46.8647 67.0036 50.2578 65.8246 54.6424C64.759 58.6031 63.2013 60.8978 61.3781 62.6124C59.5548 64.327 55.0786 65.31 55.0786 65.31Z" fill="#30AD6D"/>
<path d="M52.1012 67.0141C52.1012 67.0141 51.7462 60.9971 46.8818 57.0339C42.0175 53.0708 38.9268 51.0494 36.9026 52.6563C34.8784 54.2633 35.2608 57.7849 38.0522 61.3658C40.5743 64.6002 42.9019 66.1084 45.2484 66.9789C47.595 67.8494 52.1012 67.0141 52.1012 67.0141Z" fill="#30AD6D"/>
<path d="M51.0778 52.2437C51.0778 52.2437 45.6226 49.6802 43.7487 43.6921C41.8748 37.7041 41.1453 34.0838 43.3889 32.8009C45.6325 31.5179 48.7605 33.1805 51.0491 37.1019C53.1159 40.6445 53.6522 43.3656 53.5893 45.8677C53.5264 48.3697 51.0778 52.2437 51.0778 52.2437Z" fill="#30AD6D"/>
<path d="M52.1792 57.6142C52.2909 56.3006 56.7249 48.5633 58.3941 44.0058C60.3426 38.6858 60.8362 37.2248 61.1771 36.4056" stroke="#108B4C" stroke-width="1.11176" stroke-linecap="round"/>
<path d="M54.0663 67.7001C53.9892 66.8707 57.1373 62.4282 58.0925 59.7011C59.2076 56.5176 59.4742 55.6385 59.6849 55.1531" stroke="#108B4C" stroke-width="1.11176" stroke-linecap="round"/>
<path d="M54.3249 69.6309C53.531 69.3792 50.6639 64.7503 48.5236 62.809C46.0252 60.5429 45.3191 59.9551 44.954 59.5721" stroke="#108B4C" stroke-width="1.11176" stroke-linecap="round"/>
<path d="M57.8103 82.5356C55.4985 79.3268 51.5539 54.9517 49.8705 43.1652" stroke="#108B4C" stroke-width="1.11176" stroke-linecap="round"/>
<path d="M23.9344 70.8679C23.9344 70.8679 18.9668 71.6939 14.8366 68.4657C10.7064 65.2375 8.48683 63.0943 9.42076 61.1474C10.3547 59.2005 13.2945 58.8593 16.7291 60.4697C19.8314 61.9249 21.4915 63.5415 22.6356 65.2918C23.7797 67.0421 23.9344 70.8679 23.9344 70.8679Z" fill="#30AD6D"/>
<path d="M38.8902 76.677C38.8902 76.677 33.8696 77.0687 30.0352 73.4942C26.2009 69.9197 24.1757 67.5919 25.275 65.7334C26.3744 63.875 29.3327 63.7902 32.6146 65.6927C35.579 67.4116 37.0925 69.1662 38.0803 71.0092C39.0681 72.8522 38.8902 76.677 38.8902 76.677Z" fill="#30AD6D"/>
<path d="M39.6191 79.4482C39.6191 79.4482 34.6874 78.4293 30.4346 81.4942C26.1819 84.5591 23.8805 86.6142 24.7378 88.596C25.5952 90.5778 28.5195 91.0332 32.0142 89.5578C35.1709 88.2246 36.8927 86.6739 38.1041 84.9695C39.3155 83.2651 39.6191 79.4482 39.6191 79.4482Z" fill="#30AD6D"/>
<path d="M27.4774 77.0687C27.4774 77.0687 24.2256 80.9139 18.9879 81.1268C13.7501 81.3397 10.6709 81.1429 10.1226 79.0544C9.57419 76.9659 11.5941 74.8029 15.2544 73.8071C18.5611 72.908 20.8729 73.0657 22.8779 73.6592C24.883 74.2527 27.4774 77.0687 27.4774 77.0687Z" fill="#30AD6D"/>
<path d="M32.0512 77.3461C31.0156 76.9711 25.7349 71.7151 22.42 69.3797C18.5504 66.6535 17.4787 65.9383 16.8917 65.4856" stroke="#108B4C" stroke-width="0.928849" stroke-linecap="round"/>
<path d="M40.5967 78.0098C39.9108 77.8921 37.0095 74.3884 35.0164 73.0261C32.6898 71.4359 32.0384 71.03 31.6924 70.7548" stroke="#108B4C" stroke-width="0.928849" stroke-linecap="round"/>
<path d="M42.2101 78.22C41.8348 78.806 37.4781 80.1149 35.4475 81.4207C33.0772 82.9449 32.4498 83.387 32.0616 83.5985" stroke="#108B4C" stroke-width="0.928849" stroke-linecap="round"/>
<path d="M53.3807 78.2115C50.2903 79.3806 29.7682 77.2754 19.8935 76.0767" stroke="#108B4C" stroke-width="0.928849" stroke-linecap="round"/>
<path d="M115.013 5.65809C116.544 8.54007 120.946 15.3418 120.459 16.4448C119.973 17.5478 117.226 38.1131 115.571 40.9714C113.915 43.8296 109.401 57.4805 99.1492 64.2111C88.8976 70.9416 61.6017 79.5165 60.0355 81.1769C58.4693 82.8373 57.1937 85.8794 58.1904 87.2729C59.1871 88.6665 72.2092 98.4273 83.4633 95.7588C94.7175 93.0903 109.757 89.0104 117.113 81.9359C124.47 74.8614 138.886 59.9948 140.25 44.5768C141.615 29.1587 141.081 23.46 135.73 19.1252C130.378 14.7903 128.166 15.8992 126.32 12.4895C124.475 9.07972 123.354 4.55511 122.63 2.43809C121.907 0.321074 121.444 -0.14739 120.785 0.0364403C120.127 0.220271 112.521 0.955582 115.013 5.65809Z" fill="#FFDA61"/>
<path d="M58.5938 87.6812C58.5938 87.6812 73.7812 91.595 87.6161 87.1653C101.451 82.7355 122.761 72.6664 134.656 42.8562C138.571 33.0479 137.77 28.0311 136.068 23.3998C134.436 18.9582 128.741 14.9258 128.741 14.9258C128.741 14.9258 137.207 17.6892 140.132 23.5539C146.99 37.3472 138.88 56.9281 128.99 69.6836C117.41 84.6094 110.652 87.5092 97.9269 92.437C85.0354 97.4242 75.7034 97.1811 69.6996 94.6489C65.6969 92.8438 61.9603 90.4994 58.5938 87.6812Z" fill="#EBA63E"/>
<path d="M91.4254 8.34262C92.9561 11.2305 97.3284 18.0263 96.8716 19.1353C96.4148 20.2442 93.6383 40.8035 91.9772 43.6618C90.316 46.5201 85.8013 60.1651 75.5854 66.8956C65.3694 73.6262 38.0142 82.201 36.4302 83.8614C34.8462 85.5218 33.5706 88.5639 34.5851 89.9456C35.5996 91.3273 48.6039 101.106 59.858 98.4315C71.1122 95.757 86.1513 91.7009 93.5315 84.6027C100.912 77.5044 115.298 62.6616 116.669 47.2435C118.039 31.8255 117.499 26.1267 112.148 21.7978C106.797 17.4689 104.584 18.566 102.739 15.1562C100.894 11.7465 99.7726 7.22779 99.0488 5.07519C98.3251 2.9226 97.8623 2.49564 97.2038 2.70319C96.5453 2.91074 88.9337 3.65791 91.4254 8.34262Z" fill="#FFDA61"/>
<path d="M35.0059 90.3725C35.0059 90.3725 50.1933 94.2804 64.0282 89.8566C77.863 85.4328 99.1729 75.3577 111.068 45.5416C114.983 35.7333 114.182 30.7521 112.474 26.0852C110.848 21.6436 105.147 17.623 105.147 17.623C105.147 17.623 113.619 20.3864 116.538 26.2572C123.402 40.0444 115.292 59.6313 105.402 72.3808C93.8217 87.3126 87.0645 90.2065 74.339 95.1343C61.4475 100.127 52.1155 99.8783 46.1117 97.3462C42.1079 95.5407 38.371 93.1942 35.0059 90.3725Z" fill="#EBA63E"/>
<path d="M114.148 71.7467C114.411 71.2081 114.479 70.7005 114.3 70.6128C114.12 70.5251 113.761 70.8906 113.498 71.4292C113.235 71.9677 113.167 72.4754 113.347 72.563C113.526 72.6507 113.885 72.2852 114.148 71.7467Z" fill="#F7D9D8"/>
<path d="M114.706 78.5031C114.9 78.1059 114.95 77.7314 114.818 77.6667C114.685 77.602 114.421 77.8716 114.226 78.2689C114.032 78.6662 113.982 79.0407 114.115 79.1054C114.247 79.1701 114.512 78.9004 114.706 78.5031Z" fill="#F7D9D8"/>
<path d="M118.221 84.2681C118.484 83.7296 118.551 83.222 118.372 83.1343C118.192 83.0466 117.833 83.4121 117.57 83.9507C117.307 84.4892 117.239 84.9969 117.419 85.0845C117.599 85.1722 117.957 84.8067 118.221 84.2681Z" fill="#F7D9D8"/>
<path d="M99.6276 65.2009C104.03 64.2343 111.066 65.0408 114.607 69.9746C118.149 74.9083 118.956 87.5215 118.262 90.1366C117.568 92.7518 114.394 96.8969 105.59 94.3232C96.7859 91.7496 88.676 86.7565 89.643 74.8965C90.0049 70.4845 95.2256 66.1675 99.6276 65.2009Z" fill="#F33334"/>
<path d="M89.1919 75.5824C89.3758 73.3231 90.8293 71.0934 92.793 69.3203C91.7295 70.5954 91.056 72.1498 90.853 73.7975C89.886 85.6575 97.9722 90.6506 106.8 93.2242C111.914 94.7186 115.106 93.9536 117.051 92.5304C115.598 94.849 112.163 97.0669 105.133 95.0092C96.3288 92.4355 88.2249 87.4424 89.1919 75.5824Z" fill="#D12020"/>
<path d="M95.0539 66.6765C95.0539 66.6765 97.1956 65.5735 100.435 64.2036C102.233 63.4857 104.079 62.8913 105.958 62.4246C105.958 62.4246 105.655 64.429 103.17 65.443C101.461 66.1297 99.6632 66.569 97.8303 66.7476C97.8303 66.7476 100.043 66.7476 102.648 66.801C103.893 66.8258 105.13 67.0254 106.32 67.394C106.32 67.394 104.671 69.5822 102.286 69.594C99.1889 69.594 95.309 68.242 95.309 68.242C96.0273 69.3412 96.6619 70.4929 97.2074 71.6873C97.8224 73.2388 98.1131 74.8997 98.0617 76.5677C98.0617 76.5677 95.6472 75.3817 94.6564 73.2173C94.1509 72.09 93.713 70.9335 93.3453 69.7541C92.7368 71.1649 91.9896 72.5117 91.1146 73.7747C89.8349 75.4808 88.2198 76.9075 86.3686 77.9672C86.3686 77.9672 87.828 75.2512 89.2518 73.0038C90.3909 71.2248 91.4884 69.6711 91.4884 69.6711C90.6264 70.5541 89.7025 71.3745 88.7238 72.1261C87.5373 72.98 85.4668 72.3752 85.4668 72.3752C86.3779 71.5977 87.3434 70.8863 88.356 70.2463C90.907 68.6452 94.0276 66.7417 94.0276 66.7417C94.0276 66.7417 91.1977 59.424 91.9037 58.748C92.6097 58.072 93.5114 59.086 93.5114 59.086L95.0539 66.6765Z" fill="#4EBA08"/>
<path d="M114.438 81.4829C114.618 81.3952 114.55 80.8876 114.287 80.349C114.024 79.8105 113.665 79.445 113.485 79.5327C113.306 79.6203 113.373 80.128 113.637 80.6665C113.9 81.2051 114.259 81.5706 114.438 81.4829Z" fill="#F7D9D8"/>
<path d="M108.282 77.6099C108.426 77.5395 108.371 77.1293 108.158 76.6938C107.945 76.2582 107.655 75.9622 107.511 76.0326C107.367 76.1031 107.423 76.5132 107.635 76.9488C107.848 77.3843 108.138 77.6803 108.282 77.6099Z" fill="#F7D9D8"/>
<path d="M111.522 73.5942C111.702 73.5066 111.634 72.9989 111.371 72.4604C111.108 71.9218 110.749 71.5563 110.569 71.644C110.39 71.7317 110.457 72.2393 110.721 72.7779C110.984 73.3164 111.343 73.6819 111.522 73.5942Z" fill="#F7D9D8"/>
<path d="M94.2306 84.0006C94.4139 83.921 94.3687 83.4109 94.1297 82.8612C93.8907 82.3115 93.5484 81.9305 93.3651 82.0101C93.1818 82.0897 93.2269 82.5999 93.4659 83.1496C93.7049 83.6992 94.0473 84.0803 94.2306 84.0006Z" fill="#F7D9D8"/>
<path d="M102.454 75.5067C102.604 75.4334 102.549 75.0113 102.33 74.564C102.112 74.1167 101.813 73.8135 101.663 73.8868C101.512 73.9601 101.568 74.3822 101.786 74.8295C102.005 75.2768 102.304 75.58 102.454 75.5067Z" fill="#F7D9D8"/>
<path d="M104.359 83.2404C104.483 83.18 104.437 82.8329 104.258 82.465C104.078 82.0972 103.832 81.8479 103.708 81.9083C103.585 81.9686 103.63 82.3158 103.81 82.6836C103.99 83.0515 104.235 83.3008 104.359 83.2404Z" fill="#F7D9D8"/>
<path d="M113.675 88.0286C113.808 87.964 113.758 87.5895 113.564 87.1922C113.37 86.7949 113.105 86.5253 112.972 86.5899C112.84 86.6546 112.89 87.0291 113.084 87.4264C113.278 87.8237 113.543 88.0933 113.675 88.0286Z" fill="#F7D9D8"/>
<path d="M97.1635 81.2298C97.296 81.1651 97.2461 80.7906 97.052 80.3933C96.8578 79.9961 96.5931 79.7264 96.4606 79.7911C96.3281 79.8558 96.3781 80.2303 96.5722 80.6276C96.7663 81.0248 97.0311 81.2945 97.1635 81.2298Z" fill="#F7D9D8"/>
<path d="M110.362 94.0141C110.542 93.9265 110.474 93.4188 110.211 92.8803C109.948 92.3418 109.589 91.9762 109.409 92.0639C109.23 92.1516 109.297 92.6592 109.56 93.1978C109.824 93.7363 110.182 94.1018 110.362 94.0141Z" fill="#F7D9D8"/>
<path d="M107.282 87.7016C107.462 87.614 107.394 87.1063 107.131 86.5678C106.868 86.0292 106.509 85.6637 106.329 85.7514C106.149 85.8391 106.217 86.3467 106.48 86.8853C106.743 87.4238 107.102 87.7893 107.282 87.7016Z" fill="#F7D9D8"/>
<path d="M100.009 89.4672C100.148 89.3996 100.094 89.0061 99.8903 88.5882C99.6861 88.1703 99.4085 87.8863 99.2701 87.9539C99.1317 88.0214 99.185 88.4149 99.3892 88.8328C99.5934 89.2507 99.8711 89.5347 100.009 89.4672Z" fill="#F7D9D8"/>
<path d="M139.481 76.1674C140.019 75.904 140.384 75.545 140.296 75.3656C140.209 75.1861 139.701 75.254 139.162 75.5173C138.624 75.7807 138.259 76.1397 138.347 76.3192C138.434 76.4987 138.942 76.4307 139.481 76.1674Z" fill="#F7D9D8"/>
<path d="M135.774 81.8407C136.171 81.6464 136.441 81.3816 136.376 81.2492C136.311 81.1168 135.937 81.1669 135.54 81.3611C135.142 81.5554 134.873 81.8202 134.938 81.9527C135.002 82.0851 135.377 82.0349 135.774 81.8407Z" fill="#F7D9D8"/>
<path d="M135.004 88.5521C135.542 88.2888 135.908 87.9298 135.82 87.7503C135.732 87.5708 135.224 87.6388 134.686 87.9021C134.147 88.1654 133.782 88.5244 133.87 88.7039C133.958 88.8834 134.466 88.8155 135.004 88.5521Z" fill="#F7D9D8"/>
<path d="M132.046 62.0805C136.113 64.0217 141.17 68.9802 140.934 75.049C140.698 81.1178 133.587 91.5664 131.433 93.2037C129.279 94.8409 124.228 96.1621 118.862 88.7233C113.495 81.2844 110.163 72.3628 118.211 63.5981C121.207 60.3389 127.978 60.1392 132.046 62.0805Z" fill="#F33334"/>
<path d="M117.432 63.8647C118.965 62.1948 121.482 61.3282 124.12 61.1353C122.498 61.4882 121.012 62.301 119.839 63.4766C111.791 72.2413 115.105 81.1484 120.49 88.6018C123.607 92.9223 126.596 94.2793 129.006 94.3515C126.434 95.2883 122.362 94.9284 118.078 88.9863C112.712 81.5475 109.384 72.6295 117.432 63.8647Z" fill="#D12020"/>
<path d="M127.529 60.4381C127.529 60.4381 129.896 60.8833 133.294 61.7921C135.154 62.3303 136.975 62.9948 138.745 63.781C138.745 63.781 137.275 65.1768 134.691 64.4501C132.921 63.9424 131.232 63.1846 129.676 62.1997C129.676 62.1997 131.422 63.559 133.445 65.2009C134.412 65.9858 135.265 66.9027 135.978 67.9246C135.978 67.9246 133.333 68.6382 131.443 67.1826C129 65.2804 126.768 61.8302 126.768 61.8302C126.66 63.1388 126.453 64.4374 126.15 65.715C125.682 67.317 124.892 68.8062 123.826 70.0909C123.826 70.0909 122.65 67.6718 123.197 65.3553C123.491 64.1552 123.856 62.9737 124.29 61.8172C122.943 62.5566 121.526 63.1604 120.06 63.6196C118.002 64.1798 115.851 64.3135 113.74 64.0125C113.74 64.0125 116.56 62.7658 119.064 61.867C121.055 61.1628 122.876 60.611 122.876 60.611C121.653 60.7783 120.42 60.8582 119.186 60.8501C117.725 60.7951 116.463 59.0459 116.463 59.0459C117.66 58.9921 118.859 59.0238 120.051 59.1408C123.047 59.4444 126.679 59.8591 126.679 59.8591C126.679 59.8591 128.941 52.3465 129.913 52.2467C130.886 52.1469 130.974 53.501 130.974 53.501L127.529 60.4381Z" fill="#4EBA08"/>
<path d="M133.73 84.0288C133.926 84.0699 134.184 83.6278 134.307 83.0412C134.431 82.4546 134.372 81.9457 134.176 81.9046C133.981 81.8634 133.722 82.3056 133.599 82.8922C133.476 83.4788 133.535 83.9877 133.73 84.0288Z" fill="#F7D9D8"/>
<path d="M131.25 77.1919C131.407 77.2249 131.615 76.8671 131.715 76.3927C131.814 75.9183 131.768 75.5069 131.611 75.4739C131.454 75.4408 131.245 75.7986 131.146 76.2731C131.046 76.7475 131.093 77.1588 131.25 77.1919Z" fill="#F7D9D8"/>
<path d="M136.273 76.0112C136.469 76.0524 136.727 75.6102 136.85 75.0236C136.974 74.437 136.915 73.9281 136.719 73.887C136.524 73.8458 136.265 74.288 136.142 74.8746C136.019 75.4612 136.078 75.9701 136.273 76.0112Z" fill="#F7D9D8"/>
<path d="M116.24 73.6007C116.434 73.6504 116.712 73.2201 116.861 72.6396C117.01 72.059 116.974 71.5481 116.78 71.4983C116.587 71.4485 116.309 71.8788 116.16 72.4594C116.011 73.0399 116.047 73.5509 116.24 73.6007Z" fill="#F7D9D8"/>
<path d="M127.945 71.9517C128.109 71.9861 128.324 71.619 128.426 71.1318C128.529 70.6445 128.479 70.2217 128.316 70.1873C128.152 70.1529 127.937 70.52 127.834 71.0072C127.732 71.4944 127.782 71.9173 127.945 71.9517Z" fill="#F7D9D8"/>
<path d="M124.699 79.223C124.834 79.2513 125.011 78.9494 125.095 78.5488C125.179 78.1481 125.138 77.8003 125.004 77.772C124.869 77.7437 124.692 78.0455 124.607 78.4462C124.523 78.8469 124.564 79.1946 124.699 79.223Z" fill="#F7D9D8"/>
<path d="M129.106 88.7255C129.25 88.7559 129.441 88.4297 129.532 87.9969C129.623 87.5642 129.579 87.1888 129.435 87.1585C129.291 87.1281 129.1 87.4543 129.009 87.8871C128.918 88.3198 128.962 88.6952 129.106 88.7255Z" fill="#F7D9D8"/>
<path d="M120.254 73.2197C120.399 73.25 120.589 72.9238 120.68 72.4911C120.771 72.0584 120.728 71.683 120.584 71.6526C120.439 71.6223 120.249 71.9485 120.158 72.3812C120.067 72.8139 120.11 73.1893 120.254 73.2197Z" fill="#F7D9D8"/>
<path d="M122.816 91.4136C123.012 91.4547 123.27 91.0125 123.393 90.4259C123.517 89.8393 123.458 89.3305 123.262 89.2893C123.067 89.2482 122.808 89.6904 122.685 90.277C122.562 90.8636 122.621 91.3724 122.816 91.4136Z" fill="#F7D9D8"/>
<path d="M124.264 84.5405C124.459 84.5817 124.717 84.1395 124.841 83.5529C124.964 82.9663 124.905 82.4574 124.71 82.4163C124.514 82.3751 124.256 82.8173 124.132 83.4039C124.009 83.9905 124.068 84.4994 124.264 84.5405Z" fill="#F7D9D8"/>
<path d="M117.44 81.4655C117.591 81.4972 117.791 81.1539 117.886 80.6987C117.982 80.2435 117.937 79.8489 117.787 79.8172C117.636 79.7855 117.436 80.1287 117.341 80.5839C117.245 81.0391 117.29 81.4338 117.44 81.4655Z" fill="#F7D9D8"/>
</svg>
