<svg width="60" height="61" viewBox="0 0 60 61" fill="none" xmlns="http://www.w3.org/2000/svg">
<path d="M50.3703 3.34961H9.65338C4.33599 3.34961 0.0253906 7.66021 0.0253906 12.9776V47.8198C0.0253906 53.1372 4.33599 57.4478 9.65338 57.4478H50.3703C55.6877 57.4478 59.9983 53.1372 59.9983 47.8198V12.9776C59.9983 7.66021 55.6877 3.34961 50.3703 3.34961Z" fill="#204EB4"/>
<mask id="mask0_2338_7660" style="mask-type:alpha" maskUnits="userSpaceOnUse" x="0" y="3" width="60" height="55">
<path d="M49.7208 3.49219H10.1897C4.56532 3.49219 0.00585938 8.05164 0.00585938 13.676V47.3396C0.00585938 52.964 4.56533 57.5234 10.1897 57.5234H49.7208C55.3451 57.5234 59.9046 52.964 59.9046 47.3396V13.676C59.9046 8.05164 55.3451 3.49219 49.7208 3.49219Z" fill="#147AE9"/>
</mask>
<g mask="url(#mask0_2338_7660)">
<path d="M5.45751 49.0753C0.405385 52.2935 -0.015625 57.5231 -0.015625 57.5231H59.9257V36.0877C59.9257 36.0877 56.0313 28.2144 48.9268 28.8467C41.8222 29.4789 39.5593 36.0877 39.5593 36.0877C39.5593 36.0877 32.8232 27.1227 23.1399 32.0649C13.4567 37.0071 15.7723 47.8111 15.7723 47.8111C15.7723 47.8111 10.5096 45.8571 5.45751 49.0753Z" fill="#5280E8"/>
</g>
<path d="M8.82554 39.5137L9.97451 41.8487L12.5504 42.2193L10.6972 44.0169L11.1235 46.5929L8.82554 45.3698L6.52748 46.5929L6.97234 44.0169L5.11914 42.2193L7.67645 41.8487L8.82554 39.5137Z" fill="#FEBF21"/>
<path d="M3.52768 29.4961C3.506 29.2793 3.56798 29.0624 3.7009 28.8898C3.83382 28.7172 4.02765 28.6018 4.24278 28.5674C4.78464 28.4871 5.33539 28.4871 5.87725 28.5674C5.87725 28.5674 3.88061 23.924 7.79961 23.1625C11.7186 22.401 11.8486 25.3635 11.8486 25.3635C11.8486 25.3635 14.1332 20.813 18.3493 22.2338C22.5655 23.6547 20.4203 29.4961 20.4203 29.4961H3.52768Z" fill="#5280E8"/>
<path d="M47.6414 47.1143C43.4864 47.118 39.4273 45.8655 35.9968 43.5212C32.5662 41.1769 29.9245 37.8504 28.4181 33.978C26.9117 30.1057 26.6112 25.8684 27.5558 21.8222C28.5004 17.7759 30.6461 14.1098 33.7113 11.3047C30.7241 12.1598 27.969 13.6794 25.652 15.7497C23.3351 17.82 21.5162 20.3875 20.3317 23.26C19.1471 26.1325 18.6275 29.2357 18.8116 32.3375C18.9958 35.4392 19.8789 38.4591 21.3951 41.1713C22.9112 43.8835 25.021 46.2177 27.5666 47.9994C30.1123 49.781 33.0279 50.9639 36.0953 51.4595C39.1627 51.9552 42.3025 51.7508 45.2797 50.8617C48.257 49.9725 50.9946 48.4216 53.2878 46.325C51.452 46.8515 49.5512 47.1172 47.6414 47.1143Z" fill="white"/>
<path d="M49.7955 7.56836L50.8249 9.6605L53.133 9.99258L51.4559 11.6032L51.8544 13.8946L49.7955 12.8153L47.7366 13.8946L48.135 11.6032L46.4746 9.99258L48.766 9.6605L49.7955 7.56836Z" fill="#FEBF21"/>
</svg>
