<svg width="61" height="61" viewBox="0 0 61 61" fill="none" xmlns="http://www.w3.org/2000/svg">
<path fill-rule="evenodd" clip-rule="evenodd" d="M29.8675 2.24302V2.24234C29.8675 1.4861 28.2513 0.873047 26.2576 0.873047C24.2638 0.873047 22.6476 1.4861 22.6476 2.24234V2.24302V15.5581C19.8812 16.554 17.8095 18.6601 17.217 21.2138C17.1085 21.3715 17.0449 21.5625 17.0449 21.7685V22.7184V58.2796C17.0449 59.7115 18.2057 60.8724 19.6377 60.8724H32.8754C34.3073 60.8724 35.4682 59.7115 35.4682 58.2796V22.7184V21.7685C35.4682 21.5625 35.4046 21.3715 35.2961 21.2138C34.7037 18.6607 32.6329 16.555 29.8675 15.5588V2.24302Z" fill="#4AC947"/>
<path fill-rule="evenodd" clip-rule="evenodd" d="M24.5421 60.8724H19.3948C18.097 60.8724 17.0449 59.8203 17.0449 58.5225V22.7184V21.7685C17.0449 21.5625 17.1085 21.3715 17.217 21.2138C17.8095 18.6601 19.8812 16.554 22.6476 15.5581V2.24302V2.24234C22.6476 1.4861 24.2638 0.873047 26.2576 0.873047C27.2645 0.873047 28.1751 1.02941 28.8298 1.28161C28.1881 1.52879 27.7921 1.86803 27.7921 2.24234V2.24302V15.5591C25.0271 16.5554 22.9566 18.661 22.3644 21.2138C22.2558 21.3715 22.1922 21.5625 22.1922 21.7685V22.7184V58.5225C22.1922 59.8203 23.2443 60.8724 24.5421 60.8724Z" fill="#39B62E"/>
<path fill-rule="evenodd" clip-rule="evenodd" d="M22.6465 2.74023V13.6946C22.6465 13.6946 23.0199 14.3792 26.0075 14.3792C28.995 14.3792 29.8664 13.6946 29.8664 13.6946V2.74023C29.8661 3.25787 28.25 3.67747 26.2564 3.67747C24.2629 3.67747 22.6468 3.25787 22.6465 2.74023Z" fill="#0F4949"/>
<path fill-rule="evenodd" clip-rule="evenodd" d="M22.6451 0V2.74036C22.6451 2.74036 23.0185 3.42501 26.0061 3.42501C28.9502 3.42501 29.8392 2.76013 29.8645 2.74079V3.12978C29.8303 3.63981 28.2274 4.05052 26.255 4.05052C24.2613 4.05052 22.6451 3.63085 22.6451 3.11315L22.6451 3.11049H22.6451V3.11315V8.96266H22.6445V0H22.6451Z" fill="#FEE8B8"/>
<g filter="url(#filter0_d_2338_7654)">
<path fill-rule="evenodd" clip-rule="evenodd" d="M17.0452 24.8926H17.0955C18.3023 26.8414 21.9473 27.4451 26.2564 27.4451C30.5655 27.4451 34.2105 26.8414 35.4173 24.8926H35.4685V43.8137H35.4642C35.3191 44.9198 31.2523 45.8065 26.2565 45.8065C21.2608 45.8065 17.194 44.9198 17.0489 43.8137H17.0452V43.7687C17.045 43.7634 17.0449 43.758 17.0449 43.7526C17.0449 43.7472 17.045 43.7418 17.0452 43.7365V24.8926Z" fill="#FEE8B8"/>
</g>
<path fill-rule="evenodd" clip-rule="evenodd" d="M22.2734 27.2215C19.8083 26.9006 17.9043 26.1987 17.0955 24.8926H17.0452V43.7365L17.0449 43.7526L17.0452 43.7687V43.8137H17.0489C17.1525 44.6039 19.2578 45.2822 22.2734 45.6051V27.2215Z" fill="#FFCFA2"/>
<path d="M32.8848 19.0475C32.1276 17.746 30.3818 16.9441 29.4142 16.5234L28.373 17.7539C29.1303 17.9643 30.5942 18.9339 31.4019 20.2465C32.2096 21.559 32.1276 23.37 32.1276 24.5374H33.8945C33.8945 23.4857 33.8945 20.7828 32.8848 19.0475Z" fill="#DAFAD9"/>
<path d="M28.3398 13.4325V4.53516H29.1602V13.4325H28.3398Z" fill="#D9ECFA"/>
<path d="M29.6582 39.4643C29.658 40.8797 30.0776 42.2635 30.8639 43.4405C31.6501 44.6175 32.7678 45.5349 34.0754 46.0767C35.3831 46.6185 36.8221 46.7604 38.2104 46.4843C39.5987 46.2083 40.8739 45.5268 41.8749 44.5259C42.8759 43.5251 43.5575 42.2499 43.8338 40.8617C44.11 39.4734 43.9683 38.0344 43.4267 36.7267C42.885 35.4189 41.9677 34.3012 40.7908 33.5148C39.6139 32.7283 38.2302 32.3086 36.8148 32.3086C35.875 32.3085 34.9444 32.4935 34.0761 32.853C33.2079 33.2126 32.4189 33.7396 31.7544 34.4041C31.0898 35.0686 30.5626 35.8575 30.203 36.7257C29.8433 37.5939 29.6582 38.5245 29.6582 39.4643V39.4643Z" stroke="#D8491A" stroke-width="1.39458" stroke-miterlimit="10"/>
<rect x="30.9277" y="35.6992" width="14.1807" height="2.32101" transform="rotate(25.2664 30.9277 35.6992)" fill="#D8491A"/>
<defs>
<filter id="filter0_d_2338_7654" x="16.6533" y="24.8926" width="19.2071" height="22.089" filterUnits="userSpaceOnUse" color-interpolation-filters="sRGB">
<feFlood flood-opacity="0" result="BackgroundImageFix"/>
<feColorMatrix in="SourceAlpha" type="matrix" values="0 0 0 0 0 0 0 0 0 0 0 0 0 0 0 0 0 0 127 0" result="hardAlpha"/>
<feOffset dy="0.783289"/>
<feGaussianBlur stdDeviation="0.195822"/>
<feComposite in2="hardAlpha" operator="out"/>
<feColorMatrix type="matrix" values="0 0 0 0 0.4625 0 0 0 0 0.4625 0 0 0 0 0.4625 0 0 0 0.1 0"/>
<feBlend mode="normal" in2="BackgroundImageFix" result="effect1_dropShadow_2338_7654"/>
<feBlend mode="normal" in="SourceGraphic" in2="effect1_dropShadow_2338_7654" result="shape"/>
</filter>
</defs>
</svg>
