<svg width="61" height="61" viewBox="0 0 61 61" fill="none" xmlns="http://www.w3.org/2000/svg">
<path d="M42.8586 48.2633C41.8968 50.0389 41.903 54.6137 42.0263 56.6791C42.0263 56.6791 42.6736 52.0088 43.9684 49.4193C45.2631 46.8298 44.9857 45.6738 44.9857 45.6738C44.6774 45.7971 43.8204 46.4877 42.8586 48.2633Z" fill="#70D23B"/>
<path d="M40.6531 50.3668C41.6149 52.1425 41.6088 56.7172 41.4854 58.7826C41.4854 58.7826 40.8381 54.1123 39.5433 51.5228C38.2486 48.9334 38.526 47.7773 38.526 47.7773C38.8343 47.9007 39.6913 48.5912 40.6531 50.3668Z" fill="#70D23B"/>
<circle cx="35.7056" cy="19.9341" r="19.4946" fill="#31D392"/>
<circle cx="13.1892" cy="26.2498" r="13.1795" fill="#93E766"/>
<line x1="35.5257" y1="20.4397" x2="35.5257" y2="55.6682" stroke="#94552B" stroke-width="1.28962" stroke-linecap="round"/>
<line x1="11.7757" y1="26.7561" x2="11.7757" y2="55.3949" stroke="#94552B" stroke-width="1.28962" stroke-linecap="round"/>
<line x1="0.644809" y1="-0.644809" x2="11.2807" y2="-0.644809" transform="matrix(-0.780334 0.625363 -0.559375 -0.828915 44.4082 22.5273)" stroke="#94552B" stroke-width="1.28962" stroke-linecap="round"/>
<path d="M18.6797 30.3945L12.8622 33.8369" stroke="#94552B" stroke-width="1.28962" stroke-linecap="round"/>
<path d="M9.00663 49.9586C9.96844 51.7343 9.96227 56.309 9.83896 58.3744C9.83896 58.3744 9.19158 53.7041 7.89685 51.1146C6.60211 48.5252 6.87955 47.3691 6.87955 47.3691C7.18782 47.4924 8.04482 48.183 9.00663 49.9586Z" fill="#70D23B"/>
<path d="M11.2121 47.8532C10.2503 49.6288 10.2565 54.2035 10.3798 56.269C10.3798 56.269 11.0272 51.5986 12.3219 49.0092C13.6166 46.4197 13.3392 45.2637 13.3392 45.2637C13.0309 45.387 12.1739 46.0775 11.2121 47.8532Z" fill="#70D23B"/>
<rect x="0.695312" y="54.7109" width="50.2467" height="5.72311" rx="2.86156" fill="#31D391"/>
<path d="M14.8086 44.0732C14.8086 43.5927 15.1982 43.2031 15.6787 43.2031H29.8703C30.3508 43.2031 30.7404 43.5927 30.7404 44.0732V48.5755H14.8086V44.0732Z" fill="#FFD072"/>
<rect x="14.8086" y="47.6035" width="7.13226" height="1.94948" transform="rotate(90 14.8086 47.6035)" fill="#F8C256"/>
<rect x="32.6875" y="47.6035" width="7.13226" height="1.94948" transform="rotate(90 32.6875 47.6035)" fill="#F8C256"/>
<rect x="12.2617" y="49.8691" width="21.0726" height="1.81056" fill="#E48524"/>
<line x1="14.834" y1="46.2213" x2="23.3556" y2="46.2213" stroke="#E48524" stroke-width="0.217526"/>
<line x1="26.6875" y1="46.2213" x2="30.7399" y2="46.2213" stroke="#E48524" stroke-width="0.217526"/>
</svg>
