<svg width="43" height="61" viewBox="0 0 43 61" fill="none" xmlns="http://www.w3.org/2000/svg">
<path d="M3.76176 53.932L3.41016 47.6031L22.4471 51.5209L40.7808 46.8496L40.379 54.1831C40.379 54.1831 35.0547 60.0097 21.6937 60.0097C8.33264 60.0097 3.76176 53.932 3.76176 53.932Z" fill="#204EB4"/>
<path d="M31.9411 23.944C24.2811 23.5924 18.5801 27.2089 18.5801 27.2089L31.9411 33.2364L41.7986 32.2568L42.0247 27.1585C42.0247 27.1585 39.6011 24.2956 31.9411 23.944Z" fill="#3898F1"/>
<path d="M14.0096 24.4981C6.71416 22.2776 3.56015 26.0723 2.2207 27.4787L3.18463 48.0256C3.18463 48.0256 6.72633 53.9325 20.9413 54.2841C35.1562 54.6357 41.033 47.4026 41.033 47.4026L42.0376 27.1602C40.4303 27.1602 35.8594 30.5256 31.6401 30.5256C25.4873 30.5256 23.2518 27.3111 14.0096 24.4981Z" fill="#6EB9FF"/>
<path d="M42.7024 5.53882C42.7024 5.78029 42.5971 6.03948 42.3493 6.31755C42.0999 6.5974 41.7186 6.88124 41.2037 7.16073C40.1743 7.71955 38.6655 8.23193 36.7763 8.66568C33.0026 9.5321 27.7749 10.0707 21.9905 10.0707C16.206 10.0707 10.9783 9.5321 7.20461 8.66568C5.31544 8.23193 3.80663 7.71955 2.77718 7.16073C2.26228 6.88124 1.88102 6.5974 1.6316 6.31755C1.38377 6.03948 1.27847 5.78029 1.27847 5.53882C1.27847 5.29735 1.38377 5.03817 1.6316 4.76009C1.88102 4.48024 2.26228 4.1964 2.77718 3.91691C3.80663 3.35809 5.31544 2.84571 7.20461 2.41196C10.9783 1.54554 16.206 1.00698 21.9905 1.00698C27.7749 1.00698 33.0026 1.54554 36.7763 2.41196C38.6655 2.84571 40.1743 3.35809 41.2037 3.91691C41.7186 4.1964 42.0999 4.48024 42.3493 4.76009C42.5971 5.03817 42.7024 5.29735 42.7024 5.53882Z" stroke="#204EB4" stroke-width="0.580375"/>
<mask id="path-5-inside-1_2391_398" fill="white">
<path fill-rule="evenodd" clip-rule="evenodd" d="M42.9911 5.71159C42.9955 5.78093 42.9943 5.84998 42.9876 5.91871L40.8545 53.8586C40.8559 53.8745 40.8565 53.8905 40.8565 53.9064C40.8565 55.7096 32.5317 60.3107 22.0456 60.3107C11.5595 60.3107 3.17189 55.7473 3.17189 53.9441C3.17189 53.9163 3.17388 53.8886 3.17784 53.861L1.00078 5.91562C0.985764 5.81898 0.980992 5.72165 0.98673 5.62369C0.98673 2.71089 10.2938 0.4375 21.945 0.4375C33.5962 0.4375 42.9911 2.79879 42.9911 5.71159Z"/>
</mask>
<path d="M42.9876 5.91871L42.2944 5.85111L42.2926 5.8694L42.2918 5.88775L42.9876 5.91871ZM42.9911 5.71159H42.2946V5.73367L42.296 5.75571L42.9911 5.71159ZM40.8545 53.8586L40.1588 53.8277L40.1568 53.8716L40.1604 53.9154L40.8545 53.8586ZM3.17784 53.861L3.86723 53.9599L3.87655 53.895L3.87357 53.8294L3.17784 53.861ZM1.00078 5.91562L1.69651 5.88403L1.69479 5.84617L1.68897 5.80871L1.00078 5.91562ZM0.98673 5.62369L1.68199 5.66441L1.68318 5.64407V5.62369H0.98673ZM43.6807 5.98631C43.691 5.88059 43.6929 5.77418 43.6861 5.66746L42.296 5.75571C42.2981 5.78769 42.2975 5.81937 42.2944 5.85111L43.6807 5.98631ZM41.5503 53.8896L43.6833 5.94966L42.2918 5.88775L40.1588 53.8277L41.5503 53.8896ZM40.1604 53.9154C40.1602 53.9125 40.1601 53.9095 40.1601 53.9064H41.553C41.553 53.8714 41.5515 53.8365 41.5487 53.8018L40.1604 53.9154ZM40.1601 53.9064C40.1601 53.8846 40.1583 53.9949 39.9428 54.254C39.7447 54.4923 39.4279 54.7813 38.983 55.104C38.0965 55.747 36.7816 56.4661 35.1216 57.1393C31.8053 58.4843 27.1912 59.6142 22.0456 59.6142V61.0071C27.3861 61.0071 32.1775 59.8365 35.6451 58.4301C37.3771 57.7277 38.7987 56.9584 39.8008 56.2316C40.3002 55.8693 40.7157 55.5031 41.0138 55.1446C41.2946 54.807 41.553 54.3791 41.553 53.9064H40.1601ZM22.0456 59.6142C16.8991 59.6142 12.2684 58.4934 8.93564 57.1571C7.26744 56.4883 5.94451 55.7735 5.05216 55.1336C4.6043 54.8125 4.2854 54.5247 4.086 54.2874C3.86891 54.029 3.86834 53.9201 3.86834 53.9441H2.47544C2.47544 54.4189 2.73698 54.8471 3.01955 55.1834C3.31981 55.5408 3.73812 55.9053 4.24044 56.2656C5.24846 56.9884 6.67782 57.7526 8.41729 58.45C11.8999 59.8463 16.706 61.0071 22.0456 61.0071V59.6142ZM3.86834 53.9441C3.86834 53.9497 3.86793 53.9551 3.86723 53.9599L2.48845 53.7621C2.47983 53.8222 2.47544 53.8829 2.47544 53.9441H3.86834ZM0.305043 5.94721L2.48211 53.8926L3.87357 53.8294L1.69651 5.88403L0.305043 5.94721ZM0.291471 5.58297C0.282817 5.73071 0.290056 5.87753 0.312581 6.02253L1.68897 5.80871C1.68147 5.76043 1.67917 5.71258 1.68199 5.66441L0.291471 5.58297ZM21.945 -0.25895C16.0815 -0.25895 10.7829 0.312426 6.92998 1.26208C5.00893 1.73557 3.40719 2.31262 2.26888 2.98481C1.17416 3.63125 0.290279 4.49963 0.290279 5.62369H1.68318C1.68318 5.29134 1.96267 4.78325 2.97713 4.18421C3.94798 3.61091 5.4012 3.07347 7.26331 2.61451C10.9767 1.69927 16.1572 1.13395 21.945 1.13395V-0.25895ZM43.6875 5.71159C43.6875 4.58683 42.7968 3.71296 41.6966 3.05981C40.5509 2.37962 38.9389 1.79137 37.0067 1.30672C33.1315 0.334732 27.8103 -0.25895 21.945 -0.25895V1.13395C27.7308 1.13395 32.9327 1.72091 36.6678 2.65777C38.5407 3.12754 40.0056 3.67577 40.9855 4.25754C42.011 4.86636 42.2946 5.37995 42.2946 5.71159H43.6875Z" fill="#204EB4" mask="url(#path-5-inside-1_2391_398)"/>
</svg>
