<svg width="242" height="172" viewBox="0 0 242 172" fill="none" xmlns="http://www.w3.org/2000/svg">
<path d="M15.9843 87.4891C21.6356 61.4855 52.8897 68.7916 64.8422 45.4792C76.7948 22.1667 89.0164 7.78649 127.84 18.571C166.663 29.3554 162.655 29.573 187.751 37.6463C243.589 55.6052 228.714 122.851 204.03 140.355C179.346 157.859 -3.21416 175.815 15.9843 87.4891Z" fill="#EEEFFF"/>
<path d="M152.861 49.8135L152.875 48.5653L155.372 48.8115C155.372 48.8115 154.685 49.6131 154.098 49.7391C153.511 49.8651 152.861 49.8135 152.861 49.8135Z" fill="#E8A777"/>
<path d="M152.878 35.3331C152.878 35.3331 151.035 34.1193 150.376 36.046C149.72 37.9727 147.064 51.789 147.064 51.789L153.11 51.9579L152.878 35.3331Z" fill="#DBDBDB"/>
<path d="M152.168 36.0975L157.001 41.2478L156.016 51.4654H160.101C160.101 51.4654 162.386 43.9704 160.281 39.7648C158.177 35.5593 156.517 34.0792 154.759 34.4542C153.001 34.835 152.168 36.0975 152.168 36.0975Z" fill="#DBDBDB"/>
<path d="M153.373 42.2727L151.541 42.3529L150.525 49.679H152.695L153.373 42.2727Z" fill="#C1C1C1"/>
<path d="M158.5 111.546L163.602 115.637C163.602 115.637 162.62 127.515 162.746 128.219C162.872 128.923 163.138 130.249 162.669 130.406C162.202 130.564 160.794 130.618 160.084 130.704C159.182 130.813 154.604 131.617 155.452 130.301C156.299 128.984 159.606 128.265 159.769 126.98C159.932 125.697 158.5 111.546 158.5 111.546Z" fill="#FFC392"/>
<path d="M159.843 129.628C162.548 129.413 162.955 129.072 162.786 128.451C162.955 129.084 163.393 130.595 163.112 131.322C162.76 132.23 155.912 131.967 155.431 131.969C154.95 131.972 154.389 131.36 154.658 130.675C154.927 129.991 156.393 129.038 157.71 128.714C157.04 129.496 157.137 129.842 159.843 129.628Z" fill="#2A0D10"/>
<path d="M159.777 126.332C159.777 126.332 160.169 126.123 161.065 126.129C161.961 126.135 162.809 126.278 162.809 126.278L162.912 124.661C162.912 124.661 161.75 124.492 161.02 124.552C160.29 124.615 159.691 124.775 159.691 124.775L159.777 126.332Z" fill="#E2A87D"/>
<path d="M148.581 111.546L153.683 115.637C153.683 115.637 152.701 127.515 152.827 128.219C152.953 128.923 153.219 130.249 152.749 130.406C152.283 130.564 150.874 130.618 150.164 130.704C149.262 130.813 144.685 131.617 145.532 130.3C146.379 128.983 149.686 128.265 149.849 126.979C150.012 125.697 148.581 111.546 148.581 111.546Z" fill="#FFC392"/>
<path d="M149.926 129.628C152.632 129.413 153.038 129.072 152.87 128.451C153.038 129.084 153.476 130.595 153.196 131.323C152.844 132.23 145.996 131.967 145.515 131.97C145.034 131.973 144.473 131.36 144.742 130.676C145.011 129.991 146.477 129.038 147.794 128.715C147.121 129.496 147.218 129.843 149.926 129.628Z" fill="#2A0D10"/>
<path d="M149.858 126.324C149.858 126.324 150.284 126.123 151.177 126.129C152.071 126.135 152.892 126.221 152.892 126.221L153.007 124.6C153.007 124.6 151.864 124.489 151.134 124.552C150.404 124.615 149.78 124.849 149.78 124.849L149.858 126.324Z" fill="#E2A87D"/>
<path d="M142.717 80.6667L138.185 124.815L169.488 126.109L167.083 80.6667H142.717Z" fill="#FF8278"/>
<path d="M142.431 83.4323L142.208 85.6081C142.208 85.6081 148.289 90.1887 156.783 88.7515C165.277 87.3144 167.318 85.1128 167.318 85.1128L167.098 82.6021L142.431 83.4323Z" fill="#DD6B66"/>
<path d="M151.67 49.1608C151.67 49.1608 151.982 50.3403 154.9 50.4949C157.817 50.6495 158.255 49.2209 158.255 49.2209C158.255 49.2209 163.571 47.005 166.589 50.4748C169.606 53.9446 176.64 71.1334 176.64 71.1334L169.019 75.5479L164.591 64.3369L168.83 81.7575C168.83 81.7575 161.593 87.9385 154.59 87.4632C147.588 86.988 141.035 82.5849 141.035 82.5849C141.035 82.5849 145.272 67.9613 145.418 66.3724C145.432 66.2149 145.404 66.1004 145.404 66.1004C145.404 66.1004 143.626 70.4663 143.362 70.7526C143.07 71.0704 154.027 72.7251 155.704 73.8359C151.115 76.4125 152.274 81.7747 152.274 81.7747C152.274 81.7747 137.516 80.1686 134.745 76.3581C131.974 72.5476 140.265 54.815 143.666 51.2879C148.332 46.4439 151.67 49.1608 151.67 49.1608Z" fill="url(#paint0_linear_9373_64566)"/>
<path d="M151.768 37.1081C151.673 37.5289 151.464 39.7849 150.797 40.6294C150.13 41.474 150.737 45.4534 152.131 46.0202C155.727 47.4831 157.559 43.3348 157.559 43.3348C157.559 43.3348 157.662 44.0191 158.476 43.0543C159.289 42.0895 159.188 40.867 158.464 40.867C157.74 40.867 157.602 41.2879 157.602 41.2879C157.602 41.2879 158.541 34.8006 153.826 35.2042C152.512 35.3159 151.991 36.1089 151.768 37.1081Z" fill="#FFC392"/>
<path d="M152.117 81.7575C152.117 81.7575 150.777 78.3936 152.967 75.5651C153.617 74.7263 154.301 74.4858 155.864 73.8674C155.864 73.8674 156.755 78.0787 155.12 79.9138C153.488 81.7489 152.117 81.7575 152.117 81.7575Z" fill="#892043"/>
<path d="M155.323 80.5294C154.281 80.2116 154.095 79.5044 154.095 79.5044L151.733 78.8002C151.733 78.8002 151.733 78.4337 151.948 77.4804C152.143 76.6187 152.486 76.2894 152.486 76.2894L154.659 77.217C154.659 77.217 155.724 76.7189 156.202 76.7131C156.683 76.7074 157.196 75.9602 157.588 76.3324C158.052 76.7733 156.177 77.4947 156.655 77.7094C157.133 77.9241 159.95 78.2677 159.864 78.9061C159.778 79.5445 157.153 78.4652 157.339 78.783C157.525 79.1036 159.844 79.3327 159.718 79.9568C159.598 80.5437 157.164 79.5359 157.136 79.7278C157.107 79.9167 159.011 80.6639 158.722 81.1277C158.433 81.5915 156.826 80.266 156.806 80.4091C156.786 80.5523 158.078 81.3968 157.714 81.7117C157.456 81.935 156.998 81.2995 156.199 80.9159C156.005 80.8185 155.532 80.5923 155.323 80.5294Z" fill="#FFC392"/>
<path d="M152.383 78.9948C152.383 78.9948 152.406 77.8382 152.715 77.1797C153.025 76.5213 153.025 76.5213 153.025 76.5213L152.486 76.2922C152.486 76.2922 152.166 76.5413 151.948 77.4832C151.731 78.4251 151.733 78.803 151.733 78.803L152.383 78.9948Z" fill="#E09D6C"/>
<path d="M152.168 36.0975L157.599 41.2879C157.599 41.2879 159.786 34.4972 153.977 34.8894C152.557 34.9839 152.168 36.0975 152.168 36.0975Z" fill="#DBDBDB"/>
<path d="M151.605 49.1236C151.605 49.1236 151.932 49.0807 152.45 48.7486C152.968 48.4165 152.733 43.5983 152.733 43.5983H156.927C156.927 43.5983 156.724 47.4632 157.242 48.2848C157.763 49.1065 158.837 49.0206 158.837 49.0206C158.837 49.0206 157.72 52.2241 153.864 51.9407C151.502 51.7661 151.605 49.1236 151.605 49.1236Z" fill="#FFC392"/>
<path d="M152.775 46.2434C152.775 46.2434 153.76 46.3236 154.516 45.9772C155.272 45.6307 152.715 47.7779 152.715 47.7779L152.775 46.2434Z" fill="#E09D6C"/>
<path d="M151.358 49.0693C151.332 49.5359 151.387 50.0083 151.536 50.4492C151.682 50.8901 151.934 51.2995 152.289 51.6001C152.641 51.9007 153.082 52.0925 153.54 52.164C153.995 52.2585 154.464 52.2413 154.931 52.2098C155.856 52.1469 156.795 51.9092 157.55 51.3538C158.312 50.8185 158.865 49.9854 159.045 49.0664C158.97 49.5302 158.79 49.9739 158.544 50.3719C158.292 50.7698 157.96 51.1134 157.579 51.3911C156.818 51.9579 155.87 52.207 154.937 52.2786C154.467 52.3043 153.992 52.3186 153.528 52.2184C153.064 52.1411 152.615 51.9407 152.257 51.6315C151.896 51.3224 151.644 50.9044 151.501 50.4578C151.361 50.0112 151.318 49.5359 151.358 49.0693Z" fill="#892043"/>
<path d="M145.4 66.1119L145.652 71.3567L144.272 71.0647L145.4 66.1119Z" fill="#892043"/>
<path d="M145.378 66.1263C145.988 64.7206 146.546 63.2863 147.024 61.8319C147.265 61.1048 147.479 60.369 147.654 59.6247C147.823 58.8803 147.98 58.1245 147.969 57.3687L148.112 57.3658C148.121 58.1474 147.969 58.9118 147.788 59.659C147.602 60.4062 147.379 61.142 147.127 61.8692C146.629 63.3235 146.054 64.7492 145.424 66.1492L145.378 66.1263Z" fill="#892043"/>
<path d="M139.56 69.4043C142.475 69.7564 143.256 70.664 143.359 70.7527C144.27 71.1592 155.864 73.8647 155.864 73.8647" stroke="#892043" stroke-width="0.143144" stroke-miterlimit="10"/>
<path d="M141.805 79.8966L152.154 81.7145" stroke="#892043" stroke-width="0.143144" stroke-miterlimit="10"/>
<path d="M144.576 80.3891L143.746 84.1739L141.032 82.585L141.805 79.828L144.576 80.3891Z" fill="#892043"/>
<path d="M164.59 64.3369L162.266 56.7474" stroke="#892043" stroke-width="0.143144" stroke-miterlimit="10"/>
<path d="M163.872 61.6429L168.292 70.9502L168.2 73.4781L164.59 64.3369L163.872 61.6429Z" fill="#892043"/>
<path d="M167.648 31.5827L167.015 27.881C167.015 27.881 166.308 27.4057 166.325 26.0974C166.328 25.8369 166.248 25.2128 166.211 24.9523C166.071 23.9016 165.535 23.1401 165.87 22.9311C166.342 22.6362 166.815 24.4226 166.978 24.4513C167.141 24.4827 166.254 22.1581 166.861 22.0006C167.468 21.8432 167.616 24.2938 167.834 24.3281C168.054 24.3654 167.805 21.2162 168.49 21.2992C169.217 21.388 168.653 24.1192 168.936 24.4484C169.22 24.7776 168.959 21.3851 169.686 21.5254C170.414 21.6628 169.801 25.0009 169.87 25.6279C169.938 26.2549 171.384 24.3854 171.705 25.0782C171.974 25.6622 170.977 25.9714 170.803 26.5154C170.628 27.0593 169.712 28.0871 169.712 28.0871L170.164 30.9901L167.648 31.5827Z" fill="#FFB3A1"/>
<path d="M206.005 35.4676L207.059 31.8575C207.059 31.8575 207.817 31.4624 207.949 30.1626C207.975 29.9021 208.126 29.2923 208.192 29.0375C208.453 28.0069 209.071 27.3112 208.762 27.065C208.327 26.7186 207.654 28.4421 207.488 28.4564C207.322 28.4678 208.47 26.2577 207.886 26.0344C207.299 25.8111 206.873 28.2302 206.652 28.2417C206.429 28.2531 207.039 25.1526 206.349 25.1583C205.616 25.1669 205.862 27.9411 205.541 28.2388C205.224 28.5365 205.871 25.1927 205.132 25.2528C204.393 25.3101 204.619 28.694 204.479 29.3095C204.339 29.925 203.116 27.9096 202.719 28.5652C202.384 29.1148 203.34 29.5328 203.449 30.0911C203.557 30.6522 204.353 31.7716 204.353 31.7716L203.572 34.6087L206.005 35.4676Z" fill="#FFB3A1"/>
<path d="M199.093 126.072L199.548 131.111L194.082 131.554L193.547 126.229L199.093 126.072Z" fill="#FFB3A1"/>
<path d="M199.404 129.021C199.404 129.021 197.784 130.375 196.037 130.212C194.291 130.049 193.862 129.207 193.862 129.207C193.862 129.207 188.84 132.642 188.737 133.126C188.688 133.355 188.723 133.647 188.769 133.891C188.823 134.162 189.081 134.349 189.361 134.314L199.682 133.092C200.068 133.046 200.346 132.705 200.303 132.327L199.404 129.021Z" fill="#3D3130"/>
<path d="M179.755 124.95L179.761 130.009L174.278 129.991L174.215 124.641L179.755 124.95Z" fill="#FFB3A1"/>
<path d="M179.761 128.42C179.761 128.42 178.029 129.631 176.303 129.324C174.576 129.018 174.224 128.142 174.224 128.142C174.224 128.142 168.916 131.142 168.773 131.618C168.705 131.844 168.71 132.136 168.736 132.382C168.765 132.657 169.005 132.866 169.289 132.854L179.681 132.505C180.07 132.491 180.377 132.176 180.368 131.798L179.761 128.42Z" fill="#3D3130"/>
<path d="M172.067 75.8513C172.067 75.8513 172.067 108.743 172.067 118.54C172.067 128.336 172.794 127.672 172.794 127.672L181.337 127.681L185.517 77.5261L172.067 75.8513Z" fill="#5399E5"/>
<path d="M177.706 76.776C177.706 76.776 185.702 109.985 187.703 116.295C189.702 122.605 191.703 128.749 191.703 128.749H200.609C200.609 128.749 199.518 117.956 197.7 112.144C195.882 106.332 192.793 78.4222 192.793 78.4222L177.706 76.776Z" fill="#55B2FF"/>
<path d="M172.067 82.7022C172.067 82.7022 173.321 84.8265 182.385 84.5745C191.449 84.3226 193.227 82.1897 193.227 82.1897L192.998 79.9681L172.205 80.4033L172.067 82.7022Z" fill="#4A79A8"/>
<path d="M165.764 28.2102H171.046L173.602 39.6675L179.738 48.9661C179.738 48.9661 180.74 50.5206 182.784 50.6867C184.828 50.8527 186.58 49.2781 186.58 49.2781L190.31 48.3048L198.312 42.1582L202.913 31.7802L207.685 32.8595L202.913 49.1321L193.711 58.5968C193.711 58.5968 198.409 79.0378 192.452 81.517C186.494 83.9963 175.982 84.692 170.528 80.558C165.074 76.424 172.583 51.786 172.583 51.786C172.583 51.786 169.686 48.4651 168.323 44.646C166.958 40.8298 165.764 28.2102 165.764 28.2102Z" fill="url(#paint1_linear_9373_64566)"/>
<path d="M172.581 51.7889L175.109 54.4085L172.678 57.8096L171.152 57.0395L172.581 51.7889Z" fill="#EA7636"/>
<path d="M193.711 58.5969L192.761 59.4157L194.221 61.1649L193.711 58.5969Z" fill="#EA7636"/>
<path d="M182.08 42.3212C182.08 42.3212 178.582 53.1973 181.843 54.2508C185.103 55.3044 186.558 50.5864 186.558 50.5864L186.795 42.1981L182.08 42.3212Z" fill="#FFB3A1"/>
<path d="M181.405 46.8504L186.712 44.1393L186.606 50.4233C186.606 50.4233 186.566 51.056 185.957 52.058C185.347 53.06 184.992 53.3349 184.992 53.3349L181.405 46.8504Z" fill="#FF957B"/>
<path d="M180.439 47.128C178.99 46.1976 179.411 40.9556 179.692 38.4707C179.841 37.065 181.332 35.937 184.739 36.4895C188.146 37.0421 187.087 40.4317 186.986 41.9319C188.839 40.8755 188.106 43.7756 187.822 44.2193C187.596 44.5743 187.167 44.5056 186.855 44.3338C186.752 45.0381 185.921 46.4409 185.406 47.0793C184.41 48.319 181.888 48.0584 180.439 47.128Z" fill="#FFB3A1"/>
<path d="M186.729 42.4759C186.906 42.3728 187.141 42.0865 187.479 41.806C187.479 41.806 189.775 37.1681 187.181 35.7796C184.588 34.3911 181.765 35.3616 181.748 35.4332C181.728 35.5019 178.756 35.167 178.558 38.0728C178.364 40.9815 179.42 42.3556 179.492 41.4996C179.58 40.4289 179.563 38.485 179.97 38.1644C180.688 37.5975 180.963 38.6224 182.154 38.6997C184.479 38.8486 185 37.6233 185.578 38.1902C186.156 38.757 186.194 40.2085 186.096 40.8927C185.999 41.5769 186.162 42.8023 186.729 42.4759Z" fill="#DBDBDB"/>
<path d="M179.412 42.5302C179.412 42.5302 183.62 41.0043 184.682 44.0046C186.114 44.6459 186.712 41.6399 186.712 41.6399C186.712 41.6399 187.691 47.7665 185.008 48.6339C182.326 49.5014 179.91 48.8601 178.999 46.7387C178.089 44.6173 179.412 42.5302 179.412 42.5302Z" fill="#DBDBDB"/>
<path d="M177.82 46.0574C177.82 46.0574 176.532 52.6592 174.697 55.0268C172.861 57.3944 171.155 57.0394 171.155 57.0394C171.155 57.0394 168.029 70.0683 168.544 73.8531C169.183 78.5367 178.859 77.967 178.859 77.967L182.04 56.4926L180.505 49.7705L177.82 46.0574Z" fill="#FFE0DC"/>
<path d="M186.626 49.2666L183.998 56.7186L183.311 77.9698C183.311 77.9698 188.647 79.6675 191.742 78.3133C194.837 76.9592 195.71 75.8541 195.71 75.8541C195.71 75.8541 196.403 72.9225 194.101 60.532C193.059 59.9852 191.37 58.2675 190.365 54.643C189.715 52.2955 190.308 48.3075 190.308 48.3075L186.626 49.2666Z" fill="#FFE0DC"/>
<path d="M186.549 68.4422C186.549 68.4422 188.605 68.9661 190.354 68.9146C192.103 68.863 193.578 68.0786 193.578 68.0786V75.0068C193.578 75.0068 192.392 75.9658 189.905 75.9658C187.417 75.9658 186.724 74.6403 186.724 74.6403L186.549 68.4422Z" fill="#F2BAB6"/>
<path d="M170.809 66.9077C170.809 66.9077 173.336 68.7514 175.486 68.3592C177.636 67.967 177.803 67.6807 177.803 67.6807L176.623 74.5173C176.623 74.5173 175.292 75.2702 172.838 74.8694C170.385 74.4686 169.927 73.0486 169.927 73.0486L170.809 66.9077Z" fill="#F2BAB6"/>
<path d="M69.3506 130.504L71.0884 131.385L76.3561 132.015L77.9908 131.901L69.3506 130.504Z" fill="#DBCABF"/>
<path d="M84.9165 131.108L93.2017 130.18L91.6071 130.953L86.3451 131.566L84.9165 131.108Z" fill="#DBCABF"/>
<path d="M71.3125 128.625L70.8745 134.042L76.1336 134.52L76.6489 128.797L71.3125 128.625Z" fill="#FFB3A1"/>
<path d="M86.0122 127.93L86.5046 133.341L91.7551 132.748L91.2828 127.02L86.0122 127.93Z" fill="#FFB3A1"/>
<path d="M94.2324 63.6526L95.0197 64.0648L98.9304 60.6237L98.0143 60.2887L94.2324 63.6526Z" fill="#DB9E71"/>
<path d="M86.2881 130.953L86.3453 131.566L91.6073 130.953L91.5615 130.403L86.2881 130.953Z" fill="#DB9E71"/>
<path d="M71.1344 130.793L71.0972 131.26L76.3563 132.015L76.3906 131.643L71.1344 130.793Z" fill="#DB9E71"/>
<path d="M85.8003 132.576C85.8003 132.576 86.0579 131.677 87.0371 131.958C88.0162 132.238 88.0162 133.303 89.668 132.911C91.3171 132.519 91.6262 131.566 91.6262 131.566C91.6262 131.566 96.8338 134.595 96.9884 135.101C97.0629 135.342 97.0657 135.654 97.0485 135.92C97.0314 136.218 96.8052 136.447 96.5332 136.447H86.5275C86.1524 136.447 85.8461 136.121 85.8432 135.711L85.8003 132.576Z" fill="#3D3130"/>
<path d="M70.4475 132.78C70.4475 132.78 70.8025 131.924 71.7444 132.33C72.6863 132.737 72.5689 133.796 74.2494 133.621C75.9299 133.45 76.3451 132.542 76.3451 132.542C76.3451 132.542 81.1776 136.235 81.2749 136.756C81.3208 137.002 81.2893 137.317 81.2434 137.578C81.1919 137.87 80.9428 138.07 80.6709 138.033L70.7395 136.719C70.3674 136.67 70.1011 136.304 70.1412 135.9L70.4475 132.78Z" fill="#3D3130"/>
<path d="M91.0379 83.2233L93.2022 130.18L84.917 131.108L81.098 98.2219L77.9917 131.901L69.3516 130.504L74.1268 81.9836L91.0379 83.2233Z" fill="#FFF2E9"/>
<path d="M75.4947 86.3381C75.4947 86.3381 85.5377 86.6988 88.1286 86.3381C90.7195 85.9774 91.1575 85.797 91.1575 85.797L91.0087 84.0707H75.0596L75.4947 86.3381Z" fill="#DBCABF"/>
<path d="M92.537 56.4238C92.537 56.4238 97.6357 60.5492 98.9298 60.6237C100.224 60.6981 109.502 58.0013 109.502 58.0013L110.968 61.4081C110.968 61.4081 100.842 65.7568 98.8897 65.6423C96.9343 65.5278 88.3457 60.2859 88.3457 60.2859L92.537 56.4238Z" fill="#FFB3A1"/>
<path d="M114.083 61.1475C112.508 61.8403 111.655 61.1533 111.655 61.1533L108.225 62.5933L107.017 58.7055L110.344 57.7235C110.344 57.7235 111.228 55.9972 111.821 55.4905C112.414 54.9837 112.396 53.5208 113.21 53.5752C114.174 53.6411 112.477 56.4896 113.261 56.2577C114.045 56.0258 117.847 53.5179 118.3 54.4026C118.752 55.2843 114.541 56.6757 115.053 56.879C115.566 57.0822 118.652 54.9523 119.044 55.8569C119.413 56.7129 115.503 57.9926 115.631 58.2617C115.76 58.528 118.786 57.4716 118.832 58.3476C118.878 59.2237 115.72 59.2494 115.82 59.447C115.921 59.6474 118.268 59.3496 118.096 60.1226C117.973 60.6694 116.842 60.3574 115.514 60.7095C115.182 60.7983 114.395 61.0101 114.083 61.1475Z" fill="#FFB3A1"/>
<path d="M74.7191 50.3116C74.7191 50.3116 71.3609 49.8879 69.6289 51.0474C67.4674 52.496 67.5676 64.2538 67.5676 64.2538L71.1033 65.5765L70.2387 84.7521C70.2387 84.7521 80.0641 85.1929 83.9948 85.1929C87.9256 85.1929 91.2236 84.8007 91.8363 84.1823C92.4489 83.5639 88.939 61.1132 88.939 61.1132L93.1818 64.5859L99.3112 59.1321C99.3112 59.1321 90.0384 49.2237 87.0323 48.7857C84.0263 48.3477 80.4592 49.8135 80.4592 49.8135C80.4592 49.8135 83.3621 51.5426 79.7663 52.6992C76.1792 53.853 74.7191 50.3116 74.7191 50.3116Z" fill="url(#paint2_linear_9373_64566)"/>
<path d="M75.1076 44.0733C75.1076 44.0733 75.6429 49.7762 75.2965 50.0539C74.9473 50.3316 74.6123 50.3144 74.6123 50.3144C74.6123 50.3144 75.9464 53.6153 79.1843 53.2488C82.8574 52.8366 82.1445 49.2551 82.1445 49.2551C82.1445 49.2551 81.6493 49.4842 81.2943 49.3067C80.8133 49.069 81.1025 44.0189 81.1025 44.0189L75.1076 44.0733Z" fill="#FFB3A1"/>
<path d="M77.02 47.108C77.02 47.108 77.0887 48.2761 78.5774 48.9145C80.0661 49.5501 81.1197 48.9088 81.1197 48.9088L80.9622 47.2512L77.02 47.108Z" fill="#DB9E71"/>
<path d="M75.1075 42.1208C75.1075 42.1208 74.3517 41.3507 74.1627 42.1208C73.9738 42.891 74.1627 44.4856 74.6351 44.5886C75.1075 44.6917 75.3451 44.5886 75.3451 44.5886C75.3451 44.5886 76.9598 48.1558 79.2673 48.3447C83.0405 48.6511 83.1178 43.4778 82.4737 42.8824C81.8295 42.2869 82.3735 38.7741 82.1015 37.7979C81.6291 36.1002 78.981 35.8941 76.9025 36.9762C74.8241 38.0584 75.1075 42.1208 75.1075 42.1208Z" fill="#FFB3A1"/>
<path d="M75.1074 42.1209C75.1074 42.1209 72.9831 38.3533 75.0387 36.7329C77.0942 35.1126 80.1088 32.8767 80.8847 33.7613C81.6605 34.6459 80.9591 35.1498 80.9591 35.1498C80.9591 35.1498 82.7656 34.4169 83.4756 35.0353C84.1856 35.6536 84.5377 38.3906 81.9869 38.4679C80.1346 38.5251 78.0533 37.6977 76.8108 38.6597C75.5712 39.6245 75.1074 42.1209 75.1074 42.1209Z" fill="#E15550"/>
<path d="M74.4673 50.2858C74.6219 50.7696 74.8681 51.222 75.1687 51.6256C75.4664 52.0322 75.83 52.39 76.2509 52.6649C77.0868 53.2288 78.1146 53.4493 79.1137 53.3978C79.6147 53.3777 80.1157 53.2947 80.5709 53.0914C81.0261 52.891 81.4241 52.5675 81.7047 52.1553C81.9881 51.7459 82.157 51.2592 82.24 50.761C82.3259 50.2629 82.3402 49.7504 82.2744 49.2466C82.4347 50.24 82.3631 51.3336 81.7934 52.2154C81.5157 52.6563 81.0949 52.997 80.6225 53.2117C80.1472 53.4264 79.6291 53.518 79.1166 53.5409C78.0946 53.5896 77.0296 53.3577 76.1822 52.7593C75.3405 52.1696 74.7364 51.2649 74.4673 50.2858Z" fill="#A06D07"/>
<path d="M88.916 61.1247L88.664 57.1997L88.5266 55.2386C88.4751 54.5859 88.4379 53.9303 88.3491 53.2804C88.4608 53.9274 88.5238 54.5801 88.5982 55.2329L88.8072 57.1882L89.2023 61.1046L88.916 61.1247Z" fill="#A06D07"/>
<path d="M88.7354 57.1969L90.3872 62.2957L88.9415 61.1133L88.7354 57.1969Z" fill="#A06D07"/>
<path d="M81.0977 93.647V98.2219L81.7304 103.656" stroke="#C1B3AA" stroke-width="0.143144" stroke-miterlimit="10"/>
<path d="M89.7119 97.5061L91.756 130.403" stroke="#C1B3AA" stroke-width="0.143144" stroke-miterlimit="10"/>
<path d="M81.0973 97.3058L80.5791 103.833" stroke="#C1B3AA" stroke-width="0.143144" stroke-miterlimit="10"/>
<path d="M72.9293 62.7968L73.688 78.8546L69.6284 76.6932L71.1085 63.0687L72.9293 62.7968Z" fill="#FFC392"/>
<path d="M64.4323 39.5559C64.4323 39.5559 59.9175 41.998 60.659 45.6882C61.452 49.6218 60.8823 55.3733 60.8823 55.3733L53.3071 51.8749C53.3071 51.8749 56.3618 42.602 58.8697 39.7993C62.3767 35.8714 64.4323 39.5559 64.4323 39.5559Z" fill="#E15550"/>
<path d="M64.0547 39.1752C64.0547 39.1752 65.0137 37.4575 66.7487 38.9032C68.4836 40.349 68.6353 53.1089 68.6353 53.1089L64.6158 53.7072L64.0547 39.1752Z" fill="#E15550"/>
<path d="M65.7441 50.3404L66.5744 53.2806H64.7278L64.5933 50.266L65.7441 50.3404Z" fill="#CE3A3A"/>
<path d="M51.549 113.53L45.6973 118.222C45.6973 118.222 46.8224 131.847 46.6792 132.654C46.5361 133.464 46.2298 134.984 46.7651 135.165C47.3005 135.345 48.9151 135.408 49.7282 135.508C50.7646 135.634 56.0151 136.556 55.0417 135.045C54.0712 133.533 50.275 132.711 50.0889 131.237C49.9086 129.76 51.549 113.53 51.549 113.53Z" fill="#FFC392"/>
<path d="M50.0089 134.266C46.9056 134.02 46.4418 133.627 46.6336 132.915C46.4389 133.642 45.9379 135.374 46.2614 136.207C46.6651 137.246 54.5208 136.945 55.0705 136.948C55.6202 136.951 56.2672 136.25 55.958 135.465C55.6488 134.681 53.9683 133.587 52.4567 133.218C53.2239 134.114 53.1123 134.512 50.0089 134.266Z" fill="#2A0D10"/>
<path d="M50.2146 128.222C50.2146 128.222 49.5447 127.887 48.5399 127.667C47.535 127.447 46.4127 127.455 46.4127 127.455L46.2725 125.543C46.2725 125.543 48.1247 125.649 48.9292 125.906C49.7337 126.164 50.3864 126.333 50.3864 126.333L50.2146 128.222Z" fill="#E2A87D"/>
<path d="M64.3493 113.53L58.4976 118.222C58.4976 118.222 59.6227 131.847 59.4795 132.654C59.3364 133.464 59.0301 134.984 59.5654 135.165C60.1008 135.345 61.7154 135.408 62.5285 135.508C63.5649 135.634 68.8154 136.556 67.842 135.045C66.8686 133.533 63.0753 132.711 62.8892 131.237C62.706 129.76 64.3493 113.53 64.3493 113.53Z" fill="#FFC392"/>
<path d="M62.8053 134.266C59.702 134.02 59.2382 133.627 59.43 132.915C59.2353 133.642 58.7343 135.374 59.0578 136.207C59.4615 137.246 67.3172 136.945 67.8669 136.948C68.4166 136.951 69.0636 136.25 68.7544 135.465C68.4452 134.681 66.7647 133.587 65.2531 133.218C66.0232 134.114 65.9115 134.512 62.8053 134.266Z" fill="#2A0D10"/>
<path d="M62.883 130.16C62.883 130.16 62.3935 129.931 61.3686 129.937C60.3437 129.946 59.4018 130.04 59.4018 130.04L59.2729 128.182C59.2729 128.182 60.5841 128.053 61.4201 128.125C62.2561 128.196 62.9747 128.466 62.9747 128.466L62.883 130.16Z" fill="#E2A87D"/>
<path d="M59.3796 53.0973C59.3796 53.0973 55.592 50.8557 52.503 53.5783C49.4139 56.3038 45.9298 63.7816 45.9298 63.7816L53.1586 67.8011L55.3687 65.0184C55.3687 65.0184 53.8657 71.2194 48.3088 82.0811C43.2043 92.0583 36.8945 123.04 36.8945 123.04C36.8945 123.04 45.6034 127.146 58.6324 128.514C71.6614 129.883 79.0733 129.198 79.0733 129.198C79.0733 129.198 79.1936 89.2383 71.9362 74.6434C69.9379 70.6268 71.0544 65.9316 71.0544 65.9316L74.5557 65.067C74.5557 65.067 74.3095 56.3639 71.6614 53.7787C70.1154 52.27 66.6341 53.0716 66.6341 53.0716C66.6341 53.0716 65.8554 55.7741 63.4248 56.089C60.9943 56.4011 59.3796 53.0973 59.3796 53.0973Z" fill="url(#paint3_linear_9373_64566)"/>
<path d="M50.4017 65.1931C48.5351 64.2942 45.9814 63.7817 45.9814 63.7817L53.2102 67.8012C53.2102 67.8012 52.2655 66.0921 50.4017 65.1931Z" fill="#A00A8B"/>
<path d="M53.5763 63.5355C53.5763 63.5355 51.5293 68.1591 51.6639 69.1954C51.7984 70.2318 54.9046 77.2115 54.9046 77.2115L52.8291 78.8519C52.8291 78.8519 48.4947 71.4342 48.2943 69.8682C48.0967 68.3022 50.3985 60.7528 50.3985 60.7528L53.5763 63.5355Z" fill="#FFC392"/>
<path d="M53.4411 81.2852C52.7569 80.1315 53.0947 79.3585 53.0947 79.3585L51.6489 76.8392L54.0824 75.3362L55.2075 77.8355C55.2075 77.8355 56.4872 78.2935 56.9109 78.6943C57.3317 79.0923 58.3108 78.8747 58.3881 79.5274C58.4798 80.3004 56.3326 79.3557 56.5988 79.9454C56.8622 80.5352 59.0781 83.1976 58.5485 83.6815C58.0217 84.1653 56.4986 81.0219 56.4357 81.4542C56.3698 81.8893 58.2307 84.0365 57.681 84.4745C57.16 84.8868 55.7543 81.9666 55.5911 82.1069C55.4308 82.2472 56.5616 84.4974 55.9833 84.6577C55.4022 84.818 54.9412 82.3159 54.8239 82.4218C54.7036 82.5306 55.2332 84.3514 54.6922 84.3199C54.3085 84.2999 54.3572 83.358 53.9364 82.356C53.8304 82.1069 53.5785 81.5143 53.4411 81.2852Z" fill="#FFC392"/>
<path d="M45.9297 63.7817C45.9297 63.7817 48.4834 64.2941 50.35 65.1931C52.2166 66.092 53.1585 67.8012 53.1585 67.8012L56.3792 63.8275L49.9062 59.327L45.9297 63.7817Z" fill="#F46EC7"/>
<path d="M60.8312 47.3802C60.8312 47.3802 61.2779 52.1641 60.6423 52.7395C60.0067 53.315 59.354 53.1289 59.354 53.1289C59.354 53.1289 59.6145 56.5987 63.1244 56.5271C66.6343 56.4556 66.6343 53.0716 66.6343 53.0716C66.6343 53.0716 65.5435 53.2005 65.1427 52.8397C64.7419 52.479 64.8021 47.3115 64.8021 47.3115L60.8312 47.3802Z" fill="#FFC392"/>
<path d="M63.3301 51.0732C64.0974 51.3709 64.8675 51.1934 64.8675 51.1934L64.8417 50.3661C64.8417 50.3661 63.7481 50.4319 63.4332 50.3976C63.1183 50.3661 62.4741 50.0511 62.4741 50.0511C62.4741 50.0511 62.5657 50.7755 63.3301 51.0732Z" fill="#DB9E71"/>
<path d="M60.0413 44.7092C60.0413 44.7092 59.3056 43.9706 59.1195 44.7092C58.9363 45.4479 59.1195 46.9738 59.5804 47.0711C60.0413 47.1685 60.2704 47.0711 60.2704 47.0711C60.2704 47.0711 61.8364 50.664 64.0923 50.664C66.3483 50.664 66.9008 49.6305 67.2014 48.0044C67.3646 47.1141 67.9028 45.6082 67.2644 44.6863C66.8664 44.1109 67.0754 41.3482 66.855 40.5724C66.3941 38.9491 63.8175 38.7516 61.7905 39.7851C59.7665 40.8215 60.0413 44.7092 60.0413 44.7092Z" fill="#FFC392"/>
<path d="M64.3018 39.3127C64.3018 39.3127 63.6891 42.9772 62.4753 43.8447C61.2614 44.7121 60.0418 44.7092 60.0418 44.7092C60.0418 44.7092 59.6696 40.4865 61.5649 39.3671C63.4601 38.2477 64.3018 39.3127 64.3018 39.3127Z" fill="#E15550"/>
<path d="M64.0545 39.1752C64.3007 39.0264 66.4536 39.0264 66.4536 39.0264L67.1206 40.1801L67.0261 43.5039C67.0261 43.5039 66.966 41.7461 66.0585 40.6296C65.1538 39.5131 63.9171 39.2583 64.0545 39.1752Z" fill="#E15550"/>
<path d="M59.001 52.9371C59.0668 53.4553 59.2128 53.9592 59.4161 54.4344C59.6165 54.9125 59.8885 55.3591 60.2377 55.737C60.5899 56.1121 61.0136 56.4155 61.4945 56.5959C61.9698 56.7848 62.488 56.8536 63.0004 56.845C63.5129 56.8364 64.0311 56.7705 64.5149 56.5988C65.0016 56.4327 65.4482 56.1636 65.8146 55.8029C66.1839 55.445 66.4616 54.9984 66.6506 54.5174C66.8395 54.0365 66.9569 53.5212 66.977 53.0001C66.9741 54.0365 66.642 55.1158 65.8919 55.8802C65.5255 56.2667 65.056 56.5444 64.5578 56.7219C64.0597 56.9022 63.5272 56.9738 63.0004 56.9852C62.4737 56.991 61.9383 56.9165 61.443 56.7161C60.9477 56.5243 60.5011 56.2065 60.1519 55.8086C59.4562 55.0127 59.1012 53.9706 59.001 52.9371Z" fill="#A00A8B"/>
<path d="M55.3467 65.0986C55.5127 64.8152 55.6702 64.5289 55.8219 64.2397C55.9794 63.9534 56.134 63.6643 56.28 63.3723C56.5806 62.7911 56.8697 62.2042 57.1274 61.6059C57.3936 61.0104 57.6341 60.4035 57.8288 59.7793C58.0177 59.1581 58.1838 58.5225 58.2181 57.8669C58.2353 58.5254 58.1065 59.1781 57.9319 59.8108C57.7601 60.4464 57.5139 61.0591 57.2591 61.6631C56.9928 62.2643 56.7008 62.8512 56.3802 63.4267C56.0624 63.9992 55.7217 64.5604 55.3467 65.0986Z" fill="#A00A8B"/>
<path d="M71.0194 65.9317L70.6157 58.2849L70.7589 58.2792L71.0824 65.9259L71.0194 65.9317Z" fill="#A00A8B"/>
<path d="M70.8521 61.4684L71.4103 65.8486L71.0525 65.9287L70.8521 61.4684Z" fill="#A00A8B"/>
<path d="M56.7856 62.439L52.8091 72.3388L55.3656 65.0184L56.7856 62.439Z" fill="#A00A8B"/>
<path d="M71.0517 65.9289L70.8799 66.9452L73.1043 66.4957L73.0557 65.4336L71.0517 65.9289Z" fill="#DB9E71"/>
<path d="M49.2718 64.7378C49.2718 64.7378 50.1651 64.9783 51.0611 65.5995C51.9572 66.2208 52.3094 66.6731 52.3094 66.6731L52.1548 67.1083L49.1201 65.3161L49.2718 64.7378Z" fill="#DB9E71"/>
<path d="M222.171 86.3409C222.984 90.5895 223.417 97.7867 223.434 105.296C223.451 112.811 223.047 120.707 222.168 126.355L220.809 126.144C221.673 120.595 222.074 112.78 222.057 105.299C222.04 97.8096 221.607 90.7183 220.82 86.6015L222.171 86.3409Z" fill="#00271C"/>
<path d="M229.134 75.2158C230.855 76.0718 228.055 80.9072 223.079 83.9791C222.026 84.629 219.621 84.42 218.487 83.9533C216.211 83.0172 210.42 78.6541 212.326 76.2322C213.852 74.294 216.784 75.6395 218.061 76.5528C217.646 74.9295 217.471 71.7403 220.088 71.9894C222.704 72.2384 223.44 75.3389 223.48 76.8563C224.791 76.026 227.757 74.5316 229.134 75.2158Z" fill="#C8A1FF"/>
<path d="M230.651 78.2533C232.059 74.3025 224.73 76.3323 220.98 81.225C218.455 79.5302 209.262 76.2464 210.762 79.722C211.905 82.3701 214.596 88.1188 221.346 88.0673C228.094 88.0157 229.717 80.8757 230.651 78.2533Z" fill="#851ED6"/>
<path d="M204.515 88.2707C206.219 93.8132 211.675 103.997 221.507 105.127C221.721 105.153 221.91 104.981 221.907 104.764C221.756 94.5748 210.94 89.3414 204.945 87.8212C204.673 87.7525 204.432 88.0016 204.515 88.2707Z" fill="#8CD061"/>
<path d="M221.678 104.644C217.748 100.017 214.744 96.8565 209.021 91.1193C214.309 97.3976 215.781 98.8233 221.678 104.644Z" fill="#30AD6D"/>
<path d="M216.354 107.512C217.696 110.292 219.325 115.176 220.722 120.355C222.119 125.537 223.299 131.056 223.734 135.116L222.758 135.222C222.328 131.234 221.166 125.771 219.772 120.612C218.378 115.448 216.772 110.635 215.469 107.941L216.354 107.512Z" fill="#00271C"/>
<path d="M219.108 98.554C220.454 98.8259 219.415 102.679 216.549 105.717C215.942 106.361 214.244 106.659 213.377 106.547C211.633 106.321 206.832 104.38 207.703 102.356C208.398 100.738 210.669 101.125 211.719 101.52C211.132 100.475 210.425 98.3077 212.275 97.9986C214.124 97.6865 215.203 99.6905 215.513 100.73C216.26 99.9138 218.032 98.3364 219.108 98.554Z" fill="#C8A1FF"/>
<path d="M220.715 100.369C220.955 97.3831 216.277 100.134 214.591 104.203C212.536 103.498 205.587 102.929 207.265 105.05C208.542 106.665 211.459 110.134 216.106 108.855C220.752 107.575 220.554 102.35 220.715 100.369Z" fill="#851ED6"/>
<path d="M202.188 115.285C205.1 119.934 212.578 127.907 221.836 126.539C222.04 126.51 222.168 126.304 222.114 126.109C219.486 116.834 208.318 114.695 202.469 114.772C202.206 114.772 202.048 115.059 202.188 115.285Z" fill="#8CD061"/>
<path d="M221.88 126.055C217.156 122.786 213.64 120.633 207.007 116.788C213.371 121.234 215.066 122.176 221.88 126.055Z" fill="#30AD6D"/>
<path d="M18.8539 86.3411C18.0408 90.5896 17.6085 97.7869 17.5913 105.296C17.5742 112.811 17.9778 120.707 18.8567 126.356L20.2166 126.144C19.352 120.595 18.9512 112.78 18.9684 105.299C18.9856 97.8098 19.4179 90.7184 20.2052 86.6016L18.8539 86.3411Z" fill="#00271C"/>
<path d="M11.891 75.216C10.1704 76.072 12.9703 80.9074 17.946 83.9792C18.9995 84.6291 21.4043 84.4201 22.538 83.9535C24.814 83.0173 30.6056 78.6543 28.699 76.2323C27.173 74.2941 24.2415 75.6397 22.9646 76.5529C23.3797 74.9297 23.5544 71.7404 20.9377 71.9895C18.321 72.2386 17.5853 75.3391 17.5452 76.8564C16.234 76.0261 13.268 74.5317 11.891 75.216Z" fill="#C8A1FF"/>
<path d="M10.3732 78.2534C8.96463 74.3027 16.2936 76.3324 20.044 81.2251C22.569 79.5303 31.7617 76.2466 30.2616 79.7221C29.1193 82.3703 26.4282 88.1189 19.6775 88.0674C12.9297 88.0159 11.3065 80.8758 10.3732 78.2534Z" fill="#851ED6"/>
<path d="M36.5082 88.2706C34.8048 93.8131 29.3482 103.996 19.517 105.127C19.3023 105.153 19.1134 104.981 19.1162 104.764C19.268 94.5747 30.0839 89.3413 36.0788 87.8211C36.3508 87.7524 36.5913 88.0015 36.5082 88.2706Z" fill="#8CD061"/>
<path d="M19.3452 104.644C23.2759 100.017 26.2791 96.8565 32.002 91.1193C26.7143 97.3976 25.2427 98.8233 19.3452 104.644Z" fill="#30AD6D"/>
<path d="M24.6671 107.512C23.3244 110.292 21.6955 115.176 20.2984 120.355C18.9013 125.537 17.7218 131.057 17.2866 135.116L18.2629 135.222C18.6923 131.234 19.8546 125.772 21.2488 120.613C22.6431 115.448 24.2491 110.636 25.5518 107.942L24.6671 107.512Z" fill="#00271C"/>
<path d="M21.9161 98.5543C20.5705 98.8263 21.6098 102.68 24.4755 105.717C25.0824 106.361 26.7801 106.659 27.6476 106.547C29.3911 106.321 34.1921 104.38 33.3218 102.356C32.6261 100.739 30.3559 101.125 29.3052 101.52C29.8921 100.475 30.5992 98.3081 28.7498 97.9989C26.9004 97.6869 25.8211 99.6909 25.5119 100.73C24.7647 99.9142 22.9925 98.3367 21.9161 98.5543Z" fill="#C8A1FF"/>
<path d="M20.3102 100.369C20.0697 97.3834 24.7477 100.135 26.4339 104.203C28.4895 103.498 35.4377 102.929 33.76 105.05C32.4832 106.665 29.5659 110.135 24.9194 108.855C20.273 107.575 20.4705 102.35 20.3102 100.369Z" fill="#851ED6"/>
<path d="M38.8355 115.285C35.924 119.934 28.4461 127.907 19.1847 126.539C18.9815 126.51 18.8526 126.304 18.907 126.11C21.5351 116.834 32.7032 114.695 38.5521 114.773C38.8184 114.773 38.9758 115.059 38.8355 115.285Z" fill="#8CD061"/>
<path d="M19.145 126.055C23.8688 122.786 27.3844 120.633 34.0177 116.788C27.6535 121.234 25.9587 122.176 19.145 126.055Z" fill="#30AD6D"/>
<defs>
<linearGradient id="paint0_linear_9373_64566" x1="144.902" y1="59.4426" x2="178.237" y2="85.7326" gradientUnits="userSpaceOnUse">
<stop offset="2.06614e-06" stop-color="#FD818A"/>
<stop offset="0.1611" stop-color="#FA7982"/>
<stop offset="0.673" stop-color="#F1626C"/>
<stop offset="1" stop-color="#EE5A64"/>
</linearGradient>
<linearGradient id="paint1_linear_9373_64566" x1="165.764" y1="55.8655" x2="207.683" y2="55.8655" gradientUnits="userSpaceOnUse">
<stop offset="1.827e-06" stop-color="#F7D091"/>
<stop offset="1" stop-color="#FF8D44"/>
</linearGradient>
<linearGradient id="paint2_linear_9373_64566" x1="67.5678" y1="66.9462" x2="99.3158" y2="66.9462" gradientUnits="userSpaceOnUse">
<stop offset="9.75675e-07" stop-color="#FFF29A"/>
<stop offset="0.279" stop-color="#FDE58D"/>
<stop offset="0.7981" stop-color="#F9C16C"/>
<stop offset="1" stop-color="#F7B25E"/>
</linearGradient>
<linearGradient id="paint3_linear_9373_64566" x1="42.7035" y1="67.3379" x2="63.1471" y2="104.233" gradientUnits="userSpaceOnUse">
<stop offset="4.87837e-07" stop-color="#F46EC7"/>
<stop offset="0.2375" stop-color="#F161BB"/>
<stop offset="0.6792" stop-color="#EB3D9D"/>
<stop offset="1" stop-color="#E52083"/>
</linearGradient>
</defs>
</svg>
