<svg width="225" height="134" viewBox="0 0 225 134" fill="none" xmlns="http://www.w3.org/2000/svg">
<path d="M205.233 15.9967C204.47 20.7245 202.208 28.3785 199.387 36.1969C196.566 44.0284 193.167 52.0901 190.116 57.6399L188.781 56.9034C191.773 51.4523 195.146 43.4761 197.954 35.6774C200.768 27.8788 202.991 20.33 203.727 15.7468L205.233 15.9967Z" fill="#00271C"/>
<path d="M216.681 7.04744C218.147 8.58613 213.406 12.5644 207.068 13.8795C205.726 14.1557 203.3 13.0312 202.3 12.1172C200.288 10.2826 195.909 3.5558 198.802 1.75409C201.123 0.314032 203.668 2.81933 204.648 4.25281C204.832 2.40507 205.851 -0.974782 208.481 0.268004C211.112 1.51737 210.704 5.02216 210.171 6.61345C211.855 6.25179 215.504 5.8178 216.681 7.04744Z" fill="#00155F"/>
<path d="M217.115 10.7824C220.074 7.19868 211.684 6.5477 205.93 10.2235C203.944 7.50116 195.613 0.616517 195.863 4.79859C196.053 7.98775 196.678 14.9842 203.727 17.4829C210.763 19.9751 215.149 13.1627 217.115 10.7824Z" fill="#21A9EE"/>
<path d="M186.131 11.3348C185.809 17.746 187.643 30.404 197.447 35.2962C197.664 35.4014 197.921 35.2962 198 35.0661C201.689 24.4071 192.411 14.8724 186.749 11.0257C186.486 10.8548 186.144 11.0257 186.131 11.3348Z" fill="#8CD061"/>
<path d="M197.809 34.8622C195.468 28.5628 193.535 24.1374 189.748 16.01C192.871 24.532 193.864 26.577 197.809 34.8622Z" fill="#30AD6D"/>
<path d="M213.354 36.1379C210.369 37.8081 205.799 41.2143 201.248 45.0281C196.691 48.8486 192.121 53.1095 189.156 56.5157L189.978 57.2324C192.897 53.8855 197.415 49.6639 201.952 45.8632C206.489 42.056 211 38.709 213.893 37.0914L213.354 36.1379Z" fill="#00271C"/>
<path d="M216.53 26.268C215.136 25.6631 213.637 29.8189 214.314 34.3889C214.459 35.3555 215.807 36.7035 216.668 37.1506C218.391 38.0515 223.98 39.3337 224.473 36.9468C224.868 35.0399 222.56 33.9483 221.356 33.6459C222.553 33.0672 224.565 31.5548 223.086 30.095C221.606 28.6418 219.351 29.7728 218.411 30.5225C218.253 29.306 217.648 26.7481 216.53 26.268Z" fill="#00155F"/>
<path d="M213.926 26.8927C215.596 24.0257 218.102 29.4966 217.056 34.2573C219.371 34.9215 226.038 38.8076 223.171 39.669C220.988 40.3266 216.142 41.6286 212.736 37.5188C209.33 33.4091 212.815 28.793 213.926 26.8927Z" fill="#21A9EE"/>
<path d="M221.284 52.176C215.695 54.5497 203.852 57.0485 196.317 49.9337C196.152 49.7759 196.159 49.5128 196.336 49.3682C204.602 42.615 216.096 47.7506 221.356 51.5315C221.593 51.7025 221.554 52.0642 221.284 52.176Z" fill="#8CD061"/>
<path d="M196.586 49.4731C202.945 49.4994 207.502 49.7756 215.964 50.4924C207.364 50.4858 205.227 50.2688 196.586 49.4731Z" fill="#30AD6D"/>
<path d="M16.1255 87.5786C18.6242 92.5169 23.8124 100.151 29.6712 107.772C35.5301 115.4 42.1122 123.087 47.4253 128.124L48.6352 126.848C43.4208 121.903 36.9044 114.295 31.0652 106.7C25.2261 99.0991 20.1169 91.57 17.6971 86.7896L16.1255 87.5786Z" fill="#00271C"/>
<path d="M0.370636 81.7592C-0.707761 83.9752 5.91386 86.6844 13.3574 85.9019C14.9356 85.7375 17.2042 83.6399 17.9932 82.2853C19.5648 79.5564 22.0241 70.607 18.1971 69.6404C15.1394 68.8711 13.2193 72.5271 12.6407 74.4538C11.7924 72.4811 9.47783 69.1144 7.01856 71.4158C4.55929 73.7107 6.24264 77.4325 7.38679 79.0041C5.40754 79.1816 1.23204 79.9838 0.370636 81.7592Z" fill="#00155F"/>
<path d="M1.21222 86.0202C-3.30521 83.1137 5.70992 79.4446 13.3376 81.4633C14.5672 77.7678 21.3138 67.2534 22.5171 71.9484C23.4311 75.5255 25.2 83.4557 18.3219 88.6833C11.4438 93.9109 4.20411 87.9468 1.21222 86.0202Z" fill="#21A9EE"/>
<path d="M35.5236 75.7294C38.1341 82.6798 40.5671 97.2645 31.4928 106.096C31.2955 106.286 30.9667 106.26 30.8023 106.043C22.9905 95.6009 29.8554 81.8382 34.7411 75.6111C34.9581 75.3283 35.3987 75.3941 35.5236 75.7294Z" fill="#8CD061"/>
<path d="M30.9404 105.747C31.3021 97.9812 31.8742 92.438 33.1893 82.1472C32.7356 92.6353 32.3608 95.2326 30.9404 105.747Z" fill="#30AD6D"/>
<path d="M14.2714 112.625C18.1444 113.414 24.378 115.558 30.7301 118.155C37.0887 120.759 43.6182 123.843 48.0896 126.552L47.4386 127.631C43.0461 124.968 36.5823 121.91 30.2566 119.319C23.9243 116.728 17.7761 114.624 14.0215 113.855L14.2714 112.625Z" fill="#00271C"/>
<path d="M7.29444 102.867C8.61614 101.71 11.7264 105.76 12.5944 111.034C12.7785 112.152 11.7658 114.111 10.9768 114.907C9.39206 116.505 3.69102 119.878 2.30357 117.425C1.19887 115.459 3.35567 113.454 4.57215 112.691C3.05319 112.474 0.298015 111.514 1.42244 109.39C2.54029 107.266 5.4204 107.72 6.71579 108.219C6.46592 106.819 6.23577 103.794 7.29444 102.867Z" fill="#00155F"/>
<path d="M10.3914 102.643C7.54416 100.079 6.70905 106.977 9.53656 111.849C7.22195 113.395 1.25131 120.023 4.71007 119.964C7.34689 119.918 13.14 119.648 15.448 113.921C17.7495 108.2 12.2786 104.34 10.3914 102.643Z" fill="#21A9EE"/>
<path d="M11.174 133.069C18.1638 133.713 32.0844 132.306 37.884 121.818C38.009 121.588 37.9038 121.299 37.6605 121.2C26.1861 116.669 15.3363 126.368 10.8649 132.378C10.6677 132.661 10.8386 133.043 11.174 133.069Z" fill="#8CD061"/>
<path d="M37.4239 121.404C30.4275 123.672 25.5089 125.579 16.4478 129.34C25.91 126.316 28.1852 125.323 37.4239 121.404Z" fill="#30AD6D"/>
<path d="M184.658 132.437H49.8585C45.5186 132.437 41.9678 128.886 41.9678 124.547V38.5182C41.9678 34.1783 45.5186 30.6274 49.8585 30.6274H184.658C188.998 30.6274 192.549 34.1783 192.549 38.5182V124.547C192.549 128.886 188.998 132.437 184.658 132.437Z" fill="#DCDCFF"/>
<path d="M72.4718 106.641H50.1411V108.325H72.4718V106.641Z" fill="#6069BF"/>
<path d="M97.5314 106.641H75.2007V108.325H97.5314V106.641Z" fill="#6069BF"/>
<path d="M96.6964 55.1414H74.3657V56.8247H96.6964V55.1414Z" fill="#989ED3"/>
<path d="M96.6964 62.6704H74.3657V64.3538H96.6964V62.6704Z" fill="#6069BF"/>
<path d="M99.5764 39.2612H51.8311V40.9446H99.5764V39.2612Z" fill="#6069BF"/>
<path d="M68.2634 113.75H50.1411V115.433H68.2634V113.75Z" fill="#989ED3"/>
<path d="M88.7332 113.75H70.6108V115.433H88.7332V113.75Z" fill="#6069BF"/>
<path d="M60.0245 66.1686C63.4019 66.1686 66.1398 63.4307 66.1398 60.0533C66.1398 56.6759 63.4019 53.938 60.0245 53.938C56.6471 53.938 53.9092 56.6759 53.9092 60.0533C53.9092 63.4307 56.6471 66.1686 60.0245 66.1686Z" fill="#6069BF"/>
<path d="M60.8597 57.3638H59.1895V62.7426H60.8597V57.3638Z" fill="#DCDCFF"/>
<path d="M62.7148 60.8865V59.2163H57.336V60.8865H62.7148Z" fill="#DCDCFF"/>
<path d="M86.3663 93.8715C89.7437 93.8715 92.4816 91.1336 92.4816 87.7562C92.4816 84.3788 89.7437 81.6409 86.3663 81.6409C82.9889 81.6409 80.251 84.3788 80.251 87.7562C80.251 91.1336 82.9889 93.8715 86.3663 93.8715Z" stroke="#6069BF" stroke-width="0.657559" stroke-miterlimit="10"/>
<path opacity="0.45" d="M64.5484 68.8184H55.5069C53.5671 68.8184 51.9824 67.2336 51.9824 65.2938V54.8124C51.9824 52.8726 53.5671 51.2878 55.5069 51.2878H64.5484C66.4882 51.2878 68.0729 52.8726 68.0729 54.8124V65.2938C68.0729 67.2336 66.4882 68.8184 64.5484 68.8184Z" stroke="#2D2DA2" stroke-width="0.657559" stroke-miterlimit="10"/>
<path opacity="0.45" d="M49.4575 88.5189H51.7656L53.8369 91.3991L55.7964 82.8771L57.4074 88.7557L58.9066 86.3161L60.5177 91.3991L62.7073 78.2742L64.943 88.9858L66.7382 86.3161L68.2308 88.5189L69.8419 82.6469L70.5389 90.7086L72.38 85.4153L73.8332 88.177H76.5226" stroke="#060C78" stroke-width="0.657559" stroke-miterlimit="10"/>
<path d="M111.288 113.75H93.1655V115.433H111.288V113.75Z" fill="#989ED3"/>
<path d="M125.576 17.4565C125.576 17.4565 124.044 16.9699 121.368 18.9558C116.318 22.6973 117.252 35.0462 117.252 35.0462C117.252 35.0462 111.031 36.2101 108.605 47.4281C105.074 63.7881 118.093 69.3905 118.093 69.3905L184.789 88.3808C184.789 88.3808 198.552 81.7132 195.001 67.3061C191.444 52.899 178.069 50.3871 178.069 50.3871C178.069 50.3871 177.471 38.2485 167.364 32.9157C157.257 27.5829 150.833 28.4969 150.833 28.4969C150.833 28.4969 143.429 15.4312 138.109 14.3726C129.226 12.5906 125.576 17.4565 125.576 17.4565Z" fill="#2D2DA2"/>
<path d="M123.11 62.3941L128.088 132.464H159.02L154.173 59.1523L123.11 62.3941Z" fill="#D4F4FC"/>
<path d="M132.283 43.5616C132.283 43.5616 133.993 47.5135 134.039 49.2495C134.079 50.9854 134.598 51.8402 132.52 53.6222C130.442 55.4042 121.67 59.2509 121.67 59.2509C121.67 59.2509 128.003 68.825 139.944 67.1614C151.885 65.4977 160.466 53.5039 160.466 53.5039C160.466 53.5039 154.193 52.0638 151.313 51.4391C148.426 50.8079 146.651 49.4796 145.191 45.5277C143.732 41.5757 142.226 36.0522 142.226 36.0522L132.283 43.5616Z" fill="#F2B3B5"/>
<path d="M133.053 45.495L151.261 60.1849L149.38 50.8738C149.38 50.8738 146.717 49.7626 145.467 46.2446C144.218 42.7267 142.443 36.8284 142.443 36.8284L133.053 45.495Z" fill="#D3979B"/>
<path d="M126.319 43.2461C128.811 45.1201 130.061 45.4883 133.553 45.4883C137.044 45.4883 140.187 44.114 141.673 42.1216C143.159 40.1227 142.785 37.0058 142.785 37.0058C142.785 37.0058 146.414 37.2689 146.059 33.6128C145.849 31.4166 145.25 30.1541 143.317 29.3979C141.456 28.6746 140.26 30.6538 140.26 30.6538C140.26 30.6538 140.615 26.3271 138.044 23.5259C133.802 18.9098 128.187 19.7844 123.571 23.0261C119.862 25.6498 123.827 41.3786 126.319 43.2461Z" fill="#F2B3B5"/>
<path d="M122.058 36.8217C122.058 36.8217 123.452 31.5547 122.545 27.0898C121.48 21.8491 125.668 23.9533 125.668 23.9533C125.668 23.9533 127.937 18.4561 133.217 26.6953C135.624 30.4565 136.459 31.4495 137.583 32.015C138.708 32.5739 139.904 32.5147 139.904 32.5147C139.904 32.5147 139.839 30.7327 140.891 29.7266C141.943 28.7206 143.699 29.5425 143.699 29.5425C143.699 29.5425 140.325 24.5911 137.327 21.3493C134.335 18.1076 128.535 18.7914 127.036 19.8501C125.537 20.9088 125.353 21.6584 125.353 21.6584C125.353 21.6584 118.567 19.5937 120.553 26.4586C122.302 32.5213 122.058 36.8217 122.058 36.8217Z" fill="#2D2DA2"/>
<path d="M185.717 94.345L185.868 95.8048L187.643 95.1538L185.717 94.345Z" fill="#B4C3D1"/>
<path d="M140.47 30.3775L140.95 29.8778L136.867 30.9496C136.255 29.6411 134.927 28.7271 133.388 28.7271C131.271 28.7271 129.548 30.4499 129.548 32.5672C129.548 32.9354 129.601 33.2839 129.699 33.6193L128.18 34.0007C127.615 32.5803 126.227 31.5677 124.61 31.5677C122.492 31.5677 120.77 33.2905 120.77 35.4079C120.77 37.5252 122.492 39.248 124.61 39.248C126.727 39.248 128.45 37.5252 128.45 35.4079C128.45 35.0396 128.397 34.6845 128.299 34.3426L129.811 33.9612C130.37 35.3881 131.764 36.4008 133.388 36.4008C135.505 36.4008 137.228 34.678 137.228 32.5606C137.228 32.1135 137.149 31.6795 137.005 31.2784L140.47 30.3775ZM124.616 38.8929C122.703 38.8929 121.138 37.3345 121.138 35.4144C121.138 33.4944 122.696 31.9359 124.616 31.9359C126.536 31.9359 128.095 33.4944 128.095 35.4144C128.095 37.3345 126.53 38.8929 124.616 38.8929ZM133.395 36.0457C131.481 36.0457 129.916 34.4873 129.916 32.5672C129.916 30.6537 131.475 29.0887 133.395 29.0887C135.315 29.0887 136.873 30.6471 136.873 32.5672C136.867 34.4873 135.308 36.0457 133.395 36.0457Z" fill="white"/>
<path d="M133.52 132.464C133.52 132.464 131.06 114.315 129.535 97.9418C128.009 81.5686 129.712 55.3188 129.712 55.3188C129.712 55.3188 125.208 55.5556 119.106 58.9288C116.193 60.5333 114.306 61.9931 113.129 63.078C113.129 63.078 102.411 70.1863 98.2548 82.0092C95.3944 90.1498 95.71 96.0678 95.71 96.0678C95.71 96.0678 99.2674 95.5089 102.318 96.0678C105.37 96.6267 113.168 100.94 113.168 100.94L114.102 132.464H133.52Z" fill="url(#paint0_linear_9373_65041)"/>
<path d="M186.545 86.2702C185.362 80.3785 183.494 74.4802 178.24 66.5303C172.986 58.5804 164.26 53.767 157.192 51.9456C153.115 50.8935 149.38 50.8738 149.38 50.8738C149.38 50.8738 154.423 70.8373 153.49 91.7477C152.556 112.658 151.793 132.47 151.793 132.47H184.112C184.112 132.47 181.239 105.103 180.423 93.5494C183.948 93.9044 187.65 95.167 187.65 95.167C187.65 95.167 187.729 92.1619 186.545 86.2702Z" fill="url(#paint1_linear_9373_65041)"/>
<path d="M167.509 91.6293L166.621 100.953C166.621 100.953 154.417 93.9373 151.109 90.9454C147.802 87.9535 147.381 86.3622 142.975 87.1118C138.57 87.8614 134.401 90.7152 134.374 91.741C134.348 92.7668 136.025 92.4446 136.025 92.4446C136.025 92.4446 134.585 93.3323 135.091 94.082C135.597 94.8316 137.294 94.4107 137.294 94.4107C137.294 94.4107 135.301 94.6475 135.558 95.7653C135.814 96.8897 137.807 96.4689 137.807 96.4689C137.807 96.4689 135.17 96.7977 136.663 98.435C138.155 100.072 144.409 97.4947 145.934 99.086C147.46 100.677 160.69 129.965 176.715 125.099C192.739 120.233 186.552 94.8184 186.552 94.8184C186.552 94.8184 182.685 92.3526 176.925 91.7476C171.158 91.1361 167.509 91.6293 167.509 91.6293Z" fill="#EFB8B7"/>
<path d="M129.18 66.4644C130.015 67.0497 130.949 67.4508 131.909 67.7532C132.869 68.0623 133.855 68.2596 134.854 68.3779C136.853 68.5883 138.872 68.5226 140.858 68.1938C142.85 67.9045 144.816 67.4047 146.69 66.6814C147.631 66.3198 148.545 65.8989 149.406 65.3795C150.268 64.8666 151.103 64.2748 151.787 63.5251C150.531 65.1493 148.696 66.2211 146.835 67.0365C144.955 67.8519 142.949 68.3582 140.937 68.687C138.912 68.9829 136.84 69.0618 134.808 68.7593C132.79 68.4174 130.758 67.7796 129.18 66.4644Z" fill="#8ED2F4"/>
<path d="M109.492 68.8318L130.732 68.2531C132.185 68.2136 133.467 69.2 133.796 70.6203L140.976 101.381C141.43 103.334 139.924 105.188 137.919 105.142L116.213 104.623C114.812 104.59 113.609 103.603 113.3 102.236L106.586 72.5733C106.159 70.6926 107.559 68.8844 109.492 68.8318Z" fill="#9AB7F7"/>
<path d="M95.8612 96.048C95.8612 96.048 94.6973 103.899 96.282 113.69C97.8668 123.481 103.574 127.913 106.625 128.163C109.677 128.413 114.759 126.605 115.496 121.305C116.232 116.005 116.061 104.774 116.061 104.774C116.061 104.774 125.241 102.841 125.353 99.2832C125.399 97.9089 123.216 98.7571 123.216 98.7571C123.216 98.7571 125.839 97.6656 125.274 96.2913C124.708 94.917 122.986 96.0414 122.986 96.0414C122.986 96.0414 125.511 94.2003 124.34 93.3915C123.439 92.7668 121.881 93.8583 121.881 93.8583C121.881 93.8583 124.195 92.2341 122.841 91.4253C121.73 90.7612 115.2 96.528 112.109 93.786C111.439 93.1876 113.859 90.8467 111.8 89.3738C110.038 88.1113 107.77 98.1719 107.77 98.1719C107.77 98.1719 106.902 97.1001 103.009 96.0414C99.1095 94.9762 95.8612 96.048 95.8612 96.048Z" fill="#EFB8B7"/>
<path d="M167.187 95.0353C167.187 95.0353 176.978 95.4891 180.857 96.4754C184.737 97.4552 187.17 98.2179 187.17 98.2179L186.545 94.8118C186.545 94.8118 183.172 92.3919 177.464 91.7936C171.757 91.1952 167.502 91.6358 167.502 91.6358L167.187 95.0353Z" fill="#D6A1A1"/>
<path d="M167.791 91.5043C167.528 88.0653 167.134 84.6131 166.463 81.2267C166.292 80.3785 166.095 79.5368 165.865 78.7083C165.628 77.8797 165.352 77.0578 165.063 76.2424C164.491 74.6051 163.879 72.9875 163.228 71.3765C163.932 72.9612 164.596 74.5656 165.22 76.1832C165.529 76.992 165.832 77.8074 166.102 78.6359C166.358 79.471 166.588 80.3061 166.785 81.1544C167.568 84.5474 168.074 87.9864 168.449 91.4518L167.791 91.5043Z" fill="#121BB2"/>
<path d="M158.027 95.8047C160.21 96.8699 162.34 98.0404 164.425 99.2832C165.464 99.9079 166.503 100.546 167.496 101.262C167.995 101.624 168.482 101.973 168.936 102.459C169.33 102.972 169.639 103.452 169.981 103.972L169.817 104.116C169.389 103.695 168.962 103.222 168.568 102.808C168.153 102.446 167.634 102.111 167.141 101.782L164.109 99.8026C162.071 98.4875 160.032 97.179 158.027 95.8047Z" fill="#A37171"/>
<path d="M114.996 94.4698C115.713 94.3515 116.397 94.1016 117.067 93.8254C117.738 93.5493 118.389 93.2336 119.02 92.8851C119.645 92.53 120.276 92.1618 120.927 91.8265C121.256 91.6621 121.585 91.4977 121.933 91.3727C122.111 91.3136 122.288 91.2478 122.499 91.2281C122.696 91.2018 122.966 91.2478 123.124 91.4188C123.275 91.5832 123.387 91.7344 123.433 91.9777C123.465 92.2078 123.4 92.4183 123.314 92.5958C123.124 92.9509 122.841 93.2073 122.551 93.4441C121.966 93.8978 121.322 94.2529 120.664 94.5619C119.349 95.18 117.988 95.6929 116.627 96.1992C117.981 95.6863 119.329 95.1274 120.625 94.4764C121.269 94.1542 121.907 93.786 122.42 93.2862C122.907 92.8128 123.419 92.1026 122.893 91.6489C122.722 91.4516 122.348 91.5437 122.025 91.6489C121.697 91.7607 121.368 91.9185 121.046 92.0698C120.395 92.3854 119.77 92.7405 119.119 93.0758C117.817 93.7202 116.443 94.2857 114.996 94.4698Z" fill="#A37171"/>
<path d="M122.039 93.6874C122.427 93.4639 122.841 93.2797 123.288 93.1943C123.512 93.1548 123.748 93.1285 123.992 93.1745C124.235 93.2074 124.485 93.3652 124.616 93.5888C124.768 93.7992 124.8 94.1017 124.721 94.345C124.649 94.5883 124.518 94.7921 124.373 94.9763C124.071 95.3313 123.709 95.6141 123.341 95.8705C122.598 96.3834 121.809 96.8108 120.993 97.1791C120.184 97.5605 119.349 97.8827 118.508 98.172C119.323 97.8103 120.112 97.4026 120.901 96.995C121.684 96.5741 122.459 96.1401 123.17 95.6338C123.525 95.3774 123.867 95.1012 124.13 94.7724C124.406 94.4633 124.597 94.0557 124.386 93.7335C124.202 93.3915 123.742 93.3192 123.321 93.3718C122.887 93.4178 122.453 93.5362 122.039 93.6874Z" fill="#A37171"/>
<path d="M123.018 95.8837C123.387 95.693 123.788 95.5418 124.215 95.5089C124.426 95.4892 124.656 95.5089 124.873 95.601C125.09 95.6996 125.254 95.8969 125.326 96.1139C125.484 96.5347 125.432 97.0213 125.208 97.3961C124.985 97.7775 124.662 98.0668 124.32 98.3035C123.63 98.7835 122.841 99.0663 122.058 99.3096L119.704 100.046L122.012 99.1847C122.782 98.9085 123.544 98.5994 124.202 98.1326C124.524 97.9024 124.82 97.6197 125.004 97.2843C125.188 96.949 125.228 96.5544 125.109 96.1928C125.004 95.8311 124.623 95.6799 124.228 95.6996C123.84 95.7127 123.439 95.818 123.058 95.9626L123.018 95.8837Z" fill="#A37171"/>
<path d="M123.696 98.5533C123.932 98.4941 124.176 98.4546 124.419 98.4415C124.662 98.4349 124.932 98.4481 125.156 98.6124C125.274 98.6979 125.327 98.8492 125.359 98.9544C125.399 99.0727 125.432 99.1977 125.451 99.3226C125.497 99.579 125.478 99.8421 125.419 100.099C125.11 101.137 124.202 101.782 123.354 102.249C122.473 102.716 121.585 103.097 120.664 103.445C119.75 103.794 118.817 104.103 117.844 104.248C118.784 103.998 119.672 103.59 120.559 103.202C121.434 102.788 122.328 102.38 123.15 101.9C123.564 101.664 123.946 101.374 124.294 101.078C124.643 100.776 124.958 100.434 125.136 100.013C125.215 99.8026 125.254 99.5791 125.248 99.3489C125.221 99.1319 125.202 98.8557 125.064 98.7176C124.906 98.573 124.656 98.527 124.419 98.5072C124.182 98.5007 123.939 98.5138 123.696 98.5533Z" fill="#A37171"/>
<path d="M111.82 89.3408C112.241 89.617 112.576 90.0378 112.721 90.5442C112.787 90.8006 112.787 91.0702 112.741 91.3267C112.682 91.5897 112.59 91.8067 112.504 92.0434C112.34 92.5037 112.195 92.9706 112.083 93.444C111.998 93.9043 111.879 94.4303 112.182 94.8446C111.82 94.4698 111.86 93.8911 111.919 93.4111C111.985 92.9114 112.129 92.4379 112.274 91.9645C112.346 91.7278 112.438 91.491 112.491 91.274C112.537 91.0505 112.537 90.8203 112.484 90.5968C112.392 90.143 112.116 89.7288 111.768 89.3934L111.82 89.3408Z" fill="#A37171"/>
<path d="M168.515 89.2619C169.994 88.6175 171.592 88.269 173.19 88.0652C174.795 87.8679 176.425 87.8679 178.043 88.0191C179.654 88.2098 181.252 88.5189 182.784 89.0647C184.283 89.6367 185.822 90.3732 186.834 91.6554C186.276 91.0768 185.585 90.6559 184.875 90.3074C184.165 89.9458 183.422 89.663 182.666 89.4263C181.147 88.966 179.575 88.6635 177.997 88.5123C176.419 88.3216 174.821 88.3282 173.23 88.44C171.638 88.5649 170.054 88.8082 168.515 89.2619Z" fill="#121BB2"/>
<path d="M95.8613 96.048C95.8613 96.048 99.011 95.226 103.002 96.0348C106.994 96.8436 107.763 98.1653 107.763 98.1653L107.467 100.079C107.467 100.079 104.738 98.619 101.365 98.2902C97.9984 97.9615 95.5654 99.0859 95.5654 99.0859L95.8613 96.048Z" fill="#D6A1A1"/>
<path d="M107.888 98.1983C107.329 100.783 106.764 103.367 106.264 105.964L105.547 109.857C105.488 110.179 105.429 110.501 105.383 110.823C105.35 110.988 105.35 111.126 105.33 111.277L105.31 111.77C105.284 112.434 105.218 113.092 105.074 113.756H104.988C104.843 113.092 104.778 112.434 104.751 111.77C104.745 111.606 104.738 111.442 104.738 111.271C104.751 111.093 104.758 110.902 104.784 110.738C104.83 110.403 104.883 110.074 104.942 109.745C105.185 108.437 105.494 107.148 105.797 105.859L107.651 98.1392L107.888 98.1983Z" fill="#A37171"/>
<path d="M96.6899 93.2533C97.5053 92.6484 98.5706 92.5826 99.5503 92.5432C100.55 92.53 101.536 92.655 102.509 92.8391C103.483 93.0364 104.449 93.3125 105.357 93.7202C106.251 94.1411 107.152 94.654 107.77 95.4365C107.395 95.1142 106.981 94.8644 106.547 94.6474C106.119 94.4238 105.672 94.2331 105.218 94.0687C104.304 93.7531 103.371 93.4967 102.424 93.3191C101.477 93.1284 100.51 92.9903 99.5503 92.918C99.0703 92.8851 98.5837 92.8785 98.1037 92.918C97.6171 92.9575 97.1305 93.0298 96.6899 93.2533Z" fill="#121BB2"/>
<path d="M120.776 84.3303C122.585 84.3303 124.051 82.8642 124.051 81.0556C124.051 79.2471 122.585 77.781 120.776 77.781C118.968 77.781 117.501 79.2471 117.501 81.0556C117.501 82.8642 118.968 84.3303 120.776 84.3303Z" fill="#6069BF"/>
<defs>
<linearGradient id="paint0_linear_9373_65041" x1="95.7057" y1="93.8893" x2="133.519" y2="93.8893" gradientUnits="userSpaceOnUse">
<stop offset="4.87837e-07" stop-color="#589DE8"/>
<stop offset="0.1475" stop-color="#4A91E3"/>
<stop offset="0.4385" stop-color="#367FDB"/>
<stop offset="0.7252" stop-color="#2974D7"/>
<stop offset="1" stop-color="#2570D5"/>
</linearGradient>
<linearGradient id="paint1_linear_9373_65041" x1="149.377" y1="91.6651" x2="187.647" y2="91.6651" gradientUnits="userSpaceOnUse">
<stop offset="4.87837e-07" stop-color="#589DE8"/>
<stop offset="0.1475" stop-color="#4A91E3"/>
<stop offset="0.4385" stop-color="#367FDB"/>
<stop offset="0.7252" stop-color="#2974D7"/>
<stop offset="1" stop-color="#2570D5"/>
</linearGradient>
</defs>
</svg>
