<svg width="32" height="44" viewBox="0 0 32 44" fill="none" xmlns="http://www.w3.org/2000/svg">
<path d="M28.728 19.96C31.852 23.082 31.852 28.148 28.728 31.272L17.414 42.586C16.634 43.366 15.366 43.366 14.586 42.586L3.27195 31.272C0.147955 28.148 0.147955 23.082 3.27195 19.958C6.39595 16.834 11.462 16.834 14.586 19.958L15.998 21.372L17.414 19.958C20.538 16.834 25.604 16.834 28.728 19.958V19.96ZM6.09995 22.784C4.53995 24.346 4.53995 26.88 6.09995 28.442L16 38.342L25.9 28.442C27.46 26.88 27.46 24.346 25.9 22.784C24.338 21.224 21.804 21.224 20.24 22.788L15.996 27.024L11.756 22.784C10.196 21.224 7.66195 21.224 6.09995 22.784ZM16 0C20.42 0 24 3.58 24 8C24 12.42 20.42 16 16 16C11.58 16 7.99995 12.42 7.99995 8C7.99995 3.58 11.58 0 16 0ZM16 4C13.79 4 12 5.79 12 8C12 10.21 13.79 12 16 12C18.21 12 20 10.21 20 8C20 5.79 18.21 4 16 4Z" fill="url(#paint0_radial_6714_947)"/>
<defs>
<radialGradient id="paint0_radial_6714_947" cx="0" cy="0" r="1" gradientUnits="userSpaceOnUse" gradientTransform="translate(28.0198 38.5153) rotate(-122.712) scale(29.4272 45.9803)">
<stop stop-color="#F18164"/>
<stop offset="1" stop-color="#DB392C"/>
</radialGradient>
</defs>
</svg>
