<svg width="148" height="148" viewBox="0 0 148 148" fill="none" xmlns="http://www.w3.org/2000/svg">
<mask id="mask0_373_6283" style="mask-type:alpha" maskUnits="userSpaceOnUse" x="0" y="0" width="148" height="148">
<rect x="0.37085" y="0.404327" width="147.596" height="147.596" rx="73.7979" fill="#EFF0F0"/>
</mask>
<g mask="url(#mask0_373_6283)">
<rect x="0.37085" y="0.404327" width="147.596" height="147.596" rx="73.7979" fill="#E3F7FD"/>
<path d="M91.6408 38.7973C92.299 38.0404 90.9168 35.9013 90.3573 34.1901L88.7119 39.3567C89.4688 39.4225 91.1142 39.4028 91.6408 38.7973Z" fill="#F0706B"/>
<mask id="mask1_373_6283" style="mask-type:alpha" maskUnits="userSpaceOnUse" x="47" y="74" width="54" height="26">
<path d="M62.9919 86.8615C63.637 85.8835 65.4796 83.2626 67.689 80.6034C65.8539 79.226 61.2693 76.1431 57.6122 74.8309C55.5606 77.5105 44.0664 92.936 48.5621 96.0026C53.0578 99.0692 79.8878 98.2963 83.1423 98.2631C86.3968 98.2299 88.9898 97.6281 89.3704 97.7647C89.7509 97.9012 95.6755 99.6215 97.5011 99.592C99.3561 99.3296 99.8876 93.4419 100.019 93.077C100.149 92.7121 100.354 91.4988 99.9756 90.4216C99.5972 89.3444 94.8617 89.5702 91.3486 88.7019C88.5382 88.0073 71.8504 86.7711 62.9919 86.8615Z" fill="#FEA98D"/>
</mask>
<g mask="url(#mask1_373_6283)">
<path d="M62.9917 86.8615C63.6368 85.8835 65.4794 83.2626 67.6889 80.6034C65.8537 79.226 61.2691 76.143 57.612 74.8308C55.5604 77.5105 44.0663 92.936 48.562 96.0026C53.0577 99.0692 79.8876 98.2963 83.1421 98.2631C86.3966 98.2299 89.1608 98.3243 89.5414 98.4609C89.9219 98.5974 98.2303 101.524 98.9319 100.716C99.6335 99.9089 101.513 93.5226 101.644 93.1578C101.775 92.7929 103.014 91.4722 102.635 90.395C102.257 89.3178 96.5934 88.3267 93.0803 87.4585C90.2698 86.7639 71.8502 86.7711 62.9917 86.8615Z" fill="#FD9675"/>
<rect x="57.7173" y="73.4541" width="12.544" height="6.47385" transform="rotate(31.3503 57.7173 73.4541)" fill="#EC6464"/>
<path d="M65.0699 86.7762C64.3136 86.8086 62.1381 86.899 59.4862 87.002L65.4434 85.0017L65.0699 86.7762Z" fill="#EC6464"/>
<g filter="url(#filter0_f_373_6283)">
<ellipse cx="49.1015" cy="98.9933" rx="12.1975" ry="9.87582" transform="rotate(30.3116 49.1015 98.9933)" fill="#ED6464"/>
</g>
<g filter="url(#filter1_f_373_6283)">
<ellipse cx="81.6684" cy="82.1958" rx="19.1582" ry="15.5117" transform="rotate(30.3116 81.6684 82.1958)" fill="#ED6464"/>
</g>
</g>
<path d="M57.8259 66.9974C60.6089 62.1276 66.9231 54.426 71.1023 56.3308C73.8846 57.3291 78.6443 59.798 78.3799 65.0521C78.0496 71.6198 67.4612 83.6244 66.909 84.0341C66.4672 84.3619 57.4118 78.1276 52.9394 74.9695C53.4286 73.7943 55.284 71.4453 57.8259 66.9974Z" fill="#152F88"/>
<mask id="mask2_373_6283" style="mask-type:alpha" maskUnits="userSpaceOnUse" x="59" y="109" width="41" height="108">
<path d="M99.7386 156.009C99.3253 149.808 90.2318 116.328 88.1651 109.301H59.4381C59.2314 111.161 59.2314 116.824 60.8848 124.595C62.5381 132.366 72.0449 136.788 76.5917 138.028C77.4872 142.782 79.5264 153.735 80.5184 159.522C81.7584 166.755 77.005 211.603 79.2783 213.669C81.097 215.323 91.1963 216.012 96.0186 216.149C97.3964 198.169 100.069 160.969 99.7386 156.009Z" fill="url(#paint0_linear_373_6283)"/>
</mask>
<g mask="url(#mask2_373_6283)">
<path d="M99.7386 156.009C99.3253 149.808 90.2318 116.328 88.1651 109.301H59.4381C59.2314 111.161 59.2314 116.824 60.8848 124.595C62.5381 132.366 72.0449 136.788 76.5917 138.028C77.4872 142.782 79.5264 153.735 80.5184 159.522C81.7584 166.755 77.005 211.603 79.2783 213.669C81.097 215.323 91.1963 216.012 96.0186 216.149C97.3964 198.169 100.069 160.969 99.7386 156.009Z" fill="url(#paint1_linear_373_6283)"/>
<g filter="url(#filter2_f_373_6283)">
<circle cx="103.022" cy="158.485" r="8.64674" transform="rotate(10.5733 103.022 158.485)" fill="#812020"/>
</g>
<path opacity="0.5" d="M85.3171 217.677C87.3633 197.215 89.4096 164.477 89.0685 155.61C88.7956 148.517 82.1342 121.28 78.8376 108.548" stroke="#6B3131" stroke-width="2.77123"/>
<path d="M94.4659 116.893C90.9619 124.001 82.482 140.393 76.5939 149.101L72.9942 126.787L81.4561 102.843L94.4659 116.893Z" fill="#1E0202"/>
</g>
<mask id="mask3_373_6283" style="mask-type:alpha" maskUnits="userSpaceOnUse" x="25" y="110" width="66" height="98">
<path d="M54.5145 144.104C55.4314 140.436 58.6408 117.397 58.6408 111.896L90.2846 110.391C88.6611 115.983 85.1434 127.682 84.0611 129.738C82.7081 132.309 70.5316 163.833 68.2316 168.027C66.3916 171.382 49.7865 195.491 41.7139 207.127C40.0453 206.946 35.9504 206.126 32.9198 204.286C29.8892 202.446 26.9669 198.287 25.8845 196.438C33.4793 184.877 48.921 161.343 49.9297 159.692C51.1905 157.629 53.5975 147.772 54.5145 144.104Z" fill="url(#paint2_linear_373_6283)"/>
</mask>
<g mask="url(#mask3_373_6283)">
<path d="M54.5145 144.104C55.4314 140.436 58.6408 117.397 58.6408 111.896L90.2846 110.391C88.6611 115.983 85.1434 127.682 84.0611 129.738C82.7081 132.309 70.5316 163.833 68.2316 168.027C66.3916 171.382 49.7865 195.491 41.7139 207.127C40.0453 206.946 35.9504 206.126 32.9198 204.286C29.8892 202.446 26.9669 198.287 25.8845 196.438C33.4793 184.877 48.921 161.343 49.9297 159.692C51.1905 157.629 53.5975 147.772 54.5145 144.104Z" fill="url(#paint3_linear_373_6283)"/>
<g filter="url(#filter3_f_373_6283)">
<circle cx="72.4028" cy="165.672" r="8.64674" transform="rotate(10.5733 72.4028 165.672)" fill="#812020"/>
</g>
<path opacity="0.5" d="M72.4129 110.391C70.1763 125.234 62.4501 155.529 57.7737 163.662C54.0325 170.168 38.458 195.787 31.1384 207.783" stroke="#6B3131" stroke-width="2.77123"/>
</g>
<mask id="mask4_373_6283" style="mask-type:alpha" maskUnits="userSpaceOnUse" x="64" y="18" width="28" height="59">
<path d="M86.8823 47.02C90.5691 44.1232 90.5301 35.3255 91.2811 29.4245C91.4957 26.7065 90.5301 18.8029 81.3032 18.2664C68.5627 17.5257 68.6792 24.4428 67.7848 28.2444C66.4973 33.7161 67.3556 41.5482 67.7848 43.694C68.2139 45.8398 66.0681 55.925 64.5661 60.3239C63.064 64.7227 65.2098 74.7007 73.6856 76.0954C82.1615 77.4902 82.6979 66.0102 82.3761 65.0446C82.0542 64.079 77.548 57.9635 79.1574 51.848C80.7667 45.7325 83.8782 49.3804 86.8823 47.02Z" fill="#FEA98D"/>
</mask>
<g mask="url(#mask4_373_6283)">
<path d="M86.8823 47.02C90.5691 44.1232 90.5301 35.3255 91.2811 29.4245C91.4957 26.7065 90.5301 18.8029 81.3032 18.2664C68.5627 17.5257 68.6792 24.4428 67.7848 28.2444C66.4973 33.7161 67.3556 41.5482 67.7848 43.694C68.2139 45.8398 66.0681 55.925 64.5661 60.3239C63.064 64.7227 65.2098 74.7007 73.6856 76.0954C82.1615 77.4902 82.6979 66.0102 82.3761 65.0446C82.0542 64.079 77.548 57.9635 79.1574 51.848C80.7667 45.7325 83.8782 49.3804 86.8823 47.02Z" fill="#FEA98D"/>
<g filter="url(#filter4_f_373_6283)">
<ellipse cx="76.2372" cy="54.9232" rx="14.5172" ry="11.754" transform="rotate(10.5733 76.2372 54.9232)" fill="#ED6464"/>
</g>
<g opacity="0.56" filter="url(#filter5_f_373_6283)">
<ellipse rx="3.68236" ry="2.98146" transform="matrix(-0.850245 -0.526388 -0.526388 0.850245 87.8134 36.4113)" fill="#ED6464"/>
</g>
<path d="M87.3688 29.9815C86.159 29.4875 89.8892 29.0839 90.3726 29.8089C90.856 30.534 88.6117 30.5685 87.3688 29.9815Z" fill="#E2F3F7"/>
</g>
<mask id="mask5_373_6283" style="mask-type:alpha" maskUnits="userSpaceOnUse" x="57" y="51" width="35" height="64">
<path d="M64.8669 52.3767C65.6858 51.2847 74.7495 52.5405 76.6605 53.1957C84.0347 54.3544 89.1561 64.9681 88.847 67.9555C88.538 70.9429 89.9802 97.3146 89.7742 99.0658C89.6093 100.467 90.9417 108.715 91.6284 112.664C88.4007 113.35 80.9974 114.642 77.2064 114.312C72.4678 113.9 63.4025 115.445 57.8596 113.488C57.8596 108.955 57.5558 76.1381 57.8596 71.8849C58.1634 67.6317 59.1761 61.9608 60.29 58.0114C61.4039 54.0621 64.0479 53.4687 64.8669 52.3767Z" fill="#2A4BBF"/>
</mask>
<g mask="url(#mask5_373_6283)">
<path d="M64.8669 52.3767C65.6858 51.2847 74.7495 52.5405 76.6605 53.1957C84.0347 54.3544 89.1561 64.9681 88.847 67.9555C88.538 70.9429 89.9802 97.3146 89.7742 99.0658C89.6093 100.467 90.9417 108.715 91.6284 112.664C88.4007 113.35 80.9974 114.642 77.2064 114.312C72.4678 113.9 63.4025 115.445 57.8596 113.488C57.8596 108.955 57.5558 76.1381 57.8596 71.8849C58.1634 67.6317 59.1761 61.9608 60.29 58.0114C61.4039 54.0621 64.0479 53.4687 64.8669 52.3767Z" fill="#2A4BBF"/>
<g filter="url(#filter6_f_373_6283)">
<ellipse cx="63.9467" cy="94.845" rx="16.9096" ry="30.1466" fill="#132F8F"/>
</g>
</g>
<path d="M64.9273 52.6764C64.439 52.2966 65.1443 50.7774 66.0667 49.421C70.5338 50.1263 79.6418 51.7106 80.3363 52.4051C81.0308 53.0996 81.747 55.1179 82.0183 56.0403C81.6385 55.8595 80.4774 55.3567 78.8713 54.7924C76.8638 54.0871 65.4156 53.0562 64.9273 52.6764Z" fill="#4062DC"/>
<mask id="mask6_373_6283" style="mask-type:alpha" maskUnits="userSpaceOnUse" x="57" y="76" width="52" height="25">
<path d="M69.8495 86.4489C70.1264 85.3105 70.9756 82.2213 72.1572 78.9722C69.9646 78.2954 64.6083 76.9419 60.7228 76.9419C59.6968 80.157 54.0875 98.5581 59.3548 99.9262C64.622 101.294 89.6145 91.5057 92.6666 90.3753C95.7186 89.2449 98.3523 88.4003 98.7566 88.4003C99.1609 88.4003 107.969 88.3486 108.357 87.3517C108.745 86.3549 108.357 79.7091 108.357 79.3214C108.357 78.9338 109.077 77.2723 108.357 76.3862C107.637 75.5001 101.972 76.4799 98.3718 76.8491C95.4919 77.1445 78.157 83.372 69.8495 86.4489Z" fill="#FEA98D"/>
</mask>
<g mask="url(#mask6_373_6283)">
<path d="M69.8495 86.4489C70.1264 85.3105 70.9756 82.2213 72.1572 78.9722C69.9646 78.2954 64.6083 76.9419 60.7228 76.9419C59.6968 80.157 54.0875 98.5581 59.3548 99.9262C64.622 101.294 89.6145 91.5057 92.6666 90.3753C95.7186 89.2449 98.3523 88.4003 98.7566 88.4003C99.1609 88.4003 107.969 88.3486 108.357 87.3517C108.745 86.3549 108.357 79.7091 108.357 79.3214C108.357 78.9338 109.077 77.2723 108.357 76.3862C107.637 75.5001 101.972 76.4799 98.3718 76.8491C95.4919 77.1445 78.157 83.372 69.8495 86.4489Z" fill="#FEA98D"/>
<rect x="60.3579" y="75.6103" width="12.5441" height="6.47385" transform="rotate(11.6121 60.3579 75.6103)" fill="#EC6464"/>
<path d="M71.7778 85.6667C71.0769 85.9526 69.0598 86.7724 66.5984 87.7649L71.53 83.8703L71.7778 85.6667Z" fill="#EC6464"/>
<g filter="url(#filter7_f_373_6283)">
<ellipse cx="60.8733" cy="102.559" rx="12.1975" ry="9.87582" transform="rotate(10.5733 60.8733 102.559)" fill="#ED6464"/>
</g>
</g>
<path d="M58.2782 69.4965C59.253 63.973 62.5951 54.5914 67.1721 54.9728C70.1281 54.9728 75.4419 55.6892 76.9676 60.7239C78.8747 67.0173 72.9627 81.8925 72.5813 82.4646C72.2761 82.9223 61.6474 80.1126 56.3711 78.6505C56.4347 77.3791 57.3878 74.5415 58.2782 69.4965Z" fill="#2A4BBF"/>
<path d="M75.621 17.0026C79.6692 16.5206 89.4504 17.3711 90.7536 19.8942C91.1706 20.7015 91.7544 22.6289 90.7536 23.8802C89.7529 25.1315 86.6386 23.7599 85.2065 22.9177C85.0862 23.2786 84.4967 24.7586 83.101 27.7906C81.3563 31.5806 78.2882 30.2571 76.1826 31.4603C75.8458 32.6635 75.3605 33.4055 75.1599 33.626C74.8992 33.626 74.2215 33.4817 73.5958 32.9041C71.5706 31.5806 70.287 32.7237 69.8659 34.7089C69.529 36.2971 70.8634 37.8317 71.5727 38.4004C71.3478 39.2679 70.416 41.3884 68.4883 42.9306C64.4401 41.3884 65.5003 29.9184 65.9822 25.4846C66.3678 21.9376 68.2634 21.1151 69.163 21.1472C69.9662 19.9263 72.3823 17.3881 75.621 17.0026Z" fill="url(#paint4_linear_373_6283)"/>
<path d="M85.3162 40.9704C85.5061 41.6349 86.0123 42.4418 87.0249 42.331" stroke="#D54B4A" stroke-width="1.49759" stroke-linecap="round"/>
<path d="M87.623 33.8506C88.201 33.2426 89.3507 33.4161 89.5489 34.0089" stroke="#242424" stroke-width="1.25828" stroke-linecap="round"/>
<path d="M24.4684 107.793C23.173 122.622 26.5226 157.801 31.5417 176.968" stroke="#00732A" stroke-width="2.40569"/>
<path d="M9.18568 89.5817C6.34309 91.3747 12.0712 99.2884 21.2707 103.745C23.2196 104.689 27.365 103.897 29.2518 102.886C33.0438 100.852 42.3402 92.2364 38.5958 88.3638C35.6004 85.2658 30.7379 88.125 28.6811 89.9419C29.1134 87.043 28.8519 81.4692 24.3472 82.3649C19.8425 83.2606 19.1129 88.7837 19.3111 91.4332C16.8835 90.2184 11.4598 88.1473 9.18568 89.5817Z" fill="#00155F"/>
<path d="M7.0871 95.1338C3.93774 88.5112 17.0396 90.7414 24.4337 98.5832C28.5248 95.1855 43.9288 87.843 41.9366 94.153C40.4188 98.9606 36.7591 109.436 25.0134 110.544C13.2676 111.653 9.17601 99.5265 7.0871 95.1338Z" fill="#21A9EE"/>
<path d="M109.73 137.331C112.32 140.994 118.643 147.037 126.028 145.619C126.232 145.58 126.354 145.368 126.286 145.172C123.761 137.853 114.758 136.532 109.986 136.8C109.718 136.815 109.575 137.111 109.73 137.331Z" fill="#00732A"/>
<path d="M108.995 129.148C111.585 132.812 117.909 138.854 125.294 137.436C125.497 137.397 125.619 137.185 125.552 136.989C123.027 129.67 114.024 128.349 109.252 128.618C108.984 128.633 108.84 128.929 108.995 129.148Z" fill="#00732A"/>
<path d="M107.43 116.948C110.02 120.612 116.344 126.654 123.729 125.236C123.932 125.197 124.054 124.985 123.987 124.789C121.462 117.47 112.459 116.15 107.686 116.418C107.418 116.433 107.275 116.729 107.43 116.948Z" fill="#00732A"/>
<path d="M105.836 103.71C108.427 107.374 114.75 113.417 122.135 111.998C122.338 111.959 122.46 111.748 122.393 111.552C119.868 104.233 110.865 102.912 106.093 103.18C105.825 103.195 105.681 103.491 105.836 103.71Z" fill="#00732A"/>
<path d="M138.53 134.963C134.177 136.054 126.258 139.766 124.911 147.164C124.874 147.368 125.027 147.558 125.234 147.566C132.971 147.857 137.457 139.94 138.931 135.394C139.014 135.138 138.79 134.898 138.53 134.963Z" fill="#00732A"/>
<path d="M138.496 124.856C134.143 125.947 126.223 129.659 124.877 137.057C124.84 137.261 124.993 137.451 125.2 137.459C132.937 137.75 137.422 129.833 138.897 125.286C138.98 125.031 138.756 124.79 138.496 124.856Z" fill="#00732A"/>
<path d="M134.079 109.675C130.12 111.787 123.335 117.307 123.82 124.811C123.834 125.018 124.028 125.165 124.231 125.123C131.808 123.532 134.243 114.764 134.573 109.996C134.591 109.728 134.316 109.548 134.079 109.675Z" fill="#00732A"/>
<path d="M130.43 99.8022C127.213 101.519 121.698 106.005 122.092 112.105C122.103 112.273 122.261 112.393 122.426 112.358C128.585 111.065 130.564 103.939 130.832 100.063C130.847 99.8451 130.623 99.6995 130.43 99.8022Z" fill="#00732A"/>
<path d="M125.828 145.309C125.169 130.886 121.692 111.951 121.792 109.89" stroke="#004E38" stroke-width="1.17574"/>
<path d="M49.4835 112.263C38.522 117.276 19.0117 131.277 19.3418 151.843C19.349 152.292 19.7548 152.636 20.1995 152.57C41.1558 149.501 49.0137 125.789 50.5236 113.024C50.592 112.445 50.0134 112.021 49.4835 112.263Z" fill="#00732A"/>
<path d="M46.8237 175.426C58.6355 177.827 82.6492 177.996 94.4902 161.178C94.7489 160.811 94.6231 160.294 94.2253 160.085C75.4789 150.228 55.1671 164.768 46.431 174.198C46.0349 174.626 46.2527 175.309 46.8237 175.426Z" fill="#004E38"/>
</g>
<defs>
<filter id="filter0_f_373_6283" x="17.2326" y="68.2604" width="63.738" height="61.4658" filterUnits="userSpaceOnUse" color-interpolation-filters="sRGB">
<feFlood flood-opacity="0" result="BackgroundImageFix"/>
<feBlend mode="normal" in="SourceGraphic" in2="BackgroundImageFix" result="shape"/>
<feGaussianBlur stdDeviation="10.1081" result="effect1_foregroundBlur_373_6283"/>
</filter>
<filter id="filter1_f_373_6283" x="43.1496" y="45.4613" width="77.0378" height="73.469" filterUnits="userSpaceOnUse" color-interpolation-filters="sRGB">
<feFlood flood-opacity="0" result="BackgroundImageFix"/>
<feBlend mode="normal" in="SourceGraphic" in2="BackgroundImageFix" result="shape"/>
<feGaussianBlur stdDeviation="10.1081" result="effect1_foregroundBlur_373_6283"/>
</filter>
<filter id="filter2_f_373_6283" x="61.9968" y="117.46" width="82.05" height="82.05" filterUnits="userSpaceOnUse" color-interpolation-filters="sRGB">
<feFlood flood-opacity="0" result="BackgroundImageFix"/>
<feBlend mode="normal" in="SourceGraphic" in2="BackgroundImageFix" result="shape"/>
<feGaussianBlur stdDeviation="16.1883" result="effect1_foregroundBlur_373_6283"/>
</filter>
<filter id="filter3_f_373_6283" x="31.3777" y="124.647" width="82.05" height="82.0499" filterUnits="userSpaceOnUse" color-interpolation-filters="sRGB">
<feFlood flood-opacity="0" result="BackgroundImageFix"/>
<feBlend mode="normal" in="SourceGraphic" in2="BackgroundImageFix" result="shape"/>
<feGaussianBlur stdDeviation="16.1883" result="effect1_foregroundBlur_373_6283"/>
</filter>
<filter id="filter4_f_373_6283" x="37.7416" y="19.0021" width="76.9912" height="71.8421" filterUnits="userSpaceOnUse" color-interpolation-filters="sRGB">
<feFlood flood-opacity="0" result="BackgroundImageFix"/>
<feBlend mode="normal" in="SourceGraphic" in2="BackgroundImageFix" result="shape"/>
<feGaussianBlur stdDeviation="12.0305" result="effect1_foregroundBlur_373_6283"/>
</filter>
<filter id="filter5_f_373_6283" x="76.6143" y="25.5241" width="22.398" height="21.7745" filterUnits="userSpaceOnUse" color-interpolation-filters="sRGB">
<feFlood flood-opacity="0" result="BackgroundImageFix"/>
<feBlend mode="normal" in="SourceGraphic" in2="BackgroundImageFix" result="shape"/>
<feGaussianBlur stdDeviation="3.84798" result="effect1_foregroundBlur_373_6283"/>
</filter>
<filter id="filter6_f_373_6283" x="-13.0063" y="4.65499" width="153.906" height="180.38" filterUnits="userSpaceOnUse" color-interpolation-filters="sRGB">
<feFlood flood-opacity="0" result="BackgroundImageFix"/>
<feBlend mode="normal" in="SourceGraphic" in2="BackgroundImageFix" result="shape"/>
<feGaussianBlur stdDeviation="30.0217" result="effect1_foregroundBlur_373_6283"/>
</filter>
<filter id="filter7_f_373_6283" x="28.529" y="72.3777" width="64.6887" height="60.3623" filterUnits="userSpaceOnUse" color-interpolation-filters="sRGB">
<feFlood flood-opacity="0" result="BackgroundImageFix"/>
<feBlend mode="normal" in="SourceGraphic" in2="BackgroundImageFix" result="shape"/>
<feGaussianBlur stdDeviation="10.1081" result="effect1_foregroundBlur_373_6283"/>
</filter>
<linearGradient id="paint0_linear_373_6283" x1="69.8068" y1="97.5451" x2="101.733" y2="269.115" gradientUnits="userSpaceOnUse">
<stop stop-color="#252525"/>
<stop offset="1" stop-color="#541212"/>
</linearGradient>
<linearGradient id="paint1_linear_373_6283" x1="69.8068" y1="97.5451" x2="101.733" y2="269.115" gradientUnits="userSpaceOnUse">
<stop stop-color="#252525"/>
<stop offset="1" stop-color="#541212"/>
</linearGradient>
<linearGradient id="paint2_linear_373_6283" x1="59.1735" y1="89.5712" x2="59.1737" y2="207.127" gradientUnits="userSpaceOnUse">
<stop stop-color="#252525"/>
<stop offset="1" stop-color="#541212"/>
</linearGradient>
<linearGradient id="paint3_linear_373_6283" x1="59.1735" y1="89.5712" x2="59.1737" y2="207.127" gradientUnits="userSpaceOnUse">
<stop stop-color="#252525"/>
<stop offset="1" stop-color="#541212"/>
</linearGradient>
<linearGradient id="paint4_linear_373_6283" x1="73.6225" y1="16.8738" x2="77.7773" y2="35.7884" gradientUnits="userSpaceOnUse">
<stop stop-color="white"/>
<stop offset="1" stop-color="#B6E2EC"/>
</linearGradient>
</defs>
</svg>
