<svg width="243" height="260" viewBox="0 0 243 260" fill="none" xmlns="http://www.w3.org/2000/svg">
<path d="M121.34 229.092C124.846 229.092 128.208 230.485 130.687 232.963C133.166 235.442 134.558 238.804 134.558 242.31C134.562 244.365 134.084 246.392 133.163 248.229L136.59 251.657C136.851 251.918 136.997 252.272 136.997 252.641C136.997 253.01 136.851 253.364 136.59 253.624L132.655 257.559C132.394 257.82 132.04 257.967 131.671 257.967C131.302 257.967 130.949 257.82 130.688 257.559L127.259 254.132C125.422 255.053 123.395 255.531 121.34 255.528C117.835 255.528 114.473 254.135 111.994 251.656C109.515 249.178 108.123 245.816 108.123 242.31C108.123 238.804 109.515 235.442 111.994 232.963C114.473 230.485 117.835 229.092 121.34 229.092ZM128.719 247.72L126.751 249.687L131.671 254.605L133.639 252.638L128.719 247.72ZM131.312 239.225L118.256 252.282C119.23 252.582 120.266 252.745 121.34 252.745C122.645 252.747 123.938 252.503 125.153 252.027L123.8 250.672C123.54 250.411 123.393 250.057 123.393 249.688C123.393 249.319 123.54 248.966 123.8 248.705L127.735 244.77C127.996 244.509 128.35 244.362 128.719 244.362C129.088 244.362 129.442 244.509 129.703 244.77L131.058 246.122C131.534 244.908 131.777 243.614 131.776 242.31C131.776 241.236 131.613 240.201 131.312 239.225Z" fill="url(#paint0_radial_153_2176)"/>
<path d="M220.962 201.252L212.146 187.457C211.979 187.196 211.679 187.038 211.357 187.042C211.035 187.047 210.739 187.212 210.58 187.477L202.241 201.354C201.25 203.003 200.827 204.418 200.827 206.086C200.827 211.736 205.693 216.333 211.675 216.333C217.657 216.333 222.523 211.736 222.523 206.086C222.523 204.101 221.899 202.718 220.962 201.252Z" fill="url(#paint1_radial_153_2176)"/>
<g clip-path="url(#clip0_153_2176)">
<path d="M122.038 6.47921C125.367 3.60084 130.512 3.69638 133.719 6.79038C136.925 9.88575 137.036 14.8154 134.054 18.0309L122.035 29.6208L110.019 18.0309C107.037 14.8154 107.149 9.87756 110.354 6.79038C113.564 3.70048 118.699 3.59675 122.038 6.47921Z" fill="url(#paint2_radial_153_2176)"/>
</g>
<g clip-path="url(#clip1_153_2176)">
<path d="M28.3901 79.256V72.1925L17.334 59.9078V57.1438H42.2102V59.9078L31.1541 72.1925V79.256H38.0641V82.02H21.48V79.256H28.3901ZM23.5392 62.6718H36.0049L38.4926 59.9078H21.0516L23.5392 62.6718Z" fill="url(#paint3_radial_153_2176)"/>
</g>
<line x1="37.268" y1="54.9674" x2="23.4479" y2="68.7875" stroke="#F6F8F9" stroke-width="1.66248"/>
<path d="M229.084 62.7578V66.1698C229.084 71.0694 225.113 75.041 220.213 75.041H216.801V81.865H214.071V72.3114L214.097 70.9466C214.445 66.3663 218.274 62.7578 222.942 62.7578H229.084ZM207.247 57.2986C211.467 57.2986 215.048 60.035 216.314 63.8305C214.266 65.5706 212.915 68.0996 212.728 70.9466H211.342C206.065 70.9466 201.788 66.6693 201.788 61.393V57.2986H207.247Z" fill="url(#paint4_linear_153_2176)"/>
<path d="M30.2398 125.552H13.0845C12.2464 125.552 10.8472 125.857 10.8472 127.927V131.094H32.4772V127.927C32.4772 125.864 31.078 125.552 30.2398 125.552Z" fill="url(#paint5_radial_153_2176)"/>
<path d="M6.17728 131.783H2.91251V120.713H0.749512V142.172H2.91251V136.631H31.7547V142.166H33.9177V131.783H6.17728Z" fill="url(#paint6_radial_153_2176)"/>
<path d="M6.51949 131.221C8.18818 131.221 9.54092 129.922 9.54092 128.32C9.54092 126.718 8.18818 125.419 6.51949 125.419C4.85079 125.419 3.49805 126.718 3.49805 128.32C3.49805 129.922 4.85079 131.221 6.51949 131.221Z" fill="url(#paint7_radial_153_2176)"/>
<path d="M225.668 140.771C230.82 140.771 234.996 136.594 234.996 131.442C234.996 126.29 230.82 122.113 225.668 122.113C220.515 122.113 216.339 126.29 216.339 131.442C216.339 136.594 220.515 140.771 225.668 140.771Z" fill="url(#paint8_radial_153_2176)"/>
<path d="M225.666 120.041C225.094 120.041 224.63 119.577 224.63 119.005V115.895C224.63 115.323 225.094 114.859 225.666 114.859C226.239 114.859 226.703 115.323 226.703 115.895V119.005C226.703 119.577 226.239 120.041 225.666 120.041Z" fill="url(#paint9_radial_153_2176)"/>
<path d="M225.666 148.027C225.094 148.027 224.63 147.563 224.63 146.99V143.881C224.63 143.308 225.094 142.844 225.666 142.844C226.239 142.844 226.703 143.308 226.703 143.881V146.99C226.703 147.563 226.239 148.027 225.666 148.027Z" fill="url(#paint10_radial_153_2176)"/>
<path d="M241.214 132.48H238.104C237.532 132.48 237.068 132.016 237.068 131.443C237.068 130.871 237.532 130.407 238.104 130.407H241.214C241.786 130.407 242.25 130.871 242.25 131.443C242.25 132.016 241.786 132.48 241.214 132.48Z" fill="url(#paint11_radial_153_2176)"/>
<path d="M213.23 132.48H210.121C209.548 132.48 209.084 132.016 209.084 131.443C209.084 130.871 209.548 130.407 210.121 130.407H213.23C213.803 130.407 214.267 130.871 214.267 131.443C214.267 132.016 213.803 132.48 213.23 132.48Z" fill="url(#paint12_radial_153_2176)"/>
<path d="M234.461 123.684C233.545 123.684 233.073 122.569 233.728 121.914L235.926 119.716C236.331 119.311 236.988 119.311 237.392 119.716C237.797 120.12 237.797 120.777 237.392 121.182L235.193 123.38C234.991 123.583 234.726 123.684 234.461 123.684Z" fill="url(#paint13_radial_153_2176)"/>
<path d="M214.675 143.473C213.76 143.473 213.288 142.358 213.942 141.703L216.141 139.504C216.546 139.1 217.202 139.1 217.607 139.504C218.012 139.909 218.012 140.565 217.607 140.97L215.408 143.169C215.206 143.371 214.941 143.473 214.675 143.473Z" fill="url(#paint14_radial_153_2176)"/>
<path d="M236.665 143.473C236.4 143.473 236.134 143.371 235.932 143.169L233.733 140.97C233.328 140.565 233.328 139.909 233.733 139.504C234.138 139.1 234.794 139.1 235.199 139.504L237.398 141.703C238.053 142.358 237.58 143.473 236.665 143.473Z" fill="url(#paint15_radial_153_2176)"/>
<path d="M216.873 123.684C216.608 123.684 216.343 123.583 216.14 123.38L213.941 121.182C213.536 120.777 213.536 120.12 213.941 119.716C214.346 119.311 215.002 119.311 215.407 119.716L217.606 121.915C218.261 122.569 217.788 123.684 216.873 123.684Z" fill="url(#paint16_radial_153_2176)"/>
<path d="M37.6818 209.594C38.8539 210.722 39.9324 211.241 40.9316 211.241C41.4674 211.241 41.8954 211.15 42.6848 210.864L43.2404 210.657C44.7286 210.081 45.4797 209.876 46.6008 209.876C48.3214 209.876 49.9725 210.62 51.5415 212.033L51.8547 212.323L49.8506 214.253C48.6785 213.125 47.6 212.606 46.6008 212.606C46.0651 212.606 45.637 212.697 44.8476 212.983L44.292 213.19C42.8039 213.765 42.0527 213.971 40.9316 213.971C39.211 213.971 37.5599 213.227 35.991 211.814L35.6777 211.524L37.6818 209.594ZM32.4279 189.404C32.4279 190.49 32.8758 191.532 33.6732 192.299C34.4706 193.067 35.5521 193.499 36.6798 193.499C37.8074 193.499 38.8889 193.067 39.6863 192.299C40.4837 191.532 40.9316 190.49 40.9316 189.404H49.4354C49.8113 189.404 50.1718 189.548 50.4376 189.804C50.7034 190.06 50.8527 190.407 50.8527 190.769V200.323C50.8527 200.685 50.7034 201.032 50.4376 201.288C50.1718 201.544 49.8113 201.687 49.4354 201.687H36.6798C35.9646 201.687 35.2758 201.947 34.7515 202.416C34.2271 202.884 33.9059 203.526 33.8523 204.212L33.8452 204.417V213.971H28.176C27.8001 213.971 27.4396 213.827 27.1738 213.571C26.908 213.315 26.7587 212.968 26.7587 212.606L26.7573 201.686L23.9241 201.687C23.5482 201.687 23.1877 201.544 22.922 201.288C22.6562 201.032 22.5068 200.685 22.5068 200.323V190.769C22.5068 190.407 22.6562 190.06 22.922 189.804C23.1877 189.548 23.5482 189.404 23.9241 189.404H32.4279ZM37.6818 204.135C38.8539 205.263 39.9324 205.782 40.9316 205.782C41.4674 205.782 41.8954 205.69 42.6848 205.405L43.2404 205.198C44.7286 204.622 45.4797 204.417 46.6008 204.417C48.3214 204.417 49.9725 205.161 51.5415 206.573L51.8547 206.864L49.8506 208.794C48.6785 207.665 47.6 207.147 46.6008 207.147C46.0651 207.147 45.637 207.238 44.8476 207.523L44.292 207.731C42.8039 208.305 42.0527 208.511 40.9316 208.511C39.211 208.511 37.5599 207.768 35.991 206.355L35.6777 206.064L37.6818 204.135Z" fill="url(#paint17_radial_153_2176)"/>
<path d="M131.565 126.686C131.565 129.574 130.083 141.46 126.12 148.015C127.742 146.574 135.763 137.462 134.319 126.637C133.408 126.47 132.469 126.486 131.565 126.686Z" fill="#CDDA51"/>
<path d="M130.891 113.624C132.952 115.645 140.293 125.125 142.125 132.584C142.252 130.419 141.488 118.304 132.799 111.665C132.032 112.2 131.383 112.875 130.891 113.649" fill="#4CC4D9"/>
<path d="M121.177 104.844C124.065 104.814 135.953 106.327 142.505 110.271C141.068 108.649 131.952 100.623 121.12 102.07C120.955 102.99 120.975 103.931 121.177 104.844Z" fill="#2699D3"/>
<path d="M108.114 105.544C110.137 103.481 119.615 96.1422 127.044 94.309C124.901 94.1823 112.77 94.9542 106.129 103.638C106.65 104.394 107.325 105.044 108.114 105.55" fill="#AA62A7"/>
<path d="M99.3536 115.258C99.3218 112.37 100.836 100.478 104.799 93.9286C103.177 95.3638 95.1554 104.476 96.5993 115.307C97.5108 115.474 98.4493 115.458 99.3536 115.258Z" fill="#E16BA8"/>
<path d="M100.028 128.32C97.967 126.3 90.6328 116.82 88.7945 109.384C88.6673 111.549 89.4306 123.664 98.1197 130.298C98.888 129.765 99.5367 129.093 100.028 128.32Z" fill="#F26E52"/>
<path d="M109.748 137.076C106.854 137.076 94.9654 135.593 88.4136 131.649C89.8575 133.271 98.9664 141.297 109.799 139.85C109.965 138.937 109.948 138.002 109.748 137.094" fill="#F8A045"/>
<path d="M129.606 129.652C123.537 135.46 115.694 144.325 103.907 147.659C106.07 147.786 119.492 147.539 130.687 130.883C130.051 129.815 129.637 129.677 129.637 129.677" fill="#FBDC61"/>
<path d="M142.763 136.093C142.763 136.093 149.232 123.502 142.127 113.021C138.132 107.75 130.773 105.38 127.172 105.38C126.503 105.31 125.829 105.461 125.264 105.808C129.318 108.87 132.936 112.417 136.027 116.362C139.64 121.307 141.599 127.174 141.955 131.305C141.217 127.976 138.069 120.921 133.807 115.813C131.065 112.52 126.708 109.59 124.132 106.828C123.89 108.251 122.096 118.677 128.184 124.708C132.541 129.047 137.436 132.87 142.763 136.093Z" fill="url(#paint18_linear_153_2176)"/>
<path d="M128.716 96.4859C128 96.3894 127.277 96.341 126.553 96.3412C119.066 96.3412 111.821 101.322 111.7 103.288C116.686 102.597 121.748 102.558 126.744 103.174C132.793 104.114 138.327 106.876 141.502 109.548C138.626 107.739 131.407 104.947 124.798 104.344C122.3 104.206 119.795 104.274 117.311 104.549C115.41 104.752 113.499 104.847 111.586 104.832C112.432 106.014 118.538 114.65 127.107 114.613C133.297 114.593 139.46 113.837 145.452 112.364C145.452 112.364 141.126 98.88 128.716 96.4859Z" fill="url(#paint19_linear_153_2176)"/>
<path d="M110.857 100.412C115.793 96.7934 121.671 94.8395 125.799 94.4777C122.466 95.1953 115.412 98.3673 110.304 102.613C107.009 105.363 104.083 109.717 101.316 112.292C102.741 112.533 113.166 114.33 119.203 108.239C123.581 103.821 127.4 98.9335 130.583 93.6756C126.912 91.9505 122.88 91.0273 118.783 90.974C114.749 90.9198 110.802 92.0835 107.511 94.2968C100.934 99.2839 98.8668 109.506 100.298 111.128C103.312 107.136 106.862 103.534 110.857 100.412Z" fill="url(#paint20_linear_153_2176)"/>
<path d="M109.1 109.325C109.085 103.147 108.329 96.9903 106.848 90.974C106.848 90.974 93.369 95.3039 90.9773 107.733C89.8514 115.91 95.6399 124.6 97.7772 124.744C97.0849 119.743 97.0465 114.679 97.6627 109.668C98.5977 103.638 101.365 98.108 104.036 94.93C102.204 97.8065 99.4565 105.025 98.8204 111.634C98.4324 115.91 99.4565 121.06 99.3102 124.835C100.5 123.997 109.138 117.894 109.1 109.325Z" fill="url(#paint21_linear_153_2176)"/>
<path d="M105.614 136.136C101.575 133.072 97.9725 129.525 94.8957 125.583C91.2827 120.638 89.3235 114.77 88.9673 110.639C89.7052 113.968 92.8538 121.024 97.103 126.131C99.8509 129.424 104.202 132.355 106.784 135.117C107.02 133.694 108.814 123.267 102.726 117.236C98.3731 112.898 93.4819 109.075 88.1595 105.851C86.4338 109.552 85.5163 113.546 85.4624 117.592V117.707C85.4063 121.671 86.5593 125.566 88.7828 128.923C93.7762 135.503 103.992 137.565 105.614 136.136Z" fill="url(#paint22_linear_153_2176)"/>
<path d="M119.221 138.657C114.235 139.345 109.174 139.384 104.177 138.771C98.1281 137.837 92.594 135.069 89.4199 132.397C92.2951 134.206 99.5148 136.998 106.124 137.601C108.623 137.749 111.13 137.685 113.617 137.408C115.518 137.205 117.429 137.11 119.342 137.125C118.49 135.937 112.415 127.338 103.91 127.338H103.847C97.6442 127.346 91.4678 128.095 85.4634 129.569C85.4634 129.569 89.7888 143.047 102.218 145.441C110.405 146.581 119.087 140.816 119.221 138.657Z" fill="url(#paint23_linear_153_2176)"/>
<path d="M112.18 150.971C116.199 151.019 120.131 149.86 123.413 147.66C129.99 142.661 132.058 132.439 130.626 130.817C127.612 134.808 124.063 138.411 120.067 141.533C115.131 145.151 109.254 147.105 105.132 147.467C108.458 146.725 115.519 143.583 120.621 139.332C123.916 136.588 126.848 132.234 129.609 129.683C127.93 129.393 126.226 129.248 124.52 129.249C120.621 129.249 115.347 130.045 111.696 133.736C107.328 138.143 103.518 143.018 100.342 148.263C104.002 149.981 108.02 150.904 112.103 150.965L112.18 150.971Z" fill="url(#paint24_linear_153_2176)"/>
<path d="M139.926 134.302C138.259 133.187 136.045 131.601 133.558 129.569C133.482 130.539 133.387 131.45 133.259 132.276C132.324 138.307 129.557 143.861 126.898 147.039C128.73 144.162 131.497 136.944 132.102 130.334C132.159 129.731 132.184 129.062 132.191 128.411C130.919 127.295 129.557 126.071 128.209 124.732C127.418 123.932 126.735 123.043 126.173 122.085C123.909 124.774 121.822 128.393 121.841 132.62C121.855 138.795 122.603 144.949 124.074 150.965C124.074 150.965 137.483 146.659 139.926 134.302Z" fill="url(#paint25_linear_153_2176)"/>
<defs>
<radialGradient id="paint0_radial_153_2176" cx="0" cy="0" r="1" gradientUnits="userSpaceOnUse" gradientTransform="translate(135.403 257.967) rotate(-127.749) scale(21.123 33.4234)">
<stop stop-color="#E279B2"/>
<stop offset="1" stop-color="#D1499B"/>
</radialGradient>
<radialGradient id="paint1_radial_153_2176" cx="0" cy="0" r="1" gradientUnits="userSpaceOnUse" gradientTransform="translate(220.194 216.333) rotate(-120.515) scale(25.1664 36.2045)">
<stop stop-color="#70C6DB"/>
<stop offset="1" stop-color="#1B9FBF"/>
</radialGradient>
<radialGradient id="paint2_radial_153_2176" cx="0" cy="0" r="1" gradientUnits="userSpaceOnUse" gradientTransform="translate(132.993 24.1794) rotate(-137.487) scale(19.5816 34.2292)">
<stop stop-color="#FAB05C"/>
<stop offset="1" stop-color="#F57E2A"/>
</radialGradient>
<radialGradient id="paint3_radial_153_2176" cx="0" cy="0" r="1" gradientUnits="userSpaceOnUse" gradientTransform="translate(39.692 79.3373) rotate(-132.612) scale(19.386 33.1922)">
<stop stop-color="#F18164"/>
<stop offset="1" stop-color="#DB392C"/>
</radialGradient>
<linearGradient id="paint4_linear_153_2176" x1="229.084" y1="80.961" x2="211.232" y2="59.7257" gradientUnits="userSpaceOnUse">
<stop stop-color="#27AE60"/>
<stop offset="1" stop-color="#9EB643"/>
</linearGradient>
<radialGradient id="paint5_radial_153_2176" cx="0" cy="0" r="1" gradientUnits="userSpaceOnUse" gradientTransform="translate(32.1454 131.393) rotate(-162.883) scale(15.69 14.6814)">
<stop stop-color="#B16FAF"/>
<stop offset="1" stop-color="#723093"/>
</radialGradient>
<radialGradient id="paint6_radial_153_2176" cx="0" cy="0" r="1" gradientUnits="userSpaceOnUse" gradientTransform="translate(33.409 143.329) rotate(-142.127) scale(29.1291 46.9575)">
<stop stop-color="#B16FAF"/>
<stop offset="1" stop-color="#723093"/>
</radialGradient>
<radialGradient id="paint7_radial_153_2176" cx="0" cy="0" r="1" gradientUnits="userSpaceOnUse" gradientTransform="translate(9.44824 131.533) rotate(-130.911) scale(6.39689 10.5315)">
<stop stop-color="#B16FAF"/>
<stop offset="1" stop-color="#723093"/>
</radialGradient>
<radialGradient id="paint8_radial_153_2176" cx="0" cy="0" r="1" gradientUnits="userSpaceOnUse" gradientTransform="translate(232.478 134.552) rotate(-140.731) scale(14.4829 16.2242)">
<stop stop-color="#FDE078"/>
<stop offset="1" stop-color="#FDB839"/>
</radialGradient>
<radialGradient id="paint9_radial_153_2176" cx="0" cy="0" r="1" gradientUnits="userSpaceOnUse" gradientTransform="translate(226.423 118.314) rotate(-116.07) scale(2.83485 2.55826)">
<stop stop-color="#FDE078"/>
<stop offset="1" stop-color="#FDB839"/>
</radialGradient>
<radialGradient id="paint10_radial_153_2176" cx="0" cy="0" r="1" gradientUnits="userSpaceOnUse" gradientTransform="translate(226.423 146.299) rotate(-116.07) scale(2.83485 2.55826)">
<stop stop-color="#FDE078"/>
<stop offset="1" stop-color="#FDB839"/>
</radialGradient>
<radialGradient id="paint11_radial_153_2176" cx="0" cy="0" r="1" gradientUnits="userSpaceOnUse" gradientTransform="translate(241.551 131.789) rotate(-161.89) scale(3.27688 2.21317)">
<stop stop-color="#FDE078"/>
<stop offset="1" stop-color="#FDB839"/>
</radialGradient>
<radialGradient id="paint12_radial_153_2176" cx="0" cy="0" r="1" gradientUnits="userSpaceOnUse" gradientTransform="translate(213.567 131.789) rotate(-161.89) scale(3.27688 2.21317)">
<stop stop-color="#FDE078"/>
<stop offset="1" stop-color="#FDB839"/>
</radialGradient>
<radialGradient id="paint13_radial_153_2176" cx="0" cy="0" r="1" gradientUnits="userSpaceOnUse" gradientTransform="translate(237.119 122.26) rotate(-140.738) scale(3.31659 3.71515)">
<stop stop-color="#FDE078"/>
<stop offset="1" stop-color="#FDB839"/>
</radialGradient>
<radialGradient id="paint14_radial_153_2176" cx="0" cy="0" r="1" gradientUnits="userSpaceOnUse" gradientTransform="translate(217.334 142.049) rotate(-140.739) scale(3.31658 3.71514)">
<stop stop-color="#FDE078"/>
<stop offset="1" stop-color="#FDB839"/>
</radialGradient>
<radialGradient id="paint15_radial_153_2176" cx="0" cy="0" r="1" gradientUnits="userSpaceOnUse" gradientTransform="translate(237.126 142.049) rotate(-140.738) scale(3.31656 3.71512)">
<stop stop-color="#FDE078"/>
<stop offset="1" stop-color="#FDB839"/>
</radialGradient>
<radialGradient id="paint16_radial_153_2176" cx="0" cy="0" r="1" gradientUnits="userSpaceOnUse" gradientTransform="translate(217.334 122.26) rotate(-140.739) scale(3.31658 3.71513)">
<stop stop-color="#FDE078"/>
<stop offset="1" stop-color="#FDB839"/>
</radialGradient>
<radialGradient id="paint17_radial_153_2176" cx="0" cy="0" r="1" gradientUnits="userSpaceOnUse" gradientTransform="translate(50.4143 213.157) rotate(-136.767) scale(26.3188 44.7917)">
<stop stop-color="#D3DB65"/>
<stop offset="1" stop-color="#9FB743"/>
</radialGradient>
<linearGradient id="paint18_linear_153_2176" x1="113.55" y1="119.537" x2="141.807" y2="118.389" gradientUnits="userSpaceOnUse">
<stop stop-color="#4CC4D9"/>
<stop offset="1" stop-color="#0995B5"/>
</linearGradient>
<linearGradient id="paint19_linear_153_2176" x1="130.498" y1="110.178" x2="155.105" y2="82.1403" gradientUnits="userSpaceOnUse">
<stop stop-color="#2699D3"/>
<stop offset="1" stop-color="#0C52A0"/>
</linearGradient>
<linearGradient id="paint20_linear_153_2176" x1="109.017" y1="120.428" x2="108.116" y2="95.7215" gradientUnits="userSpaceOnUse">
<stop stop-color="#AA62A7"/>
<stop offset="1" stop-color="#6D2C90"/>
</linearGradient>
<linearGradient id="paint21_linear_153_2176" x1="102.076" y1="112.188" x2="74.872" y2="85.6194" gradientUnits="userSpaceOnUse">
<stop stop-color="#E16BA8"/>
<stop offset="1" stop-color="#C73793"/>
</linearGradient>
<linearGradient id="paint22_linear_153_2176" x1="121.843" y1="118.153" x2="97.311" y2="119.151" gradientUnits="userSpaceOnUse">
<stop stop-color="#F26E52"/>
<stop offset="1" stop-color="#D32E27"/>
</linearGradient>
<linearGradient id="paint23_linear_153_2176" x1="100.533" y1="121.074" x2="75.4274" y2="149.683" gradientUnits="userSpaceOnUse">
<stop stop-color="#F8A045"/>
<stop offset="1" stop-color="#F26E21"/>
</linearGradient>
<linearGradient id="paint24_linear_153_2176" x1="124.574" y1="117.628" x2="125.411" y2="140.574" gradientUnits="userSpaceOnUse">
<stop stop-color="#FBDC61"/>
<stop offset="1" stop-color="#FBB033"/>
</linearGradient>
<linearGradient id="paint25_linear_153_2176" x1="106.275" y1="139.276" x2="130.466" y2="162.893" gradientUnits="userSpaceOnUse">
<stop stop-color="#CDDA51"/>
<stop offset="1" stop-color="#85A43D"/>
</linearGradient>
<clipPath id="clip0_153_2176">
<rect width="34.015" height="32.7552" fill="white" transform="translate(105.029 0.298096)"/>
</clipPath>
<clipPath id="clip1_153_2176">
<rect width="33.1682" height="33.1682" fill="white" transform="translate(13.188 52.9978)"/>
</clipPath>
</defs>
</svg>
