<svg width="52" height="59" viewBox="0 0 52 59" fill="none" xmlns="http://www.w3.org/2000/svg">
<path d="M9.23438 51.478C9.23438 51.478 13.1247 48.498 14.2207 46.7974C15.3144 45.0945 16.0459 42.3591 16.0459 42.3591C16.0459 42.3591 14.8911 40.0494 14.8299 36.2179C14.7688 32.3864 13.5833 15.2728 14.4042 12.9937C15.2251 10.7145 16.7939 12.3586 16.7939 12.3586C16.7939 12.3586 16.0742 5.5165 17.2008 4.21581C18.3392 2.90101 19.7951 4.16642 19.7951 4.16642C19.7951 4.16642 19.5717 1.68735 20.5736 0.927634C21.8978 -0.0743419 22.9492 2.10602 22.9492 2.10602L27.9591 47.1032C27.9591 47.1032 24.3722 55.2507 23.3985 56.7701C22.4247 58.2896 21.6344 58.6541 21.6344 58.6541C21.6344 58.6541 16.7092 57.8027 14.3995 56.4644C12.0921 55.1237 9.23438 51.478 9.23438 51.478Z" fill="#F0BFAE"/>
<path d="M45.0569 49.4128C45.0569 49.4128 39.586 46.3128 38.5817 44.123C37.5774 41.9333 38.3089 39.8376 39.038 38.2876C39.7672 36.7376 39.586 32.5415 39.3108 28.8935C39.038 25.2454 37.3045 21.3246 36.7565 19.5464C36.2085 17.7683 34.9337 16.6722 34.0211 18.4974C33.1085 20.3202 33.9082 24.8574 33.9082 24.8574C33.9082 24.8574 32.1841 19.0878 30.7258 13.8897C29.2676 8.69168 27.9575 5.25062 26.8402 4.17808C25.9418 3.31488 25.088 4.55441 25.088 4.55441C25.088 4.55441 24.594 1.57671 22.997 1.60258C21.3153 1.62846 21.0707 4.90722 21.0707 4.90722C21.0707 4.90722 19.9299 3.6771 18.608 4.72376C17.2862 5.77042 17.9706 12.6572 17.9706 12.6572C17.9706 12.6572 15.1435 11.3801 15.508 15.849C15.7456 18.7702 16.6935 25.6077 16.6935 26.1533C16.6935 26.7014 17.4226 34.5431 17.9706 36.6412C18.5187 38.7392 19.7935 44.8498 22.1667 48.2227C24.5376 51.5979 28.7336 54.9707 30.6482 56.0644C32.5628 57.1581 34.7526 58.0707 34.7526 58.0707C34.7526 58.0707 40.047 56.6783 41.964 54.7637C43.8809 52.8492 45.0569 49.4128 45.0569 49.4128Z" fill="#F0BFAE"/>
<path d="M9.23438 51.4779C9.23438 51.4779 17.443 56.6454 20.2984 54.458C23.1562 52.2682 21.6344 45.9482 21.6344 45.9482C21.6344 45.9482 24.3346 50.0267 24.7485 50.3137C25.1649 50.6006 25.9222 51.6026 25.9222 51.6026C25.9222 51.6026 23.4855 57.0476 22.5164 57.9273C21.545 58.8069 21.6368 58.654 21.6368 58.654C21.6368 58.654 16.1377 57.5462 14.0632 56.255C11.9087 54.9119 9.23438 51.4779 9.23438 51.4779Z" fill="#E5A48E"/>
<path d="M22.0461 46.6703C22.0461 46.6703 26.9008 53.4936 30.5488 55.4223C34.1968 57.3509 35.3447 57.859 35.3447 57.859C35.3447 57.859 36.9135 57.4427 37.3886 57.2592C38.3388 56.8899 39.3714 56.4666 39.3714 56.4666C39.3714 56.4666 22.3942 48.4954 20.3715 35.912C18.8732 26.5837 17.2997 17.4507 16.8975 13.6286C16.7564 12.295 17.6948 12.0903 17.6948 12.0903C17.6948 12.0903 15.8932 11.9186 16.1166 15.2844C16.3024 18.0928 18.6992 39.5694 20.3691 43.1187" fill="#E5A48E"/>
<path d="M35.2526 58.0759C33.9166 57.4761 32.6183 56.8175 31.3505 56.0884C30.7155 55.7262 30.0922 55.3428 29.4853 54.9312C28.8761 54.5243 28.2858 54.0821 27.7283 53.5975C27.4461 53.3529 27.1827 53.1013 26.9216 52.852C26.6605 52.6003 26.3947 52.351 26.136 52.0946C25.6115 51.5865 25.1058 51.0597 24.6119 50.5187C23.6311 49.4321 22.7326 48.2631 21.9705 47.0071C21.2061 45.7534 20.5757 44.4175 20.0959 43.0298C19.609 41.6421 19.3009 40.205 19.0304 38.7773C18.5012 35.9148 18.0849 33.0382 17.6898 30.1617C17.297 27.2828 16.9371 24.4015 16.5984 21.5155C16.4314 20.0737 16.2668 18.6295 16.1162 17.1854C16.041 16.4633 15.9681 15.7412 15.9069 15.0121C15.8975 14.8239 15.8763 14.6358 15.8928 14.4499C15.9022 14.2618 15.8999 14.076 15.9351 13.8878L15.9751 13.6079C15.9892 13.5138 16.0222 13.4221 16.0433 13.3304C16.0833 13.1422 16.168 12.9658 16.2433 12.7847C16.422 12.4389 16.7043 12.1026 17.1112 11.9568C17.5134 11.8039 17.9767 11.8933 18.3107 12.1238C18.6494 12.3496 18.9011 12.6812 19.0469 13.0434C19.1198 13.2198 19.1716 13.3986 19.2304 13.5773L19.3785 14.1065C19.7478 15.5178 20.0677 16.9337 20.3711 18.3543C20.9803 21.1956 21.5424 24.044 22.0434 26.9041L21.9541 26.9229C21.3025 24.0934 20.6839 21.2568 20.0442 18.4273C19.7149 17.016 19.4044 15.5954 19.0304 14.2006L18.8846 13.6808C18.8282 13.5138 18.7788 13.3421 18.7129 13.1845C18.5883 12.8741 18.3766 12.6036 18.1108 12.4295C17.8474 12.2508 17.5157 12.1967 17.2358 12.3025C16.9512 12.406 16.7278 12.6577 16.5773 12.9493C16.0057 14.2077 16.3961 15.713 16.4996 17.143C16.6525 18.5849 16.8242 20.0267 16.9936 21.4685C17.3393 24.3497 17.7086 27.2287 18.1108 30.1029C18.5153 32.9747 18.9411 35.8466 19.4773 38.6926C19.7502 40.1156 20.0559 41.5221 20.5381 42.8769C21.0109 44.2317 21.6318 45.5347 22.3821 46.7578C23.1324 47.9808 24.0121 49.1239 24.9717 50.1941C25.4563 50.7257 25.9549 51.2455 26.4723 51.7512C26.7287 52.0052 26.9921 52.2545 27.2532 52.5062C27.5167 52.7579 27.7777 53.0072 28.0435 53.24C28.5798 53.7081 29.1537 54.1409 29.7511 54.5384C30.3462 54.9429 30.9601 55.3193 31.5857 55.6791C32.8347 56.3988 34.1283 57.0551 35.4384 57.6478L35.2526 58.0759Z" fill="#AA6152"/>
<path d="M18.736 13.1891C18.5243 11.8649 18.3879 10.5336 18.3314 9.19297C18.3032 8.52263 18.3032 7.84994 18.3432 7.17255C18.3949 6.49751 18.4749 5.81777 18.7078 5.14743C18.8301 4.81579 18.9923 4.4771 19.284 4.20426C19.3546 4.13605 19.4463 4.08195 19.5286 4.02315L19.792 3.90084C19.8861 3.86791 19.9896 3.8491 20.0861 3.82793C20.1895 3.82557 20.2977 3.81617 20.4036 3.83263C20.5071 3.8585 20.6176 3.87262 20.707 3.92671L20.8458 3.99728L20.9657 4.08665C21.1257 4.20661 21.2456 4.35479 21.3562 4.50297C21.5678 4.80403 21.7137 5.12626 21.8336 5.45085C22.2711 6.76329 22.471 8.07104 22.7462 9.37407L24.3174 17.2111C24.8254 19.8266 25.3053 22.4468 25.6839 25.0882C24.9995 22.508 24.4185 19.9089 23.8658 17.3029L22.2523 9.47757C21.9747 8.17923 21.7513 6.84561 21.3585 5.6249C21.2503 5.32619 21.1186 5.03453 20.9493 4.78992C20.7799 4.5453 20.5635 4.35949 20.3307 4.31951C20.2719 4.3101 20.2107 4.31716 20.1495 4.3148C20.086 4.33362 20.0249 4.34068 19.9614 4.36184L19.7709 4.44652C19.7191 4.4865 19.6627 4.51473 19.6133 4.56177C19.4157 4.74288 19.2699 5.01807 19.1617 5.30737C18.95 5.89774 18.8653 6.55161 18.8112 7.20077C18.7618 7.85465 18.7501 8.51322 18.7642 9.17415C18.7971 10.4937 18.91 11.8202 19.077 13.1327L18.736 13.1891Z" fill="#AA6152"/>
<path d="M21.6333 6.29756C21.5957 5.67897 21.5933 5.06979 21.6357 4.45355C21.6803 3.83966 21.758 3.22343 21.9485 2.6166C22.0449 2.31553 22.1719 2.01212 22.3718 1.73458C22.5671 1.45938 22.8846 1.21712 23.2562 1.15126C23.6255 1.09952 23.9759 1.17949 24.2841 1.34178C24.5945 1.50643 24.8415 1.75574 25.0297 2.02388C25.406 2.5672 25.6059 3.17168 25.7682 3.76675C25.9258 4.36653 26.034 4.96865 26.1469 5.56137C26.2033 5.85773 26.2598 6.14938 26.328 6.43869L26.5303 7.32541L26.9301 9.09886L28.5248 16.1903C28.7859 17.3734 29.0446 18.5565 29.2822 19.7443L29.6373 21.5271C29.7455 22.1245 29.8631 22.7173 29.9643 23.3147L29.8443 23.3406C29.6773 22.7572 29.5268 22.1716 29.3669 21.5859L28.9176 19.8242C28.6189 18.6506 28.3414 17.4722 28.0662 16.2914L26.4409 9.20941L26.034 7.43831L25.8341 6.55158C25.7635 6.25052 25.7071 5.94711 25.653 5.6484C25.5448 5.05097 25.4413 4.46061 25.2931 3.8867C25.1449 3.31751 24.9521 2.75302 24.6369 2.29672C24.4793 2.07092 24.2864 1.87805 24.0606 1.75809C23.8372 1.63579 23.5643 1.58169 23.3338 1.61227C23.1033 1.65225 22.8987 1.79102 22.7388 2.00506C22.5812 2.21675 22.4636 2.47782 22.3718 2.75066C22.1907 3.29869 22.1037 3.89141 22.0543 4.48177C22.0073 5.07449 21.9908 5.67897 22.0143 6.26934L21.6333 6.29756Z" fill="#AA6152"/>
<path d="M25.46 4.39947C25.5258 4.22542 25.6034 4.09605 25.7116 3.95963C25.8175 3.83027 25.9539 3.70796 26.1162 3.63034C26.4361 3.47276 26.803 3.46335 27.1323 3.58801C27.2922 3.64916 27.4522 3.75265 27.5627 3.8632C27.6827 3.97139 27.7791 4.08899 27.8732 4.20895C28.0566 4.44886 28.2095 4.69818 28.3553 4.94985C28.9222 5.96358 29.3479 7.02436 29.7501 8.08984C30.5451 10.2255 31.2225 12.3965 31.8576 14.5768C32.4926 16.7572 33.0877 18.9493 33.6686 21.1437C33.9626 22.2398 34.2355 23.3406 34.5154 24.4413L34.9176 26.0948C35.0564 26.6452 35.1716 27.2003 35.348 27.7389C35.2257 27.4825 35.141 27.2097 35.0493 26.9416C34.9599 26.6711 34.8705 26.4029 34.7882 26.1301L34.299 24.5001L33.3723 21.2261C32.7607 19.041 32.1374 16.863 31.4718 14.6944C30.8038 12.5305 30.1241 10.3666 29.3173 8.25684C28.9081 7.20782 28.4871 6.1541 27.9461 5.18505C27.8097 4.94514 27.6638 4.71229 27.5015 4.5006C27.3345 4.29127 27.1629 4.10075 26.9653 4.03019C26.763 3.95258 26.516 3.95963 26.3279 4.05607C26.1468 4.14074 25.9868 4.35478 25.9092 4.55705L25.46 4.39947Z" fill="#AA6152"/>
<path d="M45.5342 49.3872C45.1249 49.1544 44.7227 48.9098 44.3205 48.6628C43.9183 48.4159 43.5161 48.1712 43.1233 47.9102C42.7281 47.6514 42.3354 47.3904 41.9473 47.1081C41.8508 47.0399 41.752 46.9646 41.6556 46.8894L41.3804 46.6753C41.1946 46.5342 41.0064 46.3884 40.823 46.2355C40.0844 45.631 39.3859 44.9395 38.8661 44.1116C38.3298 43.3072 37.9911 42.3193 38.1111 41.355C38.4451 42.2582 38.7602 43.0884 39.2777 43.8411C39.7881 44.5914 40.4561 45.2265 41.1758 45.8004L41.7262 46.2308L42.0061 46.4519C42.0931 46.5224 42.1825 46.5907 42.2765 46.6589C42.6482 46.9317 43.0363 47.1928 43.4243 47.4515L45.767 49.0062L45.5342 49.3872Z" fill="#AA6152"/>
<path d="M9.09888 51.3043C9.9221 50.6245 10.7406 49.9354 11.538 49.2298C11.9378 48.877 12.3353 48.5218 12.7116 48.1525C13.0833 47.7832 13.4643 47.3975 13.7371 47C13.8053 46.9083 13.8736 46.7813 13.9394 46.6707L14.1393 46.325C14.271 46.0945 14.4004 45.8616 14.5227 45.6288C14.7697 45.1607 14.9978 44.6926 15.1742 44.1987C15.527 43.1897 15.7952 42.1548 16.3808 41.2163L16.4114 41.2257C16.3409 42.3288 15.9504 43.3355 15.647 44.3681C15.4753 44.8879 15.2495 45.3959 15.0002 45.8781C14.8755 46.1203 14.7462 46.3579 14.6168 46.5955L14.4192 46.9483C14.3487 47.0659 14.2946 47.1788 14.2052 47.3058C13.8712 47.7927 13.4831 48.1666 13.095 48.55C12.7046 48.9287 12.3 49.2862 11.8931 49.6414C11.0723 50.3423 10.2326 51.0126 9.36466 51.6547L9.09888 51.3043Z" fill="#AA6152"/>
<path d="M3.59931 30.406C4.40136 31.1939 5.55858 32.6687 6.6711 34.2728C7.78597 35.8769 8.86792 37.6245 9.51474 38.9628L9.19251 39.118C8.55745 37.8032 7.48726 36.0745 6.37709 34.4774C5.26692 32.878 4.12619 31.4268 3.34766 30.6624L3.59931 30.406Z" fill="#00271C"/>
<path d="M3.44437 26.9978C3.9383 26.9273 4.0559 28.3738 3.44437 29.7662C3.315 30.0602 2.76933 30.3707 2.45886 30.4389C1.83321 30.5753 -0.0484388 30.4977 0.000954328 29.698C0.0409393 29.0582 0.866519 28.9124 1.27342 28.9195C0.944137 28.6325 0.436086 27.9787 1.03116 27.6447C1.62623 27.3107 2.24247 27.8658 2.47532 28.1833C2.63526 27.814 3.04922 27.0566 3.44437 26.9978Z" fill="#F46F6C"/>
<path d="M4.21781 27.4236C3.93556 26.3698 2.6678 27.8869 2.59019 29.4887C1.7999 29.5004 -0.650941 30.1566 0.184039 30.6764C0.819094 31.0739 2.24444 31.9042 3.68154 30.8952C5.11395 29.8885 4.40597 28.1221 4.21781 27.4236Z" fill="#FFBC50"/>
<path d="M0.111178 33.4286C1.29426 34.3623 3.96619 35.7312 6.23593 34.5199C6.28532 34.4941 6.29943 34.4282 6.26886 34.3835C4.73061 32.2267 1.64471 32.7088 0.137047 33.2686C0.0688376 33.2945 0.0547287 33.3839 0.111178 33.4286Z" fill="#8CD061"/>
<path d="M6.20094 34.3929C4.67681 33.9836 3.56664 33.7531 1.49683 33.3721C3.55487 33.9319 4.07938 34.0212 6.20094 34.3929Z" fill="#30AD6D"/>
<path d="M48.1002 29.9896C47.3641 30.8387 46.3292 32.4005 45.346 34.0869C44.3628 35.7757 43.4244 37.6032 42.8857 38.9886L43.2197 39.118C43.7489 37.7585 44.678 35.9474 45.6565 34.268C46.6373 32.5863 47.6581 31.048 48.3731 30.2248L48.1002 29.9896Z" fill="#00271C"/>
<path d="M47.9832 26.579C47.4845 26.5461 47.4845 27.9997 48.2019 29.338C48.3548 29.6226 48.9216 29.8884 49.2368 29.9307C49.8719 30.0177 51.7417 29.7896 51.6288 28.997C51.5395 28.3619 50.7045 28.2819 50.2976 28.3219C50.6034 28.0114 51.0573 27.3176 50.4363 27.0306C49.8154 26.746 49.2462 27.3458 49.0392 27.6822C48.8558 27.3293 48.383 26.6049 47.9832 26.579Z" fill="#F46F6C"/>
<path d="M47.2459 27.0659C47.4435 25.9933 48.8265 27.4046 49.0335 28.9946C49.8214 28.9428 52.3169 29.4015 51.5266 29.9895C50.9245 30.4364 49.5697 31.3772 48.0597 30.4858C46.5497 29.5943 47.1142 27.7762 47.2459 27.0659Z" fill="#FFBC50"/>
<path d="M51.8195 32.725C50.714 33.7481 48.1597 35.3287 45.8006 34.3009C45.7488 34.2773 45.73 34.2162 45.7582 34.1668C47.1201 31.8947 50.2342 32.1276 51.7818 32.5674C51.85 32.5886 51.8712 32.6756 51.8195 32.725Z" fill="#8CD061"/>
<path d="M45.8242 34.1692C47.3107 33.64 48.3974 33.3225 50.4342 32.7792C48.4256 33.5013 47.9105 33.6306 45.8242 34.1692Z" fill="#30AD6D"/>
</svg>
