<svg width="44" height="44" viewBox="0 0 44 44" fill="none" xmlns="http://www.w3.org/2000/svg">
<path d="M10.686 26.242L5.03001 31.9L12.1 38.97L38.97 12.1L31.9 5.03001L27.656 9.27201L30.486 12.1L27.656 14.928L24.828 12.1L20.586 16.344L24.828 20.584L22 23.416L17.758 19.174L13.514 23.416L16.344 26.244L13.514 29.074L10.686 26.244V26.242ZM33.314 0.786012L43.214 10.686C43.589 11.0611 43.7996 11.5697 43.7996 12.1C43.7996 12.6303 43.589 13.139 43.214 13.514L13.514 43.214C13.139 43.589 12.6303 43.7996 12.1 43.7996C11.5697 43.7996 11.0611 43.589 10.686 43.214L0.786012 33.314C0.41107 32.939 0.200439 32.4303 0.200439 31.9C0.200439 31.3697 0.41107 30.8611 0.786012 30.486L30.486 0.786012C30.8611 0.41107 31.3697 0.200439 31.9 0.200439C32.4303 0.200439 32.939 0.41107 33.314 0.786012Z" fill="url(#paint0_radial_6736_429)"/>
<defs>
<radialGradient id="paint0_radial_6736_429" cx="0" cy="0" r="1" gradientUnits="userSpaceOnUse" gradientTransform="translate(39.6537 38.884) rotate(-132.582) scale(41.507 71.0336)">
<stop stop-color="#519BD2"/>
<stop offset="1" stop-color="#1A65B0"/>
</radialGradient>
</defs>
</svg>
