<svg width="219" height="155" viewBox="0 0 219 155" fill="none" xmlns="http://www.w3.org/2000/svg">
<path d="M30.2762 120.644C30.2762 120.644 10.9824 81.7077 25.737 69.0082C40.4915 56.3087 42.9991 64.3779 52.434 46.3614C61.8689 28.3449 68.9392 22.0628 100.649 20.3017C177.33 16.0382 164.422 120.644 164.422 120.644H30.2762Z" fill="#F2FFE9"/>
<path d="M52.4445 109.635C52.4445 109.635 47.1664 114.258 45.9594 117.978C44.7524 121.697 44.4663 122.27 44.4663 122.27H64.6263V110.161L52.4445 109.635Z" fill="#2A81EA"/>
<path d="M30.3359 120.563L55.402 116.375L91.9371 110.27L95.7298 109.635L197.024 112.814L131.992 147.773L30.3359 120.563Z" fill="#FFDD99"/>
<path d="M76.397 43.8097C75.2966 42.6521 73.8191 42.946 70.812 43.0085L75.1536 62.9031L81.3212 62.9864C81.714 62.3361 83.5739 51.4627 76.397 43.8097Z" fill="#5A0F09"/>
<path d="M76.7427 59.4434C76.7427 59.4434 76.0559 59.4642 75.8712 59.9766C74.9035 62.6768 74.8125 62.9031 74.8125 62.9031L78.73 62.9863L76.7427 59.4434Z" fill="#360501"/>
<path d="M32.2868 75.0433C32.2868 75.0433 33.8892 67.5646 33.2493 65.3197C32.6094 63.0747 29.6153 60.3512 29.2953 57.0398C28.9754 53.7283 30.9523 50.201 32.0735 50.8435C33.1947 51.4834 33.6239 58.4835 34.1025 58.5901C34.5837 58.6968 34.2638 55.7573 35.0104 55.3307C35.7595 54.9041 35.9728 59.3367 35.9182 60.5671C35.8636 61.7949 38.6964 74.51 38.6964 74.51L32.2868 75.0433Z" fill="#E59C7B"/>
<path d="M33.0362 70.824C33.0362 70.824 34.9299 70.0618 36.3997 70.3974C37.8694 70.7329 37.9396 71.0529 37.9396 71.0529L38.3454 72.9154L32.646 73.2016L33.0362 70.824Z" fill="#AD6B50"/>
<path d="M117.338 105.177C117.338 105.177 117.908 106.922 117.515 108.738C117.122 110.554 115.949 112.016 115.949 112.016C115.949 112.016 113.207 110.093 113.847 107.528C114.49 104.961 117.338 105.177 117.338 105.177Z" fill="#D8491A"/>
<path d="M126.241 111.274L98.0557 116.994L112.584 119.432L137.252 114.289L126.241 111.274Z" fill="#ACACAD"/>
<path d="M112.583 118.49V119.015L136.715 114.143L136.772 113.654L112.583 118.49Z" fill="#5399E5"/>
<path d="M98.8484 116.336V116.745L112.583 119.016L112.726 118.461L98.8484 116.336Z" fill="#5399E5"/>
<path d="M136.773 113.654L112.971 118.485C112.947 118.49 112.921 118.49 112.898 118.487L99.0305 116.404C98.7938 116.367 98.7886 116.029 99.0253 115.985L125.017 111.277C125.041 111.271 125.067 111.271 125.09 111.277L136.767 113.238C136.996 113.277 137.002 113.607 136.773 113.654Z" fill="#B0D9FE"/>
<path d="M111.863 106.456C111.863 106.456 117.549 110.431 120.728 110.431C123.907 110.431 126.17 108.535 128.92 109.575C131.672 110.616 132.161 112.817 132.161 112.817L110.643 111.105L111.863 106.456Z" fill="#E29C81"/>
<path d="M116.389 109.107C116.389 109.107 116.155 109.635 116.415 110.447C116.741 111.467 117.341 111.636 117.341 111.636L114.706 111.407V108.22L116.389 109.107Z" fill="#AD6B50"/>
<path d="M56.1483 65.8529C53.3702 67.7753 48.3471 78.0478 44.8223 76.9786C41.2976 75.9095 39.0969 72.1819 36.3447 72.4758C33.5925 72.7697 29.7921 72.4758 29.1521 80.597C28.7229 86.0285 28.4394 94.2746 33.8891 100.151C39.3388 106.027 40.3013 105.601 44.2526 103.785C48.2066 101.969 53.3337 92.4589 53.3337 92.4589C53.3337 92.4589 49.2731 98.5485 48.0973 104.212C46.9216 109.875 49.1665 115.218 59.6367 116.5C70.1068 117.782 89.77 113.722 90.8365 110.41C91.9057 107.099 90.8365 101.863 90.8365 101.863C90.8365 101.863 92.3323 111.693 101.416 112.655C110.5 113.618 115.947 112.015 115.947 112.015C115.947 112.015 114.878 109.024 115.307 107.635C115.733 106.246 117.336 105.177 117.336 105.177C117.336 105.177 116.909 100.583 112.849 98.1245C108.788 95.6663 100.134 91.2857 98.1019 87.6543C96.0729 84.0203 88.165 69.9161 83.3552 67.2446C81.7684 66.3628 78.3685 63.7277 76.1418 64.2349C72.6275 65.0361 69.3004 64.4404 67.0633 64.4716C66.4234 64.4794 58.9265 63.9306 56.1483 65.8529Z" fill="url(#paint0_linear_9373_64494)"/>
<path d="M96.2549 113.196L92.1058 110.27L53.8721 116.659L67.8306 119.494L96.2549 113.196Z" fill="#FFDD99"/>
<path d="M69.6411 61.1522V67.0858C69.6411 67.0858 70.0807 68.5139 72.0395 68.5139C73.9983 68.5139 74.4379 66.9531 74.4379 66.9531V61.8286L69.6411 61.1522Z" fill="#F0BFAE"/>
<path d="M78.9436 58.3482C78.0072 59.8934 76.1472 58.8997 75.8091 60.1483C75.5984 60.9235 74.6905 63.5976 75.6738 64.1673C75.9521 64.3286 76.397 64.1699 76.6571 64.1803C77.3178 64.2064 75.2134 69.3517 73.1427 69.539C71.3791 69.6977 66.2701 64.4717 67.0713 64.4691C67.5135 64.4665 67.7164 64.5081 68.3304 64.3936C71.3869 62.799 64.9591 54.0171 64.6677 51.01C64.3738 48.0029 65.6692 45.8308 68.5359 44.5406C71.4025 43.2504 74.4434 43.2061 76.2097 46.3979C79.4483 51.8918 78.028 51.6655 79.0503 53.0546C80.0726 54.4463 79.8775 56.8031 78.9436 58.3482Z" fill="#E59C7B"/>
<path d="M69.7534 52.3547C70.9864 51.1451 73.6502 47.8883 74.4409 44.5483C74.6959 43.9656 74.2953 43.5286 74.0638 43.3829C73.3536 42.9641 71.1607 42.2721 68.06 42.8548C60.2561 44.85 61.1405 61.7922 61.1405 61.7922L69.1525 62.6793L69.7534 52.3547Z" fill="#5A0F09"/>
<path d="M76.2768 59.5734C76.2768 59.5734 75.5172 59.7139 74.7368 59.5734C73.8342 59.4095 72.6792 58.9075 72.6792 58.9075C72.6792 58.9075 72.8821 59.654 73.7483 60.4006C74.6146 61.1472 75.4392 61.5062 75.4392 61.5062C75.4392 61.5062 75.6551 60.7206 75.7747 60.2419C75.9074 59.7035 76.2768 59.5734 76.2768 59.5734Z" fill="#AD6B50"/>
<path d="M114.126 108.106L121.828 69.3802H174.611L166.17 108.381L114.126 108.106Z" fill="url(#paint1_linear_9373_64494)"/>
<path d="M124.071 69.3802L115.252 108.111H113.088L121.828 69.3802H124.071Z" fill="#5399E5"/>
<path d="M137.208 100.492L142.629 116.146L129.308 116.287L129.414 118.745H146.476L141.63 100.492H137.208Z" fill="#5399E5"/>
<path d="M139.153 100.492L145.903 118.745H160.4L154.238 100.492H139.153Z" fill="url(#paint2_linear_9373_64494)"/>
<path d="M140.467 139.287L156.389 127.321L119.953 121.549L99.9463 132.768L140.467 139.287Z" fill="#ACACAD"/>
<path d="M98.6042 131.533L99.5797 131.697L139.777 138.512L156.733 125.977L118.834 121.133L98.6042 131.533Z" fill="#EBF7FF"/>
<path d="M83.0928 120.883C82.3671 121.986 82.3983 123.716 88.8105 123.823C95.2227 123.929 102.863 122.558 102.915 121.133C102.969 119.707 85.819 116.744 83.0928 120.883Z" fill="#ACACAD"/>
<path d="M85.8188 120.883C85.8188 120.883 87.5539 117.127 93.0686 116.997C98.5834 116.867 100.646 120.883 100.646 120.883H85.8188Z" fill="#B0D9FE"/>
<path d="M65.8643 64.5991C66.8527 65.6214 67.8829 66.6021 68.9442 67.5463C69.4775 68.0146 70.0237 68.4672 70.5882 68.8938C71.1527 69.3178 71.7406 69.721 72.3753 70.0149C72.69 70.1554 73.0282 70.2751 73.3586 70.2647C73.4392 70.2621 73.5199 70.2491 73.5927 70.2257C73.6681 70.1944 73.7488 70.1684 73.8216 70.1268C73.9725 70.0488 74.113 69.9525 74.2456 69.8407C74.7789 69.3958 75.1977 68.8131 75.5775 68.2227C75.9599 67.627 76.3032 67.0079 76.618 66.3705C76.9354 65.7358 77.2345 65.0907 77.5102 64.4352C77.0394 65.7774 76.4593 67.0859 75.7179 68.3111C75.3382 68.9146 74.922 69.5103 74.3653 69.9863C74.2248 70.1034 74.0739 70.2126 73.9101 70.2985C73.8294 70.3453 73.741 70.3765 73.6499 70.4129C73.5537 70.4442 73.4574 70.4572 73.3612 70.4598C72.9736 70.465 72.625 70.3323 72.2947 70.184C71.6391 69.8745 71.0512 69.4609 70.4816 69.0291C69.9145 68.5946 69.376 68.1264 68.8505 67.6452C67.7996 66.6853 66.8111 65.6604 65.8643 64.5991Z" fill="#D8491A"/>
<path d="M52.5898 94.3293C52.5898 94.3293 60.5498 83.8591 60.1752 75.4153C59.8006 66.9819 57.2488 65.2963 57.2488 65.2963" stroke="#D8491A" stroke-width="0.130064" stroke-miterlimit="10"/>
<path d="M57.4518 86.2913C57.4518 86.2913 53.1753 97.2687 50.8784 102.131C48.5814 106.992 50.6494 113.196 50.6494 113.196C50.6494 113.196 46.6461 110.645 48.1548 103.951C49.9159 96.1475 57.4518 86.2913 57.4518 86.2913Z" fill="#D8491A"/>
<path d="M91.0456 103.101C90.9234 101.046 90.7699 98.9933 90.6112 96.9435C90.4473 94.8937 90.2549 92.8439 90.0155 90.8019C89.7658 88.7625 89.5109 86.7179 89.0739 84.7149L87.729 78.6903L87.8305 78.6669C88.3169 80.6673 88.8007 82.6677 89.2638 84.6732C89.6982 86.6918 89.9765 88.7365 90.195 90.7837C90.4135 92.8309 90.5826 94.8833 90.7257 96.9383C90.8688 98.9881 90.9728 101.043 91.0456 103.101Z" fill="#D8491A"/>
<path d="M90.7586 98.2285C90.7586 98.2285 93.0842 107.346 96.1095 109.877C99.1348 112.408 99.9438 112.408 99.9438 112.408C99.9438 112.408 96.4711 111.516 94.9233 109.872C93.3755 108.228 92.59 107.013 91.9813 105.46C90.3424 102.149 90.7586 98.2285 90.7586 98.2285Z" fill="#D8491A"/>
<path d="M95.0898 117.148V120.883" stroke="#21A9EE" stroke-width="0.0650322" stroke-miterlimit="10"/>
<path d="M95.0928 117.806C95.4569 117.853 95.8159 117.918 96.1749 117.996C96.5313 118.076 96.8877 118.162 97.2336 118.279C97.9282 118.513 98.5915 118.823 99.2366 119.164C98.5863 118.833 97.9178 118.534 97.2232 118.311C96.8773 118.201 96.5209 118.121 96.1619 118.045C95.8055 117.972 95.4439 117.913 95.085 117.871L95.0928 117.806Z" fill="#21A9EE"/>
<path d="M30.5415 51.7773C30.2476 52.7138 29.9744 53.6581 29.7689 54.618C29.6727 55.0966 29.5686 55.5856 29.5972 56.0695L29.8053 57.5262L29.7403 57.5366L29.553 56.0747C29.5296 55.5752 29.6389 55.0914 29.7403 54.6127C29.9562 53.6529 30.2371 52.7112 30.5415 51.7773Z" fill="#5A0F09"/>
<path d="M31.1405 51.0906C30.8206 52.1051 30.5266 53.13 30.3185 54.1757C30.2197 54.6986 30.1312 55.2266 30.2457 55.7521L30.4746 57.3311L30.4096 57.3415L30.1963 55.7573C30.1546 55.4972 30.126 55.224 30.1573 54.9587C30.1885 54.6934 30.2275 54.428 30.2847 54.1679C30.5058 53.1248 30.8128 52.1025 31.1405 51.0906Z" fill="#5A0F09"/>
<path d="M31.9399 50.8617C31.6199 51.8762 31.3259 52.9011 31.1178 53.9468C31.019 54.4697 30.9306 54.9977 31.045 55.5232L31.2739 57.1022L31.2089 57.1126L30.9956 55.5284C30.954 55.2683 30.9254 54.9951 30.9566 54.7298C30.9878 54.4645 31.0268 54.1991 31.084 53.939C31.3051 52.8959 31.6095 51.8762 31.9399 50.8617Z" fill="#5A0F09"/>
<path d="M32.5882 51.663C32.3801 52.5214 32.1902 53.3876 32.0419 54.2565C31.9717 54.6909 31.904 55.1305 31.8884 55.5701C31.8754 55.7912 31.9014 56.0045 31.9378 56.2256L32.0367 56.8812L31.9717 56.8916L31.8806 56.2334C31.8468 56.0175 31.8208 55.7912 31.839 55.5675C31.8598 55.1227 31.9326 54.6857 32.0081 54.2512C32.1694 53.3798 32.3697 52.5188 32.5882 51.663Z" fill="#5A0F09"/>
<path d="M34.3467 58.2102C34.3831 57.4689 34.4793 56.7301 34.6458 56.0043C34.6901 55.8222 34.7343 55.6428 34.8175 55.4685C34.8383 55.4242 34.8643 55.3826 34.9008 55.3436C34.945 55.3046 34.9892 55.289 35.0438 55.276C35.1557 55.2552 35.2545 55.3306 35.3118 55.406C35.4288 55.5621 35.4886 55.7442 35.5407 55.9237C35.5927 56.1032 35.6291 56.2853 35.6629 56.47C35.7904 57.2035 35.845 57.9449 35.8866 58.6863C35.9257 59.4276 35.9361 60.169 35.9335 60.9104H35.9257C35.9153 60.169 35.884 59.4276 35.8398 58.6889C35.793 57.9501 35.7332 57.2087 35.6031 56.4804C35.5693 56.2983 35.5303 56.1188 35.4782 55.9419C35.4262 55.7676 35.3638 55.5881 35.2571 55.4477C35.2051 55.38 35.1297 55.328 35.0516 55.3436C34.9684 55.3566 34.9138 55.4138 34.8773 55.4997C34.8019 55.661 34.7577 55.8431 34.7135 56.0225C34.5574 56.7431 34.4715 57.4793 34.3467 58.2102Z" fill="#5A0F09"/>
<defs>
<linearGradient id="paint0_linear_9373_64494" x1="52.254" y1="77.1291" x2="105.27" y2="130.227" gradientUnits="userSpaceOnUse">
<stop offset="1.09524e-06" stop-color="#FFBC50"/>
<stop offset="0.3181" stop-color="#F7AD3A"/>
<stop offset="0.8187" stop-color="#E89010"/>
</linearGradient>
<linearGradient id="paint1_linear_9373_64494" x1="123.434" y1="67.7759" x2="165.072" y2="109.478" gradientUnits="userSpaceOnUse">
<stop offset="1.33916e-06" stop-color="#BADAF7"/>
<stop offset="0.2092" stop-color="#A4CCF3"/>
<stop offset="0.6426" stop-color="#6CA9E9"/>
<stop offset="0.8187" stop-color="#5399E5"/>
</linearGradient>
<linearGradient id="paint2_linear_9373_64494" x1="139.152" y1="109.619" x2="160.401" y2="109.619" gradientUnits="userSpaceOnUse">
<stop offset="1.33916e-06" stop-color="#BADAF7"/>
<stop offset="0.2092" stop-color="#A4CCF3"/>
<stop offset="0.6426" stop-color="#6CA9E9"/>
<stop offset="0.8187" stop-color="#5399E5"/>
</linearGradient>
</defs>
</svg>
