<svg width="191" height="146" viewBox="0 0 191 146" fill="none" xmlns="http://www.w3.org/2000/svg">
<path d="M1.2749 73.189C6.38222 49.7035 39.0223 -10.0013 156.394 28.1729C206.766 44.5549 193.385 105.12 171.097 120.924C148.802 136.735 -16.0639 152.958 1.2749 73.189Z" fill="#F2E1FF"/>
<path d="M139.297 118.295L68.4208 139.632C64.0706 140.94 59.4382 138.455 58.1304 134.105L28.6359 36.1367C27.3281 31.7866 29.8129 27.1542 34.1631 25.8464L105.039 4.50848C109.39 3.20068 114.022 5.68551 115.33 10.0357L144.824 108.004C146.132 112.354 143.647 116.987 139.297 118.295Z" fill="#F9C7EF"/>
<path d="M109.225 2.06496C112.384 2.06496 115.144 4.09551 116.087 7.11723L148.39 110.523C148.968 112.375 148.783 114.337 147.874 116.051C146.965 117.765 145.437 119.01 143.579 119.568L64.6632 143.122C63.9886 143.322 63.2934 143.425 62.5982 143.425C59.3906 143.425 56.5479 141.264 55.6737 138.173L26.5854 34.6637C25.5185 30.878 27.6316 27.0096 31.383 25.8464L107.091 2.39536C107.793 2.1751 108.509 2.06496 109.225 2.06496ZM109.225 0C108.316 0 107.394 0.137664 106.485 0.419875L30.7772 23.8709C25.9796 25.3577 23.247 30.3893 24.603 35.2213L53.7051 138.731C54.8546 142.819 58.5784 145.49 62.612 145.49C63.4862 145.49 64.381 145.366 65.262 145.098L144.178 121.543C149.12 120.07 151.908 114.832 150.366 109.911L118.063 6.50462C116.824 2.53991 113.169 0 109.225 0Z" fill="#D2BDE0"/>
<path d="M85.8352 17.9857L57.6141 26.4865C54.0762 27.5533 50.3042 25.5297 49.2373 21.9848L49.1272 21.6132C48.0603 18.0752 50.084 14.3032 53.6288 13.2363L81.8499 4.73556C85.3878 3.66867 89.1598 5.69232 90.2267 9.23717L90.3368 9.60886C91.4037 13.1537 89.3801 16.9188 85.8352 17.9857Z" fill="#C465C4"/>
<path d="M65.3231 0.977369C60.8973 2.31271 58.3849 6.97952 59.7202 11.4054C61.0556 15.8313 65.7224 18.3437 70.1483 17.0083C74.5742 15.673 77.0865 11.0062 75.7512 6.58029C74.4227 2.14751 69.749 -0.35797 65.3231 0.977369ZM68.9093 12.8784C66.7617 13.5254 64.4903 12.3071 63.8432 10.1596C63.1962 8.012 64.4146 5.74054 66.5621 5.09352C68.7097 4.4465 70.9811 5.66483 71.6281 7.81238C72.2751 9.96682 71.0569 12.2314 68.9093 12.8784Z" fill="#C465C4"/>
<path d="M53.5947 62.9054C71.8145 58.3074 89.8416 52.9661 107.635 46.8813Z" fill="#C465C4"/>
<path d="M58.4199 76.8438C76.8531 71.5093 95.1142 65.5553 113.169 58.9888Z" fill="#C465C4"/>
<path d="M63.2441 93.1846C81.6773 87.8501 99.9385 81.8962 117.993 75.3296Z" fill="#C465C4"/>
<path d="M68.126 109.718C86.5592 104.384 104.82 98.4296 122.875 91.863Z" fill="#C465C4"/>
<path d="M51.1558 42.6868L52.7733 48.0591L51.7702 48.3612L51.0632 46.0131L48.5405 46.7727L49.2475 49.1207L48.2444 49.4228L46.6268 44.0505L47.6299 43.7484L48.3258 46.0593L50.8484 45.2998L50.1526 42.9889L51.1558 42.6868ZM55.4586 44.6937C55.4228 44.5748 55.3719 44.4686 55.306 44.375C55.2417 44.2782 55.1642 44.2002 55.0734 44.1411C54.9827 44.082 54.8786 44.0458 54.7612 44.0325C54.6454 44.016 54.5195 44.0283 54.3832 44.0693C54.1182 44.1491 53.9317 44.2877 53.8236 44.485C53.718 44.6816 53.6859 44.9249 53.7273 45.215L55.4586 44.6937ZM53.8754 45.7742C53.9492 45.9654 54.035 46.1246 54.1327 46.2518C54.2297 46.3766 54.337 46.4726 54.4545 46.5399C54.5712 46.6047 54.6974 46.6424 54.8329 46.6529C54.9702 46.6602 55.1131 46.6414 55.2617 46.5967C55.4103 46.552 55.5327 46.4962 55.6287 46.4295C55.7273 46.362 55.8098 46.2952 55.8764 46.2293C55.9455 46.1626 56.0045 46.1029 56.0535 46.0503C56.105 45.997 56.1592 45.9618 56.2162 45.9446C56.293 45.9215 56.3585 45.9328 56.4128 45.9786L56.7773 46.2336C56.7115 46.383 56.6278 46.5177 56.5261 46.6374C56.4236 46.7547 56.3105 46.859 56.1867 46.9503C56.0647 47.0384 55.9348 47.114 55.7971 47.177C55.6619 47.2394 55.5274 47.2907 55.3937 47.3309C55.1286 47.4107 54.8691 47.4416 54.6152 47.4235C54.3604 47.403 54.1231 47.3326 53.9033 47.2124C53.6826 47.0897 53.486 46.9166 53.3133 46.6931C53.1399 46.467 53.0029 46.1868 52.9022 45.8524C52.8239 45.5924 52.7925 45.3357 52.8081 45.0825C52.823 44.8268 52.8831 44.5912 52.9884 44.3758C53.0955 44.1572 53.2468 43.9644 53.4423 43.7975C53.6404 43.6298 53.8818 43.5031 54.1667 43.4173C54.4069 43.345 54.6401 43.3166 54.8664 43.3322C55.0926 43.3479 55.3011 43.408 55.492 43.5126C55.6822 43.6147 55.8505 43.7612 55.9971 43.9521C56.1455 44.1398 56.2611 44.3711 56.3438 44.646C56.3856 44.7847 56.3991 44.8833 56.3843 44.9418C56.3687 44.9978 56.3188 45.0385 56.2346 45.0638L53.8754 45.7742ZM59.2017 44.3487C58.9404 44.4409 58.7246 44.5316 58.5542 44.6207C58.3831 44.7073 58.2509 44.7931 58.1575 44.8779C58.0642 44.9627 58.0045 45.0469 57.9783 45.1304C57.9521 45.2139 57.9513 45.2966 57.9759 45.3783C58.0244 45.5393 58.1061 45.6403 58.2212 45.6813C58.3386 45.7216 58.4742 45.7186 58.6277 45.6724C58.816 45.6157 58.9681 45.5334 59.0842 45.4255C59.202 45.3144 59.3057 45.1697 59.3952 44.9915L59.2017 44.3487ZM56.601 43.3286C56.9186 42.7954 57.3858 42.4359 58.0025 42.2502C58.2254 42.1831 58.436 42.1602 58.6342 42.1815C58.8317 42.2004 59.0109 42.2572 59.1718 42.3519C59.332 42.4442 59.4702 42.5714 59.5866 42.7336C59.7054 42.895 59.7973 43.0834 59.8622 43.2989L60.587 45.7064L60.1709 45.8317C60.0842 45.8578 60.0136 45.8656 59.9591 45.855C59.9039 45.8419 59.8507 45.7998 59.7996 45.7288L59.635 45.4785C59.5645 45.5942 59.4935 45.6994 59.422 45.7938C59.3498 45.8858 59.2708 45.969 59.1852 46.0434C59.0995 46.1179 59.0031 46.1834 58.8959 46.24C58.7919 46.2983 58.6718 46.348 58.5355 46.389C58.3745 46.4375 58.2196 46.4611 58.0707 46.4601C57.921 46.4565 57.7836 46.4263 57.6584 46.3694C57.5333 46.3126 57.424 46.2279 57.3308 46.1155C57.2375 46.0032 57.1651 45.8615 57.1137 45.6906C57.0846 45.594 57.072 45.4938 57.0758 45.39C57.0789 45.2837 57.1034 45.1764 57.1491 45.0681C57.1973 44.959 57.268 44.8486 57.3613 44.7367C57.4546 44.6249 57.5769 44.5151 57.7282 44.4075C57.8819 44.299 58.0663 44.1935 58.2812 44.091C58.4955 43.986 58.7463 43.8861 59.0339 43.7915L58.9668 43.5685C58.89 43.3134 58.7788 43.1416 58.6333 43.053C58.487 42.962 58.3111 42.9474 58.1055 43.0093C57.9569 43.0541 57.8383 43.1087 57.7496 43.1732C57.6635 43.237 57.5899 43.3023 57.5291 43.3693C57.4674 43.4338 57.4109 43.4927 57.3594 43.546C57.3104 43.5986 57.2487 43.636 57.1744 43.6584C57.11 43.6778 57.0507 43.6781 56.9964 43.6593C56.9414 43.6381 56.8935 43.6093 56.8529 43.5729L56.601 43.3286ZM60.7178 39.6456L62.3801 45.1665L61.4625 45.4429L59.8001 39.9219L60.7178 39.6456ZM64.583 44.5681C64.2511 44.668 63.968 44.652 63.7337 44.5199C63.5012 44.3846 63.3353 44.1523 63.2361 43.8228L62.5951 41.694L62.205 41.8114C62.1555 41.8264 62.1085 41.8229 62.0642 41.8012C62.0198 41.7794 61.9879 41.7363 61.9685 41.6719L61.8589 41.3078L62.4417 41.023L62.3217 39.9245C62.3192 39.8712 62.3311 39.8258 62.3576 39.7881C62.3841 39.7504 62.4246 39.7233 62.479 39.7069L62.9546 39.5638L63.3159 40.7638L64.3339 40.4573L64.5308 41.1112L63.5128 41.4177L64.1348 43.4834C64.1706 43.6023 64.227 43.6866 64.3041 43.7363C64.3837 43.7853 64.4743 43.7945 64.5758 43.7639C64.6328 43.7467 64.678 43.7264 64.7114 43.7028C64.7466 43.676 64.7755 43.6511 64.7983 43.628C64.8236 43.6042 64.8455 43.5828 64.864 43.5637C64.8818 43.5421 64.9019 43.5279 64.9242 43.5212C64.9514 43.513 64.976 43.5137 64.9978 43.5234C65.0188 43.5306 65.0434 43.5448 65.0714 43.5661L65.4806 43.9291C65.3804 44.0808 65.2522 44.2113 65.096 44.3205C64.9397 44.4296 64.7687 44.5122 64.583 44.5681ZM65.9521 40.3793C66.059 40.1959 66.1885 40.0339 66.3407 39.8935C66.493 39.7532 66.6892 39.6468 66.9295 39.5745C67.1375 39.5118 67.3329 39.4922 67.5155 39.5155C67.6974 39.5364 67.8609 39.5952 68.0062 39.6919C68.1532 39.7854 68.2808 39.9132 68.389 40.0751C68.4989 40.2338 68.586 40.4196 68.6501 40.6327L69.3806 43.0587L68.4629 43.335L67.7324 40.909C67.6623 40.6761 67.555 40.5126 67.4105 40.4183C67.2652 40.3216 67.0836 40.3061 66.8656 40.3717C66.7071 40.4194 66.5693 40.5001 66.4522 40.6137C66.3351 40.7273 66.2333 40.8646 66.1468 41.0258L66.9768 43.7825L66.0591 44.0588L64.3968 38.5379L65.3145 38.2616L65.9521 40.3793ZM72.4666 37.9721L71.853 43.457C71.8452 43.5296 71.8238 43.5887 71.7889 43.6343C71.7572 43.6817 71.6968 43.7188 71.6076 43.7456L70.924 43.9515L71.1765 42.206L68.573 39.1444L69.3792 38.9017C69.4511 38.88 69.512 38.8806 69.5621 38.9033C69.6146 38.9253 69.6575 38.9557 69.6908 38.9943L71.0958 40.7269C71.1432 40.7856 71.1856 40.8458 71.2231 40.9074C71.2631 40.9683 71.3022 41.0309 71.3404 41.095C71.3418 41.0189 71.3436 40.9441 71.3457 40.8705C71.3471 40.7944 71.3514 40.7189 71.3585 40.6438L71.5298 38.4405C71.5347 38.385 71.5546 38.3345 71.5895 38.2888C71.6269 38.2425 71.6741 38.2107 71.731 38.1936L72.4666 37.9721ZM80.0413 33.9895L81.6589 39.3618L80.7783 39.6269L79.7335 36.1568C79.6917 36.0181 79.6541 35.866 79.6204 35.7006L78.9153 39.2397C78.8825 39.4089 78.7868 39.5174 78.6283 39.5652L78.4871 39.6077C78.3286 39.6554 78.189 39.6177 78.0682 39.4947L75.5043 36.9278C75.5363 37.0073 75.5667 37.0859 75.5956 37.1637C75.6244 37.2415 75.6488 37.3138 75.669 37.3806L76.7138 40.8507L75.8333 41.1158L74.2157 35.7435L74.9699 35.5165C75.0145 35.503 75.0533 35.4927 75.0862 35.4855C75.1191 35.4783 75.1495 35.4759 75.1772 35.4783C75.2075 35.48 75.2359 35.4891 75.2624 35.5054C75.2914 35.521 75.3214 35.5443 75.3524 35.5755L77.8594 38.0745C77.9254 38.1411 77.9884 38.2113 78.0484 38.2851C78.1109 38.3581 78.1729 38.434 78.2344 38.5127C78.2415 38.4106 78.251 38.3119 78.2628 38.2165C78.2738 38.1186 78.2885 38.0237 78.3067 37.9317L78.9971 34.4781C79.0057 34.435 79.0178 34.399 79.0334 34.3699C79.049 34.3409 79.0677 34.3178 79.0894 34.3004C79.1137 34.2823 79.1416 34.2671 79.173 34.255C79.2045 34.2428 79.2425 34.23 79.2871 34.2166L80.0413 33.9895ZM84.3464 35.9957C84.3106 35.8768 84.2597 35.7706 84.1937 35.677C84.1295 35.5802 84.052 35.5022 83.9612 35.4431C83.8705 35.384 83.7664 35.3478 83.6489 35.3345C83.5332 35.318 83.4072 35.3303 83.271 35.3713C83.006 35.4511 82.8194 35.5897 82.7114 35.787C82.6058 35.9836 82.5737 36.2269 82.6151 36.517L84.3464 35.9957ZM82.7632 37.0762C82.837 37.2674 82.9227 37.4266 83.0205 37.5538C83.1175 37.6786 83.2247 37.7746 83.3423 37.8419C83.459 37.9067 83.5852 37.9443 83.7207 37.9549C83.858 37.9622 84.0009 37.9434 84.1495 37.8987C84.2981 37.8539 84.4205 37.7982 84.5165 37.7315C84.6151 37.664 84.6976 37.5972 84.7642 37.5313C84.8333 37.4645 84.8923 37.4049 84.9413 37.3523C84.9928 37.299 85.047 37.2638 85.104 37.2466C85.1808 37.2235 85.2463 37.2348 85.3006 37.2806L85.6651 37.5356C85.5993 37.685 85.5156 37.8196 85.4139 37.9394C85.3114 38.0567 85.1983 38.161 85.0745 38.2523C84.9525 38.3404 84.8226 38.416 84.6849 38.479C84.5497 38.5413 84.4152 38.5926 84.2814 38.6329C84.0164 38.7127 83.7569 38.7436 83.5029 38.7255C83.2482 38.7049 83.0109 38.6346 82.791 38.5144C82.5704 38.3917 82.3738 38.2186 82.2011 37.995C82.0277 37.769 81.8906 37.4888 81.79 37.1544C81.7117 36.8944 81.6803 36.6377 81.6959 36.3845C81.7108 36.1288 81.7709 35.8932 81.8762 35.6778C81.9832 35.4592 82.1346 35.2664 82.3301 35.0995C82.5282 34.9318 82.7696 34.8051 83.0544 34.7193C83.2947 34.6469 83.5279 34.6186 83.7542 34.6342C83.9804 34.6498 84.1889 34.71 84.3798 34.8146C84.5699 34.9167 84.7383 35.0632 84.8849 35.2541C85.0333 35.4417 85.1488 35.673 85.2316 35.948C85.2734 36.0867 85.2869 36.1853 85.2721 36.2438C85.2565 36.2998 85.2066 36.3404 85.1224 36.3658L82.7632 37.0762ZM88.0895 35.6507C87.8282 35.7429 87.6123 35.8336 87.442 35.9227C87.2709 36.0093 87.1386 36.0951 87.0453 36.1799C86.952 36.2647 86.8922 36.3489 86.8661 36.4324C86.8399 36.5159 86.8391 36.5986 86.8637 36.6803C86.9122 36.8413 86.9939 36.9423 87.1089 36.9833C87.2264 37.0236 87.3619 37.0206 87.5155 36.9743C87.7037 36.9177 87.8559 36.8354 87.972 36.7275C88.0898 36.6164 88.1935 36.4717 88.283 36.2935L88.0895 35.6507ZM85.4888 34.6306C85.8064 34.0973 86.2736 33.7379 86.8903 33.5522C87.1132 33.485 87.3238 33.4622 87.522 33.4835C87.7195 33.5024 87.8987 33.5592 88.0596 33.6539C88.2197 33.7462 88.358 33.8734 88.4744 34.0356C88.5932 34.197 88.6851 34.3854 88.7499 34.6009L89.4748 37.0084L89.0587 37.1337C88.972 37.1598 88.9014 37.1676 88.8469 37.157C88.7916 37.1439 88.7385 37.1018 88.6873 37.0308L88.5228 36.7805C88.4523 36.8962 88.3813 37.0014 88.3098 37.0958C88.2376 37.1878 88.1586 37.271 88.073 37.3454C87.9873 37.4198 87.8909 37.4853 87.7837 37.5419C87.6797 37.6003 87.5595 37.6499 87.4233 37.691C87.2623 37.7394 87.1074 37.7631 86.9585 37.762C86.8088 37.7585 86.6714 37.7283 86.5462 37.6714C86.421 37.6145 86.3118 37.5299 86.2185 37.4175C86.1253 37.3051 86.0529 37.1635 86.0015 36.9926C85.9724 36.896 85.9598 36.7958 85.9636 36.692C85.9667 36.5857 85.9911 36.4784 86.0369 36.3701C86.0851 36.261 86.1558 36.1505 86.2491 36.0387C86.3424 35.9269 86.4647 35.8171 86.616 35.7094C86.7697 35.601 86.9541 35.4955 87.169 35.393C87.3832 35.288 87.6341 35.1881 87.9217 35.0934L87.8546 34.8705C87.7777 34.6154 87.6666 34.4436 87.521 34.355C87.3748 34.264 87.1988 34.2494 86.9933 34.3113C86.8447 34.3561 86.726 34.4107 86.6374 34.4752C86.5512 34.539 86.4777 34.6043 86.4168 34.6713C86.3552 34.7358 86.2987 34.7947 86.2472 34.848C86.1982 34.9006 86.1365 34.938 86.0622 34.9604C85.9978 34.9798 85.9385 34.9801 85.8842 34.9613C85.8292 34.9401 85.7813 34.9113 85.7407 34.8749L85.4888 34.6306ZM89.6056 30.9476L91.2679 36.4685L90.3502 36.7448L88.6879 31.2239L89.6056 30.9476ZM95.0758 32.4085C95.2591 32.3533 95.4122 32.2829 95.535 32.1973C95.657 32.1093 95.75 32.0097 95.8138 31.8986C95.8793 31.7843 95.9161 31.6598 95.9241 31.525C95.9314 31.3877 95.9123 31.2436 95.8668 31.0925C95.8236 30.9488 95.7621 30.8255 95.6825 30.7225C95.6029 30.6195 95.5062 30.5406 95.3924 30.4857C95.2786 30.4308 95.1473 30.4028 94.9984 30.4017C94.8487 30.3982 94.681 30.4244 94.4952 30.4803L93.7485 30.7051L94.3291 32.6334L95.0758 32.4085ZM94.2626 29.7075C94.6217 29.5994 94.9452 29.5479 95.2331 29.553C95.521 29.5582 95.7732 29.6106 95.9896 29.7102C96.206 29.8099 96.3867 29.9526 96.5319 30.1386C96.6795 30.3237 96.7909 30.5414 96.8663 30.7916C96.9446 31.0516 96.9732 31.3037 96.9521 31.5478C96.9303 31.7894 96.8562 32.0143 96.7298 32.2225C96.6034 32.4308 96.422 32.6178 96.1856 32.7835C95.9516 32.9485 95.66 33.0836 95.3107 33.1887L94.564 33.4136L95.1334 35.3047L94.134 35.6056L92.5164 30.2333L94.2626 29.7075ZM97.8416 28.4678L99.5039 33.9887L98.5863 34.265L96.9239 28.7441L97.8416 28.4678ZM101.942 31.4798C101.681 31.572 101.465 31.6626 101.294 31.7517C101.123 31.8384 100.991 31.9241 100.898 32.0089C100.804 32.0938 100.745 32.1779 100.719 32.2615C100.692 32.345 100.692 32.4276 100.716 32.5094C100.765 32.6703 100.846 32.7714 100.961 32.8124C101.079 32.8526 101.214 32.8496 101.368 32.8034C101.556 32.7467 101.708 32.6644 101.824 32.5566C101.942 32.4454 102.046 32.3008 102.135 32.1225L101.942 31.4798ZM99.3413 30.4597C99.6589 29.9264 100.126 29.5669 100.743 29.3812C100.966 29.3141 101.176 29.2912 101.375 29.3126C101.572 29.3315 101.751 29.3883 101.912 29.483C102.072 29.5752 102.21 29.7025 102.327 29.8646C102.446 30.026 102.538 30.2145 102.602 30.43L103.327 32.8375L102.911 32.9628C102.825 32.9889 102.754 32.9966 102.699 32.986C102.644 32.973 102.591 32.9309 102.54 32.8598L102.375 32.6095C102.305 32.7253 102.234 32.8304 102.162 32.9249C102.09 33.0169 102.011 33.1001 101.925 33.1745C101.84 33.2489 101.743 33.3144 101.636 33.371C101.532 33.4293 101.412 33.479 101.276 33.52C101.115 33.5685 100.96 33.5922 100.811 33.5911C100.661 33.5875 100.524 33.5573 100.399 33.5005C100.274 33.4436 100.164 33.359 100.071 33.2466C99.9778 33.1342 99.9054 32.9926 99.8539 32.8217C99.8249 32.7251 99.8122 32.6249 99.8161 32.521C99.8192 32.4147 99.8436 32.3074 99.8894 32.1991C99.9376 32.0901 100.008 31.9796 100.102 31.8678C100.195 31.7559 100.317 31.6462 100.468 31.5385C100.622 31.4301 100.807 31.3246 101.022 31.2221C101.236 31.117 101.487 31.0172 101.774 30.9225L101.707 30.6996C101.63 30.4445 101.519 30.2726 101.374 30.1841C101.227 30.0931 101.051 30.0785 100.846 30.1404C100.697 30.1851 100.579 30.2398 100.49 30.3043C100.404 30.368 100.33 30.4334 100.269 30.5003C100.208 30.5648 100.151 30.6237 100.1 30.677C100.051 30.7296 99.989 30.7671 99.9147 30.7895C99.8503 30.8089 99.791 30.8092 99.7367 30.7904C99.6817 30.7691 99.6338 30.7403 99.5932 30.7039L99.3413 30.4597ZM104.043 28.9751C104.097 28.8752 104.156 28.7804 104.221 28.6906C104.287 28.5976 104.361 28.5147 104.442 28.4418C104.524 28.3656 104.616 28.2988 104.718 28.2412C104.818 28.1811 104.933 28.1317 105.062 28.0929C105.27 28.0303 105.465 28.0106 105.648 28.034C105.83 28.0548 105.993 28.1137 106.139 28.2104C106.286 28.3039 106.413 28.4316 106.521 28.5935C106.631 28.7522 106.718 28.9381 106.783 29.1511L107.513 31.5772L106.595 31.8535L105.865 29.4274C105.795 29.1946 105.687 29.031 105.543 28.9368C105.398 28.8401 105.216 28.8245 104.998 28.8901C104.84 28.9379 104.702 29.0185 104.585 29.1321C104.468 29.2457 104.366 29.3831 104.279 29.5442L105.109 32.301L104.192 32.5773L103.044 28.7654L103.605 28.5965C103.724 28.5607 103.819 28.5929 103.889 28.6932L104.043 28.9751Z" fill="#C465C4"/>
<path d="M138.656 99.1525L128.545 103.131C128.545 103.131 127.609 105.416 123.899 106.132C123.162 106.277 121.442 106.875 120.726 107.13C117.835 108.149 115.983 110.111 115.199 109.285C114.09 108.121 118.874 105.733 118.867 105.251C118.86 104.776 112.796 108.658 112.005 107.027C111.213 105.395 118.055 103.53 118.034 102.897C118.014 102.257 109.245 104.817 109.086 102.835C108.921 100.729 116.968 100.708 117.739 99.7031C118.509 98.705 109.059 101.451 109.038 99.3039C109.011 97.1632 118.805 96.9223 120.54 96.3648C122.274 95.8003 116.155 92.8061 117.931 91.4983C119.432 90.3901 120.877 93.0333 122.515 93.2054C124.154 93.3775 127.588 95.3667 127.588 95.3667L135.545 92.3725L138.656 99.1525Z" fill="#AD5B41"/>
<path d="M131.904 51.445C131.904 51.445 144.163 47.8657 150.509 50.0339C171.702 57.2544 170.691 90.6792 162.444 99.4896C153.18 109.381 125.709 110.324 125.709 110.324L122.412 90.6998L142.194 85.8334L131.904 51.445Z" fill="url(#paint0_linear_9373_64733)"/>
<path d="M154.584 20.8286C156.174 23.1827 156.381 26.0874 155.527 32.1308C153.607 45.7871 144.713 43.6671 144.713 43.6671L142.807 52.3812L132.523 53.5444L129.405 43.1371L134.96 32.5989C134.96 32.5989 131.195 31.9725 132.289 27.7325C133.391 23.4924 137.128 25.1306 137.128 25.1306C137.128 25.1306 137.631 22.8936 138.291 21.2967C139.82 17.6073 140.391 17.7932 144.473 17.4834C148.561 17.1737 153.001 18.4746 154.584 20.8286Z" fill="#AD5B41"/>
<path d="M134.946 25.0411C134.946 25.0411 136.811 15.2188 144.583 14.9022C152.354 14.5855 157.144 18.2749 156.594 20.5946C156.043 22.9142 154.749 25.5573 149.607 24.5386C144.465 23.5199 139.599 19.7135 139.599 19.7135L137.341 26.4659C137.341 26.4659 137.087 25.5436 136.495 25.0755C135.903 24.6075 134.946 25.0411 134.946 25.0411Z" fill="#5E1A10"/>
<path d="M144.713 43.6739L143.832 47.7143C143.832 47.7143 140.329 45.5805 138.532 42.5519C138.14 41.8911 137.954 41.3198 137.954 41.3198C137.954 41.3198 139.654 42.2215 141.065 42.8204C142.903 43.5982 144.713 43.6739 144.713 43.6739Z" fill="#5E1A10"/>
<path d="M125.702 110.324L122.405 90.6997C122.405 90.6997 142.146 85.8196 144.721 85.262C147.295 84.7045 148.761 84.615 148.761 84.615" stroke="#697717" stroke-width="0.688319" stroke-miterlimit="10"/>
<path d="M142.187 85.8335L144.714 85.2553L138.815 74.5588L142.187 85.8335Z" fill="#697717"/>
<path d="M133.047 55.272L143.048 53.8748" stroke="#697717" stroke-width="0.688319" stroke-miterlimit="10"/>
<path d="M19.8933 109.291C20.265 105.526 21.3663 107.034 20.0241 104.377C18.6819 101.72 16.1351 100.316 16.8097 96.6951C17.4842 93.0746 19.1775 92.2968 18.2069 88.9929C17.2364 85.6889 15.6739 81.559 16.5894 80.3751C17.5049 79.1912 19.1087 80.0791 19.4666 77.3947C19.8245 74.7102 21.3732 67.9991 27.6713 68.2813C33.9695 68.5635 36.7984 71.7436 35.1534 75.7221C33.5083 79.7006 33.1297 82.5433 34.4719 85.0144C35.8142 87.4854 37.1632 89.5986 35.6214 92.1109C34.0796 94.6233 32.3794 95.5181 31.9183 98.6913C31.4571 101.864 31.3814 104.487 29.9497 106.084C28.518 107.674 26.8178 107.708 26.7421 109.044C26.6664 110.379 26.1915 111.639 25.3104 112.465C22.5227 115.066 19.5216 113.056 19.8933 109.291Z" fill="#7E943A"/>
<path d="M18.7161 109.36C19.0878 105.595 20.1891 107.103 18.8469 104.446C17.5046 101.789 14.9579 100.385 15.6324 96.764C16.307 93.1434 18.0002 92.3656 17.0297 89.0617C16.0592 85.7578 14.4967 81.6279 15.4121 80.4439C16.3276 79.26 17.9314 80.148 18.2893 77.4635C18.6472 74.7791 20.196 68.068 26.4941 68.3502C32.7922 68.6324 35.6212 71.8124 33.9761 75.7909C32.3311 79.7694 31.9524 82.6122 33.2947 85.0832C34.6369 87.5543 35.986 89.6674 34.4442 92.1798C32.9092 94.6922 31.2022 95.587 30.741 98.7601C30.2799 101.933 30.2041 104.556 28.7724 106.153C27.3407 107.743 25.6406 107.777 25.5649 109.112C25.4891 110.448 25.0142 111.707 24.1331 112.533C21.3454 115.135 18.3444 113.125 18.7161 109.36Z" fill="#A2BB3A"/>
<path d="M18.8542 77.1194C19.1088 75.2334 19.9486 71.3719 22.5986 69.3276C19.0125 71.0071 17.9662 75.6946 17.684 77.8284C17.5808 78.5786 17.3811 79.0467 17.1265 79.3633C17.8767 79.0949 18.6201 78.854 18.8542 77.1194Z" fill="#CFDC59"/>
<path d="M19.2798 109.016C19.6515 105.251 20.7528 106.758 19.4106 104.102C18.0683 101.445 15.5216 100.04 16.1961 96.4199C16.8707 92.7993 18.5639 92.0215 17.5934 88.7176C16.6229 85.4137 15.0604 81.2837 15.9759 80.0998C15.9827 80.0861 15.9965 80.0792 16.0103 80.0654C15.5835 80.2237 15.1499 80.3752 14.8057 80.8157C13.8902 81.9996 15.4527 86.1364 16.4233 89.4334C17.3938 92.7374 15.7005 93.5152 15.026 97.1357C14.3514 100.756 16.8982 102.167 18.2404 104.817C19.5826 107.474 18.4813 105.967 18.1096 109.732C17.7517 113.373 20.5394 115.356 23.2376 113.132C20.9662 114.027 18.97 112.127 19.2798 109.016Z" fill="#CFDC59"/>
<path d="M22.3504 115.899C22.0406 114.633 22.5569 112.341 22.1645 111.26C21.7722 110.179 20.43 107.763 20.5057 107.454C20.5814 107.144 21.8892 108.92 22.1163 109.505C22.3435 110.09 22.8941 101.507 22.2127 100.605C21.5313 99.7032 18.599 93.6941 19.3011 93.6597C20.0101 93.6253 22.192 99.4898 22.2058 98.4298C22.2196 97.3629 22.9354 88.6763 22.6876 87.8366C22.4399 86.9968 19.9068 83.92 20.8292 83.156C21.7515 82.3919 22.8116 86.3085 23.3071 86.1364C23.7959 85.9712 25.0555 77.0781 25.6543 77.3122C26.2531 77.5393 25.1036 81.504 25.6336 81.4008C26.1636 81.2975 27.3269 80.2513 27.678 80.5679C28.029 80.8845 27.733 81.2631 27.1066 81.6417C26.4803 82.0203 25.3927 81.7587 25.317 82.5984C25.2344 83.4382 23.61 92.1592 24.0781 92.2693C24.5461 92.3795 27.5196 89.578 28.1116 89.6812C28.7036 89.7845 29.3162 90.4659 28.1598 91.168C27.0034 91.8701 23.9266 93.2192 23.7339 94.1966C23.5343 95.174 22.8322 103.331 23.2865 103.647C23.7408 103.964 26.1017 101.004 26.5629 101.651C27.0241 102.298 27.0998 102.642 25.551 104.115C24.0023 105.588 23.2589 105.12 23.197 106.208C23.135 107.302 23.5481 115.239 23.3416 115.762C23.1351 116.285 22.3504 115.899 22.3504 115.899Z" fill="#D2D548"/>
<path d="M28.0572 105.967C29.9019 103.31 30.0946 104.893 30.1979 102.353C30.3011 99.8132 28.9864 97.7 30.9963 95.284C33.0062 92.8612 34.5962 92.985 35.2432 90.1216C35.8903 87.2582 36.4478 83.5207 37.6317 83.0182C38.8088 82.5157 39.6278 83.8442 41.0183 81.9926C42.4087 80.141 46.3527 75.7771 50.93 78.6129C55.5073 81.4488 56.2989 85.0006 53.4149 87.2789C50.5308 89.5572 49.0647 91.5258 49.0371 93.928C49.0096 96.3303 49.1335 98.4641 46.9378 99.7031C44.742 100.935 43.097 100.894 41.4312 103.069C39.7655 105.244 38.616 107.171 36.8883 107.763C35.1607 108.355 33.8735 107.667 33.2609 108.631C32.6483 109.594 31.7672 110.338 30.7692 110.585C27.6167 111.363 26.2125 108.624 28.0572 105.967Z" fill="#7E943A"/>
<path d="M27.1485 105.526C28.9932 102.869 29.186 104.453 29.2892 101.913C29.3925 99.3727 28.0777 97.2596 30.0876 94.8436C32.0975 92.4207 33.6875 92.5446 34.3346 89.6812C34.9885 86.8109 35.5391 83.0802 36.723 82.5778C37.9001 82.0753 38.7192 83.4037 40.1096 81.5522C41.5 79.7006 45.444 75.3366 50.0214 78.1725C54.5987 81.0084 55.3902 84.5601 52.5062 86.8384C49.6221 89.1168 48.156 91.0854 48.1285 93.4876C48.101 95.8898 48.2248 98.0236 46.0291 99.2626C43.8333 100.495 42.1883 100.453 40.5225 102.628C38.8568 104.804 37.7073 106.731 35.9796 107.323C34.252 107.915 32.9648 107.226 32.3522 108.19C31.7396 109.154 30.8585 109.897 29.8605 110.145C26.708 110.93 25.3038 108.183 27.1485 105.526Z" fill="#A2BB3A"/>
<path d="M40.6818 81.5316C41.6523 80.2307 43.8893 77.6977 46.7183 77.2778C43.3387 77.0369 40.613 80.0999 39.5116 81.5729C39.1193 82.0961 38.7751 82.3576 38.4585 82.4884C39.1262 82.5985 39.787 82.7293 40.6818 81.5316Z" fill="#CFDC59"/>
<path d="M27.7141 105.506C29.5588 102.849 29.7516 104.432 29.8548 101.892C29.9581 99.3522 28.6434 97.2391 30.6533 94.8231C32.6632 92.4002 34.2532 92.5241 34.9002 89.6607C35.5541 86.7904 36.1048 83.0597 37.2887 82.5573C37.3025 82.5504 37.3162 82.5504 37.3231 82.5435C36.9376 82.4815 36.5522 82.4127 36.1116 82.5985C34.9346 83.101 34.3771 86.8386 33.7232 89.702C33.0693 92.5723 31.4861 92.4415 29.4762 94.8644C27.4663 97.2873 28.7811 99.3935 28.6778 101.933C28.5746 104.473 28.3818 102.89 26.5371 105.547C24.7544 108.115 26.0071 110.758 28.9463 110.221C26.8882 109.945 26.193 107.695 27.7141 105.506Z" fill="#CFDC59"/>
<path d="M27.1421 111.921C27.4381 110.847 28.7803 109.353 28.9386 108.383C29.0969 107.412 29.1038 105.051 29.2828 104.852C29.4686 104.652 29.7027 106.517 29.627 107.054C29.5512 107.584 33.5366 101.41 33.4058 100.453C33.275 99.4966 33.5848 93.7905 34.1285 94.0589C34.6723 94.3274 33.8601 99.6137 34.3075 98.829C34.7549 98.0443 38.9124 91.8563 39.0776 91.1267C39.2428 90.3971 38.6302 87.0449 39.6351 86.8591C40.64 86.6733 39.8072 90.0323 40.2408 90.1149C40.6745 90.1975 45.3137 84.0852 45.6717 84.5051C46.0227 84.9249 43.5172 87.4029 43.9578 87.5474C44.3983 87.692 45.6992 87.396 45.83 87.7814C45.9607 88.16 45.5822 88.3183 44.9558 88.3459C44.3294 88.3665 43.6274 87.7195 43.2213 88.3183C42.8083 88.9103 37.9694 94.7404 38.2653 95.0157C38.5682 95.291 41.9547 94.4375 42.354 94.761C42.7532 95.0845 42.9252 95.8485 41.7689 95.8898C40.6125 95.9311 37.756 95.6558 37.2054 96.3028C36.6547 96.9499 32.7244 102.746 32.9378 103.172C33.1443 103.599 36.1385 102.374 36.2142 103.048C36.2899 103.723 36.2004 104.012 34.4383 104.466C32.6762 104.921 32.3114 104.26 31.8089 105.051C31.3064 105.843 28.3122 111.935 27.9337 112.237C27.5482 112.533 27.1421 111.921 27.1421 111.921Z" fill="#D2D548"/>
<path d="M52.8164 99.6479C52.8164 99.6479 54.5785 96.2545 58.4331 95.2152C62.2808 94.1758 64.6004 93.8041 65.3576 95.2565C66.1147 96.7088 64.9859 98.6568 62.4391 100.006C60.1332 101.231 58.3918 101.5 56.8086 101.396C55.2255 101.293 52.8164 99.6479 52.8164 99.6479Z" fill="#8FCA82"/>
<path d="M49.0923 100.825C50.8406 100.261 52.6784 99.9576 54.468 99.5722C56.0649 99.228 57.655 98.7944 59.2174 98.3057C60.4702 97.9065 61.7091 97.4522 62.893 96.874C63.1753 96.7363 62.9275 96.3164 62.6453 96.4541C59.245 98.1198 55.4592 98.8495 51.7905 99.6548C50.8406 99.8613 49.8907 100.068 48.9684 100.364C48.6655 100.446 48.7963 100.921 49.0923 100.825Z" fill="#37803D"/>
<path d="M52.1904 96.9704C52.1904 96.9704 50.2287 86.68 56.4167 83.4587C62.6046 80.2373 62.2192 87.2169 61.5102 89.275C60.8013 91.333 59.6449 93.5288 57.0568 94.9673C54.4618 96.3991 52.1904 96.9704 52.1904 96.9704Z" fill="#65AA5B"/>
<path d="M50.0285 100.295C50.29 99.7168 50.7581 99.2006 51.1504 98.705C51.8525 97.824 52.5684 96.9567 53.2773 96.0756C54.9637 93.9832 56.7327 91.8631 57.9786 89.4678C58.5292 88.4078 59.0317 87.2858 59.3483 86.1363C59.4309 85.8335 58.9629 85.7027 58.8734 86.0055C58.2195 88.3458 56.9323 90.4589 55.5144 92.4069C54.0483 94.4099 52.4445 96.3028 50.8957 98.2438C50.4483 98.8014 49.9046 99.3864 49.6017 100.047C49.4778 100.336 49.8977 100.584 50.0285 100.295Z" fill="#37803D"/>
<path d="M49.5671 97.8928C49.5671 97.8928 51.9694 94.1071 49.8012 90.5898C47.633 87.0724 45.4441 87.2308 44.7283 87.9397C44.1088 88.5523 43.0488 90.1423 45.6437 92.93C48.2387 95.7177 49.5671 97.8928 49.5671 97.8928Z" fill="#8FCA82"/>
<path d="M45.9053 89.4265C45.9053 89.4265 46.5592 89.6881 47.8119 91.8425C49.0647 93.9969 49.8494 99.4347 49.8494 99.4347" stroke="#37803D" stroke-width="0.489119" stroke-miterlimit="10" stroke-linecap="round" stroke-linejoin="round"/>
<path d="M39.3528 101.603C34.9682 108.087 40.6124 112.795 40.2889 113.524C37.6595 119.423 33.2405 119.478 32.5591 119.437C31.8845 119.396 31.2788 119.361 31.6987 119.733C32.1185 120.105 34.7548 120.917 37.5975 119.313C40.4403 117.709 41.5829 115.328 42.8219 115.19C44.0608 115.046 48.3009 116.188 50.7719 115.011C53.243 113.827 54.9638 111.7 55.7347 109.739C56.5057 107.777 56.9118 105.209 55.0946 103.241C47.5231 95.0224 41.3558 98.6429 39.3528 101.603Z" fill="#E2E2E2"/>
<path d="M47.5302 113.105C50.0632 112.051 51.8872 110.014 52.7614 108.1C53.6356 106.187 54.1724 103.64 52.4654 101.575C51.8115 100.784 51.1576 100.095 50.5175 99.4965C45.1073 96.523 40.936 99.2625 39.3598 101.596C35.6635 107.061 39.0914 111.26 40.0688 112.884C41.6794 113.049 45.2656 114.041 47.5302 113.105Z" fill="#F2EFEF"/>
<path d="M46.9447 100.646C46.6556 99.9095 45.8296 98.8564 43.7578 99.5241C41.686 100.199 42.3123 102.498 43.1108 101.864C45.2583 100.171 47.2338 101.383 46.9447 100.646Z" fill="#F9FAFB"/>
<path d="M41.2406 103.336C41.6821 102.987 41.8412 102.453 41.5961 102.143C41.351 101.833 40.7944 101.864 40.353 102.213C39.9116 102.562 39.7524 103.096 39.9975 103.406C40.2427 103.716 40.7992 103.685 41.2406 103.336Z" fill="#F9FAFB"/>
<path d="M20.1813 107.956C21.5648 112.678 21.3721 113.8 25.2198 116.553C29.3291 119.492 34.6429 118.845 34.6429 118.845C31.7933 123.354 24.8688 123.849 20.9178 120.683C17.1665 117.668 16.7673 111.645 20.1813 107.956Z" fill="#CC2029"/>
<path d="M34.6251 118.848C36.4852 116.319 34.7285 111.867 30.7013 108.906C26.6742 105.945 21.9016 105.594 20.0414 108.124C18.1813 110.654 19.938 115.105 23.9652 118.066C27.9923 121.028 32.7649 121.378 34.6251 118.848Z" fill="#CC2029"/>
<path d="M34.0809 118.421C35.7857 116.102 34.1786 112.025 30.4914 109.314C26.8042 106.602 22.4331 106.284 20.7283 108.602C19.0236 110.92 20.6307 114.998 24.3179 117.709C28.0051 120.42 32.3762 120.739 34.0809 118.421Z" fill="#E4552C"/>
<path d="M28.0017 114.936C28.1325 114.784 31.2093 118.37 30.2388 119.038C29.2682 119.713 26.2397 118.804 25.4894 117.565C24.7391 116.326 26.8867 114.406 27.1069 114.578C27.2928 114.722 26.8316 116.243 26.9555 116.491C27.2102 117.001 28.0706 117.558 28.4905 116.959C28.6144 116.794 27.8778 115.087 28.0017 114.936Z" fill="#CC2029"/>
<path d="M29.4266 115.748C29.4266 115.748 28.4905 114.963 28.6557 114.832C28.8553 114.681 31.1268 115.872 31.1268 115.872C31.1268 115.872 30.9203 115.596 30.9409 115.5C30.9547 115.417 31.4434 115.61 31.4434 115.61C31.4434 115.61 31.1474 115.362 31.0166 115.245C30.879 115.128 31.1543 114.97 31.1543 114.97C31.1543 114.97 29.2202 114.53 29.0205 114.22C28.8209 113.917 29.6607 113.765 29.6607 113.765C29.6607 113.765 29.1789 113.745 29.1926 113.607C29.2064 113.518 29.3716 113.352 29.3716 113.352C29.3716 113.352 28.8071 113.717 28.518 113.291C28.2221 112.864 29.289 112.244 29.289 112.244C29.289 112.244 29.0825 112.32 29.0481 112.203C29.0136 112.086 29.227 111.618 29.227 111.618C29.227 111.618 28.993 111.749 28.8072 111.652C28.6144 111.556 28.5318 111.363 28.5318 111.363C28.5318 111.363 27.9674 112.843 27.6095 112.616C27.2516 112.389 27.0657 111.487 27.0657 111.487C27.0657 111.487 27.0313 112.43 26.811 112.389C26.5908 112.341 25.5376 110.503 25.5376 110.503C25.5376 110.503 25.5376 110.84 25.3518 110.799C25.1659 110.758 24.8837 110.372 24.8837 110.372C24.8837 110.372 24.753 110.613 24.753 110.661C24.753 110.702 25.8267 112.01 25.7854 112.141C25.7441 112.272 24.5947 111.831 24.5947 111.831C24.5947 111.831 25.104 112.155 25.0764 112.237C25.0489 112.32 24.5121 112.114 24.5121 112.114C24.5121 112.114 26.1227 112.946 25.985 113.036C25.8474 113.125 23.6104 112.94 23.6104 112.94C23.6104 112.94 24.099 113.194 24.0646 113.27C24.0233 113.346 23.5415 113.449 23.5415 113.449C23.5415 113.449 24.161 113.621 24.161 113.71C24.161 113.8 24.1403 113.931 24.1403 113.931C24.1403 113.931 26.0263 113.394 26.0883 113.724C26.1502 114.055 25.8198 114.523 25.8198 114.523C25.8198 114.523 26.1158 114.364 26.1778 114.454C26.2397 114.536 26.1709 114.832 26.1709 114.832C26.1709 114.832 27.0244 113.931 27.2309 114.323C27.4374 114.715 27.1139 116.298 27.1139 116.298C27.1139 116.298 27.341 116.175 27.458 116.161C27.5819 116.14 27.8848 116.718 27.8848 116.718C27.8848 116.718 27.8917 116.436 28.0294 116.471C28.167 116.505 28.3666 116.801 28.3666 116.801C28.3666 116.801 27.6439 114.97 27.8986 114.86C28.1533 114.743 28.876 115.631 28.876 115.631C28.876 115.631 28.876 115.473 28.9104 115.424C28.931 115.383 29.4266 115.748 29.4266 115.748Z" fill="#E48524"/>
<path d="M25.9849 113.71C26.2602 113.834 24.5464 116.395 22.9908 115.486C21.4351 114.578 20.0723 111.907 20.912 111.301C21.7518 110.696 25.7027 112.733 25.6821 112.926C25.6614 113.084 23.5207 112.582 23.328 112.678C22.9357 112.878 22.977 113.621 24.0094 114.027C24.3192 114.158 25.7096 113.587 25.9849 113.71Z" fill="#CC2029"/>
<path d="M22.7774 112.286C22.7705 112.368 21.6829 112.182 21.7587 111.776C21.8481 111.246 22.7842 112.203 22.7774 112.286Z" fill="#E48524"/>
<path d="M22.6259 112.816C22.6396 112.905 21.5796 113.015 21.5934 112.472C21.6003 111.921 22.6052 112.726 22.6259 112.816Z" fill="#E48524"/>
<path d="M22.7847 113.483C22.771 113.394 21.5595 112.609 21.7867 113.339C21.9174 113.772 22.7985 113.58 22.7847 113.483Z" fill="#E48524"/>
<path d="M23.2251 113.993C23.1631 113.896 22.0205 113.704 22.4335 114.24C22.874 114.798 23.287 114.089 23.2251 113.993Z" fill="#E48524"/>
<path d="M23.8238 114.433C23.7274 114.358 22.8188 114.667 23.4727 115.08C24.1197 115.493 23.9201 114.502 23.8238 114.433Z" fill="#E48524"/>
<path d="M25.5092 112.017C25.5023 112.237 21.6615 109.925 21.9506 108.768C22.2397 107.612 24.8416 107.302 26.053 108.335C27.2644 109.367 27.0166 112.244 26.7688 112.148C26.5555 112.065 25.757 110.462 25.5643 110.221C25.1169 109.663 24.0913 109.402 24.3184 110.289C24.4079 110.641 25.5161 111.797 25.5092 112.017Z" fill="#CC2029"/>
<path d="M27.7267 112.416C27.4927 112.451 26.3019 108.679 27.7818 108.7C29.2548 108.72 32.0287 110.737 32.0975 111.893C32.1664 113.05 28.8487 113.449 28.711 113.229C28.594 113.043 29.7022 112.21 29.833 111.893C29.8674 111.811 29.8605 111.701 29.8261 111.59C29.654 111.088 28.8624 110.448 28.4357 110.868C27.9126 111.384 27.9608 112.375 27.7267 112.416Z" fill="#CC2029"/>
<path d="M29.1103 114.227C28.89 114.013 32.4417 113.311 33.5499 114.653C34.6581 115.996 34.3896 118.315 33.0818 118.26C31.7671 118.205 28.7867 114.963 28.9382 114.86C29.069 114.77 30.8448 116.078 31.3473 116.195C31.8498 116.319 32.1113 115.424 31.4918 115.025C30.8723 114.626 29.3374 114.44 29.1103 114.227Z" fill="#CC2029"/>
<path d="M23.273 110.854C23.273 110.854 22.096 109.814 21.8413 109.188C21.5935 108.569 22.3713 108.142 22.3713 108.142C22.3713 108.142 21.1942 108.348 21.7311 109.34C22.2611 110.324 23.273 110.854 23.273 110.854Z" fill="#F58B66"/>
<path d="M26.9418 109.223C26.9418 109.223 27.0657 108.644 27.4442 108.445C27.8159 108.245 28.6144 108.706 28.6144 108.706C28.6144 108.706 27.52 107.832 27.1139 108.321C26.7559 108.761 26.9418 109.223 26.9418 109.223Z" fill="#F58B66"/>
<path d="M31.6777 113.786C31.6777 113.786 32.4693 113.896 33.0337 114.137C33.5981 114.378 33.9148 115.094 33.9148 115.094C33.9148 115.094 33.7152 114.041 32.8341 113.855C32.0563 113.69 31.6777 113.786 31.6777 113.786Z" fill="#F58B66"/>
<path d="M33.2329 118.35C33.2329 118.35 33.7905 118.253 34.052 117.833C34.3136 117.42 34.2998 117.021 34.2998 117.021C34.2998 117.021 34.4788 117.531 34.1346 117.957C33.7904 118.384 33.2329 118.35 33.2329 118.35Z" fill="#F58B66"/>
<path d="M30.1489 119.245C30.1489 119.245 30.7408 119.052 30.5825 118.584C30.4242 118.116 30.2384 117.661 30.2384 117.661C30.2384 117.661 30.8648 118.48 30.7822 118.832C30.6996 119.183 30.1489 119.245 30.1489 119.245Z" fill="#F58B66"/>
<path d="M24.1815 115.741C24.1815 115.741 23.679 115.803 23.5001 115.762C23.2385 115.693 23.0802 115.658 22.8186 115.452C22.4676 115.17 22.3506 115.073 22.3506 115.073C22.3506 115.073 22.5089 115.328 22.7842 115.534C23.0596 115.734 23.2798 115.872 23.5551 115.906C23.8236 115.934 24.1815 115.741 24.1815 115.741Z" fill="#F58B66"/>
<path d="M25.7916 109.794C25.6884 109.766 25.2685 108.796 25.8123 108.988C26.5075 109.236 25.8949 109.828 25.7916 109.794Z" fill="#E48524"/>
<path d="M25.0482 109.484C24.9449 109.47 24.1878 108.438 24.8623 108.617C25.53 108.796 25.1514 109.498 25.0482 109.484Z" fill="#E48524"/>
<path d="M24.3257 109.436C24.4289 109.45 24.663 108.548 23.9127 108.541C23.4653 108.534 24.2225 109.422 24.3257 109.436Z" fill="#E48524"/>
<path d="M23.968 109.697C24.0437 109.67 23.6032 108.651 23.2039 108.878C22.7772 109.126 23.8922 109.725 23.968 109.697Z" fill="#E48524"/>
<path d="M23.7886 110.131C23.823 110.062 22.9076 109.119 22.7906 109.608C22.6667 110.09 23.7542 110.2 23.7886 110.131Z" fill="#E48524"/>
<path d="M30.2795 111.928C30.2244 111.845 30.8164 111.349 31.0779 111.783C31.4152 112.341 30.3345 112.01 30.2795 111.928Z" fill="#E48524"/>
<path d="M29.9562 111.329C29.8873 111.253 30.2521 110.496 30.6445 111.019C31.0368 111.542 30.0319 111.405 29.9562 111.329Z" fill="#E48524"/>
<path d="M29.4122 110.792C29.4879 110.868 30.5548 110.868 29.9353 110.317C29.5705 109.987 29.3365 110.716 29.4122 110.792Z" fill="#E48524"/>
<path d="M28.8617 110.585C28.9512 110.634 29.5776 110.117 29.0201 109.87C28.4281 109.608 28.7654 110.53 28.8617 110.585Z" fill="#E48524"/>
<path d="M28.2974 110.537C28.3938 110.544 28.5521 109.698 27.9808 109.704C27.4095 109.718 28.2011 110.523 28.2974 110.537Z" fill="#E48524"/>
<path d="M31.5398 116.595C31.5948 116.546 32.5791 117.131 32.2763 117.338C31.8839 117.613 31.4847 116.643 31.5398 116.595Z" fill="#E48524"/>
<path d="M31.9937 116.347C32.0281 116.285 33.1569 116.677 32.8403 117.001C32.5237 117.317 31.9593 116.409 31.9937 116.347Z" fill="#E48524"/>
<path d="M32.214 115.879C32.1796 115.941 32.9505 116.925 33.1363 116.395C33.2396 116.078 32.2484 115.817 32.214 115.879Z" fill="#E48524"/>
<path d="M32.0562 115.383C32.0631 115.466 33.1025 116.078 32.9855 115.576C32.8616 115.06 32.0493 115.301 32.0562 115.383Z" fill="#E48524"/>
<path d="M31.698 114.867C31.7531 114.949 32.8337 115.156 32.4138 114.633C32.0008 114.11 31.6429 114.784 31.698 114.867Z" fill="#E48524"/>
<path d="M26.7078 116.856C26.8042 116.911 26.8523 117.758 26.3705 117.448C25.7441 117.049 26.6114 116.801 26.7078 116.856Z" fill="#E48524"/>
<path d="M27.3546 117.31C27.451 117.352 27.8296 118.35 27.2032 118.012C26.5768 117.675 27.2514 117.269 27.3546 117.31Z" fill="#E48524"/>
<path d="M28.0774 117.572C27.9811 117.531 27.3753 118.123 28.1462 118.363C28.6074 118.501 28.1807 117.613 28.0774 117.572Z" fill="#E48524"/>
<path d="M28.5524 117.489C28.4629 117.489 28.5111 118.377 29.0204 118.329C29.5504 118.281 28.6418 117.489 28.5524 117.489Z" fill="#E48524"/>
<path d="M28.9105 117.221C28.8485 117.262 29.4129 118.24 29.7365 117.916C30.0462 117.599 28.9724 117.18 28.9105 117.221Z" fill="#E48524"/>
<path d="M20.4927 109.505C20.2174 110.331 20.2862 110.916 20.3894 111.48C20.4927 112.045 20.6028 112.54 20.5547 112.747C20.5271 112.871 20.2724 111.776 20.2036 111.239C20.1348 110.703 20.1761 110.221 20.4032 109.519C20.6303 108.817 21.1053 108.218 21.1879 108.252C21.2705 108.287 20.768 108.686 20.4927 109.505Z" fill="#F58B66"/>
<path d="M5.61061 91.2092C-0.068019 94.0245 0.379384 108.431 0.379384 108.431C0.379384 108.431 1.39122 122.824 12.1978 121.323C23.0044 119.823 18.1862 104.687 18.1862 104.687C18.1862 104.687 11.2892 88.394 5.61061 91.2092Z" fill="#749F40"/>
<path d="M6.90471 91.0233C1.74232 93.9143 2.84361 107.316 2.84361 107.316C2.84361 107.316 4.46805 120.676 14.4624 118.763C24.4568 116.849 19.2532 102.986 19.2532 102.986C19.2532 102.986 12.0671 88.1324 6.90471 91.0233Z" fill="#FEF5A0"/>
<path d="M14.8757 118.088C4.88128 120.002 3.25684 106.641 3.25684 106.641C3.25684 106.641 2.51346 97.5211 5.14972 92.7029C2.02475 97.2802 2.85074 107.309 2.85074 107.309C2.85074 107.309 4.47517 120.669 14.4696 118.756C17.0921 118.253 18.6683 116.925 19.57 115.238C18.6201 116.608 17.1402 117.654 14.8757 118.088Z" fill="#CED98A"/>
<path d="M11.9084 100.674C9.32722 102.119 9.87786 108.816 9.87786 108.816C9.87786 108.816 10.6901 115.493 15.6804 114.536C20.6707 113.58 18.0757 106.655 18.0757 106.655C18.0757 106.655 14.4896 99.2282 11.9084 100.674Z" fill="#CE8153"/>
<path d="M10.9038 108.851C10.9038 108.851 9.76811 103.344 11.3925 101.073C9.41018 103.062 9.87823 108.816 9.87823 108.816C9.87823 108.816 10.6905 115.493 15.6808 114.536C16.3691 114.405 16.9128 114.158 17.3396 113.827C12.5214 115.362 10.9038 108.851 10.9038 108.851Z" fill="#BC6838"/>
<path d="M16.059 104.624C15.4601 103.509 13.7187 100.536 12.3902 101.279C12.3076 101.327 12.2388 101.382 12.1631 101.438C13.4709 101.314 15.2674 103.537 16.059 104.624Z" fill="#DD9F80"/>
<path d="M37.143 120.662C40.8304 120.662 43.8197 117.673 43.8197 113.986C43.8197 110.298 40.8304 107.309 37.143 107.309C33.4556 107.309 30.4663 110.298 30.4663 113.986C30.4663 117.673 33.4556 120.662 37.143 120.662Z" fill="#CC2029"/>
<path d="M37.0947 120.071C40.4704 120.071 43.207 117.334 43.207 113.958C43.207 110.583 40.4704 107.846 37.0947 107.846C33.719 107.846 30.9824 110.583 30.9824 113.958C30.9824 117.334 33.719 120.071 37.0947 120.071Z" fill="#E4552C"/>
<path d="M36.0421 114.819C36.049 114.585 32.5592 115.542 32.7313 116.87C32.9033 118.198 34.9889 119.63 36.0214 119.073C37.0608 118.515 36.9024 115.17 36.6959 115.163C36.517 115.156 35.987 116.877 35.7942 117.008C35.395 117.283 34.6517 117.145 34.7342 116.292C34.7618 116.044 36.0352 115.053 36.0421 114.819Z" fill="#CC2029"/>
<path d="M34.8649 114.495C34.8649 114.495 35.7666 114.474 35.7459 114.233C35.7184 113.951 33.8875 113.339 33.8875 113.339C33.8875 113.339 34.1421 113.235 34.1766 113.139C34.211 113.056 33.853 112.871 33.853 112.871C33.853 112.871 34.1353 112.864 34.266 112.857C34.3968 112.85 34.3349 112.506 34.3349 112.506C34.3349 112.506 35.5945 113.545 35.8561 113.414C36.1176 113.284 35.7459 112.526 35.7459 112.526C35.7459 112.526 36.0144 112.871 36.0763 112.733C36.1176 112.643 36.1107 112.368 36.1107 112.368C36.1107 112.368 36.2209 113.118 36.5995 112.946C36.978 112.774 36.7302 111.432 36.7302 111.432C36.7302 111.432 36.8059 111.652 36.8816 111.577C36.9574 111.501 37.0881 110.916 37.0881 110.916C37.0881 110.916 37.1432 111.205 37.2946 111.26C37.4461 111.315 37.5906 111.205 37.5906 111.205C37.5906 111.205 37.1294 112.967 37.4392 113.022C37.7489 113.077 38.3134 112.409 38.3134 112.409C38.3134 112.409 37.8453 113.29 37.9829 113.414C38.1275 113.538 39.6349 112.657 39.6349 112.657C39.6349 112.657 39.4628 112.967 39.5798 113.07C39.6969 113.173 40.0479 113.036 40.0479 113.036C40.0479 113.036 39.9928 113.352 39.9722 113.394C39.9515 113.435 38.7057 113.82 38.6575 113.965C38.6162 114.116 39.456 114.571 39.456 114.571C39.456 114.571 39.0223 114.481 38.9879 114.585C38.9604 114.681 39.3527 114.887 39.3527 114.887C39.3527 114.887 38.0656 114.447 38.0931 114.626C38.1206 114.805 39.4078 116.305 39.4078 116.305C39.4078 116.305 39.0154 116.168 38.9948 116.271C38.9741 116.367 39.1807 116.822 39.1807 116.822C39.1807 116.822 38.7607 116.512 38.7126 116.601C38.6644 116.691 38.6162 116.815 38.6162 116.815C38.6162 116.815 37.8866 114.922 37.6801 115.176C37.4736 115.431 37.4117 116.099 37.4117 116.099C37.4117 116.099 37.3359 115.741 37.2602 115.768C37.1845 115.796 37.0675 116.119 37.0675 116.119C37.0675 116.119 37.0744 114.667 36.7646 114.874C36.4549 115.08 35.8079 116.753 35.8079 116.753C35.8079 116.753 35.7459 116.477 35.6909 116.367C35.6358 116.264 35.1746 116.553 35.1746 116.553C35.1746 116.553 35.3192 116.292 35.2228 116.223C35.1333 116.154 34.8718 116.271 34.8718 116.271C34.8718 116.271 36.2002 115.156 36.1245 114.86C36.0488 114.564 35.209 114.832 35.209 114.832C35.209 114.832 35.2916 114.695 35.2985 114.619C35.3192 114.529 34.8649 114.495 34.8649 114.495Z" fill="#E48524"/>
<path d="M37.7491 115.204C37.5357 115.108 37.1296 118.708 38.4306 119.038C39.7315 119.375 41.8308 117.964 41.6932 116.794C41.5555 115.624 38.3962 114.53 38.3136 114.722C38.2447 114.881 39.642 116.016 39.6971 116.25C39.8003 116.719 39.4011 117.366 38.637 116.966C38.4099 116.849 37.9625 115.301 37.7491 115.204Z" fill="#CC2029"/>
<path d="M40.2 116.298C40.1587 116.381 40.8402 117.021 41.0054 116.594C41.2325 116.051 40.2413 116.223 40.2 116.298Z" fill="#E48524"/>
<path d="M40.0066 116.897C39.9515 116.966 40.4609 117.854 40.7362 117.352C41.0115 116.849 40.0616 116.829 40.0066 116.897Z" fill="#E48524"/>
<path d="M39.5796 117.386C39.6347 117.317 40.6809 117.51 40.1853 117.999C39.8893 118.288 39.5176 117.455 39.5796 117.386Z" fill="#E48524"/>
<path d="M39.0775 117.517C39.1601 117.475 39.8691 118.15 39.3735 118.329C38.8504 118.508 38.9949 117.558 39.0775 117.517Z" fill="#E48524"/>
<path d="M38.5338 117.469C38.6233 117.475 38.9468 118.425 38.3823 118.315C37.8317 118.205 38.4443 117.462 38.5338 117.469Z" fill="#E48524"/>
<path d="M38.8767 114.027C38.7666 114.234 42.0086 114.998 42.4491 113.731C42.8896 112.465 41.6644 110.255 40.4805 110.289C39.2966 110.324 37.9544 113.112 38.1333 113.215C38.2848 113.297 39.5375 112.444 39.7647 112.368C40.2878 112.189 40.9761 112.726 40.391 113.352C40.1707 113.6 38.9869 113.827 38.8767 114.027Z" fill="#CC2029"/>
<path d="M37.4935 112.74C37.5967 112.946 40.1779 110.413 39.3795 109.333C38.581 108.252 36.0687 108.018 35.4285 109.016C34.7953 110.007 36.3646 112.836 36.5436 112.747C36.7019 112.664 36.5436 111.088 36.6331 110.703C36.6606 110.599 36.7157 110.51 36.7914 110.434C37.1424 110.104 37.8996 110.117 37.9065 110.813C37.9202 111.666 37.3833 112.533 37.4935 112.74Z" fill="#CC2029"/>
<path d="M35.8222 113.352C36.0494 113.325 34.5144 110.048 33.2342 110.441C31.9539 110.833 30.9007 113.132 31.6235 114.061C32.3531 114.991 35.6157 114.268 35.5882 114.061C35.5675 113.889 33.9431 113.745 33.6127 113.483C33.2823 113.222 33.6058 112.217 34.1359 112.32C34.6659 112.423 35.5882 113.38 35.8222 113.352Z" fill="#CC2029"/>
<path d="M40.6743 114.64C40.6743 114.64 41.8376 114.571 42.2918 114.192C42.7461 113.814 42.5465 112.857 42.5465 112.857C42.5465 112.857 43.0697 113.917 42.2712 114.419C41.4797 114.908 40.6743 114.64 40.6743 114.64Z" fill="#F58B66"/>
<path d="M39.559 110.434C39.559 110.434 39.793 109.815 39.6898 109.36C39.5934 108.906 38.9326 108.727 38.9326 108.727C38.9326 108.727 39.9651 108.748 39.9307 109.491C39.8894 110.152 39.559 110.434 39.559 110.434Z" fill="#F58B66"/>
<path d="M34.6788 111.04C34.6788 111.04 34.197 110.551 33.7771 110.351C33.3572 110.152 32.8135 110.565 32.8135 110.565C32.8135 110.565 33.4674 109.759 34.0318 110.241C34.5274 110.675 34.6788 111.04 34.6788 111.04Z" fill="#F58B66"/>
<path d="M31.4918 114.02C31.4918 114.02 31.244 113.518 31.3198 112.947C31.3955 112.375 31.6089 112.024 31.6089 112.024C31.6089 112.024 31.251 112.355 31.2165 112.995C31.1821 113.635 31.4918 114.02 31.4918 114.02Z" fill="#F58B66"/>
<path d="M32.6826 117.125C32.6826 117.125 32.4623 116.512 32.7927 116.202C33.1231 115.892 33.4535 115.624 33.4535 115.624C33.4535 115.624 32.6963 115.899 32.5655 116.278C32.421 116.656 32.6826 117.125 32.6826 117.125Z" fill="#F58B66"/>
<path d="M42.8422 115.562C42.8422 115.562 42.505 116.457 42.0025 117.242C41.4863 118.04 41.2316 118.267 41.2729 118.274C41.3142 118.274 41.7134 117.861 42.0782 117.31C42.6633 116.402 42.8422 115.562 42.8422 115.562Z" fill="#F58B66"/>
<path d="M37.666 118.391C37.666 118.391 37.9001 118.825 38.0171 118.914C38.196 119.045 38.2924 119.134 38.5402 119.141C38.8705 119.148 38.9876 119.148 38.9876 119.148C38.9876 119.148 38.7673 119.258 38.5195 119.238C38.2717 119.217 38.079 119.176 37.9138 119.004C37.7555 118.832 37.666 118.391 37.666 118.391Z" fill="#F58B66"/>
<path d="M39.8761 111.804C39.9449 111.852 40.6677 111.288 40.2822 111.06C39.7797 110.764 39.8004 111.756 39.8761 111.804Z" fill="#E48524"/>
<path d="M40.4271 112.079C40.489 112.141 41.4251 111.776 40.9777 111.432C40.5303 111.088 40.3651 112.017 40.4271 112.079Z" fill="#E48524"/>
<path d="M40.8399 112.568C40.7779 112.506 41.1152 111.508 41.5213 112.065C41.7622 112.396 40.9018 112.637 40.8399 112.568Z" fill="#E48524"/>
<path d="M40.8953 113.07C40.8677 112.988 41.6317 112.389 41.7281 112.898C41.8245 113.435 40.9228 113.16 40.8953 113.07Z" fill="#E48524"/>
<path d="M40.771 113.593C40.7916 113.504 41.7622 113.332 41.5763 113.862C41.3905 114.392 40.7503 113.683 40.771 113.593Z" fill="#E48524"/>
<path d="M36.3793 110.4C36.455 110.365 36.3931 109.477 36.0283 109.677C35.5602 109.932 36.3105 110.434 36.3793 110.4Z" fill="#E48524"/>
<path d="M36.8613 110.097C36.9371 110.083 37.1298 109.126 36.6548 109.312C36.173 109.491 36.7856 110.111 36.8613 110.097Z" fill="#E48524"/>
<path d="M37.4255 110.014C37.3498 110.028 36.7785 109.23 37.3911 109.195C37.7559 109.175 37.5081 110.001 37.4255 110.014Z" fill="#E48524"/>
<path d="M37.832 110.241C37.7563 110.221 37.6944 109.285 38.1142 109.477C38.5616 109.67 37.9078 110.262 37.832 110.241Z" fill="#E48524"/>
<path d="M38.1552 110.62C38.1001 110.558 38.4512 109.67 38.754 110.104C39.05 110.53 38.2102 110.675 38.1552 110.62Z" fill="#E48524"/>
<path d="M33.3014 113.69C33.2946 113.607 32.4686 113.401 32.5236 113.814C32.5925 114.358 33.3014 113.772 33.3014 113.69Z" fill="#E48524"/>
<path d="M33.1846 113.125C33.1984 113.043 32.3931 112.561 32.3999 113.091C32.4068 113.621 33.1709 113.208 33.1846 113.125Z" fill="#E48524"/>
<path d="M33.3085 112.54C33.2947 112.623 32.3724 112.939 32.5514 112.327C32.6546 111.962 33.3223 112.458 33.3085 112.54Z" fill="#E48524"/>
<path d="M33.6531 112.217C33.6049 112.286 32.7376 112.065 33.0542 111.701C33.3915 111.315 33.6944 112.148 33.6531 112.217Z" fill="#E48524"/>
<path d="M34.1073 112.01C34.0316 112.045 33.3501 111.425 33.8457 111.26C34.3413 111.095 34.183 111.969 34.1073 112.01Z" fill="#E48524"/>
<path d="M35.7456 117.517C35.663 117.496 35.2087 118.226 35.6217 118.308C36.1586 118.405 35.8213 117.537 35.7456 117.517Z" fill="#E48524"/>
<path d="M35.167 117.455C35.0913 117.421 34.3754 118.04 34.8847 118.205C35.3941 118.357 35.2427 117.489 35.167 117.455Z" fill="#E48524"/>
<path d="M34.6442 117.152C34.7199 117.193 34.7336 118.178 34.2036 117.813C33.8801 117.6 34.5685 117.111 34.6442 117.152Z" fill="#E48524"/>
<path d="M34.437 116.719C34.4852 116.787 34.0034 117.551 33.7556 117.132C33.4941 116.691 34.382 116.657 34.437 116.719Z" fill="#E48524"/>
<path d="M34.3825 116.216C34.3962 116.299 33.584 116.767 33.584 116.237C33.5771 115.707 34.3687 116.133 34.3825 116.216Z" fill="#E48524"/>
<path d="M140.212 120.552C145.243 124.558 151.321 126.437 159.395 124.007C167.469 121.578 169.183 113.593 168.281 108.727C167.38 103.86 163.608 97.638 158.92 95.9103C154.233 94.1826 145.12 96.6537 142.015 99.5515C135.696 105.444 135.173 116.546 140.212 120.552Z" fill="#FF7216"/>
<path d="M140.157 118.129C144.651 121.709 150.075 123.388 157.289 121.213C164.503 119.038 166.031 111.914 165.225 107.564C164.42 103.214 161.047 97.6588 156.862 96.1169C152.677 94.5751 144.534 96.7777 141.761 99.3658C136.123 104.631 135.662 114.55 140.157 118.129Z" fill="#FF9A26"/>
<path d="M140.06 110.503C141.024 110.84 142.813 111.15 143.977 109.037C145.14 106.924 147.494 104.652 148.891 103.152C150.282 101.651 148.127 98.1337 145.147 99.1111C142.166 100.089 138.67 102.814 138.876 107.316C138.966 109.525 140.06 110.503 140.06 110.503Z" fill="#FBAF32"/>
<path d="M151.941 99.3108C154.9 99.3521 156.291 98.705 154.942 97.5693C153.593 96.4405 152.712 96.8122 151.39 97.0806C150.062 97.3491 148.981 99.2695 151.941 99.3108Z" fill="#FF7216"/>
<path d="M154.24 97.8721C154.24 97.8721 153.469 92.6546 157.971 90.4795C162.472 88.3045 162.638 87.7882 164.689 87.8226C166.74 87.857 168.062 88.2632 168.075 88.6555C168.089 89.0478 167.676 88.7519 167.366 89.2956C167.057 89.8394 167.318 93.7904 164.372 95.697C161.426 97.6036 161.054 98.4503 158.638 98.6499C156.216 98.8564 154.24 97.8721 154.24 97.8721Z" fill="#A2BB3A"/>
<path d="M152.822 95.8897C152.822 95.8897 151.486 96.5299 148.141 95.222C144.796 93.9142 143.839 91.6497 143.433 89.8945C143.027 88.1324 143.385 85.6682 143.605 85.6751C143.825 85.6819 145.987 88.2976 147.177 88.9102C148.375 89.5228 150.901 91.7598 151.259 92.517C151.617 93.2741 152.822 95.8897 152.822 95.8897Z" fill="#A2BB3A"/>
<path d="M152.506 95.0912C152.719 93.0951 152.912 92.5032 153.104 92.1797C153.297 91.8561 154.33 92.1177 154.268 92.5513C154.206 92.985 153.627 95.401 153.462 96.3096C153.297 97.2181 153.552 98.8219 152.974 98.8013C152.395 98.7806 152.292 97.0874 152.506 95.0912Z" fill="#A2BB3A"/>
<path d="M152.973 98.1267C152.973 98.1267 153.854 97.9065 154.419 97.6105C154.983 97.3145 155.204 97.6449 155.204 97.6449C155.204 97.6449 154.24 98.051 153.614 98.1543C152.987 98.2575 152.76 98.3332 152.76 98.3332L152.973 98.1267Z" fill="#A2BB3A"/>
<path d="M154.867 97.6725C155.913 97.3421 156.911 96.874 157.813 96.2408C158.811 95.5456 159.665 94.6645 160.58 93.8661C162.452 92.2279 164.49 90.7962 166.644 89.5572C167.016 89.3438 166.679 88.7725 166.307 88.9859C164.283 90.1423 162.37 91.4776 160.594 92.9782C159.685 93.7491 158.846 94.6095 157.91 95.346C156.953 96.1031 155.851 96.6606 154.688 97.0255C154.282 97.1631 154.454 97.8033 154.867 97.6725Z" fill="#7E943A"/>
<path d="M157.357 96.5781C157.894 96.2753 157.798 95.4631 157.764 94.9468C157.743 94.6371 157.715 94.3342 157.715 94.0245C157.715 93.873 157.722 93.7147 157.743 93.5633C157.75 93.5151 157.757 93.3637 157.805 93.3362C158.163 93.1021 157.826 92.5239 157.468 92.7649C157.192 92.9438 157.123 93.2329 157.082 93.5426C157.041 93.8455 157.048 94.1553 157.068 94.4581C157.089 94.7679 157.117 95.0707 157.123 95.3805C157.123 95.525 157.165 95.9242 157.027 96.0068C156.648 96.2133 156.986 96.7846 157.357 96.5781Z" fill="#7E943A"/>
<path d="M160.751 93.6251C161.082 93.0607 161.109 92.4137 161.13 91.7804C161.143 91.2229 161.171 90.6516 161.522 90.1904C161.632 90.0458 161.543 89.8187 161.405 89.7361C161.233 89.6397 161.061 89.7086 160.951 89.8531C160.579 90.3418 160.503 90.9682 160.476 91.5602C160.448 92.1452 160.49 92.7716 160.18 93.2947C159.96 93.6595 160.538 93.9899 160.751 93.6251Z" fill="#7E943A"/>
<path d="M160.771 93.6527C161.37 93.3154 162.086 93.4118 162.747 93.3842C163.525 93.3429 164.254 93.1089 164.984 92.8474C165.383 92.7097 165.211 92.0627 164.805 92.2072C164.061 92.4688 163.325 92.7028 162.526 92.7234C161.811 92.7441 161.081 92.7166 160.434 93.0745C160.062 93.2879 160.393 93.8661 160.771 93.6527Z" fill="#7E943A"/>
<path d="M164.481 90.7618C164.509 90.6447 164.543 90.5208 164.584 90.4038C164.605 90.3419 164.626 90.2799 164.653 90.218C164.66 90.1973 164.674 90.1698 164.681 90.1491C164.688 90.1354 164.729 90.0321 164.694 90.1147C164.784 89.8876 164.908 89.6673 165.039 89.4608C165.128 89.3163 165.073 89.0891 164.922 89.0065C164.756 88.917 164.564 88.9652 164.467 89.1236C164.185 89.571 163.979 90.0665 163.848 90.5828C163.807 90.748 163.903 90.9476 164.082 90.9889C164.247 91.0302 164.44 90.9407 164.481 90.7618Z" fill="#7E943A"/>
<path d="M164.241 90.9752C164.647 91.0234 165.053 91.0509 165.459 91.0509C165.631 91.0509 165.796 90.8995 165.789 90.7205C165.783 90.5415 165.645 90.3901 165.459 90.3901C165.053 90.3901 164.647 90.3626 164.241 90.3144C164.165 90.3075 164.062 90.3557 164.007 90.4108C163.952 90.4658 163.903 90.5622 163.91 90.6448C163.917 90.7274 163.945 90.8169 164.007 90.8788C164.076 90.9408 164.151 90.9683 164.241 90.9752Z" fill="#7E943A"/>
<path d="M144.473 88.4421C145.141 89.9908 145.843 91.5739 147.047 92.7854C148.266 94.0106 149.897 94.6851 151.487 95.2771C151.886 95.4285 152.058 94.7884 151.666 94.6369C150.145 94.0656 148.589 93.4255 147.44 92.2347C146.325 91.0783 145.678 89.5571 145.051 88.1048C144.879 87.7193 144.308 88.0566 144.473 88.4421Z" fill="#7E943A"/>
<path d="M146.675 91.0302C146.627 90.4657 146.585 89.9082 146.565 89.3438C146.558 89.1717 146.413 89.0065 146.234 89.0134C146.062 89.0203 145.897 89.1579 145.904 89.3438C145.925 89.9082 145.959 90.4657 146.014 91.0302C146.028 91.2022 146.159 91.3674 146.345 91.3606C146.51 91.3537 146.689 91.216 146.675 91.0302Z" fill="#7E943A"/>
<path d="M146.228 90.8374C145.808 90.6446 145.388 90.4381 144.989 90.211C144.837 90.1284 144.617 90.1697 144.534 90.328C144.452 90.4863 144.493 90.6928 144.651 90.7823C145.058 91.0095 145.471 91.2159 145.89 91.4087C145.973 91.4431 146.056 91.4706 146.145 91.4431C146.221 91.4224 146.303 91.3605 146.345 91.2917C146.42 91.1402 146.393 90.9131 146.228 90.8374Z" fill="#7E943A"/>
<path d="M149.256 93.4944C148.953 92.7717 148.829 92.0145 148.898 91.2298C148.912 91.0509 148.733 90.8994 148.568 90.8994C148.375 90.8994 148.251 91.0509 148.237 91.2298C148.168 92.0558 148.299 92.9024 148.623 93.6665C148.692 93.8317 148.843 93.9487 149.029 93.9005C149.18 93.8592 149.325 93.6665 149.256 93.4944Z" fill="#7E943A"/>
<path d="M148.864 93.4669C148.513 93.4531 148.251 93.4187 147.914 93.343C147.583 93.2673 147.26 93.164 146.95 93.0332C146.792 92.9644 146.578 93.1089 146.544 93.2673C146.503 93.46 146.606 93.6045 146.778 93.6734C147.439 93.9487 148.155 94.1001 148.871 94.1345C149.043 94.1414 149.208 93.9762 149.201 93.8041C149.187 93.6114 149.049 93.4738 148.864 93.4669Z" fill="#7E943A"/>
<path d="M150.675 94.6853C150.793 94.5476 150.841 94.3893 150.82 94.2103C150.799 94.052 150.772 93.8937 150.751 93.7354C150.71 93.4463 150.669 93.1641 150.627 92.875C150.614 92.7993 150.538 92.7167 150.476 92.6754C150.407 92.6341 150.297 92.6134 150.221 92.641C150.035 92.7029 149.96 92.8612 149.987 93.0471C150.022 93.2949 150.063 93.5427 150.097 93.7905C150.118 93.9144 150.132 94.0314 150.152 94.1553C150.159 94.1828 150.159 94.2103 150.166 94.2447C150.18 94.3342 150.166 94.1828 150.166 94.2516C150.166 94.2585 150.166 94.3136 150.166 94.3205C150.173 94.2654 150.173 94.2585 150.166 94.2929C150.173 94.2654 150.187 94.2379 150.207 94.2172C150.09 94.348 150.07 94.5614 150.207 94.6853C150.331 94.7954 150.552 94.8229 150.675 94.6853Z" fill="#7E943A"/>
<path d="M157.715 96.4129C159.312 96.0412 160.943 96.6813 162.554 96.406C162.973 96.3372 162.794 95.697 162.375 95.7659C160.764 96.0412 159.146 95.4011 157.536 95.7728C157.123 95.8691 157.295 96.5092 157.715 96.4129Z" fill="#7E943A"/>
<path d="M116.107 123.34C116.107 123.34 118.351 138.573 134.774 134.484C150.619 130.547 144.569 115.252 144.569 115.252C144.569 115.252 141.038 107.605 127.698 111.212C114.352 114.812 116.107 123.34 116.107 123.34Z" fill="#FF7216"/>
<path d="M132.79 128.176C140.384 126.187 145.555 120.813 144.34 116.172C143.125 111.531 135.983 109.38 128.389 111.369C120.795 113.357 115.624 118.732 116.839 123.373C118.054 128.014 125.196 130.164 132.79 128.176Z" fill="#FF9A26"/>
<path d="M128.084 120.497C126.989 120.648 122.777 126.919 125.592 127.621C128.414 128.323 132.2 127.649 132.358 126.658C132.516 125.673 129.171 120.346 128.084 120.497Z" fill="#FFC757"/>
<path d="M129.873 119.802C129.873 119.802 132.33 125.522 133.528 125.907C134.726 126.286 137.417 124.834 139.193 123.154C140.969 121.475 129.873 119.802 129.873 119.802Z" fill="#FFC757"/>
<path d="M130.162 118.522C130.162 118.522 139.048 121.667 141.217 120.924C143.385 120.187 144.273 116.484 142.428 115.706C140.583 114.922 130.162 118.522 130.162 118.522Z" fill="#FFC757"/>
<path d="M129.061 118.067C129.061 118.067 140.611 114.344 140.653 113.421C140.694 112.506 137.624 111.363 135.428 111.57C133.232 111.776 129.061 118.067 129.061 118.067Z" fill="#FFC757"/>
<path d="M128.132 117.799C128.545 117.813 132.978 112.492 131.966 111.501C130.954 110.51 126.92 112.12 125.158 113.277C124.284 113.848 125.041 114.543 125.991 115.521C126.962 116.526 127.719 117.785 128.132 117.799Z" fill="#FFC757"/>
<path d="M127.65 118.102C127.65 118.102 125.124 114.915 123.685 114.681C122.247 114.447 120.746 115.108 120.024 117.076C119.301 119.045 127.65 118.102 127.65 118.102Z" fill="#FFC757"/>
<path d="M118.605 119.768C117.814 121.117 118.034 122.328 119.073 124.4C122.04 130.306 126.755 120.483 126.315 119.499C125.881 118.508 119.397 118.418 118.605 119.768Z" fill="#FFC757"/>
<path d="M178.552 95.2426C179.185 96.5573 181.016 99.6754 180.789 100.164C180.562 100.653 178.958 109.794 178.166 111.04C177.375 112.285 175.11 118.308 170.416 121.13C165.721 123.952 153.366 127.298 152.636 128.013C151.907 128.729 151.274 130.065 151.7 130.698C152.127 131.331 157.764 135.936 162.837 134.945C167.91 133.954 174.704 132.412 178.132 129.369C181.56 126.327 188.25 119.953 189.145 113.091C190.04 106.235 189.895 103.668 187.582 101.637C185.27 99.6066 184.258 100.061 183.501 98.4984C182.744 96.9359 182.324 94.8985 182.035 93.9417C181.745 92.9781 181.546 92.7647 181.257 92.8404C180.961 92.9023 177.526 93.0951 178.552 95.2426Z" fill="#FFDF78"/>
<path d="M151.872 130.891C151.872 130.891 158.583 132.914 164.847 131.18C171.111 129.452 180.809 125.329 186.66 112.217C188.587 107.901 188.319 105.664 187.637 103.544C186.99 101.527 184.519 99.6272 184.519 99.6272C184.519 99.6272 188.25 101.011 189.454 103.688C192.269 109.973 188.298 118.584 183.652 124.104C178.214 130.567 175.137 131.744 169.362 133.713C163.512 135.709 159.347 135.44 156.711 134.195C154.075 132.962 151.872 130.891 151.872 130.891Z" fill="#E9C553"/>
<path d="M150.22 115.404C148.272 114.894 145.113 115.128 143.44 117.269C141.767 119.41 141.182 125.033 141.444 126.224C141.705 127.415 143.048 129.314 147.026 128.323C151.005 127.332 154.715 125.246 154.501 119.926C154.425 117.937 152.168 115.913 150.22 115.404Z" fill="#E33F40"/>
<path d="M143.254 118.191C145.147 115.61 148.829 115.19 151.184 115.7C150.805 115.514 150.419 115.376 150.048 115.294C148.086 114.839 144.934 115.163 143.33 117.358C142.642 118.295 142.167 119.871 141.877 121.454C142.222 120.16 142.669 118.983 143.254 118.191Z" fill="#F47D89"/>
<path d="M154.701 120.229C154.659 119.217 154.047 118.191 153.2 117.365C153.654 118.005 153.957 118.707 153.985 119.403C154.205 124.723 150.495 126.809 146.51 127.8C144.197 128.378 142.779 127.979 141.939 127.305C142.545 128.365 144.045 129.418 147.219 128.626C151.204 127.635 154.914 125.549 154.701 120.229Z" fill="#D12029"/>
<path d="M152.23 116.147C152.23 116.147 151.294 115.617 149.869 114.942C148.836 114.454 147.432 114.061 147.432 114.061C147.432 114.061 147.535 114.963 148.623 115.458C149.848 116.016 150.998 116.14 150.998 116.14C150.998 116.14 150.006 116.099 148.843 116.078C147.886 116.057 147.191 116.264 147.191 116.264C147.191 116.264 147.886 117.269 148.953 117.317C150.337 117.379 152.099 116.835 152.099 116.835C152.099 116.835 151.61 117.496 151.19 118.343C150.708 119.299 150.722 120.504 150.722 120.504C150.722 120.504 151.824 120.029 152.305 119.065C152.705 118.274 152.952 117.544 152.952 117.544C152.952 117.544 153.248 118.377 153.875 119.382C154.611 120.552 155.912 121.344 155.912 121.344C155.912 121.344 155.313 120.105 154.714 119.072C154.24 118.246 153.778 117.544 153.778 117.544C153.778 117.544 154.363 118.205 154.969 118.687C155.472 119.093 156.422 118.859 156.422 118.859C156.422 118.859 155.864 118.329 155.169 117.854C154.061 117.09 152.698 116.188 152.698 116.188C152.698 116.188 154.095 112.967 153.785 112.65C153.482 112.334 153.063 112.774 153.063 112.774L152.23 116.147Z" fill="#2A5E08"/>
<path d="M152.202 116.023C152.202 116.023 151.521 115.41 150.096 114.743C149.064 114.254 147.439 114.061 147.439 114.061C147.439 114.061 147.763 114.763 148.857 115.259C150.082 115.817 151.562 116.147 151.562 116.147C151.562 116.147 150.241 115.899 149.077 115.872C148.121 115.851 147.205 116.257 147.205 116.257C147.205 116.257 147.962 116.994 149.029 117.049C150.413 117.111 152.127 116.67 152.127 116.67C152.127 116.67 151.658 117.427 151.239 118.267C150.757 119.224 150.736 120.504 150.736 120.504C150.736 120.504 151.769 119.706 152.244 118.749C152.636 117.957 152.939 117.207 152.939 117.207C152.939 117.207 153.483 118.177 154.109 119.182C154.845 120.353 155.926 121.344 155.926 121.344C155.926 121.344 155.547 119.898 154.956 118.873C154.481 118.047 154.019 117.345 154.019 117.345C154.019 117.345 154.604 118.005 155.21 118.487C155.713 118.893 156.435 118.859 156.435 118.859C156.435 118.859 156.105 118.129 155.41 117.654C154.302 116.89 152.622 116.147 152.622 116.147C152.622 116.147 153.992 112.822 153.689 112.506C153.386 112.189 153.118 112.643 153.118 112.643L152.202 116.023Z" fill="#2A7C1C"/>
<path d="M143.696 122.077C143.824 121.839 143.863 121.612 143.783 121.568C143.702 121.525 143.533 121.683 143.405 121.92C143.277 122.158 143.238 122.385 143.319 122.429C143.399 122.472 143.568 122.315 143.696 122.077Z" fill="#F7D9D8"/>
<path d="M146.438 120.52C146.541 120.33 146.573 120.147 146.509 120.113C146.445 120.079 146.311 120.205 146.208 120.396C146.105 120.587 146.073 120.769 146.137 120.804C146.2 120.838 146.335 120.711 146.438 120.52Z" fill="#F7D9D8"/>
<path d="M145.141 118.603C145.269 118.366 145.308 118.138 145.227 118.095C145.147 118.051 144.978 118.209 144.85 118.446C144.722 118.684 144.683 118.912 144.763 118.955C144.844 118.998 145.013 118.841 145.141 118.603Z" fill="#F7D9D8"/>
<path d="M152.667 123.532C152.784 123.289 152.813 123.059 152.73 123.02C152.648 122.98 152.487 123.145 152.369 123.388C152.252 123.631 152.223 123.86 152.305 123.9C152.387 123.939 152.549 123.775 152.667 123.532Z" fill="#F7D9D8"/>
<path d="M149.092 119.678C149.199 119.48 149.231 119.291 149.164 119.255C149.097 119.219 148.956 119.35 148.85 119.547C148.743 119.744 148.711 119.934 148.778 119.97C148.845 120.006 148.986 119.875 149.092 119.678Z" fill="#F7D9D8"/>
<path d="M148.043 123.151C148.13 122.99 148.156 122.836 148.103 122.808C148.049 122.779 147.936 122.886 147.849 123.046C147.763 123.207 147.736 123.36 147.789 123.389C147.843 123.418 147.956 123.311 148.043 123.151Z" fill="#F7D9D8"/>
<path d="M143.818 125.104C143.912 124.93 143.942 124.764 143.885 124.734C143.828 124.703 143.706 124.819 143.612 124.993C143.518 125.167 143.489 125.333 143.545 125.364C143.602 125.394 143.724 125.278 143.818 125.104Z" fill="#F7D9D8"/>
<path d="M151.311 122.361C151.405 122.187 151.435 122.022 151.378 121.991C151.321 121.96 151.199 122.076 151.105 122.25C151.011 122.424 150.981 122.59 151.038 122.621C151.095 122.652 151.217 122.535 151.311 122.361Z" fill="#F7D9D8"/>
<path d="M145.292 127.748C145.42 127.511 145.459 127.283 145.378 127.24C145.298 127.197 145.129 127.354 145.001 127.592C144.873 127.829 144.834 128.057 144.914 128.1C144.995 128.143 145.164 127.986 145.292 127.748Z" fill="#F7D9D8"/>
<path d="M146.777 124.986C146.906 124.748 146.944 124.521 146.864 124.477C146.784 124.434 146.615 124.592 146.487 124.829C146.358 125.067 146.32 125.294 146.4 125.338C146.48 125.381 146.649 125.223 146.777 124.986Z" fill="#F7D9D8"/>
<path d="M149.906 125.978C150.005 125.793 150.037 125.618 149.976 125.585C149.916 125.553 149.787 125.676 149.688 125.86C149.588 126.044 149.557 126.219 149.617 126.252C149.677 126.284 149.807 126.162 149.906 125.978Z" fill="#F7D9D8"/>
<path d="M137.321 118.88C139.304 118.529 142.436 119.01 143.929 121.282C145.423 123.553 145.554 129.204 145.196 130.368C144.838 131.531 143.344 133.321 139.462 132.013C135.573 130.705 132.042 128.33 132.689 123.044C132.923 121.069 135.332 119.231 137.321 118.88Z" fill="#E33F40"/>
<path d="M144.039 122.218C142.36 119.492 138.726 118.783 136.337 119.1C136.73 118.949 137.122 118.838 137.5 118.783C139.497 118.487 142.608 119.066 144.033 121.378C144.645 122.369 144.989 123.973 145.148 125.577C144.914 124.262 144.556 123.058 144.039 122.218Z" fill="#F47D89"/>
<path d="M132.469 123.333C132.593 122.328 133.281 121.357 134.189 120.6C133.68 121.199 133.329 121.874 133.24 122.569C132.593 127.855 136.124 130.23 140.013 131.538C142.27 132.295 143.716 132.013 144.604 131.414C143.908 132.426 142.339 133.355 139.235 132.309C135.353 130.994 131.822 128.619 132.469 123.333Z" fill="#D12029"/>
<path d="M135.256 119.458C135.256 119.458 136.234 119.004 137.707 118.446C138.773 118.047 140.205 117.765 140.205 117.765C140.205 117.765 140.033 118.659 138.904 119.066C137.638 119.52 136.488 119.554 136.488 119.554C136.488 119.554 137.479 119.596 138.643 119.664C139.599 119.719 140.274 119.981 140.274 119.981C140.274 119.981 139.496 120.931 138.429 120.89C137.046 120.841 135.339 120.16 135.339 120.16C135.339 120.16 135.772 120.862 136.123 121.736C136.523 122.727 136.419 123.932 136.419 123.932C136.419 123.932 135.359 123.368 134.96 122.376C134.63 121.557 134.437 120.807 134.437 120.807C134.437 120.807 134.072 121.612 133.37 122.562C132.544 123.67 131.181 124.352 131.181 124.352C131.181 124.352 131.883 123.161 132.558 122.184C133.102 121.399 133.618 120.731 133.618 120.731C133.618 120.731 132.985 121.344 132.338 121.778C131.808 122.135 130.878 121.833 130.878 121.833C130.878 121.833 131.477 121.351 132.207 120.931C133.377 120.263 134.802 119.465 134.802 119.465C134.802 119.465 133.673 116.14 133.997 115.851C134.327 115.562 134.705 116.03 134.705 116.03L135.256 119.458Z" fill="#2A5E08"/>
<path d="M135.298 119.341C135.298 119.341 136.027 118.783 137.5 118.233C138.567 117.833 140.205 117.771 140.205 117.771C140.205 117.771 139.827 118.446 138.698 118.852C137.432 119.306 135.931 119.52 135.931 119.52C135.931 119.52 137.266 119.375 138.43 119.444C139.386 119.499 140.267 119.981 140.267 119.981C140.267 119.981 139.455 120.656 138.388 120.621C137.005 120.573 135.332 119.995 135.332 119.995C135.332 119.995 135.738 120.786 136.089 121.66C136.489 122.652 136.413 123.932 136.413 123.932C136.413 123.932 135.449 123.058 135.05 122.06C134.72 121.241 134.479 120.47 134.479 120.47C134.479 120.47 133.859 121.392 133.15 122.342C132.324 123.45 131.168 124.352 131.168 124.352C131.168 124.352 131.663 122.941 132.338 121.963C132.882 121.179 133.398 120.511 133.398 120.511C133.398 120.511 132.765 121.124 132.118 121.557C131.588 121.915 130.865 121.833 130.865 121.833C130.865 121.833 131.257 121.13 131.987 120.711C133.157 120.043 134.885 119.43 134.885 119.43C134.885 119.43 133.783 116.009 134.114 115.72C134.444 115.431 134.671 115.906 134.671 115.906L135.298 119.341Z" fill="#2A7C1C"/>
<path d="M143.662 126.426C143.746 126.389 143.725 126.159 143.617 125.912C143.508 125.665 143.352 125.494 143.269 125.531C143.185 125.568 143.206 125.798 143.314 126.045C143.423 126.292 143.579 126.462 143.662 126.426Z" fill="#F7D9D8"/>
<path d="M140.979 124.576C141.045 124.547 141.028 124.363 140.941 124.165C140.853 123.966 140.729 123.829 140.663 123.858C140.597 123.887 140.614 124.071 140.701 124.27C140.788 124.468 140.913 124.605 140.979 124.576Z" fill="#F7D9D8"/>
<path d="M142.499 122.846C142.583 122.81 142.563 122.58 142.454 122.333C142.345 122.085 142.19 121.915 142.106 121.952C142.023 121.988 142.043 122.218 142.151 122.465C142.26 122.713 142.416 122.883 142.499 122.846Z" fill="#F7D9D8"/>
<path d="M134.561 127.182C134.646 127.149 134.636 126.918 134.539 126.666C134.441 126.415 134.293 126.237 134.208 126.27C134.123 126.303 134.133 126.534 134.231 126.786C134.328 127.037 134.476 127.215 134.561 127.182Z" fill="#F7D9D8"/>
<path d="M138.41 123.536C138.48 123.505 138.463 123.314 138.373 123.109C138.283 122.904 138.153 122.762 138.083 122.793C138.014 122.823 138.03 123.014 138.121 123.22C138.211 123.425 138.341 123.567 138.41 123.536Z" fill="#F7D9D8"/>
<path d="M139.125 127.024C139.18 126.999 139.166 126.844 139.092 126.677C139.019 126.51 138.914 126.394 138.859 126.419C138.803 126.443 138.817 126.599 138.891 126.766C138.964 126.933 139.069 127.048 139.125 127.024Z" fill="#F7D9D8"/>
<path d="M143.197 129.336C143.257 129.31 143.24 129.142 143.161 128.961C143.081 128.78 142.969 128.654 142.909 128.68C142.85 128.706 142.867 128.874 142.946 129.055C143.026 129.236 143.138 129.362 143.197 129.336Z" fill="#F7D9D8"/>
<path d="M135.947 125.996C136.007 125.97 135.99 125.802 135.911 125.621C135.831 125.44 135.719 125.315 135.659 125.341C135.6 125.367 135.617 125.534 135.696 125.715C135.776 125.896 135.888 126.022 135.947 125.996Z" fill="#F7D9D8"/>
<path d="M141.612 131.955C141.695 131.918 141.675 131.688 141.567 131.441C141.458 131.194 141.302 131.024 141.219 131.06C141.135 131.097 141.155 131.327 141.264 131.574C141.373 131.821 141.528 131.992 141.612 131.955Z" fill="#F7D9D8"/>
<path d="M140.351 129.076C140.434 129.04 140.414 128.81 140.306 128.563C140.197 128.315 140.041 128.145 139.958 128.182C139.874 128.218 139.894 128.448 140.003 128.695C140.112 128.943 140.267 129.113 140.351 129.076Z" fill="#F7D9D8"/>
<path d="M137.072 129.732C137.135 129.705 137.117 129.527 137.033 129.336C136.949 129.145 136.83 129.012 136.767 129.039C136.705 129.067 136.722 129.244 136.806 129.436C136.89 129.627 137.009 129.76 137.072 129.732Z" fill="#F7D9D8"/>
<path d="M167.965 96.0204C168.598 97.3351 170.429 100.453 170.202 100.942C169.975 101.431 168.371 110.572 167.58 111.817C166.788 113.063 164.523 119.086 159.829 121.908C155.135 124.73 142.779 128.075 142.05 128.791C141.32 129.507 140.687 130.843 141.114 131.476C141.54 132.109 147.178 136.714 152.251 135.723C157.324 134.732 164.117 133.19 167.545 130.147C170.973 127.105 177.663 120.731 178.558 113.869C179.453 107.013 179.308 104.445 176.996 102.415C174.683 100.384 173.671 100.839 172.914 99.2762C172.15 97.7206 171.737 95.6763 171.448 94.7195C171.159 93.7559 170.959 93.5425 170.67 93.6182C170.374 93.6802 166.939 93.8729 167.965 96.0204Z" fill="#FFDF78"/>
<path d="M141.286 131.668C141.286 131.668 147.997 133.692 154.26 131.958C160.524 130.23 170.223 126.107 176.073 112.994C178.001 108.679 177.732 106.442 177.051 104.322C176.404 102.305 173.933 100.405 173.933 100.405C173.933 100.405 177.663 101.789 178.868 104.466C181.683 110.75 177.711 119.361 173.065 124.882C167.628 131.345 164.551 132.522 158.776 134.491C152.925 136.487 148.761 136.218 146.125 134.972C143.488 133.74 141.286 131.668 141.286 131.668Z" fill="#E9C553"/>
<defs>
<linearGradient id="paint0_linear_9373_64733" x1="132.006" y1="66.1022" x2="156.562" y2="104.411" gradientUnits="userSpaceOnUse">
<stop stop-color="#D2D548"/>
<stop offset="1" stop-color="#BCB665"/>
</linearGradient>
</defs>
</svg>
