<svg width="123" height="33" viewBox="0 0 123 33" fill="none" xmlns="http://www.w3.org/2000/svg">
<path d="M43.669 29.1389C43.1023 29.1528 42.5386 29.0532 42.0125 28.8461C41.4864 28.639 41.0089 28.3288 40.6092 27.9345C40.2096 27.5403 39.8962 27.0701 39.6883 26.553C39.4804 26.0358 39.3823 25.4825 39.4 24.9268C39.3841 24.3675 39.4827 23.8108 39.6901 23.2895C39.8974 22.7682 40.2092 22.2929 40.607 21.8918C41.0048 21.4907 41.4806 21.1719 42.0063 20.9542C42.5319 20.7364 43.0967 20.6243 43.6674 20.6243C44.238 20.6243 44.8028 20.7364 45.3284 20.9542C45.8541 21.1719 46.3299 21.4907 46.7277 21.8918C47.1255 22.2929 47.4373 22.7682 47.6447 23.2895C47.852 23.8108 47.9506 24.3675 47.9347 24.9268C47.9524 25.4822 47.8544 26.0352 47.6467 26.5522C47.439 27.0691 47.1259 27.5391 46.7266 27.9333C46.3273 28.3276 45.8502 28.6378 45.3245 28.8451C44.7988 29.0524 44.2355 29.1523 43.669 29.1389ZM43.669 21.4179C41.5642 21.4179 40.2789 23.0379 40.2789 24.9203C40.2789 26.8028 41.5642 28.4131 43.669 28.4131C45.7738 28.4131 47.0558 26.7931 47.0558 24.9203C47.0558 23.0476 45.7738 21.4179 43.669 21.4179Z" fill="#0C72E0"/>
<path d="M55.6272 27.7459H55.6471V20.9062H56.4797V28.935H55.4389L50.6907 22.0305H50.6676V28.935H49.835V20.9062H50.8758L55.6272 27.7459Z" fill="#0C72E0"/>
<path d="M59.6388 28.2092H63.4552V28.935H58.8062V20.9062H59.6388V28.2092Z" fill="#0C72E0"/>
<path d="M65.6886 28.935H64.856V20.9062H65.6886V28.935Z" fill="#0C72E0"/>
<path d="M73.8199 27.7459H73.843V20.9062H74.6757V28.935H73.6349L68.8636 22.0305H68.8405V28.935H68.0078V20.9062H69.0486L73.8199 27.7459Z" fill="#0C72E0"/>
<path d="M77.8312 28.2092H82.2126V28.935H76.9985V20.9062H82.0804V21.6288H77.8312V24.3957H81.7963V25.1118H77.8312V28.2092Z" fill="#0C72E0"/>
<path d="M47.0959 14.1997H47.0628L41.3829 5.20862H39.4004V16.4547H40.9203V7.27575H40.9534L46.6961 16.4547H48.6158V5.20862H47.0959V14.1997Z" fill="#131336"/>
<path d="M52.7758 11.3096H57.9072V9.95849H52.7758V6.59211H58.2277V5.20862H51.2559V16.4547H58.459V15.0583H52.7758V11.3096Z" fill="#131336"/>
<path d="M70.1784 14.1673H70.1454L67.6111 5.20862H65.9391L63.3883 14.1673H63.3585L60.963 5.20862H59.3208L62.5127 16.4547H64.0954L66.7354 7.41831H66.7685L69.4085 16.4547H70.9913L74.1864 5.20862H72.574L70.1784 14.1673Z" fill="#131336"/>
<path d="M81.2053 11.0242C80.8937 10.7782 80.5462 10.5794 80.1744 10.4346C79.7977 10.2888 79.4243 10.1559 79.0542 10.0393L78.1852 9.71528C77.9342 9.62637 77.6973 9.50311 77.4814 9.34916C77.2853 9.21206 77.1228 9.03387 77.0056 8.82751C76.8793 8.58989 76.8178 8.32422 76.8272 8.05639C76.819 7.77161 76.8849 7.48948 77.0188 7.23666C77.1427 7.01447 77.3126 6.82021 77.5178 6.66642C77.722 6.51563 77.9544 6.40556 78.2018 6.34242C78.4437 6.27511 78.6937 6.24023 78.9452 6.23874C79.3792 6.23162 79.808 6.33309 80.1909 6.53358C80.541 6.71166 80.8416 6.97079 81.0665 7.2885L82.1404 6.20634C81.7801 5.79767 81.3275 5.47706 80.8187 5.26997C80.2558 5.03461 79.6496 4.9155 79.0377 4.92005C78.5829 4.92048 78.1303 4.98263 77.6929 5.10473C77.2598 5.21912 76.8536 5.415 76.4968 5.68145C76.1398 5.95104 75.8457 6.2924 75.6344 6.68262C75.4048 7.13035 75.2913 7.62668 75.304 8.12767C75.29 8.57216 75.3746 9.01433 75.5518 9.42368C75.7075 9.76003 75.9325 10.0612 76.2126 10.3082C76.4818 10.5482 76.7872 10.7461 77.118 10.8946C77.4417 11.0481 77.775 11.1812 78.1158 11.2932L79.1071 11.6172C79.3976 11.7179 79.674 11.8539 79.9299 12.0222C80.1574 12.1736 80.349 12.3715 80.4916 12.6021C80.6357 12.8633 80.7064 13.1574 80.6964 13.4543C80.7052 13.7543 80.637 14.0518 80.4982 14.3193C80.3709 14.5513 80.1953 14.7544 79.9827 14.9155C79.7746 15.0737 79.5381 15.1924 79.2855 15.2654C79.0357 15.3385 78.7764 15.3756 78.5157 15.3756C78.0286 15.3809 77.5488 15.2602 77.1246 15.0257C76.7079 14.7952 76.3551 14.4681 76.097 14.0731L74.9141 15.1067C75.3275 15.6415 75.875 16.0623 76.5034 16.3282C77.1275 16.6004 77.8028 16.7417 78.4859 16.7429C78.9619 16.7426 79.4352 16.6727 79.8902 16.5355C80.3281 16.405 80.7356 16.1915 81.0896 15.907C81.4461 15.618 81.7328 15.255 81.9289 14.8442C82.1473 14.368 82.2545 13.8499 82.2428 13.3279C82.2602 12.8485 82.1605 12.3719 81.952 11.9379C81.7703 11.586 81.516 11.2749 81.2053 11.0242Z" fill="#131336"/>
<path d="M91.4479 5.20862H82.9561V6.59211H86.442V16.4547H87.9619V6.59211H91.4479V5.20862Z" fill="#131336"/>
<path d="M95.4397 5.20862L90.7246 16.445H92.4164L93.5067 13.6813H98.6646L99.7715 16.445H101.493L96.8242 5.20862H95.4397ZM94.042 12.3107L96.0873 7.04895L98.1128 12.3237L94.042 12.3107Z" fill="#131336"/>
<path d="M109.506 10.3246C110.012 9.77911 110.277 9.05906 110.243 8.3223C110.258 7.82149 110.153 7.32417 109.935 6.87077C109.745 6.48282 109.457 6.14845 109.099 5.89876C108.722 5.64891 108.299 5.47188 107.854 5.37712C107.365 5.26402 106.865 5.20747 106.364 5.20864H102.897V16.445H104.417V11.4522H106.043L108.802 16.445H110.646L107.603 11.2934C108.328 11.1832 108.997 10.8429 109.506 10.3246ZM106.159 10.1335H104.407V6.54353H106.264C106.579 6.54233 106.894 6.57163 107.203 6.63101C107.477 6.68056 107.74 6.7806 107.976 6.92585C108.199 7.06215 108.384 7.25023 108.515 7.47341C108.655 7.73461 108.723 8.02723 108.713 8.3223C108.723 8.61839 108.655 8.91206 108.515 9.17442C108.381 9.39938 108.194 9.58943 107.969 9.72847C107.722 9.88231 107.449 9.99201 107.163 10.0525C106.833 10.1124 106.498 10.1396 106.162 10.1335H106.159Z" fill="#131336"/>
<path d="M110.936 6.59211H114.422V16.4547H115.942V6.59211H119.431V5.20862H110.936V6.59211Z" fill="#131336"/>
<path d="M121.612 3.58204C121.336 3.58139 121.067 3.66085 120.838 3.81034C120.609 3.95983 120.43 4.17265 120.324 4.42184C120.218 4.67103 120.19 4.94539 120.244 5.2102C120.297 5.47502 120.429 5.71837 120.624 5.90946C120.818 6.10055 121.066 6.23078 121.336 6.28368C121.606 6.33657 121.886 6.30975 122.14 6.20661C122.394 6.10346 122.612 5.92863 122.765 5.70424C122.918 5.47986 122.999 5.216 122.999 4.94608C122.999 4.58488 122.853 4.23841 122.593 3.9827C122.333 3.72698 121.98 3.58289 121.612 3.58204ZM121.612 6.14489C121.369 6.14553 121.131 6.0755 120.929 5.94366C120.727 5.81182 120.57 5.62412 120.476 5.40435C120.383 5.18457 120.359 4.94261 120.406 4.70913C120.453 4.47566 120.57 4.26118 120.742 4.09287C120.913 3.92457 121.132 3.81002 121.37 3.76374C121.608 3.71746 121.855 3.74154 122.079 3.83292C122.303 3.9243 122.495 4.07887 122.629 4.27704C122.763 4.47522 122.835 4.70807 122.834 4.94608C122.834 5.26403 122.705 5.56895 122.476 5.79377C122.247 6.01859 121.936 6.14489 121.612 6.14489Z" fill="#131336"/>
<path d="M122.124 4.66731C122.124 4.3433 121.85 4.23962 121.572 4.23962H121.024V5.64903H121.354V5.10471H121.473L121.784 5.66199H122.19L121.814 5.05935C121.904 5.04034 121.985 4.99059 122.042 4.91887C122.099 4.84715 122.128 4.75806 122.124 4.66731ZM121.529 4.84227H121.364V4.51827H121.549C121.652 4.51827 121.781 4.54419 121.781 4.67379C121.781 4.80339 121.639 4.84227 121.529 4.84227Z" fill="#131336"/>
<path d="M23.95 19.1882C23.95 20.7402 23.1801 27.1263 21.1216 30.6482C21.9642 29.8738 26.1308 24.9781 25.3807 19.1623C24.9072 19.0722 24.4197 19.081 23.95 19.1882Z" fill="#CDDA51"/>
<path d="M23.6001 12.1703C24.6707 13.2557 28.4837 18.349 29.4353 22.3569C29.5014 21.1938 29.1049 14.6846 24.5914 11.1173C24.1926 11.4052 23.8557 11.7674 23.6001 12.1833" fill="#4CC4D9"/>
<path d="M18.5543 7.45299C20.0544 7.43679 26.23 8.25003 29.6333 10.369C28.8866 9.49744 24.1517 5.18498 18.5246 5.96258C18.4392 6.45682 18.4493 6.9624 18.5543 7.45299Z" fill="#2699D3"/>
<path d="M11.7672 7.82865C12.818 6.72056 17.7412 2.77745 21.6006 1.79249C20.487 1.72445 14.1859 2.13917 10.7363 6.8048C11.0067 7.21113 11.3572 7.56035 11.7672 7.83189" fill="#AA62A7"/>
<path d="M7.21787 13.0483C7.20135 11.4964 7.98775 5.10704 10.0463 1.58838C9.2037 2.3595 5.03709 7.25518 5.78714 13.0743C6.26061 13.1643 6.74812 13.1555 7.21787 13.0483Z" fill="#E16BA8"/>
<path d="M7.56791 20.0664C6.49735 18.981 2.6876 13.8876 1.73268 9.8927C1.6666 11.0559 2.0631 17.5651 6.57665 21.1291C6.97574 20.8429 7.31271 20.4816 7.56791 20.0664Z" fill="#F26E52"/>
<path d="M12.617 24.7706C11.1136 24.7706 4.938 23.9736 1.53467 21.8546C2.28472 22.7262 7.01635 27.0386 12.6434 26.261C12.7298 25.7703 12.7208 25.2679 12.617 24.7804" fill="#F8A045"/>
<path d="M22.933 20.7822C19.7808 23.9024 15.7067 28.6652 9.58398 30.4569C10.7074 30.525 17.6793 30.3921 23.4947 21.4432C23.1643 20.8697 22.9495 20.7952 22.9495 20.7952" fill="#FBDC61"/>
<path d="M29.765 24.2428C29.765 24.2428 33.1254 17.4777 29.4346 11.8465C27.3595 9.01476 23.5366 7.74143 21.6664 7.74143C21.3188 7.70375 20.9686 7.78502 20.6751 7.97147C22.7812 9.61616 24.6605 11.5221 26.2658 13.6415C28.1426 16.2983 29.1603 19.4509 29.3453 21.6703C28.9621 19.8818 27.3265 16.091 25.1127 13.3467C23.6885 11.5776 21.4252 10.003 20.087 8.51903C19.9614 9.28368 19.0296 14.8857 22.1917 18.1257C24.455 20.4572 26.9979 22.5112 29.765 24.2428Z" fill="url(#paint0_linear_6332_35982)"/>
<path d="M22.4695 2.9624C22.0974 2.91054 21.722 2.88455 21.3461 2.88464C17.457 2.88464 13.6935 5.5609 13.6308 6.61715C16.2204 6.2456 18.8498 6.22489 21.4452 6.55559C24.5875 7.06103 27.4622 8.54496 29.111 9.98029C27.6175 9.00828 23.8672 7.50815 20.4341 7.18415C19.137 7.11016 17.8357 7.14702 16.5451 7.29431C15.5578 7.4037 14.5648 7.45455 13.5713 7.44659C14.0107 8.08164 17.1828 12.7213 21.6336 12.7019C24.849 12.6909 28.0504 12.2849 31.1629 11.4934C31.1629 11.4934 28.916 4.24869 22.4695 2.9624Z" fill="url(#paint1_linear_6332_35982)"/>
<path d="M13.1917 5.0716C15.7558 3.12759 18.8088 2.07782 20.9533 1.88342C19.2219 2.26899 15.5575 3.97324 12.9042 6.25421C11.1926 7.73166 9.67271 10.071 8.23538 11.4544C8.97552 11.584 14.3911 12.5496 17.5268 9.27715C19.8011 6.90346 21.785 4.27746 23.438 1.4525C21.5312 0.525641 19.4368 0.0296411 17.3087 0.000971979C15.2133 -0.0281334 13.1628 0.597092 11.4537 1.78622C8.03713 4.46572 6.96326 9.95755 7.70671 10.8291C9.27243 8.68463 11.1163 6.74919 13.1917 5.0716Z" fill="url(#paint2_linear_6332_35982)"/>
<path d="M12.2794 9.86024C12.2716 6.54094 11.8792 3.23327 11.1097 0.000854492C11.1097 0.000854492 4.1081 2.32719 2.86572 9.00487C2.28087 13.3983 5.2877 18.0672 6.39792 18.145C6.03833 15.4576 6.01836 12.7371 6.33844 10.0449C6.82416 6.8049 8.26149 3.8338 9.64926 2.12631C8.69764 3.6718 7.27023 7.5501 6.93981 11.1012C6.73825 13.3983 7.27023 16.1653 7.19423 18.1936C7.81212 17.7432 12.2992 14.4643 12.2794 9.86024Z" fill="url(#paint3_linear_6332_35982)"/>
<path d="M10.4687 24.2655C8.37083 22.6193 6.49937 20.7135 4.90115 18.5955C3.02436 15.9387 2.00667 12.7861 1.82163 10.5667C2.20492 12.3552 3.8405 16.146 6.04771 18.8903C7.47513 20.6594 9.73521 22.234 11.0767 23.718C11.199 22.9533 12.1308 17.3513 8.96863 14.1113C6.70747 11.7802 4.16677 9.72624 1.402 7.99414C0.505586 9.98264 0.0290188 12.1285 0.00101491 14.3025V14.364C-0.0281258 16.4938 0.570817 18.5865 1.72581 20.3905C4.31961 23.9253 9.62617 25.0334 10.4687 24.2655Z" fill="url(#paint4_linear_6332_35982)"/>
<path d="M17.5359 25.6196C14.9462 25.9895 12.317 26.0102 9.72147 25.6812C6.57916 25.179 3.7045 23.6918 2.05571 22.2565C3.54921 23.2285 7.29948 24.7286 10.7326 25.0526C12.0306 25.1319 13.3332 25.0972 14.6249 24.9489C15.6121 24.8394 16.6052 24.7885 17.5987 24.7966C17.1559 24.1584 14.0004 19.5381 9.58269 19.5381H9.54965C6.32785 19.5423 3.11946 19.9451 0.000488281 20.7369C0.000488281 20.7369 2.24735 27.9783 8.70377 29.2646C12.9563 29.877 17.4665 26.7795 17.5359 25.6196Z" fill="url(#paint5_linear_6332_35982)"/>
<path d="M13.8791 32.2359C15.9669 32.2621 18.0096 31.6394 19.7143 30.4571C23.1309 27.7711 24.2048 22.2793 23.4613 21.4077C21.8956 23.5522 20.0518 25.4876 17.9763 27.1652C15.4123 29.1092 12.3592 30.159 10.218 30.3534C11.9462 29.9549 15.6138 28.2668 18.2638 25.9826C19.9754 24.5084 21.4986 22.1691 22.9326 20.7986C22.0605 20.6428 21.1758 20.5647 20.2893 20.5653C18.2638 20.5653 15.5246 20.993 13.628 22.9759C11.3591 25.3439 9.37974 27.9633 7.72998 30.7811C9.63106 31.7044 11.7182 32.2003 13.8395 32.2326L13.8791 32.2359Z" fill="url(#paint6_linear_6332_35982)"/>
<path d="M28.2914 23.2802C27.4257 22.6808 26.2758 21.8287 24.9839 20.7368C24.9442 21.2584 24.8947 21.7477 24.8286 22.1916C24.3429 25.4316 22.9055 28.4157 21.5244 30.1231C22.476 28.5777 23.9133 24.6993 24.2272 21.1483C24.257 20.8243 24.2702 20.4646 24.2735 20.1147C23.6126 19.5153 22.9055 18.8576 22.205 18.1383C21.7945 17.7084 21.4394 17.2307 21.1477 16.7159C19.9714 18.161 18.8876 20.105 18.8975 22.3763C18.9043 25.694 19.2934 29.0003 20.0573 32.2324C20.0573 32.2324 27.0226 29.919 28.2914 23.2802Z" fill="url(#paint7_linear_6332_35982)"/>
<defs>
<linearGradient id="paint0_linear_6332_35982" x1="14.5905" y1="15.3477" x2="29.2699" y2="14.7711" gradientUnits="userSpaceOnUse">
<stop stop-color="#4CC4D9"/>
<stop offset="1" stop-color="#0995B5"/>
</linearGradient>
<linearGradient id="paint1_linear_6332_35982" x1="23.3949" y1="10.3189" x2="36.6667" y2="-4.30104" gradientUnits="userSpaceOnUse">
<stop stop-color="#2699D3"/>
<stop offset="1" stop-color="#0C52A0"/>
</linearGradient>
<linearGradient id="paint2_linear_6332_35982" x1="12.2356" y1="15.8258" x2="11.735" y2="2.55293" gradientUnits="userSpaceOnUse">
<stop stop-color="#AA62A7"/>
<stop offset="1" stop-color="#6D2C90"/>
</linearGradient>
<linearGradient id="paint3_linear_6332_35982" x1="8.6309" y1="11.3984" x2="-5.96518" y2="-2.3836" gradientUnits="userSpaceOnUse">
<stop stop-color="#E16BA8"/>
<stop offset="1" stop-color="#C73793"/>
</linearGradient>
<linearGradient id="paint4_linear_6332_35982" x1="18.8991" y1="14.6037" x2="6.1544" y2="15.1048" gradientUnits="userSpaceOnUse">
<stop stop-color="#F26E52"/>
<stop offset="1" stop-color="#D32E27"/>
</linearGradient>
<linearGradient id="paint5_linear_6332_35982" x1="7.82815" y1="16.173" x2="-5.7119" y2="31.0906" gradientUnits="userSpaceOnUse">
<stop stop-color="#F8A045"/>
<stop offset="1" stop-color="#F26E21"/>
</linearGradient>
<linearGradient id="paint6_linear_6332_35982" x1="20.3175" y1="14.3218" x2="20.7823" y2="26.6486" gradientUnits="userSpaceOnUse">
<stop stop-color="#FBDC61"/>
<stop offset="1" stop-color="#FBB033"/>
</linearGradient>
<linearGradient id="paint7_linear_6332_35982" x1="10.8115" y1="25.9526" x2="23.7908" y2="38.2034" gradientUnits="userSpaceOnUse">
<stop stop-color="#CDDA51"/>
<stop offset="1" stop-color="#85A43D"/>
</linearGradient>
</defs>
</svg>
