<svg width="19" height="17" viewBox="0 0 19 17" fill="none" xmlns="http://www.w3.org/2000/svg">
<path d="M9.35806 16.6787C14.1933 16.6787 18.1131 13.097 18.1131 8.67871C18.1131 4.26043 14.1933 0.678711 9.35806 0.678711C4.52279 0.678711 0.603027 4.26043 0.603027 8.67871C0.603027 13.097 4.52279 16.6787 9.35806 16.6787Z" fill="#FFCC4D"/>
<path d="M9.35835 10.012C7.59616 10.012 6.42688 9.82441 4.98084 9.56752C4.65058 9.5093 4.00806 9.56752 4.00806 10.4564C4.00806 12.2342 6.24302 14.4564 9.35835 14.4564C12.4732 14.4564 14.7086 12.2342 14.7086 10.4564C14.7086 9.56752 14.0661 9.50886 13.7359 9.56752C12.2898 9.82441 11.1205 10.012 9.35835 10.012Z" fill="#664500"/>
<path d="M4.98047 10.4565C4.98047 10.4565 6.43964 10.901 9.35798 10.901C12.2763 10.901 13.7355 10.4565 13.7355 10.4565C13.7355 10.4565 12.7627 12.2343 9.35798 12.2343C5.95325 12.2343 4.98047 10.4565 4.98047 10.4565Z" fill="white"/>
<path d="M6.43985 8.23391C7.11142 8.23391 7.65583 7.53747 7.65583 6.67836C7.65583 5.81925 7.11142 5.1228 6.43985 5.1228C5.76829 5.1228 5.22388 5.81925 5.22388 6.67836C5.22388 7.53747 5.76829 8.23391 6.43985 8.23391Z" fill="#664500"/>
<path d="M12.2763 8.23391C12.9478 8.23391 13.4923 7.53747 13.4923 6.67836C13.4923 5.81925 12.9478 5.1228 12.2763 5.1228C11.6047 5.1228 11.0603 5.81925 11.0603 6.67836C11.0603 7.53747 11.6047 8.23391 12.2763 8.23391Z" fill="#664500"/>
</svg>
