<svg width="59" height="24" viewBox="0 0 59 24" fill="none" xmlns="http://www.w3.org/2000/svg">
<path d="M14.9966 1.88253L11.0587 2.71921L11.0405 15.6696C11.0405 18.0614 12.8412 19.6074 15.233 19.6074C16.5608 19.6074 17.5339 19.3619 18.0705 19.0709V15.997C17.5521 16.2061 15.0057 16.9519 15.0057 14.5692V8.82152H18.0705V5.38386H15.0057L14.9966 1.88253ZM23.0997 6.57522L22.8541 5.38386H19.3619V19.3164H23.3907V9.94013C24.3456 8.68511 25.9553 8.93066 26.4737 9.09435V5.38386C25.928 5.19288 24.0455 4.8382 23.0997 6.57522ZM31.4938 0L27.4377 0.863964V4.15612L31.4938 3.29216V0ZM4.07427 9.48541C4.07427 8.8579 4.60174 8.61235 5.44752 8.60326C6.67526 8.60326 8.23948 8.97613 9.46722 9.64002V5.83858C8.18941 5.34004 6.82818 5.09002 5.45661 5.10193C2.18265 5.10193 0 6.81167 0 9.6673C0 14.1417 6.13869 13.4142 6.13869 15.3422C6.13869 16.0879 5.49299 16.3335 4.59265 16.3335C3.25578 16.3335 1.52785 15.7787 0.172793 15.0421V18.6798C1.67336 19.3255 3.19212 19.5983 4.58355 19.5983C7.93937 19.5983 10.2493 18.1614 10.2493 15.2512C10.2493 10.4403 4.07427 11.3043 4.07427 9.48541ZM58.1948 12.5138C58.1948 8.3759 56.194 5.11103 52.3562 5.11103C48.5184 5.11103 46.1811 8.3759 46.1811 12.4865C46.1811 17.352 48.9367 19.5983 52.8655 19.5983C54.7935 19.5983 56.2395 19.1618 57.3399 18.5525V15.515C56.2395 16.0697 54.9754 16.4062 53.3748 16.4062C51.8014 16.4062 50.4191 15.8515 50.2372 13.9598H58.1402C58.1584 13.7507 58.1948 12.9049 58.1948 12.5138ZM50.2008 10.986C50.2008 9.16711 51.3194 8.40318 52.3289 8.40318C53.3202 8.40318 54.3751 9.16711 54.3751 10.986H50.2008ZM39.9333 5.11103C38.3509 5.11103 37.3323 5.85676 36.7685 6.37514L36.5593 5.37476H33.0034V24L37.0413 23.1451L37.0504 18.5798C37.6324 19.0072 38.4964 19.5983 39.906 19.5983C42.798 19.5983 45.4354 17.4884 45.4354 12.3592C45.4445 7.66654 42.7707 5.11103 39.9333 5.11103ZM38.9693 16.2516C38.0235 16.2516 37.4596 15.906 37.0686 15.4877L37.0413 9.48541C37.4596 9.0216 38.0417 8.68511 38.9693 8.68511C40.4426 8.68511 41.4612 10.3403 41.4612 12.4502C41.4703 14.6237 40.4699 16.2516 38.9693 16.2516ZM27.4468 19.3164H31.5028V5.38386H27.4468V19.3164Z" fill="#717186"/>
</svg>
